  0
SECTION
  2
BLOCKS
  0
ENDSEC
  0
SECTION
  2
ENTITIES
  0
LINE
  8
0
 10
214
 20
189
 11
0
 21
189
  0
LINE
  8
0
 10
0
 20
189
 11
0
 21
0
  0
LINE
  8
0
 10
0
 20
0
 11
214
 21
0
  0
LINE
  8
0
 10
214
 20
0
 11
214
 21
189
  0
LINE
  8
0
 10
71.3745
 20
141.072
 11
71.2497
 21
141.086
  0
LINE
  8
0
 10
71.2497
 20
141.086
 11
71.1265
 21
141.111
  0
LINE
  8
0
 10
71.1265
 20
141.111
 11
71.0056
 21
141.145
  0
LINE
  8
0
 10
71.0056
 20
141.145
 11
70.8877
 21
141.188
  0
LINE
  8
0
 10
70.8877
 20
141.188
 11
70.7736
 21
141.241
  0
LINE
  8
0
 10
70.7736
 20
141.241
 11
70.664
 21
141.302
  0
LINE
  8
0
 10
70.664
 20
141.302
 11
70.5595
 21
141.372
  0
LINE
  8
0
 10
70.5595
 20
141.372
 11
70.4609
 21
141.45
  0
LINE
  8
0
 10
70.4609
 20
141.45
 11
70.3686
 21
141.535
  0
LINE
  8
0
 10
70.3686
 20
141.535
 11
70.2833
 21
141.628
  0
LINE
  8
0
 10
70.2833
 20
141.628
 11
70.2056
 21
141.726
  0
LINE
  8
0
 10
70.2056
 20
141.726
 11
70.1358
 21
141.831
  0
LINE
  8
0
 10
70.1358
 20
141.831
 11
70.0744
 21
141.94
  0
LINE
  8
0
 10
70.0744
 20
141.94
 11
70.0218
 21
142.054
  0
LINE
  8
0
 10
70.0218
 20
142.054
 11
69.9783
 21
142.172
  0
LINE
  8
0
 10
69.9783
 20
142.172
 11
69.9442
 21
142.293
  0
LINE
  8
0
 10
69.9442
 20
142.293
 11
69.9197
 21
142.416
  0
LINE
  8
0
 10
69.9197
 20
142.416
 11
69.9049
 21
142.541
  0
LINE
  8
0
 10
69.9049
 20
142.541
 11
69.9
 21
142.667
  0
LINE
  8
0
 10
69.9
 20
142.667
 11
69.9049
 21
142.792
  0
LINE
  8
0
 10
69.9049
 20
142.792
 11
69.9197
 21
142.917
  0
LINE
  8
0
 10
69.9197
 20
142.917
 11
69.9442
 21
143.04
  0
LINE
  8
0
 10
69.9442
 20
143.04
 11
69.9783
 21
143.161
  0
LINE
  8
0
 10
69.9783
 20
143.161
 11
70.0218
 21
143.279
  0
LINE
  8
0
 10
70.0218
 20
143.279
 11
70.0744
 21
143.393
  0
LINE
  8
0
 10
70.0744
 20
143.393
 11
70.1358
 21
143.503
  0
LINE
  8
0
 10
70.1358
 20
143.503
 11
70.2056
 21
143.607
  0
LINE
  8
0
 10
70.2056
 20
143.607
 11
70.2833
 21
143.706
  0
LINE
  8
0
 10
70.2833
 20
143.706
 11
70.3686
 21
143.798
  0
LINE
  8
0
 10
70.3686
 20
143.798
 11
70.4609
 21
143.883
  0
LINE
  8
0
 10
70.4609
 20
143.883
 11
70.5595
 21
143.961
  0
LINE
  8
0
 10
70.5595
 20
143.961
 11
70.664
 21
144.031
  0
LINE
  8
0
 10
70.664
 20
144.031
 11
70.7736
 21
144.092
  0
LINE
  8
0
 10
70.7736
 20
144.092
 11
70.8877
 21
144.145
  0
LINE
  8
0
 10
70.8877
 20
144.145
 11
71.0056
 21
144.188
  0
LINE
  8
0
 10
71.0056
 20
144.188
 11
71.1265
 21
144.222
  0
LINE
  8
0
 10
71.1265
 20
144.222
 11
71.2497
 21
144.247
  0
LINE
  8
0
 10
71.2497
 20
144.247
 11
71.3745
 21
144.262
  0
LINE
  8
0
 10
71.3745
 20
144.262
 11
71.5
 21
144.267
  0
LINE
  8
0
 10
71.5
 20
144.267
 11
71.6255
 21
144.262
  0
LINE
  8
0
 10
71.6255
 20
144.262
 11
71.7503
 21
144.247
  0
LINE
  8
0
 10
71.7503
 20
144.247
 11
71.8735
 21
144.222
  0
LINE
  8
0
 10
71.8735
 20
144.222
 11
71.9944
 21
144.188
  0
LINE
  8
0
 10
71.9944
 20
144.188
 11
72.1123
 21
144.145
  0
LINE
  8
0
 10
72.1123
 20
144.145
 11
72.2264
 21
144.092
  0
LINE
  8
0
 10
72.2264
 20
144.092
 11
72.336
 21
144.031
  0
LINE
  8
0
 10
72.336
 20
144.031
 11
72.4404
 21
143.961
  0
LINE
  8
0
 10
72.4404
 20
143.961
 11
72.5391
 21
143.883
  0
LINE
  8
0
 10
72.5391
 20
143.883
 11
72.6314
 21
143.798
  0
LINE
  8
0
 10
72.6314
 20
143.798
 11
72.7166
 21
143.706
  0
LINE
  8
0
 10
72.7166
 20
143.706
 11
72.7944
 21
143.607
  0
LINE
  8
0
 10
72.7944
 20
143.607
 11
72.8642
 21
143.503
  0
LINE
  8
0
 10
72.8642
 20
143.503
 11
72.9256
 21
143.393
  0
LINE
  8
0
 10
72.9256
 20
143.393
 11
72.9782
 21
143.279
  0
LINE
  8
0
 10
72.9782
 20
143.279
 11
73.0217
 21
143.161
  0
LINE
  8
0
 10
73.0217
 20
143.161
 11
73.0558
 21
143.04
  0
LINE
  8
0
 10
73.0558
 20
143.04
 11
73.0803
 21
142.917
  0
LINE
  8
0
 10
73.0803
 20
142.917
 11
73.0951
 21
142.792
  0
LINE
  8
0
 10
73.0951
 20
142.792
 11
73.1
 21
142.667
  0
LINE
  8
0
 10
73.1
 20
142.667
 11
73.0951
 21
142.541
  0
LINE
  8
0
 10
73.0951
 20
142.541
 11
73.0803
 21
142.416
  0
LINE
  8
0
 10
73.0803
 20
142.416
 11
73.0558
 21
142.293
  0
LINE
  8
0
 10
73.0558
 20
142.293
 11
73.0217
 21
142.172
  0
LINE
  8
0
 10
73.0217
 20
142.172
 11
72.9782
 21
142.054
  0
LINE
  8
0
 10
72.9782
 20
142.054
 11
72.9256
 21
141.94
  0
LINE
  8
0
 10
72.9256
 20
141.94
 11
72.8642
 21
141.831
  0
LINE
  8
0
 10
72.8642
 20
141.831
 11
72.7944
 21
141.726
  0
LINE
  8
0
 10
72.7944
 20
141.726
 11
72.7166
 21
141.628
  0
LINE
  8
0
 10
72.7166
 20
141.628
 11
72.6314
 21
141.535
  0
LINE
  8
0
 10
72.6314
 20
141.535
 11
72.5391
 21
141.45
  0
LINE
  8
0
 10
72.5391
 20
141.45
 11
72.4404
 21
141.372
  0
LINE
  8
0
 10
72.4404
 20
141.372
 11
72.336
 21
141.302
  0
LINE
  8
0
 10
72.336
 20
141.302
 11
72.2264
 21
141.241
  0
LINE
  8
0
 10
72.2264
 20
141.241
 11
72.1123
 21
141.188
  0
LINE
  8
0
 10
72.1123
 20
141.188
 11
71.9944
 21
141.145
  0
LINE
  8
0
 10
71.9944
 20
141.145
 11
71.8735
 21
141.111
  0
LINE
  8
0
 10
71.8735
 20
141.111
 11
71.7503
 21
141.086
  0
LINE
  8
0
 10
71.7503
 20
141.086
 11
71.6255
 21
141.072
  0
LINE
  8
0
 10
71.6255
 20
141.072
 11
71.5
 21
141.067
  0
LINE
  8
0
 10
71.5
 20
141.067
 11
71.3745
 21
141.072
  0
LINE
  8
0
 10
142.374
 20
141.072
 11
142.25
 21
141.086
  0
LINE
  8
0
 10
142.25
 20
141.086
 11
142.126
 21
141.111
  0
LINE
  8
0
 10
142.126
 20
141.111
 11
142.006
 21
141.145
  0
LINE
  8
0
 10
142.006
 20
141.145
 11
141.888
 21
141.188
  0
LINE
  8
0
 10
141.888
 20
141.188
 11
141.774
 21
141.241
  0
LINE
  8
0
 10
141.774
 20
141.241
 11
141.664
 21
141.302
  0
LINE
  8
0
 10
141.664
 20
141.302
 11
141.56
 21
141.372
  0
LINE
  8
0
 10
141.56
 20
141.372
 11
141.461
 21
141.45
  0
LINE
  8
0
 10
141.461
 20
141.45
 11
141.369
 21
141.535
  0
LINE
  8
0
 10
141.369
 20
141.535
 11
141.283
 21
141.628
  0
LINE
  8
0
 10
141.283
 20
141.628
 11
141.206
 21
141.726
  0
LINE
  8
0
 10
141.206
 20
141.726
 11
141.136
 21
141.831
  0
LINE
  8
0
 10
141.136
 20
141.831
 11
141.074
 21
141.94
  0
LINE
  8
0
 10
141.074
 20
141.94
 11
141.022
 21
142.054
  0
LINE
  8
0
 10
141.022
 20
142.054
 11
140.978
 21
142.172
  0
LINE
  8
0
 10
140.978
 20
142.172
 11
140.944
 21
142.293
  0
LINE
  8
0
 10
140.944
 20
142.293
 11
140.92
 21
142.416
  0
LINE
  8
0
 10
140.92
 20
142.416
 11
140.905
 21
142.541
  0
LINE
  8
0
 10
140.905
 20
142.541
 11
140.9
 21
142.667
  0
LINE
  8
0
 10
140.9
 20
142.667
 11
140.905
 21
142.792
  0
LINE
  8
0
 10
140.905
 20
142.792
 11
140.92
 21
142.917
  0
LINE
  8
0
 10
140.92
 20
142.917
 11
140.944
 21
143.04
  0
LINE
  8
0
 10
140.944
 20
143.04
 11
140.978
 21
143.161
  0
LINE
  8
0
 10
140.978
 20
143.161
 11
141.022
 21
143.279
  0
LINE
  8
0
 10
141.022
 20
143.279
 11
141.074
 21
143.393
  0
LINE
  8
0
 10
141.074
 20
143.393
 11
141.136
 21
143.503
  0
LINE
  8
0
 10
141.136
 20
143.503
 11
141.206
 21
143.607
  0
LINE
  8
0
 10
141.206
 20
143.607
 11
141.283
 21
143.706
  0
LINE
  8
0
 10
141.283
 20
143.706
 11
141.369
 21
143.798
  0
LINE
  8
0
 10
141.369
 20
143.798
 11
141.461
 21
143.883
  0
LINE
  8
0
 10
141.461
 20
143.883
 11
141.56
 21
143.961
  0
LINE
  8
0
 10
141.56
 20
143.961
 11
141.664
 21
144.031
  0
LINE
  8
0
 10
141.664
 20
144.031
 11
141.774
 21
144.092
  0
LINE
  8
0
 10
141.774
 20
144.092
 11
141.888
 21
144.145
  0
LINE
  8
0
 10
141.888
 20
144.145
 11
142.006
 21
144.188
  0
LINE
  8
0
 10
142.006
 20
144.188
 11
142.126
 21
144.222
  0
LINE
  8
0
 10
142.126
 20
144.222
 11
142.25
 21
144.247
  0
LINE
  8
0
 10
142.25
 20
144.247
 11
142.374
 21
144.262
  0
LINE
  8
0
 10
142.374
 20
144.262
 11
142.5
 21
144.267
  0
LINE
  8
0
 10
142.5
 20
144.267
 11
142.626
 21
144.262
  0
LINE
  8
0
 10
142.626
 20
144.262
 11
142.75
 21
144.247
  0
LINE
  8
0
 10
142.75
 20
144.247
 11
142.874
 21
144.222
  0
LINE
  8
0
 10
142.874
 20
144.222
 11
142.994
 21
144.188
  0
LINE
  8
0
 10
142.994
 20
144.188
 11
143.112
 21
144.145
  0
LINE
  8
0
 10
143.112
 20
144.145
 11
143.226
 21
144.092
  0
LINE
  8
0
 10
143.226
 20
144.092
 11
143.336
 21
144.031
  0
LINE
  8
0
 10
143.336
 20
144.031
 11
143.44
 21
143.961
  0
LINE
  8
0
 10
143.44
 20
143.961
 11
143.539
 21
143.883
  0
LINE
  8
0
 10
143.539
 20
143.883
 11
143.631
 21
143.798
  0
LINE
  8
0
 10
143.631
 20
143.798
 11
143.717
 21
143.706
  0
LINE
  8
0
 10
143.717
 20
143.706
 11
143.794
 21
143.607
  0
LINE
  8
0
 10
143.794
 20
143.607
 11
143.864
 21
143.503
  0
LINE
  8
0
 10
143.864
 20
143.503
 11
143.926
 21
143.393
  0
LINE
  8
0
 10
143.926
 20
143.393
 11
143.978
 21
143.279
  0
LINE
  8
0
 10
143.978
 20
143.279
 11
144.022
 21
143.161
  0
LINE
  8
0
 10
144.022
 20
143.161
 11
144.056
 21
143.04
  0
LINE
  8
0
 10
144.056
 20
143.04
 11
144.08
 21
142.917
  0
LINE
  8
0
 10
144.08
 20
142.917
 11
144.095
 21
142.792
  0
LINE
  8
0
 10
144.095
 20
142.792
 11
144.1
 21
142.667
  0
LINE
  8
0
 10
144.1
 20
142.667
 11
144.095
 21
142.541
  0
LINE
  8
0
 10
144.095
 20
142.541
 11
144.08
 21
142.416
  0
LINE
  8
0
 10
144.08
 20
142.416
 11
144.056
 21
142.293
  0
LINE
  8
0
 10
144.056
 20
142.293
 11
144.022
 21
142.172
  0
LINE
  8
0
 10
144.022
 20
142.172
 11
143.978
 21
142.054
  0
LINE
  8
0
 10
143.978
 20
142.054
 11
143.926
 21
141.94
  0
LINE
  8
0
 10
143.926
 20
141.94
 11
143.864
 21
141.831
  0
LINE
  8
0
 10
143.864
 20
141.831
 11
143.794
 21
141.726
  0
LINE
  8
0
 10
143.794
 20
141.726
 11
143.717
 21
141.628
  0
LINE
  8
0
 10
143.717
 20
141.628
 11
143.631
 21
141.535
  0
LINE
  8
0
 10
143.631
 20
141.535
 11
143.539
 21
141.45
  0
LINE
  8
0
 10
143.539
 20
141.45
 11
143.44
 21
141.372
  0
LINE
  8
0
 10
143.44
 20
141.372
 11
143.336
 21
141.302
  0
LINE
  8
0
 10
143.336
 20
141.302
 11
143.226
 21
141.241
  0
LINE
  8
0
 10
143.226
 20
141.241
 11
143.112
 21
141.188
  0
LINE
  8
0
 10
143.112
 20
141.188
 11
142.994
 21
141.145
  0
LINE
  8
0
 10
142.994
 20
141.145
 11
142.874
 21
141.111
  0
LINE
  8
0
 10
142.874
 20
141.111
 11
142.75
 21
141.086
  0
LINE
  8
0
 10
142.75
 20
141.086
 11
142.626
 21
141.072
  0
LINE
  8
0
 10
142.626
 20
141.072
 11
142.5
 21
141.067
  0
LINE
  8
0
 10
142.5
 20
141.067
 11
142.374
 21
141.072
  0
ENDSEC
  0
SECTION
  2
OBJECTS
  0
DICTIONARY
  0
ENDSEC
  0
EOF
