  0
SECTION
  2
BLOCKS
  0
ENDSEC
  0
SECTION
  2
ENTITIES
  0
LINE
  8
0
 10
215
 20
102
 11
0
 21
102
  0
LINE
  8
0
 10
0
 20
102
 11
0
 21
0
  0
LINE
  8
0
 10
0
 20
0
 11
215
 21
0
  0
LINE
  8
0
 10
215
 20
0
 11
215
 21
102
  0
LINE
  8
0
 10
5.87445
 20
94.4049
 11
5.74969
 21
94.4197
  0
LINE
  8
0
 10
5.74969
 20
94.4197
 11
5.62648
 21
94.4442
  0
LINE
  8
0
 10
5.62648
 20
94.4442
 11
5.50557
 21
94.4783
  0
LINE
  8
0
 10
5.50557
 20
94.4783
 11
5.3877
 21
94.5218
  0
LINE
  8
0
 10
5.3877
 20
94.5218
 11
5.27361
 21
94.5744
  0
LINE
  8
0
 10
5.27361
 20
94.5744
 11
5.164
 21
94.6358
  0
LINE
  8
0
 10
5.164
 20
94.6358
 11
5.05954
 21
94.7056
  0
LINE
  8
0
 10
5.05954
 20
94.7056
 11
4.96088
 21
94.7833
  0
LINE
  8
0
 10
4.96088
 20
94.7833
 11
4.86862
 21
94.8686
  0
LINE
  8
0
 10
4.86862
 20
94.8686
 11
4.78334
 21
94.9609
  0
LINE
  8
0
 10
4.78334
 20
94.9609
 11
4.70557
 21
95.0595
  0
LINE
  8
0
 10
4.70557
 20
95.0595
 11
4.63577
 21
95.164
  0
LINE
  8
0
 10
4.63577
 20
95.164
 11
4.57439
 21
95.2736
  0
LINE
  8
0
 10
4.57439
 20
95.2736
 11
4.52179
 21
95.3877
  0
LINE
  8
0
 10
4.52179
 20
95.3877
 11
4.4783
 21
95.5056
  0
LINE
  8
0
 10
4.4783
 20
95.5056
 11
4.4442
 21
95.6265
  0
LINE
  8
0
 10
4.4442
 20
95.6265
 11
4.41969
 21
95.7497
  0
LINE
  8
0
 10
4.41969
 20
95.7497
 11
4.40492
 21
95.8745
  0
LINE
  8
0
 10
4.40492
 20
95.8745
 11
4.39999
 21
96
  0
LINE
  8
0
 10
4.39999
 20
96
 11
4.40492
 21
96.1255
  0
LINE
  8
0
 10
4.40492
 20
96.1255
 11
4.41969
 21
96.2503
  0
LINE
  8
0
 10
4.41969
 20
96.2503
 11
4.4442
 21
96.3735
  0
LINE
  8
0
 10
4.4442
 20
96.3735
 11
4.4783
 21
96.4944
  0
LINE
  8
0
 10
4.4783
 20
96.4944
 11
4.52179
 21
96.6123
  0
LINE
  8
0
 10
4.52179
 20
96.6123
 11
4.57439
 21
96.7264
  0
LINE
  8
0
 10
4.57439
 20
96.7264
 11
4.63577
 21
96.836
  0
LINE
  8
0
 10
4.63577
 20
96.836
 11
4.70557
 21
96.9404
  0
LINE
  8
0
 10
4.70557
 20
96.9404
 11
4.78334
 21
97.0391
  0
LINE
  8
0
 10
4.78334
 20
97.0391
 11
4.86862
 21
97.1314
  0
LINE
  8
0
 10
4.86862
 20
97.1314
 11
4.96088
 21
97.2166
  0
LINE
  8
0
 10
4.96088
 20
97.2166
 11
5.05954
 21
97.2944
  0
LINE
  8
0
 10
5.05954
 20
97.2944
 11
5.164
 21
97.3642
  0
LINE
  8
0
 10
5.164
 20
97.3642
 11
5.27361
 21
97.4256
  0
LINE
  8
0
 10
5.27361
 20
97.4256
 11
5.3877
 21
97.4782
  0
LINE
  8
0
 10
5.3877
 20
97.4782
 11
5.50557
 21
97.5217
  0
LINE
  8
0
 10
5.50557
 20
97.5217
 11
5.62648
 21
97.5558
  0
LINE
  8
0
 10
5.62648
 20
97.5558
 11
5.74969
 21
97.5803
  0
LINE
  8
0
 10
5.74969
 20
97.5803
 11
5.87445
 21
97.5951
  0
LINE
  8
0
 10
5.87445
 20
97.5951
 11
6
 21
97.6
  0
LINE
  8
0
 10
6
 20
97.6
 11
6.12553
 21
97.5951
  0
LINE
  8
0
 10
6.12553
 20
97.5951
 11
6.25029
 21
97.5803
  0
LINE
  8
0
 10
6.25029
 20
97.5803
 11
6.3735
 21
97.5558
  0
LINE
  8
0
 10
6.3735
 20
97.5558
 11
6.49442
 21
97.5217
  0
LINE
  8
0
 10
6.49442
 20
97.5217
 11
6.61229
 21
97.4782
  0
LINE
  8
0
 10
6.61229
 20
97.4782
 11
6.72638
 21
97.4256
  0
LINE
  8
0
 10
6.72638
 20
97.4256
 11
6.83598
 21
97.3642
  0
LINE
  8
0
 10
6.83598
 20
97.3642
 11
6.94044
 21
97.2944
  0
LINE
  8
0
 10
6.94044
 20
97.2944
 11
7.03911
 21
97.2166
  0
LINE
  8
0
 10
7.03911
 20
97.2166
 11
7.13136
 21
97.1314
  0
LINE
  8
0
 10
7.13136
 20
97.1314
 11
7.21664
 21
97.0391
  0
LINE
  8
0
 10
7.21664
 20
97.0391
 11
7.29442
 21
96.9404
  0
LINE
  8
0
 10
7.29442
 20
96.9404
 11
7.36421
 21
96.836
  0
LINE
  8
0
 10
7.36421
 20
96.836
 11
7.4256
 21
96.7264
  0
LINE
  8
0
 10
7.4256
 20
96.7264
 11
7.4782
 21
96.6123
  0
LINE
  8
0
 10
7.4782
 20
96.6123
 11
7.52168
 21
96.4944
  0
LINE
  8
0
 10
7.52168
 20
96.4944
 11
7.55579
 21
96.3735
  0
LINE
  8
0
 10
7.55579
 20
96.3735
 11
7.58029
 21
96.2503
  0
LINE
  8
0
 10
7.58029
 20
96.2503
 11
7.59506
 21
96.1255
  0
LINE
  8
0
 10
7.59506
 20
96.1255
 11
7.59999
 21
96
  0
LINE
  8
0
 10
7.59999
 20
96
 11
7.59506
 21
95.8745
  0
LINE
  8
0
 10
7.59506
 20
95.8745
 11
7.58029
 21
95.7497
  0
LINE
  8
0
 10
7.58029
 20
95.7497
 11
7.55579
 21
95.6265
  0
LINE
  8
0
 10
7.55579
 20
95.6265
 11
7.52168
 21
95.5056
  0
LINE
  8
0
 10
7.52168
 20
95.5056
 11
7.4782
 21
95.3877
  0
LINE
  8
0
 10
7.4782
 20
95.3877
 11
7.4256
 21
95.2736
  0
LINE
  8
0
 10
7.4256
 20
95.2736
 11
7.36421
 21
95.164
  0
LINE
  8
0
 10
7.36421
 20
95.164
 11
7.29442
 21
95.0595
  0
LINE
  8
0
 10
7.29442
 20
95.0595
 11
7.21664
 21
94.9609
  0
LINE
  8
0
 10
7.21664
 20
94.9609
 11
7.13136
 21
94.8686
  0
LINE
  8
0
 10
7.13136
 20
94.8686
 11
7.03911
 21
94.7833
  0
LINE
  8
0
 10
7.03911
 20
94.7833
 11
6.94044
 21
94.7056
  0
LINE
  8
0
 10
6.94044
 20
94.7056
 11
6.83598
 21
94.6358
  0
LINE
  8
0
 10
6.83598
 20
94.6358
 11
6.72638
 21
94.5744
  0
LINE
  8
0
 10
6.72638
 20
94.5744
 11
6.61229
 21
94.5218
  0
LINE
  8
0
 10
6.61229
 20
94.5218
 11
6.49442
 21
94.4783
  0
LINE
  8
0
 10
6.49442
 20
94.4783
 11
6.3735
 21
94.4442
  0
LINE
  8
0
 10
6.3735
 20
94.4442
 11
6.25029
 21
94.4197
  0
LINE
  8
0
 10
6.25029
 20
94.4197
 11
6.12553
 21
94.4049
  0
LINE
  8
0
 10
6.12553
 20
94.4049
 11
6
 21
94.4
  0
LINE
  8
0
 10
6
 20
94.4
 11
5.87445
 21
94.4049
  0
LINE
  8
0
 10
208.874
 20
94.4049
 11
208.75
 21
94.4197
  0
LINE
  8
0
 10
208.75
 20
94.4197
 11
208.626
 21
94.4442
  0
LINE
  8
0
 10
208.626
 20
94.4442
 11
208.506
 21
94.4783
  0
LINE
  8
0
 10
208.506
 20
94.4783
 11
208.388
 21
94.5218
  0
LINE
  8
0
 10
208.388
 20
94.5218
 11
208.274
 21
94.5744
  0
LINE
  8
0
 10
208.274
 20
94.5744
 11
208.164
 21
94.6358
  0
LINE
  8
0
 10
208.164
 20
94.6358
 11
208.06
 21
94.7056
  0
LINE
  8
0
 10
208.06
 20
94.7056
 11
207.961
 21
94.7833
  0
LINE
  8
0
 10
207.961
 20
94.7833
 11
207.869
 21
94.8686
  0
LINE
  8
0
 10
207.869
 20
94.8686
 11
207.783
 21
94.9609
  0
LINE
  8
0
 10
207.783
 20
94.9609
 11
207.706
 21
95.0595
  0
LINE
  8
0
 10
207.706
 20
95.0595
 11
207.636
 21
95.164
  0
LINE
  8
0
 10
207.636
 20
95.164
 11
207.574
 21
95.2736
  0
LINE
  8
0
 10
207.574
 20
95.2736
 11
207.522
 21
95.3877
  0
LINE
  8
0
 10
207.522
 20
95.3877
 11
207.478
 21
95.5056
  0
LINE
  8
0
 10
207.478
 20
95.5056
 11
207.444
 21
95.6265
  0
LINE
  8
0
 10
207.444
 20
95.6265
 11
207.42
 21
95.7497
  0
LINE
  8
0
 10
207.42
 20
95.7497
 11
207.405
 21
95.8745
  0
LINE
  8
0
 10
207.405
 20
95.8745
 11
207.4
 21
96
  0
LINE
  8
0
 10
207.4
 20
96
 11
207.405
 21
96.1255
  0
LINE
  8
0
 10
207.405
 20
96.1255
 11
207.42
 21
96.2503
  0
LINE
  8
0
 10
207.42
 20
96.2503
 11
207.444
 21
96.3735
  0
LINE
  8
0
 10
207.444
 20
96.3735
 11
207.478
 21
96.4944
  0
LINE
  8
0
 10
207.478
 20
96.4944
 11
207.522
 21
96.6123
  0
LINE
  8
0
 10
207.522
 20
96.6123
 11
207.574
 21
96.7264
  0
LINE
  8
0
 10
207.574
 20
96.7264
 11
207.636
 21
96.836
  0
LINE
  8
0
 10
207.636
 20
96.836
 11
207.706
 21
96.9404
  0
LINE
  8
0
 10
207.706
 20
96.9404
 11
207.783
 21
97.0391
  0
LINE
  8
0
 10
207.783
 20
97.0391
 11
207.869
 21
97.1314
  0
LINE
  8
0
 10
207.869
 20
97.1314
 11
207.961
 21
97.2166
  0
LINE
  8
0
 10
207.961
 20
97.2166
 11
208.06
 21
97.2944
  0
LINE
  8
0
 10
208.06
 20
97.2944
 11
208.164
 21
97.3642
  0
LINE
  8
0
 10
208.164
 20
97.3642
 11
208.274
 21
97.4256
  0
LINE
  8
0
 10
208.274
 20
97.4256
 11
208.388
 21
97.4782
  0
LINE
  8
0
 10
208.388
 20
97.4782
 11
208.506
 21
97.5217
  0
LINE
  8
0
 10
208.506
 20
97.5217
 11
208.626
 21
97.5558
  0
LINE
  8
0
 10
208.626
 20
97.5558
 11
208.75
 21
97.5803
  0
LINE
  8
0
 10
208.75
 20
97.5803
 11
208.874
 21
97.5951
  0
LINE
  8
0
 10
208.874
 20
97.5951
 11
209
 21
97.6
  0
LINE
  8
0
 10
209
 20
97.6
 11
209.126
 21
97.5951
  0
LINE
  8
0
 10
209.126
 20
97.5951
 11
209.25
 21
97.5803
  0
LINE
  8
0
 10
209.25
 20
97.5803
 11
209.374
 21
97.5558
  0
LINE
  8
0
 10
209.374
 20
97.5558
 11
209.494
 21
97.5217
  0
LINE
  8
0
 10
209.494
 20
97.5217
 11
209.612
 21
97.4782
  0
LINE
  8
0
 10
209.612
 20
97.4782
 11
209.726
 21
97.4256
  0
LINE
  8
0
 10
209.726
 20
97.4256
 11
209.836
 21
97.3642
  0
LINE
  8
0
 10
209.836
 20
97.3642
 11
209.94
 21
97.2944
  0
LINE
  8
0
 10
209.94
 20
97.2944
 11
210.039
 21
97.2166
  0
LINE
  8
0
 10
210.039
 20
97.2166
 11
210.131
 21
97.1314
  0
LINE
  8
0
 10
210.131
 20
97.1314
 11
210.217
 21
97.0391
  0
LINE
  8
0
 10
210.217
 20
97.0391
 11
210.294
 21
96.9404
  0
LINE
  8
0
 10
210.294
 20
96.9404
 11
210.364
 21
96.836
  0
LINE
  8
0
 10
210.364
 20
96.836
 11
210.426
 21
96.7264
  0
LINE
  8
0
 10
210.426
 20
96.7264
 11
210.478
 21
96.6123
  0
LINE
  8
0
 10
210.478
 20
96.6123
 11
210.522
 21
96.4944
  0
LINE
  8
0
 10
210.522
 20
96.4944
 11
210.556
 21
96.3735
  0
LINE
  8
0
 10
210.556
 20
96.3735
 11
210.58
 21
96.2503
  0
LINE
  8
0
 10
210.58
 20
96.2503
 11
210.595
 21
96.1255
  0
LINE
  8
0
 10
210.595
 20
96.1255
 11
210.6
 21
96
  0
LINE
  8
0
 10
210.6
 20
96
 11
210.595
 21
95.8745
  0
LINE
  8
0
 10
210.595
 20
95.8745
 11
210.58
 21
95.7497
  0
LINE
  8
0
 10
210.58
 20
95.7497
 11
210.556
 21
95.6265
  0
LINE
  8
0
 10
210.556
 20
95.6265
 11
210.522
 21
95.5056
  0
LINE
  8
0
 10
210.522
 20
95.5056
 11
210.478
 21
95.3877
  0
LINE
  8
0
 10
210.478
 20
95.3877
 11
210.426
 21
95.2736
  0
LINE
  8
0
 10
210.426
 20
95.2736
 11
210.364
 21
95.164
  0
LINE
  8
0
 10
210.364
 20
95.164
 11
210.294
 21
95.0595
  0
LINE
  8
0
 10
210.294
 20
95.0595
 11
210.217
 21
94.9609
  0
LINE
  8
0
 10
210.217
 20
94.9609
 11
210.131
 21
94.8686
  0
LINE
  8
0
 10
210.131
 20
94.8686
 11
210.039
 21
94.7833
  0
LINE
  8
0
 10
210.039
 20
94.7833
 11
209.94
 21
94.7056
  0
LINE
  8
0
 10
209.94
 20
94.7056
 11
209.836
 21
94.6358
  0
LINE
  8
0
 10
209.836
 20
94.6358
 11
209.726
 21
94.5744
  0
LINE
  8
0
 10
209.726
 20
94.5744
 11
209.612
 21
94.5218
  0
LINE
  8
0
 10
209.612
 20
94.5218
 11
209.494
 21
94.4783
  0
LINE
  8
0
 10
209.494
 20
94.4783
 11
209.374
 21
94.4442
  0
LINE
  8
0
 10
209.374
 20
94.4442
 11
209.25
 21
94.4197
  0
LINE
  8
0
 10
209.25
 20
94.4197
 11
209.126
 21
94.4049
  0
LINE
  8
0
 10
209.126
 20
94.4049
 11
209
 21
94.4
  0
LINE
  8
0
 10
209
 20
94.4
 11
208.874
 21
94.4049
  0
LINE
  8
0
 10
107.374
 20
94.4049
 11
107.25
 21
94.4197
  0
LINE
  8
0
 10
107.25
 20
94.4197
 11
107.126
 21
94.4442
  0
LINE
  8
0
 10
107.126
 20
94.4442
 11
107.006
 21
94.4783
  0
LINE
  8
0
 10
107.006
 20
94.4783
 11
106.888
 21
94.5218
  0
LINE
  8
0
 10
106.888
 20
94.5218
 11
106.774
 21
94.5744
  0
LINE
  8
0
 10
106.774
 20
94.5744
 11
106.664
 21
94.6358
  0
LINE
  8
0
 10
106.664
 20
94.6358
 11
106.56
 21
94.7056
  0
LINE
  8
0
 10
106.56
 20
94.7056
 11
106.461
 21
94.7833
  0
LINE
  8
0
 10
106.461
 20
94.7833
 11
106.369
 21
94.8686
  0
LINE
  8
0
 10
106.369
 20
94.8686
 11
106.283
 21
94.9609
  0
LINE
  8
0
 10
106.283
 20
94.9609
 11
106.206
 21
95.0595
  0
LINE
  8
0
 10
106.206
 20
95.0595
 11
106.136
 21
95.164
  0
LINE
  8
0
 10
106.136
 20
95.164
 11
106.074
 21
95.2736
  0
LINE
  8
0
 10
106.074
 20
95.2736
 11
106.022
 21
95.3877
  0
LINE
  8
0
 10
106.022
 20
95.3877
 11
105.978
 21
95.5056
  0
LINE
  8
0
 10
105.978
 20
95.5056
 11
105.944
 21
95.6265
  0
LINE
  8
0
 10
105.944
 20
95.6265
 11
105.92
 21
95.7497
  0
LINE
  8
0
 10
105.92
 20
95.7497
 11
105.905
 21
95.8745
  0
LINE
  8
0
 10
105.905
 20
95.8745
 11
105.9
 21
96
  0
LINE
  8
0
 10
105.9
 20
96
 11
105.905
 21
96.1255
  0
LINE
  8
0
 10
105.905
 20
96.1255
 11
105.92
 21
96.2503
  0
LINE
  8
0
 10
105.92
 20
96.2503
 11
105.944
 21
96.3735
  0
LINE
  8
0
 10
105.944
 20
96.3735
 11
105.978
 21
96.4944
  0
LINE
  8
0
 10
105.978
 20
96.4944
 11
106.022
 21
96.6123
  0
LINE
  8
0
 10
106.022
 20
96.6123
 11
106.074
 21
96.7264
  0
LINE
  8
0
 10
106.074
 20
96.7264
 11
106.136
 21
96.836
  0
LINE
  8
0
 10
106.136
 20
96.836
 11
106.206
 21
96.9404
  0
LINE
  8
0
 10
106.206
 20
96.9404
 11
106.283
 21
97.0391
  0
LINE
  8
0
 10
106.283
 20
97.0391
 11
106.369
 21
97.1314
  0
LINE
  8
0
 10
106.369
 20
97.1314
 11
106.461
 21
97.2166
  0
LINE
  8
0
 10
106.461
 20
97.2166
 11
106.56
 21
97.2944
  0
LINE
  8
0
 10
106.56
 20
97.2944
 11
106.664
 21
97.3642
  0
LINE
  8
0
 10
106.664
 20
97.3642
 11
106.774
 21
97.4256
  0
LINE
  8
0
 10
106.774
 20
97.4256
 11
106.888
 21
97.4782
  0
LINE
  8
0
 10
106.888
 20
97.4782
 11
107.006
 21
97.5217
  0
LINE
  8
0
 10
107.006
 20
97.5217
 11
107.126
 21
97.5558
  0
LINE
  8
0
 10
107.126
 20
97.5558
 11
107.25
 21
97.5803
  0
LINE
  8
0
 10
107.25
 20
97.5803
 11
107.374
 21
97.5951
  0
LINE
  8
0
 10
107.374
 20
97.5951
 11
107.5
 21
97.6
  0
LINE
  8
0
 10
107.5
 20
97.6
 11
107.626
 21
97.5951
  0
LINE
  8
0
 10
107.626
 20
97.5951
 11
107.75
 21
97.5803
  0
LINE
  8
0
 10
107.75
 20
97.5803
 11
107.874
 21
97.5558
  0
LINE
  8
0
 10
107.874
 20
97.5558
 11
107.994
 21
97.5217
  0
LINE
  8
0
 10
107.994
 20
97.5217
 11
108.112
 21
97.4782
  0
LINE
  8
0
 10
108.112
 20
97.4782
 11
108.226
 21
97.4256
  0
LINE
  8
0
 10
108.226
 20
97.4256
 11
108.336
 21
97.3642
  0
LINE
  8
0
 10
108.336
 20
97.3642
 11
108.44
 21
97.2944
  0
LINE
  8
0
 10
108.44
 20
97.2944
 11
108.539
 21
97.2166
  0
LINE
  8
0
 10
108.539
 20
97.2166
 11
108.631
 21
97.1314
  0
LINE
  8
0
 10
108.631
 20
97.1314
 11
108.717
 21
97.0391
  0
LINE
  8
0
 10
108.717
 20
97.0391
 11
108.794
 21
96.9404
  0
LINE
  8
0
 10
108.794
 20
96.9404
 11
108.864
 21
96.836
  0
LINE
  8
0
 10
108.864
 20
96.836
 11
108.926
 21
96.7264
  0
LINE
  8
0
 10
108.926
 20
96.7264
 11
108.978
 21
96.6123
  0
LINE
  8
0
 10
108.978
 20
96.6123
 11
109.022
 21
96.4944
  0
LINE
  8
0
 10
109.022
 20
96.4944
 11
109.056
 21
96.3735
  0
LINE
  8
0
 10
109.056
 20
96.3735
 11
109.08
 21
96.2503
  0
LINE
  8
0
 10
109.08
 20
96.2503
 11
109.095
 21
96.1255
  0
LINE
  8
0
 10
109.095
 20
96.1255
 11
109.1
 21
96
  0
LINE
  8
0
 10
109.1
 20
96
 11
109.095
 21
95.8745
  0
LINE
  8
0
 10
109.095
 20
95.8745
 11
109.08
 21
95.7497
  0
LINE
  8
0
 10
109.08
 20
95.7497
 11
109.056
 21
95.6265
  0
LINE
  8
0
 10
109.056
 20
95.6265
 11
109.022
 21
95.5056
  0
LINE
  8
0
 10
109.022
 20
95.5056
 11
108.978
 21
95.3877
  0
LINE
  8
0
 10
108.978
 20
95.3877
 11
108.926
 21
95.2736
  0
LINE
  8
0
 10
108.926
 20
95.2736
 11
108.864
 21
95.164
  0
LINE
  8
0
 10
108.864
 20
95.164
 11
108.794
 21
95.0595
  0
LINE
  8
0
 10
108.794
 20
95.0595
 11
108.717
 21
94.9609
  0
LINE
  8
0
 10
108.717
 20
94.9609
 11
108.631
 21
94.8686
  0
LINE
  8
0
 10
108.631
 20
94.8686
 11
108.539
 21
94.7833
  0
LINE
  8
0
 10
108.539
 20
94.7833
 11
108.44
 21
94.7056
  0
LINE
  8
0
 10
108.44
 20
94.7056
 11
108.336
 21
94.6358
  0
LINE
  8
0
 10
108.336
 20
94.6358
 11
108.226
 21
94.5744
  0
LINE
  8
0
 10
108.226
 20
94.5744
 11
108.112
 21
94.5218
  0
LINE
  8
0
 10
108.112
 20
94.5218
 11
107.994
 21
94.4783
  0
LINE
  8
0
 10
107.994
 20
94.4783
 11
107.874
 21
94.4442
  0
LINE
  8
0
 10
107.874
 20
94.4442
 11
107.75
 21
94.4197
  0
LINE
  8
0
 10
107.75
 20
94.4197
 11
107.626
 21
94.4049
  0
LINE
  8
0
 10
107.626
 20
94.4049
 11
107.5
 21
94.4
  0
LINE
  8
0
 10
107.5
 20
94.4
 11
107.374
 21
94.4049
  0
LINE
  8
0
 10
178.835
 20
71.4065
 11
178.671
 21
71.4258
  0
LINE
  8
0
 10
178.671
 20
71.4258
 11
178.51
 21
71.458
  0
LINE
  8
0
 10
178.51
 20
71.458
 11
178.351
 21
71.5028
  0
LINE
  8
0
 10
178.351
 20
71.5028
 11
178.196
 21
71.5598
  0
LINE
  8
0
 10
178.196
 20
71.5598
 11
178.047
 21
71.6289
  0
LINE
  8
0
 10
178.047
 20
71.6289
 11
177.903
 21
71.7094
  0
LINE
  8
0
 10
177.903
 20
71.7094
 11
177.766
 21
71.8011
  0
LINE
  8
0
 10
177.766
 20
71.8011
 11
177.636
 21
71.9031
  0
LINE
  8
0
 10
177.636
 20
71.9031
 11
177.515
 21
72.0151
  0
LINE
  8
0
 10
177.515
 20
72.0151
 11
177.403
 21
72.1362
  0
LINE
  8
0
 10
177.403
 20
72.1362
 11
177.301
 21
72.2656
  0
LINE
  8
0
 10
177.301
 20
72.2656
 11
177.209
 21
72.4027
  0
LINE
  8
0
 10
177.209
 20
72.4027
 11
177.129
 21
72.5466
  0
LINE
  8
0
 10
177.129
 20
72.5466
 11
177.06
 21
72.6964
  0
LINE
  8
0
 10
177.06
 20
72.6964
 11
177.003
 21
72.8511
  0
LINE
  8
0
 10
177.003
 20
72.8511
 11
176.958
 21
73.0098
  0
LINE
  8
0
 10
176.958
 20
73.0098
 11
176.926
 21
73.1715
  0
LINE
  8
0
 10
176.926
 20
73.1715
 11
176.906
 21
73.3352
  0
LINE
  8
0
 10
176.906
 20
73.3352
 11
176.9
 21
73.5
  0
LINE
  8
0
 10
176.9
 20
73.5
 11
176.906
 21
73.6647
  0
LINE
  8
0
 10
176.906
 20
73.6647
 11
176.926
 21
73.8285
  0
LINE
  8
0
 10
176.926
 20
73.8285
 11
176.958
 21
73.9902
  0
LINE
  8
0
 10
176.958
 20
73.9902
 11
177.003
 21
74.1489
  0
LINE
  8
0
 10
177.003
 20
74.1489
 11
177.06
 21
74.3036
  0
LINE
  8
0
 10
177.06
 20
74.3036
 11
177.129
 21
74.4534
  0
LINE
  8
0
 10
177.129
 20
74.4534
 11
177.209
 21
74.5972
  0
LINE
  8
0
 10
177.209
 20
74.5972
 11
177.301
 21
74.7343
  0
LINE
  8
0
 10
177.301
 20
74.7343
 11
177.403
 21
74.8638
  0
LINE
  8
0
 10
177.403
 20
74.8638
 11
177.515
 21
74.9849
  0
LINE
  8
0
 10
177.515
 20
74.9849
 11
177.636
 21
75.0968
  0
LINE
  8
0
 10
177.636
 20
75.0968
 11
177.766
 21
75.1989
  0
LINE
  8
0
 10
177.766
 20
75.1989
 11
177.903
 21
75.2905
  0
LINE
  8
0
 10
177.903
 20
75.2905
 11
178.047
 21
75.3711
  0
LINE
  8
0
 10
178.047
 20
75.3711
 11
178.196
 21
75.4401
  0
LINE
  8
0
 10
178.196
 20
75.4401
 11
178.351
 21
75.4972
  0
LINE
  8
0
 10
178.351
 20
75.4972
 11
178.51
 21
75.542
  0
LINE
  8
0
 10
178.51
 20
75.542
 11
178.671
 21
75.5741
  0
LINE
  8
0
 10
178.671
 20
75.5741
 11
178.835
 21
75.5935
  0
LINE
  8
0
 10
178.835
 20
75.5935
 11
179
 21
75.6
  0
LINE
  8
0
 10
179
 20
75.6
 11
179.165
 21
75.5935
  0
LINE
  8
0
 10
179.165
 20
75.5935
 11
179.329
 21
75.5741
  0
LINE
  8
0
 10
179.329
 20
75.5741
 11
179.49
 21
75.542
  0
LINE
  8
0
 10
179.49
 20
75.542
 11
179.649
 21
75.4972
  0
LINE
  8
0
 10
179.649
 20
75.4972
 11
179.804
 21
75.4401
  0
LINE
  8
0
 10
179.804
 20
75.4401
 11
179.953
 21
75.3711
  0
LINE
  8
0
 10
179.953
 20
75.3711
 11
180.097
 21
75.2905
  0
LINE
  8
0
 10
180.097
 20
75.2905
 11
180.234
 21
75.1989
  0
LINE
  8
0
 10
180.234
 20
75.1989
 11
180.364
 21
75.0968
  0
LINE
  8
0
 10
180.364
 20
75.0968
 11
180.485
 21
74.9849
  0
LINE
  8
0
 10
180.485
 20
74.9849
 11
180.597
 21
74.8638
  0
LINE
  8
0
 10
180.597
 20
74.8638
 11
180.699
 21
74.7343
  0
LINE
  8
0
 10
180.699
 20
74.7343
 11
180.791
 21
74.5972
  0
LINE
  8
0
 10
180.791
 20
74.5972
 11
180.871
 21
74.4534
  0
LINE
  8
0
 10
180.871
 20
74.4534
 11
180.94
 21
74.3036
  0
LINE
  8
0
 10
180.94
 20
74.3036
 11
180.997
 21
74.1489
  0
LINE
  8
0
 10
180.997
 20
74.1489
 11
181.042
 21
73.9902
  0
LINE
  8
0
 10
181.042
 20
73.9902
 11
181.074
 21
73.8285
  0
LINE
  8
0
 10
181.074
 20
73.8285
 11
181.094
 21
73.6647
  0
LINE
  8
0
 10
181.094
 20
73.6647
 11
181.1
 21
73.5
  0
LINE
  8
0
 10
181.1
 20
73.5
 11
181.094
 21
73.3352
  0
LINE
  8
0
 10
181.094
 20
73.3352
 11
181.074
 21
73.1715
  0
LINE
  8
0
 10
181.074
 20
73.1715
 11
181.042
 21
73.0098
  0
LINE
  8
0
 10
181.042
 20
73.0098
 11
180.997
 21
72.8511
  0
LINE
  8
0
 10
180.997
 20
72.8511
 11
180.94
 21
72.6964
  0
LINE
  8
0
 10
180.94
 20
72.6964
 11
180.871
 21
72.5466
  0
LINE
  8
0
 10
180.871
 20
72.5466
 11
180.791
 21
72.4027
  0
LINE
  8
0
 10
180.791
 20
72.4027
 11
180.699
 21
72.2656
  0
LINE
  8
0
 10
180.699
 20
72.2656
 11
180.597
 21
72.1362
  0
LINE
  8
0
 10
180.597
 20
72.1362
 11
180.485
 21
72.0151
  0
LINE
  8
0
 10
180.485
 20
72.0151
 11
180.364
 21
71.9031
  0
LINE
  8
0
 10
180.364
 20
71.9031
 11
180.234
 21
71.8011
  0
LINE
  8
0
 10
180.234
 20
71.8011
 11
180.097
 21
71.7094
  0
LINE
  8
0
 10
180.097
 20
71.7094
 11
179.953
 21
71.6289
  0
LINE
  8
0
 10
179.953
 20
71.6289
 11
179.804
 21
71.5598
  0
LINE
  8
0
 10
179.804
 20
71.5598
 11
179.649
 21
71.5028
  0
LINE
  8
0
 10
179.649
 20
71.5028
 11
179.49
 21
71.458
  0
LINE
  8
0
 10
179.49
 20
71.458
 11
179.329
 21
71.4258
  0
LINE
  8
0
 10
179.329
 20
71.4258
 11
179.165
 21
71.4065
  0
LINE
  8
0
 10
179.165
 20
71.4065
 11
179
 21
71.4
  0
LINE
  8
0
 10
179
 20
71.4
 11
178.835
 21
71.4065
  0
LINE
  8
0
 10
146.685
 20
71.4065
 11
146.521
 21
71.4258
  0
LINE
  8
0
 10
146.521
 20
71.4258
 11
146.36
 21
71.458
  0
LINE
  8
0
 10
146.36
 20
71.458
 11
146.201
 21
71.5028
  0
LINE
  8
0
 10
146.201
 20
71.5028
 11
146.046
 21
71.5598
  0
LINE
  8
0
 10
146.046
 20
71.5598
 11
145.897
 21
71.6289
  0
LINE
  8
0
 10
145.897
 20
71.6289
 11
145.753
 21
71.7094
  0
LINE
  8
0
 10
145.753
 20
71.7094
 11
145.616
 21
71.8011
  0
LINE
  8
0
 10
145.616
 20
71.8011
 11
145.486
 21
71.9031
  0
LINE
  8
0
 10
145.486
 20
71.9031
 11
145.365
 21
72.0151
  0
LINE
  8
0
 10
145.365
 20
72.0151
 11
145.253
 21
72.1362
  0
LINE
  8
0
 10
145.253
 20
72.1362
 11
145.151
 21
72.2656
  0
LINE
  8
0
 10
145.151
 20
72.2656
 11
145.059
 21
72.4027
  0
LINE
  8
0
 10
145.059
 20
72.4027
 11
144.979
 21
72.5466
  0
LINE
  8
0
 10
144.979
 20
72.5466
 11
144.91
 21
72.6964
  0
LINE
  8
0
 10
144.91
 20
72.6964
 11
144.853
 21
72.8511
  0
LINE
  8
0
 10
144.853
 20
72.8511
 11
144.808
 21
73.0098
  0
LINE
  8
0
 10
144.808
 20
73.0098
 11
144.776
 21
73.1715
  0
LINE
  8
0
 10
144.776
 20
73.1715
 11
144.756
 21
73.3352
  0
LINE
  8
0
 10
144.756
 20
73.3352
 11
144.75
 21
73.5
  0
LINE
  8
0
 10
144.75
 20
73.5
 11
144.756
 21
73.6647
  0
LINE
  8
0
 10
144.756
 20
73.6647
 11
144.776
 21
73.8285
  0
LINE
  8
0
 10
144.776
 20
73.8285
 11
144.808
 21
73.9902
  0
LINE
  8
0
 10
144.808
 20
73.9902
 11
144.853
 21
74.1489
  0
LINE
  8
0
 10
144.853
 20
74.1489
 11
144.91
 21
74.3036
  0
LINE
  8
0
 10
144.91
 20
74.3036
 11
144.979
 21
74.4534
  0
LINE
  8
0
 10
144.979
 20
74.4534
 11
145.059
 21
74.5972
  0
LINE
  8
0
 10
145.059
 20
74.5972
 11
145.151
 21
74.7343
  0
LINE
  8
0
 10
145.151
 20
74.7343
 11
145.253
 21
74.8638
  0
LINE
  8
0
 10
145.253
 20
74.8638
 11
145.365
 21
74.9849
  0
LINE
  8
0
 10
145.365
 20
74.9849
 11
145.486
 21
75.0968
  0
LINE
  8
0
 10
145.486
 20
75.0968
 11
145.616
 21
75.1989
  0
LINE
  8
0
 10
145.616
 20
75.1989
 11
145.753
 21
75.2905
  0
LINE
  8
0
 10
145.753
 20
75.2905
 11
145.897
 21
75.3711
  0
LINE
  8
0
 10
145.897
 20
75.3711
 11
146.046
 21
75.4401
  0
LINE
  8
0
 10
146.046
 20
75.4401
 11
146.201
 21
75.4972
  0
LINE
  8
0
 10
146.201
 20
75.4972
 11
146.36
 21
75.542
  0
LINE
  8
0
 10
146.36
 20
75.542
 11
146.521
 21
75.5741
  0
LINE
  8
0
 10
146.521
 20
75.5741
 11
146.685
 21
75.5935
  0
LINE
  8
0
 10
146.685
 20
75.5935
 11
146.85
 21
75.6
  0
LINE
  8
0
 10
146.85
 20
75.6
 11
147.015
 21
75.5935
  0
LINE
  8
0
 10
147.015
 20
75.5935
 11
147.178
 21
75.5741
  0
LINE
  8
0
 10
147.178
 20
75.5741
 11
147.34
 21
75.542
  0
LINE
  8
0
 10
147.34
 20
75.542
 11
147.499
 21
75.4972
  0
LINE
  8
0
 10
147.499
 20
75.4972
 11
147.654
 21
75.4401
  0
LINE
  8
0
 10
147.654
 20
75.4401
 11
147.803
 21
75.3711
  0
LINE
  8
0
 10
147.803
 20
75.3711
 11
147.947
 21
75.2905
  0
LINE
  8
0
 10
147.947
 20
75.2905
 11
148.084
 21
75.1989
  0
LINE
  8
0
 10
148.084
 20
75.1989
 11
148.214
 21
75.0968
  0
LINE
  8
0
 10
148.214
 20
75.0968
 11
148.335
 21
74.9849
  0
LINE
  8
0
 10
148.335
 20
74.9849
 11
148.447
 21
74.8638
  0
LINE
  8
0
 10
148.447
 20
74.8638
 11
148.549
 21
74.7343
  0
LINE
  8
0
 10
148.549
 20
74.7343
 11
148.641
 21
74.5972
  0
LINE
  8
0
 10
148.641
 20
74.5972
 11
148.721
 21
74.4534
  0
LINE
  8
0
 10
148.721
 20
74.4534
 11
148.79
 21
74.3036
  0
LINE
  8
0
 10
148.79
 20
74.3036
 11
148.847
 21
74.1489
  0
LINE
  8
0
 10
148.847
 20
74.1489
 11
148.892
 21
73.9902
  0
LINE
  8
0
 10
148.892
 20
73.9902
 11
148.924
 21
73.8285
  0
LINE
  8
0
 10
148.924
 20
73.8285
 11
148.944
 21
73.6647
  0
LINE
  8
0
 10
148.944
 20
73.6647
 11
148.95
 21
73.5
  0
LINE
  8
0
 10
148.95
 20
73.5
 11
148.944
 21
73.3352
  0
LINE
  8
0
 10
148.944
 20
73.3352
 11
148.924
 21
73.1715
  0
LINE
  8
0
 10
148.924
 20
73.1715
 11
148.892
 21
73.0098
  0
LINE
  8
0
 10
148.892
 20
73.0098
 11
148.847
 21
72.8511
  0
LINE
  8
0
 10
148.847
 20
72.8511
 11
148.79
 21
72.6964
  0
LINE
  8
0
 10
148.79
 20
72.6964
 11
148.721
 21
72.5466
  0
LINE
  8
0
 10
148.721
 20
72.5466
 11
148.641
 21
72.4027
  0
LINE
  8
0
 10
148.641
 20
72.4027
 11
148.549
 21
72.2656
  0
LINE
  8
0
 10
148.549
 20
72.2656
 11
148.447
 21
72.1362
  0
LINE
  8
0
 10
148.447
 20
72.1362
 11
148.335
 21
72.0151
  0
LINE
  8
0
 10
148.335
 20
72.0151
 11
148.214
 21
71.9031
  0
LINE
  8
0
 10
148.214
 20
71.9031
 11
148.084
 21
71.8011
  0
LINE
  8
0
 10
148.084
 20
71.8011
 11
147.947
 21
71.7094
  0
LINE
  8
0
 10
147.947
 20
71.7094
 11
147.803
 21
71.6289
  0
LINE
  8
0
 10
147.803
 20
71.6289
 11
147.654
 21
71.5598
  0
LINE
  8
0
 10
147.654
 20
71.5598
 11
147.499
 21
71.5028
  0
LINE
  8
0
 10
147.499
 20
71.5028
 11
147.34
 21
71.458
  0
LINE
  8
0
 10
147.34
 20
71.458
 11
147.178
 21
71.4258
  0
LINE
  8
0
 10
147.178
 20
71.4258
 11
147.015
 21
71.4065
  0
LINE
  8
0
 10
147.015
 20
71.4065
 11
146.85
 21
71.4
  0
LINE
  8
0
 10
146.85
 20
71.4
 11
146.685
 21
71.4065
  0
LINE
  8
0
 10
24.8431
 20
71.5062
 11
24.6871
 21
71.5246
  0
LINE
  8
0
 10
24.6871
 20
71.5246
 11
24.5331
 21
71.5553
  0
LINE
  8
0
 10
24.5331
 20
71.5553
 11
24.382
 21
71.5979
  0
LINE
  8
0
 10
24.382
 20
71.5979
 11
24.2346
 21
71.6522
  0
LINE
  8
0
 10
24.2346
 20
71.6522
 11
24.092
 21
71.718
  0
LINE
  8
0
 10
24.092
 20
71.718
 11
23.955
 21
71.7947
  0
LINE
  8
0
 10
23.955
 20
71.7947
 11
23.8244
 21
71.882
  0
LINE
  8
0
 10
23.8244
 20
71.882
 11
23.7011
 21
71.9792
  0
LINE
  8
0
 10
23.7011
 20
71.9792
 11
23.5858
 21
72.0858
  0
LINE
  8
0
 10
23.5858
 20
72.0858
 11
23.4792
 21
72.2011
  0
LINE
  8
0
 10
23.4792
 20
72.2011
 11
23.382
 21
72.3244
  0
LINE
  8
0
 10
23.382
 20
72.3244
 11
23.2947
 21
72.455
  0
LINE
  8
0
 10
23.2947
 20
72.455
 11
23.218
 21
72.592
  0
LINE
  8
0
 10
23.218
 20
72.592
 11
23.1522
 21
72.7346
  0
LINE
  8
0
 10
23.1522
 20
72.7346
 11
23.0979
 21
72.882
  0
LINE
  8
0
 10
23.0979
 20
72.882
 11
23.0553
 21
73.0331
  0
LINE
  8
0
 10
23.0553
 20
73.0331
 11
23.0246
 21
73.1871
  0
LINE
  8
0
 10
23.0246
 20
73.1871
 11
23.0062
 21
73.3431
  0
LINE
  8
0
 10
23.0062
 20
73.3431
 11
23
 21
73.5
  0
LINE
  8
0
 10
23
 20
73.5
 11
23.0062
 21
73.6569
  0
LINE
  8
0
 10
23.0062
 20
73.6569
 11
23.0246
 21
73.8129
  0
LINE
  8
0
 10
23.0246
 20
73.8129
 11
23.0553
 21
73.9669
  0
LINE
  8
0
 10
23.0553
 20
73.9669
 11
23.0979
 21
74.118
  0
LINE
  8
0
 10
23.0979
 20
74.118
 11
23.1522
 21
74.2654
  0
LINE
  8
0
 10
23.1522
 20
74.2654
 11
23.218
 21
74.408
  0
LINE
  8
0
 10
23.218
 20
74.408
 11
23.2947
 21
74.545
  0
LINE
  8
0
 10
23.2947
 20
74.545
 11
23.382
 21
74.6756
  0
LINE
  8
0
 10
23.382
 20
74.6756
 11
23.4792
 21
74.7989
  0
LINE
  8
0
 10
23.4792
 20
74.7989
 11
23.5858
 21
74.9142
  0
LINE
  8
0
 10
23.5858
 20
74.9142
 11
23.7011
 21
75.0208
  0
LINE
  8
0
 10
23.7011
 20
75.0208
 11
23.8244
 21
75.118
  0
LINE
  8
0
 10
23.8244
 20
75.118
 11
23.955
 21
75.2053
  0
LINE
  8
0
 10
23.955
 20
75.2053
 11
24.092
 21
75.282
  0
LINE
  8
0
 10
24.092
 20
75.282
 11
24.2346
 21
75.3477
  0
LINE
  8
0
 10
24.2346
 20
75.3477
 11
24.382
 21
75.4021
  0
LINE
  8
0
 10
24.382
 20
75.4021
 11
24.5331
 21
75.4447
  0
LINE
  8
0
 10
24.5331
 20
75.4447
 11
24.6871
 21
75.4754
  0
LINE
  8
0
 10
24.6871
 20
75.4754
 11
24.8431
 21
75.4938
  0
LINE
  8
0
 10
24.8431
 20
75.4938
 11
25
 21
75.5
  0
LINE
  8
0
 10
25
 20
75.5
 11
25.1569
 21
75.4938
  0
LINE
  8
0
 10
25.1569
 20
75.4938
 11
25.3129
 21
75.4754
  0
LINE
  8
0
 10
25.3129
 20
75.4754
 11
25.4669
 21
75.4447
  0
LINE
  8
0
 10
25.4669
 20
75.4447
 11
25.618
 21
75.4021
  0
LINE
  8
0
 10
25.618
 20
75.4021
 11
25.7654
 21
75.3477
  0
LINE
  8
0
 10
25.7654
 20
75.3477
 11
25.908
 21
75.282
  0
LINE
  8
0
 10
25.908
 20
75.282
 11
26.045
 21
75.2053
  0
LINE
  8
0
 10
26.045
 20
75.2053
 11
26.1756
 21
75.118
  0
LINE
  8
0
 10
26.1756
 20
75.118
 11
26.2989
 21
75.0208
  0
LINE
  8
0
 10
26.2989
 20
75.0208
 11
26.4142
 21
74.9142
  0
LINE
  8
0
 10
26.4142
 20
74.9142
 11
26.5208
 21
74.7989
  0
LINE
  8
0
 10
26.5208
 20
74.7989
 11
26.618
 21
74.6756
  0
LINE
  8
0
 10
26.618
 20
74.6756
 11
26.7053
 21
74.545
  0
LINE
  8
0
 10
26.7053
 20
74.545
 11
26.782
 21
74.408
  0
LINE
  8
0
 10
26.782
 20
74.408
 11
26.8477
 21
74.2654
  0
LINE
  8
0
 10
26.8477
 20
74.2654
 11
26.9021
 21
74.118
  0
LINE
  8
0
 10
26.9021
 20
74.118
 11
26.9447
 21
73.9669
  0
LINE
  8
0
 10
26.9447
 20
73.9669
 11
26.9754
 21
73.8129
  0
LINE
  8
0
 10
26.9754
 20
73.8129
 11
26.9938
 21
73.6569
  0
LINE
  8
0
 10
26.9938
 20
73.6569
 11
27
 21
73.5
  0
LINE
  8
0
 10
27
 20
73.5
 11
26.9938
 21
73.3431
  0
LINE
  8
0
 10
26.9938
 20
73.3431
 11
26.9754
 21
73.1871
  0
LINE
  8
0
 10
26.9754
 20
73.1871
 11
26.9447
 21
73.0331
  0
LINE
  8
0
 10
26.9447
 20
73.0331
 11
26.9021
 21
72.882
  0
LINE
  8
0
 10
26.9021
 20
72.882
 11
26.8477
 21
72.7346
  0
LINE
  8
0
 10
26.8477
 20
72.7346
 11
26.782
 21
72.592
  0
LINE
  8
0
 10
26.782
 20
72.592
 11
26.7053
 21
72.455
  0
LINE
  8
0
 10
26.7053
 20
72.455
 11
26.618
 21
72.3244
  0
LINE
  8
0
 10
26.618
 20
72.3244
 11
26.5208
 21
72.2011
  0
LINE
  8
0
 10
26.5208
 20
72.2011
 11
26.4142
 21
72.0858
  0
LINE
  8
0
 10
26.4142
 20
72.0858
 11
26.2989
 21
71.9792
  0
LINE
  8
0
 10
26.2989
 20
71.9792
 11
26.1756
 21
71.882
  0
LINE
  8
0
 10
26.1756
 20
71.882
 11
26.045
 21
71.7947
  0
LINE
  8
0
 10
26.045
 20
71.7947
 11
25.908
 21
71.718
  0
LINE
  8
0
 10
25.908
 20
71.718
 11
25.7654
 21
71.6522
  0
LINE
  8
0
 10
25.7654
 20
71.6522
 11
25.618
 21
71.5979
  0
LINE
  8
0
 10
25.618
 20
71.5979
 11
25.4669
 21
71.5553
  0
LINE
  8
0
 10
25.4669
 20
71.5553
 11
25.3129
 21
71.5246
  0
LINE
  8
0
 10
25.3129
 20
71.5246
 11
25.1569
 21
71.5062
  0
LINE
  8
0
 10
25.1569
 20
71.5062
 11
25
 21
71.5
  0
LINE
  8
0
 10
25
 20
71.5
 11
24.8431
 21
71.5062
  0
LINE
  8
0
 10
5.87445
 20
49.4049
 11
5.74969
 21
49.4197
  0
LINE
  8
0
 10
5.74969
 20
49.4197
 11
5.62648
 21
49.4442
  0
LINE
  8
0
 10
5.62648
 20
49.4442
 11
5.50557
 21
49.4783
  0
LINE
  8
0
 10
5.50557
 20
49.4783
 11
5.3877
 21
49.5218
  0
LINE
  8
0
 10
5.3877
 20
49.5218
 11
5.27361
 21
49.5744
  0
LINE
  8
0
 10
5.27361
 20
49.5744
 11
5.164
 21
49.6358
  0
LINE
  8
0
 10
5.164
 20
49.6358
 11
5.05954
 21
49.7056
  0
LINE
  8
0
 10
5.05954
 20
49.7056
 11
4.96088
 21
49.7833
  0
LINE
  8
0
 10
4.96088
 20
49.7833
 11
4.86862
 21
49.8686
  0
LINE
  8
0
 10
4.86862
 20
49.8686
 11
4.78334
 21
49.9609
  0
LINE
  8
0
 10
4.78334
 20
49.9609
 11
4.70557
 21
50.0595
  0
LINE
  8
0
 10
4.70557
 20
50.0595
 11
4.63577
 21
50.164
  0
LINE
  8
0
 10
4.63577
 20
50.164
 11
4.57439
 21
50.2736
  0
LINE
  8
0
 10
4.57439
 20
50.2736
 11
4.52179
 21
50.3877
  0
LINE
  8
0
 10
4.52179
 20
50.3877
 11
4.4783
 21
50.5056
  0
LINE
  8
0
 10
4.4783
 20
50.5056
 11
4.4442
 21
50.6265
  0
LINE
  8
0
 10
4.4442
 20
50.6265
 11
4.41969
 21
50.7497
  0
LINE
  8
0
 10
4.41969
 20
50.7497
 11
4.40492
 21
50.8745
  0
LINE
  8
0
 10
4.40492
 20
50.8745
 11
4.39999
 21
51
  0
LINE
  8
0
 10
4.39999
 20
51
 11
4.40492
 21
51.1255
  0
LINE
  8
0
 10
4.40492
 20
51.1255
 11
4.41969
 21
51.2503
  0
LINE
  8
0
 10
4.41969
 20
51.2503
 11
4.4442
 21
51.3735
  0
LINE
  8
0
 10
4.4442
 20
51.3735
 11
4.4783
 21
51.4944
  0
LINE
  8
0
 10
4.4783
 20
51.4944
 11
4.52179
 21
51.6123
  0
LINE
  8
0
 10
4.52179
 20
51.6123
 11
4.57439
 21
51.7264
  0
LINE
  8
0
 10
4.57439
 20
51.7264
 11
4.63577
 21
51.836
  0
LINE
  8
0
 10
4.63577
 20
51.836
 11
4.70557
 21
51.9404
  0
LINE
  8
0
 10
4.70557
 20
51.9404
 11
4.78334
 21
52.0391
  0
LINE
  8
0
 10
4.78334
 20
52.0391
 11
4.86862
 21
52.1314
  0
LINE
  8
0
 10
4.86862
 20
52.1314
 11
4.96088
 21
52.2166
  0
LINE
  8
0
 10
4.96088
 20
52.2166
 11
5.05954
 21
52.2944
  0
LINE
  8
0
 10
5.05954
 20
52.2944
 11
5.164
 21
52.3642
  0
LINE
  8
0
 10
5.164
 20
52.3642
 11
5.27361
 21
52.4256
  0
LINE
  8
0
 10
5.27361
 20
52.4256
 11
5.3877
 21
52.4782
  0
LINE
  8
0
 10
5.3877
 20
52.4782
 11
5.50557
 21
52.5217
  0
LINE
  8
0
 10
5.50557
 20
52.5217
 11
5.62648
 21
52.5558
  0
LINE
  8
0
 10
5.62648
 20
52.5558
 11
5.74969
 21
52.5803
  0
LINE
  8
0
 10
5.74969
 20
52.5803
 11
5.87445
 21
52.5951
  0
LINE
  8
0
 10
5.87445
 20
52.5951
 11
6
 21
52.6
  0
LINE
  8
0
 10
6
 20
52.6
 11
6.12553
 21
52.5951
  0
LINE
  8
0
 10
6.12553
 20
52.5951
 11
6.25029
 21
52.5803
  0
LINE
  8
0
 10
6.25029
 20
52.5803
 11
6.3735
 21
52.5558
  0
LINE
  8
0
 10
6.3735
 20
52.5558
 11
6.49442
 21
52.5217
  0
LINE
  8
0
 10
6.49442
 20
52.5217
 11
6.61229
 21
52.4782
  0
LINE
  8
0
 10
6.61229
 20
52.4782
 11
6.72638
 21
52.4256
  0
LINE
  8
0
 10
6.72638
 20
52.4256
 11
6.83598
 21
52.3642
  0
LINE
  8
0
 10
6.83598
 20
52.3642
 11
6.94044
 21
52.2944
  0
LINE
  8
0
 10
6.94044
 20
52.2944
 11
7.03911
 21
52.2166
  0
LINE
  8
0
 10
7.03911
 20
52.2166
 11
7.13136
 21
52.1314
  0
LINE
  8
0
 10
7.13136
 20
52.1314
 11
7.21664
 21
52.0391
  0
LINE
  8
0
 10
7.21664
 20
52.0391
 11
7.29442
 21
51.9404
  0
LINE
  8
0
 10
7.29442
 20
51.9404
 11
7.36421
 21
51.836
  0
LINE
  8
0
 10
7.36421
 20
51.836
 11
7.4256
 21
51.7264
  0
LINE
  8
0
 10
7.4256
 20
51.7264
 11
7.4782
 21
51.6123
  0
LINE
  8
0
 10
7.4782
 20
51.6123
 11
7.52168
 21
51.4944
  0
LINE
  8
0
 10
7.52168
 20
51.4944
 11
7.55579
 21
51.3735
  0
LINE
  8
0
 10
7.55579
 20
51.3735
 11
7.58029
 21
51.2503
  0
LINE
  8
0
 10
7.58029
 20
51.2503
 11
7.59506
 21
51.1255
  0
LINE
  8
0
 10
7.59506
 20
51.1255
 11
7.59999
 21
51
  0
LINE
  8
0
 10
7.59999
 20
51
 11
7.59506
 21
50.8745
  0
LINE
  8
0
 10
7.59506
 20
50.8745
 11
7.58029
 21
50.7497
  0
LINE
  8
0
 10
7.58029
 20
50.7497
 11
7.55579
 21
50.6265
  0
LINE
  8
0
 10
7.55579
 20
50.6265
 11
7.52168
 21
50.5056
  0
LINE
  8
0
 10
7.52168
 20
50.5056
 11
7.4782
 21
50.3877
  0
LINE
  8
0
 10
7.4782
 20
50.3877
 11
7.4256
 21
50.2736
  0
LINE
  8
0
 10
7.4256
 20
50.2736
 11
7.36421
 21
50.164
  0
LINE
  8
0
 10
7.36421
 20
50.164
 11
7.29442
 21
50.0595
  0
LINE
  8
0
 10
7.29442
 20
50.0595
 11
7.21664
 21
49.9609
  0
LINE
  8
0
 10
7.21664
 20
49.9609
 11
7.13136
 21
49.8686
  0
LINE
  8
0
 10
7.13136
 20
49.8686
 11
7.03911
 21
49.7833
  0
LINE
  8
0
 10
7.03911
 20
49.7833
 11
6.94044
 21
49.7056
  0
LINE
  8
0
 10
6.94044
 20
49.7056
 11
6.83598
 21
49.6358
  0
LINE
  8
0
 10
6.83598
 20
49.6358
 11
6.72638
 21
49.5744
  0
LINE
  8
0
 10
6.72638
 20
49.5744
 11
6.61229
 21
49.5218
  0
LINE
  8
0
 10
6.61229
 20
49.5218
 11
6.49442
 21
49.4783
  0
LINE
  8
0
 10
6.49442
 20
49.4783
 11
6.3735
 21
49.4442
  0
LINE
  8
0
 10
6.3735
 20
49.4442
 11
6.25029
 21
49.4197
  0
LINE
  8
0
 10
6.25029
 20
49.4197
 11
6.12553
 21
49.4049
  0
LINE
  8
0
 10
6.12553
 20
49.4049
 11
6
 21
49.4
  0
LINE
  8
0
 10
6
 20
49.4
 11
5.87445
 21
49.4049
  0
LINE
  8
0
 10
208.874
 20
49.4049
 11
208.75
 21
49.4197
  0
LINE
  8
0
 10
208.75
 20
49.4197
 11
208.626
 21
49.4442
  0
LINE
  8
0
 10
208.626
 20
49.4442
 11
208.506
 21
49.4783
  0
LINE
  8
0
 10
208.506
 20
49.4783
 11
208.388
 21
49.5218
  0
LINE
  8
0
 10
208.388
 20
49.5218
 11
208.274
 21
49.5744
  0
LINE
  8
0
 10
208.274
 20
49.5744
 11
208.164
 21
49.6358
  0
LINE
  8
0
 10
208.164
 20
49.6358
 11
208.06
 21
49.7056
  0
LINE
  8
0
 10
208.06
 20
49.7056
 11
207.961
 21
49.7833
  0
LINE
  8
0
 10
207.961
 20
49.7833
 11
207.869
 21
49.8686
  0
LINE
  8
0
 10
207.869
 20
49.8686
 11
207.783
 21
49.9609
  0
LINE
  8
0
 10
207.783
 20
49.9609
 11
207.706
 21
50.0595
  0
LINE
  8
0
 10
207.706
 20
50.0595
 11
207.636
 21
50.164
  0
LINE
  8
0
 10
207.636
 20
50.164
 11
207.574
 21
50.2736
  0
LINE
  8
0
 10
207.574
 20
50.2736
 11
207.522
 21
50.3877
  0
LINE
  8
0
 10
207.522
 20
50.3877
 11
207.478
 21
50.5056
  0
LINE
  8
0
 10
207.478
 20
50.5056
 11
207.444
 21
50.6265
  0
LINE
  8
0
 10
207.444
 20
50.6265
 11
207.42
 21
50.7497
  0
LINE
  8
0
 10
207.42
 20
50.7497
 11
207.405
 21
50.8745
  0
LINE
  8
0
 10
207.405
 20
50.8745
 11
207.4
 21
51
  0
LINE
  8
0
 10
207.4
 20
51
 11
207.405
 21
51.1255
  0
LINE
  8
0
 10
207.405
 20
51.1255
 11
207.42
 21
51.2503
  0
LINE
  8
0
 10
207.42
 20
51.2503
 11
207.444
 21
51.3735
  0
LINE
  8
0
 10
207.444
 20
51.3735
 11
207.478
 21
51.4944
  0
LINE
  8
0
 10
207.478
 20
51.4944
 11
207.522
 21
51.6123
  0
LINE
  8
0
 10
207.522
 20
51.6123
 11
207.574
 21
51.7264
  0
LINE
  8
0
 10
207.574
 20
51.7264
 11
207.636
 21
51.836
  0
LINE
  8
0
 10
207.636
 20
51.836
 11
207.706
 21
51.9404
  0
LINE
  8
0
 10
207.706
 20
51.9404
 11
207.783
 21
52.0391
  0
LINE
  8
0
 10
207.783
 20
52.0391
 11
207.869
 21
52.1314
  0
LINE
  8
0
 10
207.869
 20
52.1314
 11
207.961
 21
52.2166
  0
LINE
  8
0
 10
207.961
 20
52.2166
 11
208.06
 21
52.2944
  0
LINE
  8
0
 10
208.06
 20
52.2944
 11
208.164
 21
52.3642
  0
LINE
  8
0
 10
208.164
 20
52.3642
 11
208.274
 21
52.4256
  0
LINE
  8
0
 10
208.274
 20
52.4256
 11
208.388
 21
52.4782
  0
LINE
  8
0
 10
208.388
 20
52.4782
 11
208.506
 21
52.5217
  0
LINE
  8
0
 10
208.506
 20
52.5217
 11
208.626
 21
52.5558
  0
LINE
  8
0
 10
208.626
 20
52.5558
 11
208.75
 21
52.5803
  0
LINE
  8
0
 10
208.75
 20
52.5803
 11
208.874
 21
52.5951
  0
LINE
  8
0
 10
208.874
 20
52.5951
 11
209
 21
52.6
  0
LINE
  8
0
 10
209
 20
52.6
 11
209.126
 21
52.5951
  0
LINE
  8
0
 10
209.126
 20
52.5951
 11
209.25
 21
52.5803
  0
LINE
  8
0
 10
209.25
 20
52.5803
 11
209.374
 21
52.5558
  0
LINE
  8
0
 10
209.374
 20
52.5558
 11
209.494
 21
52.5217
  0
LINE
  8
0
 10
209.494
 20
52.5217
 11
209.612
 21
52.4782
  0
LINE
  8
0
 10
209.612
 20
52.4782
 11
209.726
 21
52.4256
  0
LINE
  8
0
 10
209.726
 20
52.4256
 11
209.836
 21
52.3642
  0
LINE
  8
0
 10
209.836
 20
52.3642
 11
209.94
 21
52.2944
  0
LINE
  8
0
 10
209.94
 20
52.2944
 11
210.039
 21
52.2166
  0
LINE
  8
0
 10
210.039
 20
52.2166
 11
210.131
 21
52.1314
  0
LINE
  8
0
 10
210.131
 20
52.1314
 11
210.217
 21
52.0391
  0
LINE
  8
0
 10
210.217
 20
52.0391
 11
210.294
 21
51.9404
  0
LINE
  8
0
 10
210.294
 20
51.9404
 11
210.364
 21
51.836
  0
LINE
  8
0
 10
210.364
 20
51.836
 11
210.426
 21
51.7264
  0
LINE
  8
0
 10
210.426
 20
51.7264
 11
210.478
 21
51.6123
  0
LINE
  8
0
 10
210.478
 20
51.6123
 11
210.522
 21
51.4944
  0
LINE
  8
0
 10
210.522
 20
51.4944
 11
210.556
 21
51.3735
  0
LINE
  8
0
 10
210.556
 20
51.3735
 11
210.58
 21
51.2503
  0
LINE
  8
0
 10
210.58
 20
51.2503
 11
210.595
 21
51.1255
  0
LINE
  8
0
 10
210.595
 20
51.1255
 11
210.6
 21
51
  0
LINE
  8
0
 10
210.6
 20
51
 11
210.595
 21
50.8745
  0
LINE
  8
0
 10
210.595
 20
50.8745
 11
210.58
 21
50.7497
  0
LINE
  8
0
 10
210.58
 20
50.7497
 11
210.556
 21
50.6265
  0
LINE
  8
0
 10
210.556
 20
50.6265
 11
210.522
 21
50.5056
  0
LINE
  8
0
 10
210.522
 20
50.5056
 11
210.478
 21
50.3877
  0
LINE
  8
0
 10
210.478
 20
50.3877
 11
210.426
 21
50.2736
  0
LINE
  8
0
 10
210.426
 20
50.2736
 11
210.364
 21
50.164
  0
LINE
  8
0
 10
210.364
 20
50.164
 11
210.294
 21
50.0595
  0
LINE
  8
0
 10
210.294
 20
50.0595
 11
210.217
 21
49.9609
  0
LINE
  8
0
 10
210.217
 20
49.9609
 11
210.131
 21
49.8686
  0
LINE
  8
0
 10
210.131
 20
49.8686
 11
210.039
 21
49.7833
  0
LINE
  8
0
 10
210.039
 20
49.7833
 11
209.94
 21
49.7056
  0
LINE
  8
0
 10
209.94
 20
49.7056
 11
209.836
 21
49.6358
  0
LINE
  8
0
 10
209.836
 20
49.6358
 11
209.726
 21
49.5744
  0
LINE
  8
0
 10
209.726
 20
49.5744
 11
209.612
 21
49.5218
  0
LINE
  8
0
 10
209.612
 20
49.5218
 11
209.494
 21
49.4783
  0
LINE
  8
0
 10
209.494
 20
49.4783
 11
209.374
 21
49.4442
  0
LINE
  8
0
 10
209.374
 20
49.4442
 11
209.25
 21
49.4197
  0
LINE
  8
0
 10
209.25
 20
49.4197
 11
209.126
 21
49.4049
  0
LINE
  8
0
 10
209.126
 20
49.4049
 11
209
 21
49.4
  0
LINE
  8
0
 10
209
 20
49.4
 11
208.874
 21
49.4049
  0
LINE
  8
0
 10
5.87445
 20
4.40492
 11
5.74969
 21
4.41969
  0
LINE
  8
0
 10
5.74969
 20
4.41969
 11
5.62648
 21
4.4442
  0
LINE
  8
0
 10
5.62648
 20
4.4442
 11
5.50557
 21
4.4783
  0
LINE
  8
0
 10
5.50557
 20
4.4783
 11
5.3877
 21
4.52179
  0
LINE
  8
0
 10
5.3877
 20
4.52179
 11
5.27361
 21
4.57439
  0
LINE
  8
0
 10
5.27361
 20
4.57439
 11
5.164
 21
4.63577
  0
LINE
  8
0
 10
5.164
 20
4.63577
 11
5.05954
 21
4.70557
  0
LINE
  8
0
 10
5.05954
 20
4.70557
 11
4.96088
 21
4.78334
  0
LINE
  8
0
 10
4.96088
 20
4.78334
 11
4.86862
 21
4.86862
  0
LINE
  8
0
 10
4.86862
 20
4.86862
 11
4.78334
 21
4.96088
  0
LINE
  8
0
 10
4.78334
 20
4.96088
 11
4.70557
 21
5.05954
  0
LINE
  8
0
 10
4.70557
 20
5.05954
 11
4.63577
 21
5.164
  0
LINE
  8
0
 10
4.63577
 20
5.164
 11
4.57439
 21
5.27361
  0
LINE
  8
0
 10
4.57439
 20
5.27361
 11
4.52179
 21
5.3877
  0
LINE
  8
0
 10
4.52179
 20
5.3877
 11
4.4783
 21
5.50557
  0
LINE
  8
0
 10
4.4783
 20
5.50557
 11
4.4442
 21
5.62648
  0
LINE
  8
0
 10
4.4442
 20
5.62648
 11
4.41969
 21
5.74969
  0
LINE
  8
0
 10
4.41969
 20
5.74969
 11
4.40492
 21
5.87445
  0
LINE
  8
0
 10
4.40492
 20
5.87445
 11
4.39999
 21
6
  0
LINE
  8
0
 10
4.39999
 20
6
 11
4.40492
 21
6.12553
  0
LINE
  8
0
 10
4.40492
 20
6.12553
 11
4.41969
 21
6.25029
  0
LINE
  8
0
 10
4.41969
 20
6.25029
 11
4.4442
 21
6.3735
  0
LINE
  8
0
 10
4.4442
 20
6.3735
 11
4.4783
 21
6.49442
  0
LINE
  8
0
 10
4.4783
 20
6.49442
 11
4.52179
 21
6.61229
  0
LINE
  8
0
 10
4.52179
 20
6.61229
 11
4.57439
 21
6.72638
  0
LINE
  8
0
 10
4.57439
 20
6.72638
 11
4.63577
 21
6.83598
  0
LINE
  8
0
 10
4.63577
 20
6.83598
 11
4.70557
 21
6.94044
  0
LINE
  8
0
 10
4.70557
 20
6.94044
 11
4.78334
 21
7.03911
  0
LINE
  8
0
 10
4.78334
 20
7.03911
 11
4.86862
 21
7.13136
  0
LINE
  8
0
 10
4.86862
 20
7.13136
 11
4.96088
 21
7.21664
  0
LINE
  8
0
 10
4.96088
 20
7.21664
 11
5.05954
 21
7.29442
  0
LINE
  8
0
 10
5.05954
 20
7.29442
 11
5.164
 21
7.36421
  0
LINE
  8
0
 10
5.164
 20
7.36421
 11
5.27361
 21
7.4256
  0
LINE
  8
0
 10
5.27361
 20
7.4256
 11
5.3877
 21
7.4782
  0
LINE
  8
0
 10
5.3877
 20
7.4782
 11
5.50557
 21
7.52168
  0
LINE
  8
0
 10
5.50557
 20
7.52168
 11
5.62648
 21
7.55579
  0
LINE
  8
0
 10
5.62648
 20
7.55579
 11
5.74969
 21
7.58029
  0
LINE
  8
0
 10
5.74969
 20
7.58029
 11
5.87445
 21
7.59506
  0
LINE
  8
0
 10
5.87445
 20
7.59506
 11
6
 21
7.59999
  0
LINE
  8
0
 10
6
 20
7.59999
 11
6.12553
 21
7.59506
  0
LINE
  8
0
 10
6.12553
 20
7.59506
 11
6.25029
 21
7.58029
  0
LINE
  8
0
 10
6.25029
 20
7.58029
 11
6.3735
 21
7.55579
  0
LINE
  8
0
 10
6.3735
 20
7.55579
 11
6.49442
 21
7.52168
  0
LINE
  8
0
 10
6.49442
 20
7.52168
 11
6.61229
 21
7.4782
  0
LINE
  8
0
 10
6.61229
 20
7.4782
 11
6.72638
 21
7.4256
  0
LINE
  8
0
 10
6.72638
 20
7.4256
 11
6.83598
 21
7.36421
  0
LINE
  8
0
 10
6.83598
 20
7.36421
 11
6.94044
 21
7.29442
  0
LINE
  8
0
 10
6.94044
 20
7.29442
 11
7.03911
 21
7.21664
  0
LINE
  8
0
 10
7.03911
 20
7.21664
 11
7.13136
 21
7.13136
  0
LINE
  8
0
 10
7.13136
 20
7.13136
 11
7.21664
 21
7.03911
  0
LINE
  8
0
 10
7.21664
 20
7.03911
 11
7.29442
 21
6.94044
  0
LINE
  8
0
 10
7.29442
 20
6.94044
 11
7.36421
 21
6.83598
  0
LINE
  8
0
 10
7.36421
 20
6.83598
 11
7.4256
 21
6.72638
  0
LINE
  8
0
 10
7.4256
 20
6.72638
 11
7.4782
 21
6.61229
  0
LINE
  8
0
 10
7.4782
 20
6.61229
 11
7.52168
 21
6.49442
  0
LINE
  8
0
 10
7.52168
 20
6.49442
 11
7.55579
 21
6.3735
  0
LINE
  8
0
 10
7.55579
 20
6.3735
 11
7.58029
 21
6.25029
  0
LINE
  8
0
 10
7.58029
 20
6.25029
 11
7.59506
 21
6.12553
  0
LINE
  8
0
 10
7.59506
 20
6.12553
 11
7.59999
 21
6
  0
LINE
  8
0
 10
7.59999
 20
6
 11
7.59506
 21
5.87445
  0
LINE
  8
0
 10
7.59506
 20
5.87445
 11
7.58029
 21
5.74969
  0
LINE
  8
0
 10
7.58029
 20
5.74969
 11
7.55579
 21
5.62648
  0
LINE
  8
0
 10
7.55579
 20
5.62648
 11
7.52168
 21
5.50557
  0
LINE
  8
0
 10
7.52168
 20
5.50557
 11
7.4782
 21
5.3877
  0
LINE
  8
0
 10
7.4782
 20
5.3877
 11
7.4256
 21
5.27361
  0
LINE
  8
0
 10
7.4256
 20
5.27361
 11
7.36421
 21
5.164
  0
LINE
  8
0
 10
7.36421
 20
5.164
 11
7.29442
 21
5.05954
  0
LINE
  8
0
 10
7.29442
 20
5.05954
 11
7.21664
 21
4.96088
  0
LINE
  8
0
 10
7.21664
 20
4.96088
 11
7.13136
 21
4.86862
  0
LINE
  8
0
 10
7.13136
 20
4.86862
 11
7.03911
 21
4.78334
  0
LINE
  8
0
 10
7.03911
 20
4.78334
 11
6.94044
 21
4.70557
  0
LINE
  8
0
 10
6.94044
 20
4.70557
 11
6.83598
 21
4.63577
  0
LINE
  8
0
 10
6.83598
 20
4.63577
 11
6.72638
 21
4.57439
  0
LINE
  8
0
 10
6.72638
 20
4.57439
 11
6.61229
 21
4.52179
  0
LINE
  8
0
 10
6.61229
 20
4.52179
 11
6.49442
 21
4.4783
  0
LINE
  8
0
 10
6.49442
 20
4.4783
 11
6.3735
 21
4.4442
  0
LINE
  8
0
 10
6.3735
 20
4.4442
 11
6.25029
 21
4.41969
  0
LINE
  8
0
 10
6.25029
 20
4.41969
 11
6.12553
 21
4.40492
  0
LINE
  8
0
 10
6.12553
 20
4.40492
 11
6
 21
4.39999
  0
LINE
  8
0
 10
6
 20
4.39999
 11
5.87445
 21
4.40492
  0
LINE
  8
0
 10
208.874
 20
4.40492
 11
208.75
 21
4.41969
  0
LINE
  8
0
 10
208.75
 20
4.41969
 11
208.626
 21
4.4442
  0
LINE
  8
0
 10
208.626
 20
4.4442
 11
208.506
 21
4.4783
  0
LINE
  8
0
 10
208.506
 20
4.4783
 11
208.388
 21
4.52179
  0
LINE
  8
0
 10
208.388
 20
4.52179
 11
208.274
 21
4.57439
  0
LINE
  8
0
 10
208.274
 20
4.57439
 11
208.164
 21
4.63577
  0
LINE
  8
0
 10
208.164
 20
4.63577
 11
208.06
 21
4.70557
  0
LINE
  8
0
 10
208.06
 20
4.70557
 11
207.961
 21
4.78334
  0
LINE
  8
0
 10
207.961
 20
4.78334
 11
207.869
 21
4.86862
  0
LINE
  8
0
 10
207.869
 20
4.86862
 11
207.783
 21
4.96088
  0
LINE
  8
0
 10
207.783
 20
4.96088
 11
207.706
 21
5.05954
  0
LINE
  8
0
 10
207.706
 20
5.05954
 11
207.636
 21
5.164
  0
LINE
  8
0
 10
207.636
 20
5.164
 11
207.574
 21
5.27361
  0
LINE
  8
0
 10
207.574
 20
5.27361
 11
207.522
 21
5.3877
  0
LINE
  8
0
 10
207.522
 20
5.3877
 11
207.478
 21
5.50557
  0
LINE
  8
0
 10
207.478
 20
5.50557
 11
207.444
 21
5.62648
  0
LINE
  8
0
 10
207.444
 20
5.62648
 11
207.42
 21
5.74969
  0
LINE
  8
0
 10
207.42
 20
5.74969
 11
207.405
 21
5.87445
  0
LINE
  8
0
 10
207.405
 20
5.87445
 11
207.4
 21
6
  0
LINE
  8
0
 10
207.4
 20
6
 11
207.405
 21
6.12553
  0
LINE
  8
0
 10
207.405
 20
6.12553
 11
207.42
 21
6.25029
  0
LINE
  8
0
 10
207.42
 20
6.25029
 11
207.444
 21
6.3735
  0
LINE
  8
0
 10
207.444
 20
6.3735
 11
207.478
 21
6.49442
  0
LINE
  8
0
 10
207.478
 20
6.49442
 11
207.522
 21
6.61229
  0
LINE
  8
0
 10
207.522
 20
6.61229
 11
207.574
 21
6.72638
  0
LINE
  8
0
 10
207.574
 20
6.72638
 11
207.636
 21
6.83598
  0
LINE
  8
0
 10
207.636
 20
6.83598
 11
207.706
 21
6.94044
  0
LINE
  8
0
 10
207.706
 20
6.94044
 11
207.783
 21
7.03911
  0
LINE
  8
0
 10
207.783
 20
7.03911
 11
207.869
 21
7.13136
  0
LINE
  8
0
 10
207.869
 20
7.13136
 11
207.961
 21
7.21664
  0
LINE
  8
0
 10
207.961
 20
7.21664
 11
208.06
 21
7.29442
  0
LINE
  8
0
 10
208.06
 20
7.29442
 11
208.164
 21
7.36421
  0
LINE
  8
0
 10
208.164
 20
7.36421
 11
208.274
 21
7.4256
  0
LINE
  8
0
 10
208.274
 20
7.4256
 11
208.388
 21
7.4782
  0
LINE
  8
0
 10
208.388
 20
7.4782
 11
208.506
 21
7.52168
  0
LINE
  8
0
 10
208.506
 20
7.52168
 11
208.626
 21
7.55579
  0
LINE
  8
0
 10
208.626
 20
7.55579
 11
208.75
 21
7.58029
  0
LINE
  8
0
 10
208.75
 20
7.58029
 11
208.874
 21
7.59506
  0
LINE
  8
0
 10
208.874
 20
7.59506
 11
209
 21
7.59999
  0
LINE
  8
0
 10
209
 20
7.59999
 11
209.126
 21
7.59506
  0
LINE
  8
0
 10
209.126
 20
7.59506
 11
209.25
 21
7.58029
  0
LINE
  8
0
 10
209.25
 20
7.58029
 11
209.374
 21
7.55579
  0
LINE
  8
0
 10
209.374
 20
7.55579
 11
209.494
 21
7.52168
  0
LINE
  8
0
 10
209.494
 20
7.52168
 11
209.612
 21
7.4782
  0
LINE
  8
0
 10
209.612
 20
7.4782
 11
209.726
 21
7.4256
  0
LINE
  8
0
 10
209.726
 20
7.4256
 11
209.836
 21
7.36421
  0
LINE
  8
0
 10
209.836
 20
7.36421
 11
209.94
 21
7.29442
  0
LINE
  8
0
 10
209.94
 20
7.29442
 11
210.039
 21
7.21664
  0
LINE
  8
0
 10
210.039
 20
7.21664
 11
210.131
 21
7.13136
  0
LINE
  8
0
 10
210.131
 20
7.13136
 11
210.217
 21
7.03911
  0
LINE
  8
0
 10
210.217
 20
7.03911
 11
210.294
 21
6.94044
  0
LINE
  8
0
 10
210.294
 20
6.94044
 11
210.364
 21
6.83598
  0
LINE
  8
0
 10
210.364
 20
6.83598
 11
210.426
 21
6.72638
  0
LINE
  8
0
 10
210.426
 20
6.72638
 11
210.478
 21
6.61229
  0
LINE
  8
0
 10
210.478
 20
6.61229
 11
210.522
 21
6.49442
  0
LINE
  8
0
 10
210.522
 20
6.49442
 11
210.556
 21
6.3735
  0
LINE
  8
0
 10
210.556
 20
6.3735
 11
210.58
 21
6.25029
  0
LINE
  8
0
 10
210.58
 20
6.25029
 11
210.595
 21
6.12553
  0
LINE
  8
0
 10
210.595
 20
6.12553
 11
210.6
 21
6
  0
LINE
  8
0
 10
210.6
 20
6
 11
210.595
 21
5.87445
  0
LINE
  8
0
 10
210.595
 20
5.87445
 11
210.58
 21
5.74969
  0
LINE
  8
0
 10
210.58
 20
5.74969
 11
210.556
 21
5.62648
  0
LINE
  8
0
 10
210.556
 20
5.62648
 11
210.522
 21
5.50557
  0
LINE
  8
0
 10
210.522
 20
5.50557
 11
210.478
 21
5.3877
  0
LINE
  8
0
 10
210.478
 20
5.3877
 11
210.426
 21
5.27361
  0
LINE
  8
0
 10
210.426
 20
5.27361
 11
210.364
 21
5.164
  0
LINE
  8
0
 10
210.364
 20
5.164
 11
210.294
 21
5.05954
  0
LINE
  8
0
 10
210.294
 20
5.05954
 11
210.217
 21
4.96088
  0
LINE
  8
0
 10
210.217
 20
4.96088
 11
210.131
 21
4.86862
  0
LINE
  8
0
 10
210.131
 20
4.86862
 11
210.039
 21
4.78334
  0
LINE
  8
0
 10
210.039
 20
4.78334
 11
209.94
 21
4.70557
  0
LINE
  8
0
 10
209.94
 20
4.70557
 11
209.836
 21
4.63577
  0
LINE
  8
0
 10
209.836
 20
4.63577
 11
209.726
 21
4.57439
  0
LINE
  8
0
 10
209.726
 20
4.57439
 11
209.612
 21
4.52179
  0
LINE
  8
0
 10
209.612
 20
4.52179
 11
209.494
 21
4.4783
  0
LINE
  8
0
 10
209.494
 20
4.4783
 11
209.374
 21
4.4442
  0
LINE
  8
0
 10
209.374
 20
4.4442
 11
209.25
 21
4.41969
  0
LINE
  8
0
 10
209.25
 20
4.41969
 11
209.126
 21
4.40492
  0
LINE
  8
0
 10
209.126
 20
4.40492
 11
209
 21
4.39999
  0
LINE
  8
0
 10
209
 20
4.39999
 11
208.874
 21
4.40492
  0
LINE
  8
0
 10
107.374
 20
4.40492
 11
107.25
 21
4.41969
  0
LINE
  8
0
 10
107.25
 20
4.41969
 11
107.126
 21
4.4442
  0
LINE
  8
0
 10
107.126
 20
4.4442
 11
107.006
 21
4.4783
  0
LINE
  8
0
 10
107.006
 20
4.4783
 11
106.888
 21
4.52179
  0
LINE
  8
0
 10
106.888
 20
4.52179
 11
106.774
 21
4.57439
  0
LINE
  8
0
 10
106.774
 20
4.57439
 11
106.664
 21
4.63577
  0
LINE
  8
0
 10
106.664
 20
4.63577
 11
106.56
 21
4.70557
  0
LINE
  8
0
 10
106.56
 20
4.70557
 11
106.461
 21
4.78334
  0
LINE
  8
0
 10
106.461
 20
4.78334
 11
106.369
 21
4.86862
  0
LINE
  8
0
 10
106.369
 20
4.86862
 11
106.283
 21
4.96088
  0
LINE
  8
0
 10
106.283
 20
4.96088
 11
106.206
 21
5.05954
  0
LINE
  8
0
 10
106.206
 20
5.05954
 11
106.136
 21
5.164
  0
LINE
  8
0
 10
106.136
 20
5.164
 11
106.074
 21
5.27361
  0
LINE
  8
0
 10
106.074
 20
5.27361
 11
106.022
 21
5.3877
  0
LINE
  8
0
 10
106.022
 20
5.3877
 11
105.978
 21
5.50557
  0
LINE
  8
0
 10
105.978
 20
5.50557
 11
105.944
 21
5.62648
  0
LINE
  8
0
 10
105.944
 20
5.62648
 11
105.92
 21
5.74969
  0
LINE
  8
0
 10
105.92
 20
5.74969
 11
105.905
 21
5.87445
  0
LINE
  8
0
 10
105.905
 20
5.87445
 11
105.9
 21
6
  0
LINE
  8
0
 10
105.9
 20
6
 11
105.905
 21
6.12553
  0
LINE
  8
0
 10
105.905
 20
6.12553
 11
105.92
 21
6.25029
  0
LINE
  8
0
 10
105.92
 20
6.25029
 11
105.944
 21
6.3735
  0
LINE
  8
0
 10
105.944
 20
6.3735
 11
105.978
 21
6.49442
  0
LINE
  8
0
 10
105.978
 20
6.49442
 11
106.022
 21
6.61229
  0
LINE
  8
0
 10
106.022
 20
6.61229
 11
106.074
 21
6.72638
  0
LINE
  8
0
 10
106.074
 20
6.72638
 11
106.136
 21
6.83598
  0
LINE
  8
0
 10
106.136
 20
6.83598
 11
106.206
 21
6.94044
  0
LINE
  8
0
 10
106.206
 20
6.94044
 11
106.283
 21
7.03911
  0
LINE
  8
0
 10
106.283
 20
7.03911
 11
106.369
 21
7.13136
  0
LINE
  8
0
 10
106.369
 20
7.13136
 11
106.461
 21
7.21664
  0
LINE
  8
0
 10
106.461
 20
7.21664
 11
106.56
 21
7.29442
  0
LINE
  8
0
 10
106.56
 20
7.29442
 11
106.664
 21
7.36421
  0
LINE
  8
0
 10
106.664
 20
7.36421
 11
106.774
 21
7.4256
  0
LINE
  8
0
 10
106.774
 20
7.4256
 11
106.888
 21
7.4782
  0
LINE
  8
0
 10
106.888
 20
7.4782
 11
107.006
 21
7.52168
  0
LINE
  8
0
 10
107.006
 20
7.52168
 11
107.126
 21
7.55579
  0
LINE
  8
0
 10
107.126
 20
7.55579
 11
107.25
 21
7.58029
  0
LINE
  8
0
 10
107.25
 20
7.58029
 11
107.374
 21
7.59506
  0
LINE
  8
0
 10
107.374
 20
7.59506
 11
107.5
 21
7.59999
  0
LINE
  8
0
 10
107.5
 20
7.59999
 11
107.626
 21
7.59506
  0
LINE
  8
0
 10
107.626
 20
7.59506
 11
107.75
 21
7.58029
  0
LINE
  8
0
 10
107.75
 20
7.58029
 11
107.874
 21
7.55579
  0
LINE
  8
0
 10
107.874
 20
7.55579
 11
107.994
 21
7.52168
  0
LINE
  8
0
 10
107.994
 20
7.52168
 11
108.112
 21
7.4782
  0
LINE
  8
0
 10
108.112
 20
7.4782
 11
108.226
 21
7.4256
  0
LINE
  8
0
 10
108.226
 20
7.4256
 11
108.336
 21
7.36421
  0
LINE
  8
0
 10
108.336
 20
7.36421
 11
108.44
 21
7.29442
  0
LINE
  8
0
 10
108.44
 20
7.29442
 11
108.539
 21
7.21664
  0
LINE
  8
0
 10
108.539
 20
7.21664
 11
108.631
 21
7.13136
  0
LINE
  8
0
 10
108.631
 20
7.13136
 11
108.717
 21
7.03911
  0
LINE
  8
0
 10
108.717
 20
7.03911
 11
108.794
 21
6.94044
  0
LINE
  8
0
 10
108.794
 20
6.94044
 11
108.864
 21
6.83598
  0
LINE
  8
0
 10
108.864
 20
6.83598
 11
108.926
 21
6.72638
  0
LINE
  8
0
 10
108.926
 20
6.72638
 11
108.978
 21
6.61229
  0
LINE
  8
0
 10
108.978
 20
6.61229
 11
109.022
 21
6.49442
  0
LINE
  8
0
 10
109.022
 20
6.49442
 11
109.056
 21
6.3735
  0
LINE
  8
0
 10
109.056
 20
6.3735
 11
109.08
 21
6.25029
  0
LINE
  8
0
 10
109.08
 20
6.25029
 11
109.095
 21
6.12553
  0
LINE
  8
0
 10
109.095
 20
6.12553
 11
109.1
 21
6
  0
LINE
  8
0
 10
109.1
 20
6
 11
109.095
 21
5.87445
  0
LINE
  8
0
 10
109.095
 20
5.87445
 11
109.08
 21
5.74969
  0
LINE
  8
0
 10
109.08
 20
5.74969
 11
109.056
 21
5.62648
  0
LINE
  8
0
 10
109.056
 20
5.62648
 11
109.022
 21
5.50557
  0
LINE
  8
0
 10
109.022
 20
5.50557
 11
108.978
 21
5.3877
  0
LINE
  8
0
 10
108.978
 20
5.3877
 11
108.926
 21
5.27361
  0
LINE
  8
0
 10
108.926
 20
5.27361
 11
108.864
 21
5.164
  0
LINE
  8
0
 10
108.864
 20
5.164
 11
108.794
 21
5.05954
  0
LINE
  8
0
 10
108.794
 20
5.05954
 11
108.717
 21
4.96088
  0
LINE
  8
0
 10
108.717
 20
4.96088
 11
108.631
 21
4.86862
  0
LINE
  8
0
 10
108.631
 20
4.86862
 11
108.539
 21
4.78334
  0
LINE
  8
0
 10
108.539
 20
4.78334
 11
108.44
 21
4.70557
  0
LINE
  8
0
 10
108.44
 20
4.70557
 11
108.336
 21
4.63577
  0
LINE
  8
0
 10
108.336
 20
4.63577
 11
108.226
 21
4.57439
  0
LINE
  8
0
 10
108.226
 20
4.57439
 11
108.112
 21
4.52179
  0
LINE
  8
0
 10
108.112
 20
4.52179
 11
107.994
 21
4.4783
  0
LINE
  8
0
 10
107.994
 20
4.4783
 11
107.874
 21
4.4442
  0
LINE
  8
0
 10
107.874
 20
4.4442
 11
107.75
 21
4.41969
  0
LINE
  8
0
 10
107.75
 20
4.41969
 11
107.626
 21
4.40492
  0
LINE
  8
0
 10
107.626
 20
4.40492
 11
107.5
 21
4.39999
  0
LINE
  8
0
 10
107.5
 20
4.39999
 11
107.374
 21
4.40492
  0
ENDSEC
  0
SECTION
  2
OBJECTS
  0
DICTIONARY
  0
ENDSEC
  0
EOF
