  0
SECTION
  2
BLOCKS
  0
ENDSEC
  0
SECTION
  2
ENTITIES
  0
LINE
  8
0
 10
-196.6
 20
-69.5
 11
-168.4
 21
-69.5
  0
LINE
  8
0
 10
-168.4
 20
-69.5
 11
-168.4
 21
-152
  0
LINE
  8
0
 10
-168.4
 20
-152
 11
17
 21
-152
  0
LINE
  8
0
 10
17
 20
-152
 11
17
 21
151
  0
LINE
  8
0
 10
17
 20
151
 11
-168.4
 21
151
  0
LINE
  8
0
 10
-168.4
 20
151
 11
-168.4
 21
75
  0
LINE
  8
0
 10
-168.4
 20
75
 11
-196.6
 21
75
  0
LINE
  8
0
 10
-196.6
 20
75
 11
-196.6
 21
151
  0
LINE
  8
0
 10
-196.6
 20
151
 11
-232
 21
151
  0
LINE
  8
0
 10
-232
 20
151
 11
-232
 21
-152
  0
LINE
  8
0
 10
-232
 20
-152
 11
-196.6
 21
-152
  0
LINE
  8
0
 10
-196.6
 20
-152
 11
-196.6
 21
-69.5
  0
LINE
  8
0
 10
-213
 20
143.4
 11
-213.126
 21
143.405
  0
LINE
  8
0
 10
-213.126
 20
143.405
 11
-213.25
 21
143.42
  0
LINE
  8
0
 10
-213.25
 20
143.42
 11
-213.374
 21
143.444
  0
LINE
  8
0
 10
-213.374
 20
143.444
 11
-213.494
 21
143.478
  0
LINE
  8
0
 10
-213.494
 20
143.478
 11
-213.612
 21
143.522
  0
LINE
  8
0
 10
-213.612
 20
143.522
 11
-213.726
 21
143.574
  0
LINE
  8
0
 10
-213.726
 20
143.574
 11
-213.836
 21
143.636
  0
LINE
  8
0
 10
-213.836
 20
143.636
 11
-213.94
 21
143.706
  0
LINE
  8
0
 10
-213.94
 20
143.706
 11
-214.039
 21
143.783
  0
LINE
  8
0
 10
-214.039
 20
143.783
 11
-214.131
 21
143.869
  0
LINE
  8
0
 10
-214.131
 20
143.869
 11
-214.217
 21
143.961
  0
LINE
  8
0
 10
-214.217
 20
143.961
 11
-214.294
 21
144.06
  0
LINE
  8
0
 10
-214.294
 20
144.06
 11
-214.364
 21
144.164
  0
LINE
  8
0
 10
-214.364
 20
144.164
 11
-214.426
 21
144.274
  0
LINE
  8
0
 10
-214.426
 20
144.274
 11
-214.478
 21
144.388
  0
LINE
  8
0
 10
-214.478
 20
144.388
 11
-214.522
 21
144.506
  0
LINE
  8
0
 10
-214.522
 20
144.506
 11
-214.556
 21
144.626
  0
LINE
  8
0
 10
-214.556
 20
144.626
 11
-214.58
 21
144.75
  0
LINE
  8
0
 10
-214.58
 20
144.75
 11
-214.595
 21
144.874
  0
LINE
  8
0
 10
-214.595
 20
144.874
 11
-214.6
 21
145
  0
LINE
  8
0
 10
-214.6
 20
145
 11
-214.595
 21
145.126
  0
LINE
  8
0
 10
-214.595
 20
145.126
 11
-214.58
 21
145.25
  0
LINE
  8
0
 10
-214.58
 20
145.25
 11
-214.556
 21
145.374
  0
LINE
  8
0
 10
-214.556
 20
145.374
 11
-214.522
 21
145.494
  0
LINE
  8
0
 10
-214.522
 20
145.494
 11
-214.478
 21
145.612
  0
LINE
  8
0
 10
-214.478
 20
145.612
 11
-214.426
 21
145.726
  0
LINE
  8
0
 10
-214.426
 20
145.726
 11
-214.364
 21
145.836
  0
LINE
  8
0
 10
-214.364
 20
145.836
 11
-214.294
 21
145.94
  0
LINE
  8
0
 10
-214.294
 20
145.94
 11
-214.217
 21
146.039
  0
LINE
  8
0
 10
-214.217
 20
146.039
 11
-214.131
 21
146.131
  0
LINE
  8
0
 10
-214.131
 20
146.131
 11
-214.039
 21
146.217
  0
LINE
  8
0
 10
-214.039
 20
146.217
 11
-213.94
 21
146.294
  0
LINE
  8
0
 10
-213.94
 20
146.294
 11
-213.836
 21
146.364
  0
LINE
  8
0
 10
-213.836
 20
146.364
 11
-213.726
 21
146.426
  0
LINE
  8
0
 10
-213.726
 20
146.426
 11
-213.612
 21
146.478
  0
LINE
  8
0
 10
-213.612
 20
146.478
 11
-213.494
 21
146.522
  0
LINE
  8
0
 10
-213.494
 20
146.522
 11
-213.374
 21
146.556
  0
LINE
  8
0
 10
-213.374
 20
146.556
 11
-213.25
 21
146.58
  0
LINE
  8
0
 10
-213.25
 20
146.58
 11
-213.126
 21
146.595
  0
LINE
  8
0
 10
-213.126
 20
146.595
 11
-213
 21
146.6
  0
LINE
  8
0
 10
-213
 20
146.6
 11
-205
 21
146.6
  0
LINE
  8
0
 10
-205
 20
146.6
 11
-204.874
 21
146.595
  0
LINE
  8
0
 10
-204.874
 20
146.595
 11
-204.75
 21
146.58
  0
LINE
  8
0
 10
-204.75
 20
146.58
 11
-204.626
 21
146.556
  0
LINE
  8
0
 10
-204.626
 20
146.556
 11
-204.506
 21
146.522
  0
LINE
  8
0
 10
-204.506
 20
146.522
 11
-204.388
 21
146.478
  0
LINE
  8
0
 10
-204.388
 20
146.478
 11
-204.274
 21
146.426
  0
LINE
  8
0
 10
-204.274
 20
146.426
 11
-204.164
 21
146.364
  0
LINE
  8
0
 10
-204.164
 20
146.364
 11
-204.06
 21
146.294
  0
LINE
  8
0
 10
-204.06
 20
146.294
 11
-203.961
 21
146.217
  0
LINE
  8
0
 10
-203.961
 20
146.217
 11
-203.869
 21
146.131
  0
LINE
  8
0
 10
-203.869
 20
146.131
 11
-203.783
 21
146.039
  0
LINE
  8
0
 10
-203.783
 20
146.039
 11
-203.706
 21
145.94
  0
LINE
  8
0
 10
-203.706
 20
145.94
 11
-203.636
 21
145.836
  0
LINE
  8
0
 10
-203.636
 20
145.836
 11
-203.574
 21
145.726
  0
LINE
  8
0
 10
-203.574
 20
145.726
 11
-203.522
 21
145.612
  0
LINE
  8
0
 10
-203.522
 20
145.612
 11
-203.478
 21
145.494
  0
LINE
  8
0
 10
-203.478
 20
145.494
 11
-203.444
 21
145.374
  0
LINE
  8
0
 10
-203.444
 20
145.374
 11
-203.42
 21
145.25
  0
LINE
  8
0
 10
-203.42
 20
145.25
 11
-203.405
 21
145.126
  0
LINE
  8
0
 10
-203.405
 20
145.126
 11
-203.4
 21
145
  0
LINE
  8
0
 10
-203.4
 20
145
 11
-203.405
 21
144.874
  0
LINE
  8
0
 10
-203.405
 20
144.874
 11
-203.42
 21
144.75
  0
LINE
  8
0
 10
-203.42
 20
144.75
 11
-203.444
 21
144.626
  0
LINE
  8
0
 10
-203.444
 20
144.626
 11
-203.478
 21
144.506
  0
LINE
  8
0
 10
-203.478
 20
144.506
 11
-203.522
 21
144.388
  0
LINE
  8
0
 10
-203.522
 20
144.388
 11
-203.574
 21
144.274
  0
LINE
  8
0
 10
-203.574
 20
144.274
 11
-203.636
 21
144.164
  0
LINE
  8
0
 10
-203.636
 20
144.164
 11
-203.706
 21
144.06
  0
LINE
  8
0
 10
-203.706
 20
144.06
 11
-203.783
 21
143.961
  0
LINE
  8
0
 10
-203.783
 20
143.961
 11
-203.869
 21
143.869
  0
LINE
  8
0
 10
-203.869
 20
143.869
 11
-203.961
 21
143.783
  0
LINE
  8
0
 10
-203.961
 20
143.783
 11
-204.06
 21
143.706
  0
LINE
  8
0
 10
-204.06
 20
143.706
 11
-204.164
 21
143.636
  0
LINE
  8
0
 10
-204.164
 20
143.636
 11
-204.274
 21
143.574
  0
LINE
  8
0
 10
-204.274
 20
143.574
 11
-204.388
 21
143.522
  0
LINE
  8
0
 10
-204.388
 20
143.522
 11
-204.506
 21
143.478
  0
LINE
  8
0
 10
-204.506
 20
143.478
 11
-204.626
 21
143.444
  0
LINE
  8
0
 10
-204.626
 20
143.444
 11
-204.75
 21
143.42
  0
LINE
  8
0
 10
-204.75
 20
143.42
 11
-204.874
 21
143.405
  0
LINE
  8
0
 10
-204.874
 20
143.405
 11
-205
 21
143.4
  0
LINE
  8
0
 10
-205
 20
143.4
 11
-213
 21
143.4
  0
LINE
  8
0
 10
-153
 20
143.4
 11
-153.126
 21
143.405
  0
LINE
  8
0
 10
-153.126
 20
143.405
 11
-153.25
 21
143.42
  0
LINE
  8
0
 10
-153.25
 20
143.42
 11
-153.374
 21
143.444
  0
LINE
  8
0
 10
-153.374
 20
143.444
 11
-153.494
 21
143.478
  0
LINE
  8
0
 10
-153.494
 20
143.478
 11
-153.612
 21
143.522
  0
LINE
  8
0
 10
-153.612
 20
143.522
 11
-153.726
 21
143.574
  0
LINE
  8
0
 10
-153.726
 20
143.574
 11
-153.836
 21
143.636
  0
LINE
  8
0
 10
-153.836
 20
143.636
 11
-153.94
 21
143.706
  0
LINE
  8
0
 10
-153.94
 20
143.706
 11
-154.039
 21
143.783
  0
LINE
  8
0
 10
-154.039
 20
143.783
 11
-154.131
 21
143.869
  0
LINE
  8
0
 10
-154.131
 20
143.869
 11
-154.217
 21
143.961
  0
LINE
  8
0
 10
-154.217
 20
143.961
 11
-154.294
 21
144.06
  0
LINE
  8
0
 10
-154.294
 20
144.06
 11
-154.364
 21
144.164
  0
LINE
  8
0
 10
-154.364
 20
144.164
 11
-154.426
 21
144.274
  0
LINE
  8
0
 10
-154.426
 20
144.274
 11
-154.478
 21
144.388
  0
LINE
  8
0
 10
-154.478
 20
144.388
 11
-154.522
 21
144.506
  0
LINE
  8
0
 10
-154.522
 20
144.506
 11
-154.556
 21
144.626
  0
LINE
  8
0
 10
-154.556
 20
144.626
 11
-154.58
 21
144.75
  0
LINE
  8
0
 10
-154.58
 20
144.75
 11
-154.595
 21
144.874
  0
LINE
  8
0
 10
-154.595
 20
144.874
 11
-154.6
 21
145
  0
LINE
  8
0
 10
-154.6
 20
145
 11
-154.595
 21
145.126
  0
LINE
  8
0
 10
-154.595
 20
145.126
 11
-154.58
 21
145.25
  0
LINE
  8
0
 10
-154.58
 20
145.25
 11
-154.556
 21
145.374
  0
LINE
  8
0
 10
-154.556
 20
145.374
 11
-154.522
 21
145.494
  0
LINE
  8
0
 10
-154.522
 20
145.494
 11
-154.478
 21
145.612
  0
LINE
  8
0
 10
-154.478
 20
145.612
 11
-154.426
 21
145.726
  0
LINE
  8
0
 10
-154.426
 20
145.726
 11
-154.364
 21
145.836
  0
LINE
  8
0
 10
-154.364
 20
145.836
 11
-154.294
 21
145.94
  0
LINE
  8
0
 10
-154.294
 20
145.94
 11
-154.217
 21
146.039
  0
LINE
  8
0
 10
-154.217
 20
146.039
 11
-154.131
 21
146.131
  0
LINE
  8
0
 10
-154.131
 20
146.131
 11
-154.039
 21
146.217
  0
LINE
  8
0
 10
-154.039
 20
146.217
 11
-153.94
 21
146.294
  0
LINE
  8
0
 10
-153.94
 20
146.294
 11
-153.836
 21
146.364
  0
LINE
  8
0
 10
-153.836
 20
146.364
 11
-153.726
 21
146.426
  0
LINE
  8
0
 10
-153.726
 20
146.426
 11
-153.612
 21
146.478
  0
LINE
  8
0
 10
-153.612
 20
146.478
 11
-153.494
 21
146.522
  0
LINE
  8
0
 10
-153.494
 20
146.522
 11
-153.374
 21
146.556
  0
LINE
  8
0
 10
-153.374
 20
146.556
 11
-153.25
 21
146.58
  0
LINE
  8
0
 10
-153.25
 20
146.58
 11
-153.126
 21
146.595
  0
LINE
  8
0
 10
-153.126
 20
146.595
 11
-153
 21
146.6
  0
LINE
  8
0
 10
-153
 20
146.6
 11
-145
 21
146.6
  0
LINE
  8
0
 10
-145
 20
146.6
 11
-144.874
 21
146.595
  0
LINE
  8
0
 10
-144.874
 20
146.595
 11
-144.75
 21
146.58
  0
LINE
  8
0
 10
-144.75
 20
146.58
 11
-144.626
 21
146.556
  0
LINE
  8
0
 10
-144.626
 20
146.556
 11
-144.506
 21
146.522
  0
LINE
  8
0
 10
-144.506
 20
146.522
 11
-144.388
 21
146.478
  0
LINE
  8
0
 10
-144.388
 20
146.478
 11
-144.274
 21
146.426
  0
LINE
  8
0
 10
-144.274
 20
146.426
 11
-144.164
 21
146.364
  0
LINE
  8
0
 10
-144.164
 20
146.364
 11
-144.06
 21
146.294
  0
LINE
  8
0
 10
-144.06
 20
146.294
 11
-143.961
 21
146.217
  0
LINE
  8
0
 10
-143.961
 20
146.217
 11
-143.869
 21
146.131
  0
LINE
  8
0
 10
-143.869
 20
146.131
 11
-143.783
 21
146.039
  0
LINE
  8
0
 10
-143.783
 20
146.039
 11
-143.706
 21
145.94
  0
LINE
  8
0
 10
-143.706
 20
145.94
 11
-143.636
 21
145.836
  0
LINE
  8
0
 10
-143.636
 20
145.836
 11
-143.574
 21
145.726
  0
LINE
  8
0
 10
-143.574
 20
145.726
 11
-143.522
 21
145.612
  0
LINE
  8
0
 10
-143.522
 20
145.612
 11
-143.478
 21
145.494
  0
LINE
  8
0
 10
-143.478
 20
145.494
 11
-143.444
 21
145.374
  0
LINE
  8
0
 10
-143.444
 20
145.374
 11
-143.42
 21
145.25
  0
LINE
  8
0
 10
-143.42
 20
145.25
 11
-143.405
 21
145.126
  0
LINE
  8
0
 10
-143.405
 20
145.126
 11
-143.4
 21
145
  0
LINE
  8
0
 10
-143.4
 20
145
 11
-143.405
 21
144.874
  0
LINE
  8
0
 10
-143.405
 20
144.874
 11
-143.42
 21
144.75
  0
LINE
  8
0
 10
-143.42
 20
144.75
 11
-143.444
 21
144.626
  0
LINE
  8
0
 10
-143.444
 20
144.626
 11
-143.478
 21
144.506
  0
LINE
  8
0
 10
-143.478
 20
144.506
 11
-143.522
 21
144.388
  0
LINE
  8
0
 10
-143.522
 20
144.388
 11
-143.574
 21
144.274
  0
LINE
  8
0
 10
-143.574
 20
144.274
 11
-143.636
 21
144.164
  0
LINE
  8
0
 10
-143.636
 20
144.164
 11
-143.706
 21
144.06
  0
LINE
  8
0
 10
-143.706
 20
144.06
 11
-143.783
 21
143.961
  0
LINE
  8
0
 10
-143.783
 20
143.961
 11
-143.869
 21
143.869
  0
LINE
  8
0
 10
-143.869
 20
143.869
 11
-143.961
 21
143.783
  0
LINE
  8
0
 10
-143.961
 20
143.783
 11
-144.06
 21
143.706
  0
LINE
  8
0
 10
-144.06
 20
143.706
 11
-144.164
 21
143.636
  0
LINE
  8
0
 10
-144.164
 20
143.636
 11
-144.274
 21
143.574
  0
LINE
  8
0
 10
-144.274
 20
143.574
 11
-144.388
 21
143.522
  0
LINE
  8
0
 10
-144.388
 20
143.522
 11
-144.506
 21
143.478
  0
LINE
  8
0
 10
-144.506
 20
143.478
 11
-144.626
 21
143.444
  0
LINE
  8
0
 10
-144.626
 20
143.444
 11
-144.75
 21
143.42
  0
LINE
  8
0
 10
-144.75
 20
143.42
 11
-144.874
 21
143.405
  0
LINE
  8
0
 10
-144.874
 20
143.405
 11
-145
 21
143.4
  0
LINE
  8
0
 10
-145
 20
143.4
 11
-153
 21
143.4
  0
LINE
  8
0
 10
-118
 20
143.4
 11
-118.126
 21
143.405
  0
LINE
  8
0
 10
-118.126
 20
143.405
 11
-118.25
 21
143.42
  0
LINE
  8
0
 10
-118.25
 20
143.42
 11
-118.374
 21
143.444
  0
LINE
  8
0
 10
-118.374
 20
143.444
 11
-118.494
 21
143.478
  0
LINE
  8
0
 10
-118.494
 20
143.478
 11
-118.612
 21
143.522
  0
LINE
  8
0
 10
-118.612
 20
143.522
 11
-118.726
 21
143.574
  0
LINE
  8
0
 10
-118.726
 20
143.574
 11
-118.836
 21
143.636
  0
LINE
  8
0
 10
-118.836
 20
143.636
 11
-118.94
 21
143.706
  0
LINE
  8
0
 10
-118.94
 20
143.706
 11
-119.039
 21
143.783
  0
LINE
  8
0
 10
-119.039
 20
143.783
 11
-119.131
 21
143.869
  0
LINE
  8
0
 10
-119.131
 20
143.869
 11
-119.217
 21
143.961
  0
LINE
  8
0
 10
-119.217
 20
143.961
 11
-119.294
 21
144.06
  0
LINE
  8
0
 10
-119.294
 20
144.06
 11
-119.364
 21
144.164
  0
LINE
  8
0
 10
-119.364
 20
144.164
 11
-119.426
 21
144.274
  0
LINE
  8
0
 10
-119.426
 20
144.274
 11
-119.478
 21
144.388
  0
LINE
  8
0
 10
-119.478
 20
144.388
 11
-119.522
 21
144.506
  0
LINE
  8
0
 10
-119.522
 20
144.506
 11
-119.556
 21
144.626
  0
LINE
  8
0
 10
-119.556
 20
144.626
 11
-119.58
 21
144.75
  0
LINE
  8
0
 10
-119.58
 20
144.75
 11
-119.595
 21
144.874
  0
LINE
  8
0
 10
-119.595
 20
144.874
 11
-119.6
 21
145
  0
LINE
  8
0
 10
-119.6
 20
145
 11
-119.595
 21
145.126
  0
LINE
  8
0
 10
-119.595
 20
145.126
 11
-119.58
 21
145.25
  0
LINE
  8
0
 10
-119.58
 20
145.25
 11
-119.556
 21
145.374
  0
LINE
  8
0
 10
-119.556
 20
145.374
 11
-119.522
 21
145.494
  0
LINE
  8
0
 10
-119.522
 20
145.494
 11
-119.478
 21
145.612
  0
LINE
  8
0
 10
-119.478
 20
145.612
 11
-119.426
 21
145.726
  0
LINE
  8
0
 10
-119.426
 20
145.726
 11
-119.364
 21
145.836
  0
LINE
  8
0
 10
-119.364
 20
145.836
 11
-119.294
 21
145.94
  0
LINE
  8
0
 10
-119.294
 20
145.94
 11
-119.217
 21
146.039
  0
LINE
  8
0
 10
-119.217
 20
146.039
 11
-119.131
 21
146.131
  0
LINE
  8
0
 10
-119.131
 20
146.131
 11
-119.039
 21
146.217
  0
LINE
  8
0
 10
-119.039
 20
146.217
 11
-118.94
 21
146.294
  0
LINE
  8
0
 10
-118.94
 20
146.294
 11
-118.836
 21
146.364
  0
LINE
  8
0
 10
-118.836
 20
146.364
 11
-118.726
 21
146.426
  0
LINE
  8
0
 10
-118.726
 20
146.426
 11
-118.612
 21
146.478
  0
LINE
  8
0
 10
-118.612
 20
146.478
 11
-118.494
 21
146.522
  0
LINE
  8
0
 10
-118.494
 20
146.522
 11
-118.374
 21
146.556
  0
LINE
  8
0
 10
-118.374
 20
146.556
 11
-118.25
 21
146.58
  0
LINE
  8
0
 10
-118.25
 20
146.58
 11
-118.126
 21
146.595
  0
LINE
  8
0
 10
-118.126
 20
146.595
 11
-118
 21
146.6
  0
LINE
  8
0
 10
-118
 20
146.6
 11
-110
 21
146.6
  0
LINE
  8
0
 10
-110
 20
146.6
 11
-109.874
 21
146.595
  0
LINE
  8
0
 10
-109.874
 20
146.595
 11
-109.75
 21
146.58
  0
LINE
  8
0
 10
-109.75
 20
146.58
 11
-109.626
 21
146.556
  0
LINE
  8
0
 10
-109.626
 20
146.556
 11
-109.506
 21
146.522
  0
LINE
  8
0
 10
-109.506
 20
146.522
 11
-109.388
 21
146.478
  0
LINE
  8
0
 10
-109.388
 20
146.478
 11
-109.274
 21
146.426
  0
LINE
  8
0
 10
-109.274
 20
146.426
 11
-109.164
 21
146.364
  0
LINE
  8
0
 10
-109.164
 20
146.364
 11
-109.06
 21
146.294
  0
LINE
  8
0
 10
-109.06
 20
146.294
 11
-108.961
 21
146.217
  0
LINE
  8
0
 10
-108.961
 20
146.217
 11
-108.869
 21
146.131
  0
LINE
  8
0
 10
-108.869
 20
146.131
 11
-108.783
 21
146.039
  0
LINE
  8
0
 10
-108.783
 20
146.039
 11
-108.706
 21
145.94
  0
LINE
  8
0
 10
-108.706
 20
145.94
 11
-108.636
 21
145.836
  0
LINE
  8
0
 10
-108.636
 20
145.836
 11
-108.574
 21
145.726
  0
LINE
  8
0
 10
-108.574
 20
145.726
 11
-108.522
 21
145.612
  0
LINE
  8
0
 10
-108.522
 20
145.612
 11
-108.478
 21
145.494
  0
LINE
  8
0
 10
-108.478
 20
145.494
 11
-108.444
 21
145.374
  0
LINE
  8
0
 10
-108.444
 20
145.374
 11
-108.42
 21
145.25
  0
LINE
  8
0
 10
-108.42
 20
145.25
 11
-108.405
 21
145.126
  0
LINE
  8
0
 10
-108.405
 20
145.126
 11
-108.4
 21
145
  0
LINE
  8
0
 10
-108.4
 20
145
 11
-108.405
 21
144.874
  0
LINE
  8
0
 10
-108.405
 20
144.874
 11
-108.42
 21
144.75
  0
LINE
  8
0
 10
-108.42
 20
144.75
 11
-108.444
 21
144.626
  0
LINE
  8
0
 10
-108.444
 20
144.626
 11
-108.478
 21
144.506
  0
LINE
  8
0
 10
-108.478
 20
144.506
 11
-108.522
 21
144.388
  0
LINE
  8
0
 10
-108.522
 20
144.388
 11
-108.574
 21
144.274
  0
LINE
  8
0
 10
-108.574
 20
144.274
 11
-108.636
 21
144.164
  0
LINE
  8
0
 10
-108.636
 20
144.164
 11
-108.706
 21
144.06
  0
LINE
  8
0
 10
-108.706
 20
144.06
 11
-108.783
 21
143.961
  0
LINE
  8
0
 10
-108.783
 20
143.961
 11
-108.869
 21
143.869
  0
LINE
  8
0
 10
-108.869
 20
143.869
 11
-108.961
 21
143.783
  0
LINE
  8
0
 10
-108.961
 20
143.783
 11
-109.06
 21
143.706
  0
LINE
  8
0
 10
-109.06
 20
143.706
 11
-109.164
 21
143.636
  0
LINE
  8
0
 10
-109.164
 20
143.636
 11
-109.274
 21
143.574
  0
LINE
  8
0
 10
-109.274
 20
143.574
 11
-109.388
 21
143.522
  0
LINE
  8
0
 10
-109.388
 20
143.522
 11
-109.506
 21
143.478
  0
LINE
  8
0
 10
-109.506
 20
143.478
 11
-109.626
 21
143.444
  0
LINE
  8
0
 10
-109.626
 20
143.444
 11
-109.75
 21
143.42
  0
LINE
  8
0
 10
-109.75
 20
143.42
 11
-109.874
 21
143.405
  0
LINE
  8
0
 10
-109.874
 20
143.405
 11
-110
 21
143.4
  0
LINE
  8
0
 10
-110
 20
143.4
 11
-118
 21
143.4
  0
LINE
  8
0
 10
-83
 20
143.4
 11
-83.126
 21
143.405
  0
LINE
  8
0
 10
-83.126
 20
143.405
 11
-83.25
 21
143.42
  0
LINE
  8
0
 10
-83.25
 20
143.42
 11
-83.373
 21
143.444
  0
LINE
  8
0
 10
-83.373
 20
143.444
 11
-83.4941
 21
143.478
  0
LINE
  8
0
 10
-83.4941
 20
143.478
 11
-83.6123
 21
143.522
  0
LINE
  8
0
 10
-83.6123
 20
143.522
 11
-83.7266
 21
143.574
  0
LINE
  8
0
 10
-83.7266
 20
143.574
 11
-83.8359
 21
143.636
  0
LINE
  8
0
 10
-83.8359
 20
143.636
 11
-83.9404
 21
143.706
  0
LINE
  8
0
 10
-83.9404
 20
143.706
 11
-84.0391
 21
143.783
  0
LINE
  8
0
 10
-84.0391
 20
143.783
 11
-84.1318
 21
143.869
  0
LINE
  8
0
 10
-84.1318
 20
143.869
 11
-84.2168
 21
143.961
  0
LINE
  8
0
 10
-84.2168
 20
143.961
 11
-84.2939
 21
144.06
  0
LINE
  8
0
 10
-84.2939
 20
144.06
 11
-84.3643
 21
144.164
  0
LINE
  8
0
 10
-84.3643
 20
144.164
 11
-84.4258
 21
144.274
  0
LINE
  8
0
 10
-84.4258
 20
144.274
 11
-84.4785
 21
144.388
  0
LINE
  8
0
 10
-84.4785
 20
144.388
 11
-84.5215
 21
144.506
  0
LINE
  8
0
 10
-84.5215
 20
144.506
 11
-84.5557
 21
144.626
  0
LINE
  8
0
 10
-84.5557
 20
144.626
 11
-84.5801
 21
144.75
  0
LINE
  8
0
 10
-84.5801
 20
144.75
 11
-84.5947
 21
144.874
  0
LINE
  8
0
 10
-84.5947
 20
144.874
 11
-84.5996
 21
145
  0
LINE
  8
0
 10
-84.5996
 20
145
 11
-84.5947
 21
145.126
  0
LINE
  8
0
 10
-84.5947
 20
145.126
 11
-84.5801
 21
145.25
  0
LINE
  8
0
 10
-84.5801
 20
145.25
 11
-84.5557
 21
145.374
  0
LINE
  8
0
 10
-84.5557
 20
145.374
 11
-84.5215
 21
145.494
  0
LINE
  8
0
 10
-84.5215
 20
145.494
 11
-84.4785
 21
145.612
  0
LINE
  8
0
 10
-84.4785
 20
145.612
 11
-84.4258
 21
145.726
  0
LINE
  8
0
 10
-84.4258
 20
145.726
 11
-84.3643
 21
145.836
  0
LINE
  8
0
 10
-84.3643
 20
145.836
 11
-84.2939
 21
145.94
  0
LINE
  8
0
 10
-84.2939
 20
145.94
 11
-84.2168
 21
146.039
  0
LINE
  8
0
 10
-84.2168
 20
146.039
 11
-84.1318
 21
146.131
  0
LINE
  8
0
 10
-84.1318
 20
146.131
 11
-84.0391
 21
146.217
  0
LINE
  8
0
 10
-84.0391
 20
146.217
 11
-83.9404
 21
146.294
  0
LINE
  8
0
 10
-83.9404
 20
146.294
 11
-83.8359
 21
146.364
  0
LINE
  8
0
 10
-83.8359
 20
146.364
 11
-83.7266
 21
146.426
  0
LINE
  8
0
 10
-83.7266
 20
146.426
 11
-83.6123
 21
146.478
  0
LINE
  8
0
 10
-83.6123
 20
146.478
 11
-83.4941
 21
146.522
  0
LINE
  8
0
 10
-83.4941
 20
146.522
 11
-83.373
 21
146.556
  0
LINE
  8
0
 10
-83.373
 20
146.556
 11
-83.25
 21
146.58
  0
LINE
  8
0
 10
-83.25
 20
146.58
 11
-83.126
 21
146.595
  0
LINE
  8
0
 10
-83.126
 20
146.595
 11
-83
 21
146.6
  0
LINE
  8
0
 10
-83
 20
146.6
 11
-75
 21
146.6
  0
LINE
  8
0
 10
-75
 20
146.6
 11
-74.874
 21
146.595
  0
LINE
  8
0
 10
-74.874
 20
146.595
 11
-74.75
 21
146.58
  0
LINE
  8
0
 10
-74.75
 20
146.58
 11
-74.627
 21
146.556
  0
LINE
  8
0
 10
-74.627
 20
146.556
 11
-74.5059
 21
146.522
  0
LINE
  8
0
 10
-74.5059
 20
146.522
 11
-74.3877
 21
146.478
  0
LINE
  8
0
 10
-74.3877
 20
146.478
 11
-74.2734
 21
146.426
  0
LINE
  8
0
 10
-74.2734
 20
146.426
 11
-74.1641
 21
146.364
  0
LINE
  8
0
 10
-74.1641
 20
146.364
 11
-74.0596
 21
146.294
  0
LINE
  8
0
 10
-74.0596
 20
146.294
 11
-73.9609
 21
146.217
  0
LINE
  8
0
 10
-73.9609
 20
146.217
 11
-73.8682
 21
146.131
  0
LINE
  8
0
 10
-73.8682
 20
146.131
 11
-73.7832
 21
146.039
  0
LINE
  8
0
 10
-73.7832
 20
146.039
 11
-73.7061
 21
145.94
  0
LINE
  8
0
 10
-73.7061
 20
145.94
 11
-73.6357
 21
145.836
  0
LINE
  8
0
 10
-73.6357
 20
145.836
 11
-73.5742
 21
145.726
  0
LINE
  8
0
 10
-73.5742
 20
145.726
 11
-73.5215
 21
145.612
  0
LINE
  8
0
 10
-73.5215
 20
145.612
 11
-73.4785
 21
145.494
  0
LINE
  8
0
 10
-73.4785
 20
145.494
 11
-73.4443
 21
145.374
  0
LINE
  8
0
 10
-73.4443
 20
145.374
 11
-73.4199
 21
145.25
  0
LINE
  8
0
 10
-73.4199
 20
145.25
 11
-73.4053
 21
145.126
  0
LINE
  8
0
 10
-73.4053
 20
145.126
 11
-73.4004
 21
145
  0
LINE
  8
0
 10
-73.4004
 20
145
 11
-73.4053
 21
144.874
  0
LINE
  8
0
 10
-73.4053
 20
144.874
 11
-73.4199
 21
144.75
  0
LINE
  8
0
 10
-73.4199
 20
144.75
 11
-73.4443
 21
144.626
  0
LINE
  8
0
 10
-73.4443
 20
144.626
 11
-73.4785
 21
144.506
  0
LINE
  8
0
 10
-73.4785
 20
144.506
 11
-73.5215
 21
144.388
  0
LINE
  8
0
 10
-73.5215
 20
144.388
 11
-73.5742
 21
144.274
  0
LINE
  8
0
 10
-73.5742
 20
144.274
 11
-73.6357
 21
144.164
  0
LINE
  8
0
 10
-73.6357
 20
144.164
 11
-73.7061
 21
144.06
  0
LINE
  8
0
 10
-73.7061
 20
144.06
 11
-73.7832
 21
143.961
  0
LINE
  8
0
 10
-73.7832
 20
143.961
 11
-73.8682
 21
143.869
  0
LINE
  8
0
 10
-73.8682
 20
143.869
 11
-73.9609
 21
143.783
  0
LINE
  8
0
 10
-73.9609
 20
143.783
 11
-74.0596
 21
143.706
  0
LINE
  8
0
 10
-74.0596
 20
143.706
 11
-74.1641
 21
143.636
  0
LINE
  8
0
 10
-74.1641
 20
143.636
 11
-74.2734
 21
143.574
  0
LINE
  8
0
 10
-74.2734
 20
143.574
 11
-74.3877
 21
143.522
  0
LINE
  8
0
 10
-74.3877
 20
143.522
 11
-74.5059
 21
143.478
  0
LINE
  8
0
 10
-74.5059
 20
143.478
 11
-74.627
 21
143.444
  0
LINE
  8
0
 10
-74.627
 20
143.444
 11
-74.75
 21
143.42
  0
LINE
  8
0
 10
-74.75
 20
143.42
 11
-74.874
 21
143.405
  0
LINE
  8
0
 10
-74.874
 20
143.405
 11
-75
 21
143.4
  0
LINE
  8
0
 10
-75
 20
143.4
 11
-83
 21
143.4
  0
LINE
  8
0
 10
-48
 20
143.4
 11
-48.126
 21
143.405
  0
LINE
  8
0
 10
-48.126
 20
143.405
 11
-48.25
 21
143.42
  0
LINE
  8
0
 10
-48.25
 20
143.42
 11
-48.373
 21
143.444
  0
LINE
  8
0
 10
-48.373
 20
143.444
 11
-48.4941
 21
143.478
  0
LINE
  8
0
 10
-48.4941
 20
143.478
 11
-48.6123
 21
143.522
  0
LINE
  8
0
 10
-48.6123
 20
143.522
 11
-48.7266
 21
143.574
  0
LINE
  8
0
 10
-48.7266
 20
143.574
 11
-48.8359
 21
143.636
  0
LINE
  8
0
 10
-48.8359
 20
143.636
 11
-48.9404
 21
143.706
  0
LINE
  8
0
 10
-48.9404
 20
143.706
 11
-49.0391
 21
143.783
  0
LINE
  8
0
 10
-49.0391
 20
143.783
 11
-49.1318
 21
143.869
  0
LINE
  8
0
 10
-49.1318
 20
143.869
 11
-49.2168
 21
143.961
  0
LINE
  8
0
 10
-49.2168
 20
143.961
 11
-49.2939
 21
144.06
  0
LINE
  8
0
 10
-49.2939
 20
144.06
 11
-49.3643
 21
144.164
  0
LINE
  8
0
 10
-49.3643
 20
144.164
 11
-49.4258
 21
144.274
  0
LINE
  8
0
 10
-49.4258
 20
144.274
 11
-49.4785
 21
144.388
  0
LINE
  8
0
 10
-49.4785
 20
144.388
 11
-49.5215
 21
144.506
  0
LINE
  8
0
 10
-49.5215
 20
144.506
 11
-49.5557
 21
144.626
  0
LINE
  8
0
 10
-49.5557
 20
144.626
 11
-49.5801
 21
144.75
  0
LINE
  8
0
 10
-49.5801
 20
144.75
 11
-49.5947
 21
144.874
  0
LINE
  8
0
 10
-49.5947
 20
144.874
 11
-49.5996
 21
145
  0
LINE
  8
0
 10
-49.5996
 20
145
 11
-49.5947
 21
145.126
  0
LINE
  8
0
 10
-49.5947
 20
145.126
 11
-49.5801
 21
145.25
  0
LINE
  8
0
 10
-49.5801
 20
145.25
 11
-49.5557
 21
145.374
  0
LINE
  8
0
 10
-49.5557
 20
145.374
 11
-49.5215
 21
145.494
  0
LINE
  8
0
 10
-49.5215
 20
145.494
 11
-49.4785
 21
145.612
  0
LINE
  8
0
 10
-49.4785
 20
145.612
 11
-49.4258
 21
145.726
  0
LINE
  8
0
 10
-49.4258
 20
145.726
 11
-49.3643
 21
145.836
  0
LINE
  8
0
 10
-49.3643
 20
145.836
 11
-49.2939
 21
145.94
  0
LINE
  8
0
 10
-49.2939
 20
145.94
 11
-49.2168
 21
146.039
  0
LINE
  8
0
 10
-49.2168
 20
146.039
 11
-49.1318
 21
146.131
  0
LINE
  8
0
 10
-49.1318
 20
146.131
 11
-49.0391
 21
146.217
  0
LINE
  8
0
 10
-49.0391
 20
146.217
 11
-48.9404
 21
146.294
  0
LINE
  8
0
 10
-48.9404
 20
146.294
 11
-48.8359
 21
146.364
  0
LINE
  8
0
 10
-48.8359
 20
146.364
 11
-48.7266
 21
146.426
  0
LINE
  8
0
 10
-48.7266
 20
146.426
 11
-48.6123
 21
146.478
  0
LINE
  8
0
 10
-48.6123
 20
146.478
 11
-48.4941
 21
146.522
  0
LINE
  8
0
 10
-48.4941
 20
146.522
 11
-48.373
 21
146.556
  0
LINE
  8
0
 10
-48.373
 20
146.556
 11
-48.25
 21
146.58
  0
LINE
  8
0
 10
-48.25
 20
146.58
 11
-48.126
 21
146.595
  0
LINE
  8
0
 10
-48.126
 20
146.595
 11
-48
 21
146.6
  0
LINE
  8
0
 10
-48
 20
146.6
 11
-40
 21
146.6
  0
LINE
  8
0
 10
-40
 20
146.6
 11
-39.874
 21
146.595
  0
LINE
  8
0
 10
-39.874
 20
146.595
 11
-39.75
 21
146.58
  0
LINE
  8
0
 10
-39.75
 20
146.58
 11
-39.627
 21
146.556
  0
LINE
  8
0
 10
-39.627
 20
146.556
 11
-39.5059
 21
146.522
  0
LINE
  8
0
 10
-39.5059
 20
146.522
 11
-39.3877
 21
146.478
  0
LINE
  8
0
 10
-39.3877
 20
146.478
 11
-39.2734
 21
146.426
  0
LINE
  8
0
 10
-39.2734
 20
146.426
 11
-39.1641
 21
146.364
  0
LINE
  8
0
 10
-39.1641
 20
146.364
 11
-39.0596
 21
146.294
  0
LINE
  8
0
 10
-39.0596
 20
146.294
 11
-38.9609
 21
146.217
  0
LINE
  8
0
 10
-38.9609
 20
146.217
 11
-38.8682
 21
146.131
  0
LINE
  8
0
 10
-38.8682
 20
146.131
 11
-38.7832
 21
146.039
  0
LINE
  8
0
 10
-38.7832
 20
146.039
 11
-38.7061
 21
145.94
  0
LINE
  8
0
 10
-38.7061
 20
145.94
 11
-38.6357
 21
145.836
  0
LINE
  8
0
 10
-38.6357
 20
145.836
 11
-38.5742
 21
145.726
  0
LINE
  8
0
 10
-38.5742
 20
145.726
 11
-38.5215
 21
145.612
  0
LINE
  8
0
 10
-38.5215
 20
145.612
 11
-38.4785
 21
145.494
  0
LINE
  8
0
 10
-38.4785
 20
145.494
 11
-38.4443
 21
145.374
  0
LINE
  8
0
 10
-38.4443
 20
145.374
 11
-38.4199
 21
145.25
  0
LINE
  8
0
 10
-38.4199
 20
145.25
 11
-38.4053
 21
145.126
  0
LINE
  8
0
 10
-38.4053
 20
145.126
 11
-38.4004
 21
145
  0
LINE
  8
0
 10
-38.4004
 20
145
 11
-38.4053
 21
144.874
  0
LINE
  8
0
 10
-38.4053
 20
144.874
 11
-38.4199
 21
144.75
  0
LINE
  8
0
 10
-38.4199
 20
144.75
 11
-38.4443
 21
144.626
  0
LINE
  8
0
 10
-38.4443
 20
144.626
 11
-38.4785
 21
144.506
  0
LINE
  8
0
 10
-38.4785
 20
144.506
 11
-38.5215
 21
144.388
  0
LINE
  8
0
 10
-38.5215
 20
144.388
 11
-38.5742
 21
144.274
  0
LINE
  8
0
 10
-38.5742
 20
144.274
 11
-38.6357
 21
144.164
  0
LINE
  8
0
 10
-38.6357
 20
144.164
 11
-38.7061
 21
144.06
  0
LINE
  8
0
 10
-38.7061
 20
144.06
 11
-38.7832
 21
143.961
  0
LINE
  8
0
 10
-38.7832
 20
143.961
 11
-38.8682
 21
143.869
  0
LINE
  8
0
 10
-38.8682
 20
143.869
 11
-38.9609
 21
143.783
  0
LINE
  8
0
 10
-38.9609
 20
143.783
 11
-39.0596
 21
143.706
  0
LINE
  8
0
 10
-39.0596
 20
143.706
 11
-39.1641
 21
143.636
  0
LINE
  8
0
 10
-39.1641
 20
143.636
 11
-39.2734
 21
143.574
  0
LINE
  8
0
 10
-39.2734
 20
143.574
 11
-39.3877
 21
143.522
  0
LINE
  8
0
 10
-39.3877
 20
143.522
 11
-39.5059
 21
143.478
  0
LINE
  8
0
 10
-39.5059
 20
143.478
 11
-39.627
 21
143.444
  0
LINE
  8
0
 10
-39.627
 20
143.444
 11
-39.75
 21
143.42
  0
LINE
  8
0
 10
-39.75
 20
143.42
 11
-39.874
 21
143.405
  0
LINE
  8
0
 10
-39.874
 20
143.405
 11
-40
 21
143.4
  0
LINE
  8
0
 10
-40
 20
143.4
 11
-48
 21
143.4
  0
LINE
  8
0
 10
-13
 20
143.4
 11
-13.126
 21
143.405
  0
LINE
  8
0
 10
-13.126
 20
143.405
 11
-13.25
 21
143.42
  0
LINE
  8
0
 10
-13.25
 20
143.42
 11
-13.373
 21
143.444
  0
LINE
  8
0
 10
-13.373
 20
143.444
 11
-13.4941
 21
143.478
  0
LINE
  8
0
 10
-13.4941
 20
143.478
 11
-13.6123
 21
143.522
  0
LINE
  8
0
 10
-13.6123
 20
143.522
 11
-13.7266
 21
143.574
  0
LINE
  8
0
 10
-13.7266
 20
143.574
 11
-13.8359
 21
143.636
  0
LINE
  8
0
 10
-13.8359
 20
143.636
 11
-13.9404
 21
143.706
  0
LINE
  8
0
 10
-13.9404
 20
143.706
 11
-14.0391
 21
143.783
  0
LINE
  8
0
 10
-14.0391
 20
143.783
 11
-14.1318
 21
143.869
  0
LINE
  8
0
 10
-14.1318
 20
143.869
 11
-14.2168
 21
143.961
  0
LINE
  8
0
 10
-14.2168
 20
143.961
 11
-14.2939
 21
144.06
  0
LINE
  8
0
 10
-14.2939
 20
144.06
 11
-14.3643
 21
144.164
  0
LINE
  8
0
 10
-14.3643
 20
144.164
 11
-14.4258
 21
144.274
  0
LINE
  8
0
 10
-14.4258
 20
144.274
 11
-14.4785
 21
144.388
  0
LINE
  8
0
 10
-14.4785
 20
144.388
 11
-14.5215
 21
144.506
  0
LINE
  8
0
 10
-14.5215
 20
144.506
 11
-14.5557
 21
144.626
  0
LINE
  8
0
 10
-14.5557
 20
144.626
 11
-14.5801
 21
144.75
  0
LINE
  8
0
 10
-14.5801
 20
144.75
 11
-14.5947
 21
144.874
  0
LINE
  8
0
 10
-14.5947
 20
144.874
 11
-14.5996
 21
145
  0
LINE
  8
0
 10
-14.5996
 20
145
 11
-14.5947
 21
145.126
  0
LINE
  8
0
 10
-14.5947
 20
145.126
 11
-14.5801
 21
145.25
  0
LINE
  8
0
 10
-14.5801
 20
145.25
 11
-14.5557
 21
145.374
  0
LINE
  8
0
 10
-14.5557
 20
145.374
 11
-14.5215
 21
145.494
  0
LINE
  8
0
 10
-14.5215
 20
145.494
 11
-14.4785
 21
145.612
  0
LINE
  8
0
 10
-14.4785
 20
145.612
 11
-14.4258
 21
145.726
  0
LINE
  8
0
 10
-14.4258
 20
145.726
 11
-14.3643
 21
145.836
  0
LINE
  8
0
 10
-14.3643
 20
145.836
 11
-14.2939
 21
145.94
  0
LINE
  8
0
 10
-14.2939
 20
145.94
 11
-14.2168
 21
146.039
  0
LINE
  8
0
 10
-14.2168
 20
146.039
 11
-14.1318
 21
146.131
  0
LINE
  8
0
 10
-14.1318
 20
146.131
 11
-14.0391
 21
146.217
  0
LINE
  8
0
 10
-14.0391
 20
146.217
 11
-13.9404
 21
146.294
  0
LINE
  8
0
 10
-13.9404
 20
146.294
 11
-13.8359
 21
146.364
  0
LINE
  8
0
 10
-13.8359
 20
146.364
 11
-13.7266
 21
146.426
  0
LINE
  8
0
 10
-13.7266
 20
146.426
 11
-13.6123
 21
146.478
  0
LINE
  8
0
 10
-13.6123
 20
146.478
 11
-13.4941
 21
146.522
  0
LINE
  8
0
 10
-13.4941
 20
146.522
 11
-13.373
 21
146.556
  0
LINE
  8
0
 10
-13.373
 20
146.556
 11
-13.25
 21
146.58
  0
LINE
  8
0
 10
-13.25
 20
146.58
 11
-13.126
 21
146.595
  0
LINE
  8
0
 10
-13.126
 20
146.595
 11
-13
 21
146.6
  0
LINE
  8
0
 10
-13
 20
146.6
 11
-5
 21
146.6
  0
LINE
  8
0
 10
-5
 20
146.6
 11
-4.87402
 21
146.595
  0
LINE
  8
0
 10
-4.87402
 20
146.595
 11
-4.75
 21
146.58
  0
LINE
  8
0
 10
-4.75
 20
146.58
 11
-4.62695
 21
146.556
  0
LINE
  8
0
 10
-4.62695
 20
146.556
 11
-4.50586
 21
146.522
  0
LINE
  8
0
 10
-4.50586
 20
146.522
 11
-4.3877
 21
146.478
  0
LINE
  8
0
 10
-4.3877
 20
146.478
 11
-4.27344
 21
146.426
  0
LINE
  8
0
 10
-4.27344
 20
146.426
 11
-4.16406
 21
146.364
  0
LINE
  8
0
 10
-4.16406
 20
146.364
 11
-4.05957
 21
146.294
  0
LINE
  8
0
 10
-4.05957
 20
146.294
 11
-3.96094
 21
146.217
  0
LINE
  8
0
 10
-3.96094
 20
146.217
 11
-3.86816
 21
146.131
  0
LINE
  8
0
 10
-3.86816
 20
146.131
 11
-3.7832
 21
146.039
  0
LINE
  8
0
 10
-3.7832
 20
146.039
 11
-3.70605
 21
145.94
  0
LINE
  8
0
 10
-3.70605
 20
145.94
 11
-3.63574
 21
145.836
  0
LINE
  8
0
 10
-3.63574
 20
145.836
 11
-3.57422
 21
145.726
  0
LINE
  8
0
 10
-3.57422
 20
145.726
 11
-3.52148
 21
145.612
  0
LINE
  8
0
 10
-3.52148
 20
145.612
 11
-3.47852
 21
145.494
  0
LINE
  8
0
 10
-3.47852
 20
145.494
 11
-3.44434
 21
145.374
  0
LINE
  8
0
 10
-3.44434
 20
145.374
 11
-3.41992
 21
145.25
  0
LINE
  8
0
 10
-3.41992
 20
145.25
 11
-3.40527
 21
145.126
  0
LINE
  8
0
 10
-3.40527
 20
145.126
 11
-3.40039
 21
145
  0
LINE
  8
0
 10
-3.40039
 20
145
 11
-3.40527
 21
144.874
  0
LINE
  8
0
 10
-3.40527
 20
144.874
 11
-3.41992
 21
144.75
  0
LINE
  8
0
 10
-3.41992
 20
144.75
 11
-3.44434
 21
144.626
  0
LINE
  8
0
 10
-3.44434
 20
144.626
 11
-3.47852
 21
144.506
  0
LINE
  8
0
 10
-3.47852
 20
144.506
 11
-3.52148
 21
144.388
  0
LINE
  8
0
 10
-3.52148
 20
144.388
 11
-3.57422
 21
144.274
  0
LINE
  8
0
 10
-3.57422
 20
144.274
 11
-3.63574
 21
144.164
  0
LINE
  8
0
 10
-3.63574
 20
144.164
 11
-3.70605
 21
144.06
  0
LINE
  8
0
 10
-3.70605
 20
144.06
 11
-3.7832
 21
143.961
  0
LINE
  8
0
 10
-3.7832
 20
143.961
 11
-3.86816
 21
143.869
  0
LINE
  8
0
 10
-3.86816
 20
143.869
 11
-3.96094
 21
143.783
  0
LINE
  8
0
 10
-3.96094
 20
143.783
 11
-4.05957
 21
143.706
  0
LINE
  8
0
 10
-4.05957
 20
143.706
 11
-4.16406
 21
143.636
  0
LINE
  8
0
 10
-4.16406
 20
143.636
 11
-4.27344
 21
143.574
  0
LINE
  8
0
 10
-4.27344
 20
143.574
 11
-4.3877
 21
143.522
  0
LINE
  8
0
 10
-4.3877
 20
143.522
 11
-4.50586
 21
143.478
  0
LINE
  8
0
 10
-4.50586
 20
143.478
 11
-4.62695
 21
143.444
  0
LINE
  8
0
 10
-4.62695
 20
143.444
 11
-4.75
 21
143.42
  0
LINE
  8
0
 10
-4.75
 20
143.42
 11
-4.87402
 21
143.405
  0
LINE
  8
0
 10
-4.87402
 20
143.405
 11
-5
 21
143.4
  0
LINE
  8
0
 10
-5
 20
143.4
 11
-13
 21
143.4
  0
LINE
  8
0
 10
-110.85
 20
98.3496
 11
-110.85
 21
137.35
  0
LINE
  8
0
 10
-110.85
 20
137.35
 11
-70.8496
 21
137.35
  0
LINE
  8
0
 10
-70.8496
 20
137.35
 11
-70.8496
 21
98.3496
  0
LINE
  8
0
 10
-70.8496
 20
98.3496
 11
-110.85
 21
98.3496
  0
LINE
  8
0
 10
10.2959
 20
115.408
 11
10.0938
 21
115.432
  0
LINE
  8
0
 10
10.0938
 20
115.432
 11
9.89258
 21
115.472
  0
LINE
  8
0
 10
9.89258
 20
115.472
 11
9.69629
 21
115.527
  0
LINE
  8
0
 10
9.69629
 20
115.527
 11
9.50488
 21
115.598
  0
LINE
  8
0
 10
9.50488
 20
115.598
 11
9.31934
 21
115.683
  0
LINE
  8
0
 10
9.31934
 20
115.683
 11
9.1416
 21
115.783
  0
LINE
  8
0
 10
9.1416
 20
115.783
 11
8.97168
 21
115.897
  0
LINE
  8
0
 10
8.97168
 20
115.897
 11
8.81152
 21
116.023
  0
LINE
  8
0
 10
8.81152
 20
116.023
 11
8.66113
 21
116.162
  0
LINE
  8
0
 10
8.66113
 20
116.162
 11
8.52246
 21
116.311
  0
LINE
  8
0
 10
8.52246
 20
116.311
 11
8.39648
 21
116.472
  0
LINE
  8
0
 10
8.39648
 20
116.472
 11
8.2832
 21
116.641
  0
LINE
  8
0
 10
8.2832
 20
116.641
 11
8.18359
 21
116.82
  0
LINE
  8
0
 10
8.18359
 20
116.82
 11
8.09766
 21
117.005
  0
LINE
  8
0
 10
8.09766
 20
117.005
 11
8.02734
 21
117.197
  0
LINE
  8
0
 10
8.02734
 20
117.197
 11
7.97168
 21
117.393
  0
LINE
  8
0
 10
7.97168
 20
117.393
 11
7.93164
 21
117.593
  0
LINE
  8
0
 10
7.93164
 20
117.593
 11
7.9082
 21
117.796
  0
LINE
  8
0
 10
7.9082
 20
117.796
 11
7.90039
 21
118
  0
LINE
  8
0
 10
7.90039
 20
118
 11
7.9082
 21
118.204
  0
LINE
  8
0
 10
7.9082
 20
118.204
 11
7.93164
 21
118.407
  0
LINE
  8
0
 10
7.93164
 20
118.407
 11
7.97168
 21
118.607
  0
LINE
  8
0
 10
7.97168
 20
118.607
 11
8.02734
 21
118.803
  0
LINE
  8
0
 10
8.02734
 20
118.803
 11
8.09766
 21
118.995
  0
LINE
  8
0
 10
8.09766
 20
118.995
 11
8.18359
 21
119.18
  0
LINE
  8
0
 10
8.18359
 20
119.18
 11
8.2832
 21
119.358
  0
LINE
  8
0
 10
8.2832
 20
119.358
 11
8.39648
 21
119.528
  0
LINE
  8
0
 10
8.39648
 20
119.528
 11
8.52246
 21
119.689
  0
LINE
  8
0
 10
8.52246
 20
119.689
 11
8.66113
 21
119.838
  0
LINE
  8
0
 10
8.66113
 20
119.838
 11
8.81152
 21
119.977
  0
LINE
  8
0
 10
8.81152
 20
119.977
 11
8.97168
 21
120.103
  0
LINE
  8
0
 10
8.97168
 20
120.103
 11
9.1416
 21
120.217
  0
LINE
  8
0
 10
9.1416
 20
120.217
 11
9.31934
 21
120.317
  0
LINE
  8
0
 10
9.31934
 20
120.317
 11
9.50488
 21
120.402
  0
LINE
  8
0
 10
9.50488
 20
120.402
 11
9.69629
 21
120.473
  0
LINE
  8
0
 10
9.69629
 20
120.473
 11
9.89258
 21
120.528
  0
LINE
  8
0
 10
9.89258
 20
120.528
 11
10.0938
 21
120.568
  0
LINE
  8
0
 10
10.0938
 20
120.568
 11
10.2959
 21
120.592
  0
LINE
  8
0
 10
10.2959
 20
120.592
 11
10.5
 21
120.6
  0
LINE
  8
0
 10
10.5
 20
120.6
 11
10.7041
 21
120.592
  0
LINE
  8
0
 10
10.7041
 20
120.592
 11
10.9062
 21
120.568
  0
LINE
  8
0
 10
10.9062
 20
120.568
 11
11.1064
 21
120.528
  0
LINE
  8
0
 10
11.1064
 20
120.528
 11
11.3037
 21
120.473
  0
LINE
  8
0
 10
11.3037
 20
120.473
 11
11.4951
 21
120.402
  0
LINE
  8
0
 10
11.4951
 20
120.402
 11
11.6807
 21
120.317
  0
LINE
  8
0
 10
11.6807
 20
120.317
 11
11.8584
 21
120.217
  0
LINE
  8
0
 10
11.8584
 20
120.217
 11
12.0283
 21
120.103
  0
LINE
  8
0
 10
12.0283
 20
120.103
 11
12.1885
 21
119.977
  0
LINE
  8
0
 10
12.1885
 20
119.977
 11
12.3389
 21
119.838
  0
LINE
  8
0
 10
12.3389
 20
119.838
 11
12.4775
 21
119.689
  0
LINE
  8
0
 10
12.4775
 20
119.689
 11
12.6035
 21
119.528
  0
LINE
  8
0
 10
12.6035
 20
119.528
 11
12.7168
 21
119.358
  0
LINE
  8
0
 10
12.7168
 20
119.358
 11
12.8164
 21
119.18
  0
LINE
  8
0
 10
12.8164
 20
119.18
 11
12.9023
 21
118.995
  0
LINE
  8
0
 10
12.9023
 20
118.995
 11
12.9727
 21
118.803
  0
LINE
  8
0
 10
12.9727
 20
118.803
 11
13.0283
 21
118.607
  0
LINE
  8
0
 10
13.0283
 20
118.607
 11
13.0684
 21
118.407
  0
LINE
  8
0
 10
13.0684
 20
118.407
 11
13.0918
 21
118.204
  0
LINE
  8
0
 10
13.0918
 20
118.204
 11
13.0996
 21
118
  0
LINE
  8
0
 10
13.0996
 20
118
 11
13.0918
 21
117.796
  0
LINE
  8
0
 10
13.0918
 20
117.796
 11
13.0684
 21
117.593
  0
LINE
  8
0
 10
13.0684
 20
117.593
 11
13.0283
 21
117.393
  0
LINE
  8
0
 10
13.0283
 20
117.393
 11
12.9727
 21
117.197
  0
LINE
  8
0
 10
12.9727
 20
117.197
 11
12.9023
 21
117.005
  0
LINE
  8
0
 10
12.9023
 20
117.005
 11
12.8164
 21
116.82
  0
LINE
  8
0
 10
12.8164
 20
116.82
 11
12.7168
 21
116.641
  0
LINE
  8
0
 10
12.7168
 20
116.641
 11
12.6035
 21
116.472
  0
LINE
  8
0
 10
12.6035
 20
116.472
 11
12.4775
 21
116.311
  0
LINE
  8
0
 10
12.4775
 20
116.311
 11
12.3389
 21
116.162
  0
LINE
  8
0
 10
12.3389
 20
116.162
 11
12.1885
 21
116.023
  0
LINE
  8
0
 10
12.1885
 20
116.023
 11
12.0283
 21
115.897
  0
LINE
  8
0
 10
12.0283
 20
115.897
 11
11.8584
 21
115.783
  0
LINE
  8
0
 10
11.8584
 20
115.783
 11
11.6807
 21
115.683
  0
LINE
  8
0
 10
11.6807
 20
115.683
 11
11.4951
 21
115.598
  0
LINE
  8
0
 10
11.4951
 20
115.598
 11
11.3037
 21
115.527
  0
LINE
  8
0
 10
11.3037
 20
115.527
 11
11.1064
 21
115.472
  0
LINE
  8
0
 10
11.1064
 20
115.472
 11
10.9062
 21
115.432
  0
LINE
  8
0
 10
10.9062
 20
115.432
 11
10.7041
 21
115.408
  0
LINE
  8
0
 10
10.7041
 20
115.408
 11
10.5
 21
115.4
  0
LINE
  8
0
 10
10.5
 20
115.4
 11
10.2959
 21
115.408
  0
LINE
  8
0
 10
-225.204
 20
115.408
 11
-225.407
 21
115.432
  0
LINE
  8
0
 10
-225.407
 20
115.432
 11
-225.607
 21
115.472
  0
LINE
  8
0
 10
-225.607
 20
115.472
 11
-225.803
 21
115.527
  0
LINE
  8
0
 10
-225.803
 20
115.527
 11
-225.995
 21
115.598
  0
LINE
  8
0
 10
-225.995
 20
115.598
 11
-226.18
 21
115.683
  0
LINE
  8
0
 10
-226.18
 20
115.683
 11
-226.358
 21
115.783
  0
LINE
  8
0
 10
-226.358
 20
115.783
 11
-226.528
 21
115.897
  0
LINE
  8
0
 10
-226.528
 20
115.897
 11
-226.689
 21
116.023
  0
LINE
  8
0
 10
-226.689
 20
116.023
 11
-226.838
 21
116.162
  0
LINE
  8
0
 10
-226.838
 20
116.162
 11
-226.977
 21
116.311
  0
LINE
  8
0
 10
-226.977
 20
116.311
 11
-227.103
 21
116.472
  0
LINE
  8
0
 10
-227.103
 20
116.472
 11
-227.217
 21
116.641
  0
LINE
  8
0
 10
-227.217
 20
116.641
 11
-227.317
 21
116.82
  0
LINE
  8
0
 10
-227.317
 20
116.82
 11
-227.402
 21
117.005
  0
LINE
  8
0
 10
-227.402
 20
117.005
 11
-227.473
 21
117.197
  0
LINE
  8
0
 10
-227.473
 20
117.197
 11
-227.528
 21
117.393
  0
LINE
  8
0
 10
-227.528
 20
117.393
 11
-227.568
 21
117.593
  0
LINE
  8
0
 10
-227.568
 20
117.593
 11
-227.592
 21
117.796
  0
LINE
  8
0
 10
-227.592
 20
117.796
 11
-227.6
 21
118
  0
LINE
  8
0
 10
-227.6
 20
118
 11
-227.592
 21
118.204
  0
LINE
  8
0
 10
-227.592
 20
118.204
 11
-227.568
 21
118.407
  0
LINE
  8
0
 10
-227.568
 20
118.407
 11
-227.528
 21
118.607
  0
LINE
  8
0
 10
-227.528
 20
118.607
 11
-227.473
 21
118.803
  0
LINE
  8
0
 10
-227.473
 20
118.803
 11
-227.402
 21
118.995
  0
LINE
  8
0
 10
-227.402
 20
118.995
 11
-227.317
 21
119.18
  0
LINE
  8
0
 10
-227.317
 20
119.18
 11
-227.217
 21
119.358
  0
LINE
  8
0
 10
-227.217
 20
119.358
 11
-227.103
 21
119.528
  0
LINE
  8
0
 10
-227.103
 20
119.528
 11
-226.977
 21
119.689
  0
LINE
  8
0
 10
-226.977
 20
119.689
 11
-226.838
 21
119.838
  0
LINE
  8
0
 10
-226.838
 20
119.838
 11
-226.689
 21
119.977
  0
LINE
  8
0
 10
-226.689
 20
119.977
 11
-226.528
 21
120.103
  0
LINE
  8
0
 10
-226.528
 20
120.103
 11
-226.358
 21
120.217
  0
LINE
  8
0
 10
-226.358
 20
120.217
 11
-226.18
 21
120.317
  0
LINE
  8
0
 10
-226.18
 20
120.317
 11
-225.995
 21
120.402
  0
LINE
  8
0
 10
-225.995
 20
120.402
 11
-225.803
 21
120.473
  0
LINE
  8
0
 10
-225.803
 20
120.473
 11
-225.607
 21
120.528
  0
LINE
  8
0
 10
-225.607
 20
120.528
 11
-225.407
 21
120.568
  0
LINE
  8
0
 10
-225.407
 20
120.568
 11
-225.204
 21
120.592
  0
LINE
  8
0
 10
-225.204
 20
120.592
 11
-225
 21
120.6
  0
LINE
  8
0
 10
-225
 20
120.6
 11
-224.796
 21
120.592
  0
LINE
  8
0
 10
-224.796
 20
120.592
 11
-224.593
 21
120.568
  0
LINE
  8
0
 10
-224.593
 20
120.568
 11
-224.393
 21
120.528
  0
LINE
  8
0
 10
-224.393
 20
120.528
 11
-224.197
 21
120.473
  0
LINE
  8
0
 10
-224.197
 20
120.473
 11
-224.005
 21
120.402
  0
LINE
  8
0
 10
-224.005
 20
120.402
 11
-223.82
 21
120.317
  0
LINE
  8
0
 10
-223.82
 20
120.317
 11
-223.641
 21
120.217
  0
LINE
  8
0
 10
-223.641
 20
120.217
 11
-223.472
 21
120.103
  0
LINE
  8
0
 10
-223.472
 20
120.103
 11
-223.311
 21
119.977
  0
LINE
  8
0
 10
-223.311
 20
119.977
 11
-223.162
 21
119.838
  0
LINE
  8
0
 10
-223.162
 20
119.838
 11
-223.023
 21
119.689
  0
LINE
  8
0
 10
-223.023
 20
119.689
 11
-222.897
 21
119.528
  0
LINE
  8
0
 10
-222.897
 20
119.528
 11
-222.783
 21
119.358
  0
LINE
  8
0
 10
-222.783
 20
119.358
 11
-222.683
 21
119.18
  0
LINE
  8
0
 10
-222.683
 20
119.18
 11
-222.598
 21
118.995
  0
LINE
  8
0
 10
-222.598
 20
118.995
 11
-222.527
 21
118.803
  0
LINE
  8
0
 10
-222.527
 20
118.803
 11
-222.472
 21
118.607
  0
LINE
  8
0
 10
-222.472
 20
118.607
 11
-222.432
 21
118.407
  0
LINE
  8
0
 10
-222.432
 20
118.407
 11
-222.408
 21
118.204
  0
LINE
  8
0
 10
-222.408
 20
118.204
 11
-222.4
 21
118
  0
LINE
  8
0
 10
-222.4
 20
118
 11
-222.408
 21
117.796
  0
LINE
  8
0
 10
-222.408
 20
117.796
 11
-222.432
 21
117.593
  0
LINE
  8
0
 10
-222.432
 20
117.593
 11
-222.472
 21
117.393
  0
LINE
  8
0
 10
-222.472
 20
117.393
 11
-222.527
 21
117.197
  0
LINE
  8
0
 10
-222.527
 20
117.197
 11
-222.598
 21
117.005
  0
LINE
  8
0
 10
-222.598
 20
117.005
 11
-222.683
 21
116.82
  0
LINE
  8
0
 10
-222.683
 20
116.82
 11
-222.783
 21
116.641
  0
LINE
  8
0
 10
-222.783
 20
116.641
 11
-222.897
 21
116.472
  0
LINE
  8
0
 10
-222.897
 20
116.472
 11
-223.023
 21
116.311
  0
LINE
  8
0
 10
-223.023
 20
116.311
 11
-223.162
 21
116.162
  0
LINE
  8
0
 10
-223.162
 20
116.162
 11
-223.311
 21
116.023
  0
LINE
  8
0
 10
-223.311
 20
116.023
 11
-223.472
 21
115.897
  0
LINE
  8
0
 10
-223.472
 20
115.897
 11
-223.641
 21
115.783
  0
LINE
  8
0
 10
-223.641
 20
115.783
 11
-223.82
 21
115.683
  0
LINE
  8
0
 10
-223.82
 20
115.683
 11
-224.005
 21
115.598
  0
LINE
  8
0
 10
-224.005
 20
115.598
 11
-224.197
 21
115.527
  0
LINE
  8
0
 10
-224.197
 20
115.527
 11
-224.393
 21
115.472
  0
LINE
  8
0
 10
-224.393
 20
115.472
 11
-224.593
 21
115.432
  0
LINE
  8
0
 10
-224.593
 20
115.432
 11
-224.796
 21
115.408
  0
LINE
  8
0
 10
-224.796
 20
115.408
 11
-225
 21
115.4
  0
LINE
  8
0
 10
-225
 20
115.4
 11
-225.204
 21
115.408
  0
LINE
  8
0
 10
-225.126
 20
68.4053
 11
-225.25
 21
68.4199
  0
LINE
  8
0
 10
-225.25
 20
68.4199
 11
-225.374
 21
68.4443
  0
LINE
  8
0
 10
-225.374
 20
68.4443
 11
-225.494
 21
68.4785
  0
LINE
  8
0
 10
-225.494
 20
68.4785
 11
-225.612
 21
68.5215
  0
LINE
  8
0
 10
-225.612
 20
68.5215
 11
-225.726
 21
68.5742
  0
LINE
  8
0
 10
-225.726
 20
68.5742
 11
-225.836
 21
68.6357
  0
LINE
  8
0
 10
-225.836
 20
68.6357
 11
-225.94
 21
68.7061
  0
LINE
  8
0
 10
-225.94
 20
68.7061
 11
-226.039
 21
68.7832
  0
LINE
  8
0
 10
-226.039
 20
68.7832
 11
-226.131
 21
68.8682
  0
LINE
  8
0
 10
-226.131
 20
68.8682
 11
-226.217
 21
68.9609
  0
LINE
  8
0
 10
-226.217
 20
68.9609
 11
-226.294
 21
69.0596
  0
LINE
  8
0
 10
-226.294
 20
69.0596
 11
-226.364
 21
69.1641
  0
LINE
  8
0
 10
-226.364
 20
69.1641
 11
-226.426
 21
69.2734
  0
LINE
  8
0
 10
-226.426
 20
69.2734
 11
-226.478
 21
69.3877
  0
LINE
  8
0
 10
-226.478
 20
69.3877
 11
-226.522
 21
69.5059
  0
LINE
  8
0
 10
-226.522
 20
69.5059
 11
-226.556
 21
69.627
  0
LINE
  8
0
 10
-226.556
 20
69.627
 11
-226.58
 21
69.75
  0
LINE
  8
0
 10
-226.58
 20
69.75
 11
-226.595
 21
69.874
  0
LINE
  8
0
 10
-226.595
 20
69.874
 11
-226.6
 21
70
  0
LINE
  8
0
 10
-226.6
 20
70
 11
-226.6
 21
78
  0
LINE
  8
0
 10
-226.6
 20
78
 11
-226.595
 21
78.126
  0
LINE
  8
0
 10
-226.595
 20
78.126
 11
-226.58
 21
78.25
  0
LINE
  8
0
 10
-226.58
 20
78.25
 11
-226.556
 21
78.373
  0
LINE
  8
0
 10
-226.556
 20
78.373
 11
-226.522
 21
78.4941
  0
LINE
  8
0
 10
-226.522
 20
78.4941
 11
-226.478
 21
78.6123
  0
LINE
  8
0
 10
-226.478
 20
78.6123
 11
-226.426
 21
78.7266
  0
LINE
  8
0
 10
-226.426
 20
78.7266
 11
-226.364
 21
78.8359
  0
LINE
  8
0
 10
-226.364
 20
78.8359
 11
-226.294
 21
78.9404
  0
LINE
  8
0
 10
-226.294
 20
78.9404
 11
-226.217
 21
79.0391
  0
LINE
  8
0
 10
-226.217
 20
79.0391
 11
-226.131
 21
79.1318
  0
LINE
  8
0
 10
-226.131
 20
79.1318
 11
-226.039
 21
79.2168
  0
LINE
  8
0
 10
-226.039
 20
79.2168
 11
-225.94
 21
79.2939
  0
LINE
  8
0
 10
-225.94
 20
79.2939
 11
-225.836
 21
79.3643
  0
LINE
  8
0
 10
-225.836
 20
79.3643
 11
-225.726
 21
79.4258
  0
LINE
  8
0
 10
-225.726
 20
79.4258
 11
-225.612
 21
79.4785
  0
LINE
  8
0
 10
-225.612
 20
79.4785
 11
-225.494
 21
79.5215
  0
LINE
  8
0
 10
-225.494
 20
79.5215
 11
-225.374
 21
79.5557
  0
LINE
  8
0
 10
-225.374
 20
79.5557
 11
-225.25
 21
79.5801
  0
LINE
  8
0
 10
-225.25
 20
79.5801
 11
-225.126
 21
79.5947
  0
LINE
  8
0
 10
-225.126
 20
79.5947
 11
-225
 21
79.5996
  0
LINE
  8
0
 10
-225
 20
79.5996
 11
-224.874
 21
79.5947
  0
LINE
  8
0
 10
-224.874
 20
79.5947
 11
-224.75
 21
79.5801
  0
LINE
  8
0
 10
-224.75
 20
79.5801
 11
-224.626
 21
79.5557
  0
LINE
  8
0
 10
-224.626
 20
79.5557
 11
-224.506
 21
79.5215
  0
LINE
  8
0
 10
-224.506
 20
79.5215
 11
-224.388
 21
79.4785
  0
LINE
  8
0
 10
-224.388
 20
79.4785
 11
-224.274
 21
79.4258
  0
LINE
  8
0
 10
-224.274
 20
79.4258
 11
-224.164
 21
79.3643
  0
LINE
  8
0
 10
-224.164
 20
79.3643
 11
-224.06
 21
79.2939
  0
LINE
  8
0
 10
-224.06
 20
79.2939
 11
-223.961
 21
79.2168
  0
LINE
  8
0
 10
-223.961
 20
79.2168
 11
-223.869
 21
79.1318
  0
LINE
  8
0
 10
-223.869
 20
79.1318
 11
-223.783
 21
79.0391
  0
LINE
  8
0
 10
-223.783
 20
79.0391
 11
-223.706
 21
78.9404
  0
LINE
  8
0
 10
-223.706
 20
78.9404
 11
-223.636
 21
78.8359
  0
LINE
  8
0
 10
-223.636
 20
78.8359
 11
-223.574
 21
78.7266
  0
LINE
  8
0
 10
-223.574
 20
78.7266
 11
-223.522
 21
78.6123
  0
LINE
  8
0
 10
-223.522
 20
78.6123
 11
-223.478
 21
78.4941
  0
LINE
  8
0
 10
-223.478
 20
78.4941
 11
-223.444
 21
78.373
  0
LINE
  8
0
 10
-223.444
 20
78.373
 11
-223.42
 21
78.25
  0
LINE
  8
0
 10
-223.42
 20
78.25
 11
-223.405
 21
78.126
  0
LINE
  8
0
 10
-223.405
 20
78.126
 11
-223.4
 21
78
  0
LINE
  8
0
 10
-223.4
 20
78
 11
-223.4
 21
70
  0
LINE
  8
0
 10
-223.4
 20
70
 11
-223.405
 21
69.874
  0
LINE
  8
0
 10
-223.405
 20
69.874
 11
-223.42
 21
69.75
  0
LINE
  8
0
 10
-223.42
 20
69.75
 11
-223.444
 21
69.627
  0
LINE
  8
0
 10
-223.444
 20
69.627
 11
-223.478
 21
69.5059
  0
LINE
  8
0
 10
-223.478
 20
69.5059
 11
-223.522
 21
69.3877
  0
LINE
  8
0
 10
-223.522
 20
69.3877
 11
-223.574
 21
69.2734
  0
LINE
  8
0
 10
-223.574
 20
69.2734
 11
-223.636
 21
69.1641
  0
LINE
  8
0
 10
-223.636
 20
69.1641
 11
-223.706
 21
69.0596
  0
LINE
  8
0
 10
-223.706
 20
69.0596
 11
-223.783
 21
68.9609
  0
LINE
  8
0
 10
-223.783
 20
68.9609
 11
-223.869
 21
68.8682
  0
LINE
  8
0
 10
-223.869
 20
68.8682
 11
-223.961
 21
68.7832
  0
LINE
  8
0
 10
-223.961
 20
68.7832
 11
-224.06
 21
68.7061
  0
LINE
  8
0
 10
-224.06
 20
68.7061
 11
-224.164
 21
68.6357
  0
LINE
  8
0
 10
-224.164
 20
68.6357
 11
-224.274
 21
68.5742
  0
LINE
  8
0
 10
-224.274
 20
68.5742
 11
-224.388
 21
68.5215
  0
LINE
  8
0
 10
-224.388
 20
68.5215
 11
-224.506
 21
68.4785
  0
LINE
  8
0
 10
-224.506
 20
68.4785
 11
-224.626
 21
68.4443
  0
LINE
  8
0
 10
-224.626
 20
68.4443
 11
-224.75
 21
68.4199
  0
LINE
  8
0
 10
-224.75
 20
68.4199
 11
-224.874
 21
68.4053
  0
LINE
  8
0
 10
-224.874
 20
68.4053
 11
-225
 21
68.4004
  0
LINE
  8
0
 10
-225
 20
68.4004
 11
-225.126
 21
68.4053
  0
LINE
  8
0
 10
9.87402
 20
68.4053
 11
9.75
 21
68.4199
  0
LINE
  8
0
 10
9.75
 20
68.4199
 11
9.62695
 21
68.4443
  0
LINE
  8
0
 10
9.62695
 20
68.4443
 11
9.50586
 21
68.4785
  0
LINE
  8
0
 10
9.50586
 20
68.4785
 11
9.3877
 21
68.5215
  0
LINE
  8
0
 10
9.3877
 20
68.5215
 11
9.27344
 21
68.5742
  0
LINE
  8
0
 10
9.27344
 20
68.5742
 11
9.16406
 21
68.6357
  0
LINE
  8
0
 10
9.16406
 20
68.6357
 11
9.05957
 21
68.7061
  0
LINE
  8
0
 10
9.05957
 20
68.7061
 11
8.96094
 21
68.7832
  0
LINE
  8
0
 10
8.96094
 20
68.7832
 11
8.86816
 21
68.8682
  0
LINE
  8
0
 10
8.86816
 20
68.8682
 11
8.7832
 21
68.9609
  0
LINE
  8
0
 10
8.7832
 20
68.9609
 11
8.70605
 21
69.0596
  0
LINE
  8
0
 10
8.70605
 20
69.0596
 11
8.63574
 21
69.1641
  0
LINE
  8
0
 10
8.63574
 20
69.1641
 11
8.57422
 21
69.2734
  0
LINE
  8
0
 10
8.57422
 20
69.2734
 11
8.52148
 21
69.3877
  0
LINE
  8
0
 10
8.52148
 20
69.3877
 11
8.47852
 21
69.5059
  0
LINE
  8
0
 10
8.47852
 20
69.5059
 11
8.44434
 21
69.627
  0
LINE
  8
0
 10
8.44434
 20
69.627
 11
8.41992
 21
69.75
  0
LINE
  8
0
 10
8.41992
 20
69.75
 11
8.40527
 21
69.874
  0
LINE
  8
0
 10
8.40527
 20
69.874
 11
8.40039
 21
70
  0
LINE
  8
0
 10
8.40039
 20
70
 11
8.40039
 21
78
  0
LINE
  8
0
 10
8.40039
 20
78
 11
8.40527
 21
78.126
  0
LINE
  8
0
 10
8.40527
 20
78.126
 11
8.41992
 21
78.25
  0
LINE
  8
0
 10
8.41992
 20
78.25
 11
8.44434
 21
78.373
  0
LINE
  8
0
 10
8.44434
 20
78.373
 11
8.47852
 21
78.4941
  0
LINE
  8
0
 10
8.47852
 20
78.4941
 11
8.52148
 21
78.6123
  0
LINE
  8
0
 10
8.52148
 20
78.6123
 11
8.57422
 21
78.7266
  0
LINE
  8
0
 10
8.57422
 20
78.7266
 11
8.63574
 21
78.8359
  0
LINE
  8
0
 10
8.63574
 20
78.8359
 11
8.70605
 21
78.9404
  0
LINE
  8
0
 10
8.70605
 20
78.9404
 11
8.7832
 21
79.0391
  0
LINE
  8
0
 10
8.7832
 20
79.0391
 11
8.86816
 21
79.1318
  0
LINE
  8
0
 10
8.86816
 20
79.1318
 11
8.96094
 21
79.2168
  0
LINE
  8
0
 10
8.96094
 20
79.2168
 11
9.05957
 21
79.2939
  0
LINE
  8
0
 10
9.05957
 20
79.2939
 11
9.16406
 21
79.3643
  0
LINE
  8
0
 10
9.16406
 20
79.3643
 11
9.27344
 21
79.4258
  0
LINE
  8
0
 10
9.27344
 20
79.4258
 11
9.3877
 21
79.4785
  0
LINE
  8
0
 10
9.3877
 20
79.4785
 11
9.50586
 21
79.5215
  0
LINE
  8
0
 10
9.50586
 20
79.5215
 11
9.62695
 21
79.5557
  0
LINE
  8
0
 10
9.62695
 20
79.5557
 11
9.75
 21
79.5801
  0
LINE
  8
0
 10
9.75
 20
79.5801
 11
9.87402
 21
79.5947
  0
LINE
  8
0
 10
9.87402
 20
79.5947
 11
10
 21
79.5996
  0
LINE
  8
0
 10
10
 20
79.5996
 11
10.126
 21
79.5947
  0
LINE
  8
0
 10
10.126
 20
79.5947
 11
10.25
 21
79.5801
  0
LINE
  8
0
 10
10.25
 20
79.5801
 11
10.373
 21
79.5557
  0
LINE
  8
0
 10
10.373
 20
79.5557
 11
10.4941
 21
79.5215
  0
LINE
  8
0
 10
10.4941
 20
79.5215
 11
10.6123
 21
79.4785
  0
LINE
  8
0
 10
10.6123
 20
79.4785
 11
10.7266
 21
79.4258
  0
LINE
  8
0
 10
10.7266
 20
79.4258
 11
10.8359
 21
79.3643
  0
LINE
  8
0
 10
10.8359
 20
79.3643
 11
10.9404
 21
79.2939
  0
LINE
  8
0
 10
10.9404
 20
79.2939
 11
11.0391
 21
79.2168
  0
LINE
  8
0
 10
11.0391
 20
79.2168
 11
11.1318
 21
79.1318
  0
LINE
  8
0
 10
11.1318
 20
79.1318
 11
11.2168
 21
79.0391
  0
LINE
  8
0
 10
11.2168
 20
79.0391
 11
11.2939
 21
78.9404
  0
LINE
  8
0
 10
11.2939
 20
78.9404
 11
11.3643
 21
78.8359
  0
LINE
  8
0
 10
11.3643
 20
78.8359
 11
11.4258
 21
78.7266
  0
LINE
  8
0
 10
11.4258
 20
78.7266
 11
11.4785
 21
78.6123
  0
LINE
  8
0
 10
11.4785
 20
78.6123
 11
11.5215
 21
78.4941
  0
LINE
  8
0
 10
11.5215
 20
78.4941
 11
11.5557
 21
78.373
  0
LINE
  8
0
 10
11.5557
 20
78.373
 11
11.5801
 21
78.25
  0
LINE
  8
0
 10
11.5801
 20
78.25
 11
11.5947
 21
78.126
  0
LINE
  8
0
 10
11.5947
 20
78.126
 11
11.5996
 21
78
  0
LINE
  8
0
 10
11.5996
 20
78
 11
11.5996
 21
70
  0
LINE
  8
0
 10
11.5996
 20
70
 11
11.5947
 21
69.874
  0
LINE
  8
0
 10
11.5947
 20
69.874
 11
11.5801
 21
69.75
  0
LINE
  8
0
 10
11.5801
 20
69.75
 11
11.5557
 21
69.627
  0
LINE
  8
0
 10
11.5557
 20
69.627
 11
11.5215
 21
69.5059
  0
LINE
  8
0
 10
11.5215
 20
69.5059
 11
11.4785
 21
69.3877
  0
LINE
  8
0
 10
11.4785
 20
69.3877
 11
11.4258
 21
69.2734
  0
LINE
  8
0
 10
11.4258
 20
69.2734
 11
11.3643
 21
69.1641
  0
LINE
  8
0
 10
11.3643
 20
69.1641
 11
11.2939
 21
69.0596
  0
LINE
  8
0
 10
11.2939
 20
69.0596
 11
11.2168
 21
68.9609
  0
LINE
  8
0
 10
11.2168
 20
68.9609
 11
11.1318
 21
68.8682
  0
LINE
  8
0
 10
11.1318
 20
68.8682
 11
11.0391
 21
68.7832
  0
LINE
  8
0
 10
11.0391
 20
68.7832
 11
10.9404
 21
68.7061
  0
LINE
  8
0
 10
10.9404
 20
68.7061
 11
10.8359
 21
68.6357
  0
LINE
  8
0
 10
10.8359
 20
68.6357
 11
10.7266
 21
68.5742
  0
LINE
  8
0
 10
10.7266
 20
68.5742
 11
10.6123
 21
68.5215
  0
LINE
  8
0
 10
10.6123
 20
68.5215
 11
10.4941
 21
68.4785
  0
LINE
  8
0
 10
10.4941
 20
68.4785
 11
10.373
 21
68.4443
  0
LINE
  8
0
 10
10.373
 20
68.4443
 11
10.25
 21
68.4199
  0
LINE
  8
0
 10
10.25
 20
68.4199
 11
10.126
 21
68.4053
  0
LINE
  8
0
 10
10.126
 20
68.4053
 11
10
 21
68.4004
  0
LINE
  8
0
 10
10
 20
68.4004
 11
9.87402
 21
68.4053
  0
LINE
  8
0
 10
-225.126
 20
28.4053
 11
-225.25
 21
28.4199
  0
LINE
  8
0
 10
-225.25
 20
28.4199
 11
-225.374
 21
28.4443
  0
LINE
  8
0
 10
-225.374
 20
28.4443
 11
-225.494
 21
28.4785
  0
LINE
  8
0
 10
-225.494
 20
28.4785
 11
-225.612
 21
28.5215
  0
LINE
  8
0
 10
-225.612
 20
28.5215
 11
-225.726
 21
28.5742
  0
LINE
  8
0
 10
-225.726
 20
28.5742
 11
-225.836
 21
28.6357
  0
LINE
  8
0
 10
-225.836
 20
28.6357
 11
-225.94
 21
28.7061
  0
LINE
  8
0
 10
-225.94
 20
28.7061
 11
-226.039
 21
28.7832
  0
LINE
  8
0
 10
-226.039
 20
28.7832
 11
-226.131
 21
28.8682
  0
LINE
  8
0
 10
-226.131
 20
28.8682
 11
-226.217
 21
28.9609
  0
LINE
  8
0
 10
-226.217
 20
28.9609
 11
-226.294
 21
29.0596
  0
LINE
  8
0
 10
-226.294
 20
29.0596
 11
-226.364
 21
29.1641
  0
LINE
  8
0
 10
-226.364
 20
29.1641
 11
-226.426
 21
29.2734
  0
LINE
  8
0
 10
-226.426
 20
29.2734
 11
-226.478
 21
29.3877
  0
LINE
  8
0
 10
-226.478
 20
29.3877
 11
-226.522
 21
29.5059
  0
LINE
  8
0
 10
-226.522
 20
29.5059
 11
-226.556
 21
29.627
  0
LINE
  8
0
 10
-226.556
 20
29.627
 11
-226.58
 21
29.75
  0
LINE
  8
0
 10
-226.58
 20
29.75
 11
-226.595
 21
29.874
  0
LINE
  8
0
 10
-226.595
 20
29.874
 11
-226.6
 21
30
  0
LINE
  8
0
 10
-226.6
 20
30
 11
-226.6
 21
38
  0
LINE
  8
0
 10
-226.6
 20
38
 11
-226.595
 21
38.126
  0
LINE
  8
0
 10
-226.595
 20
38.126
 11
-226.58
 21
38.25
  0
LINE
  8
0
 10
-226.58
 20
38.25
 11
-226.556
 21
38.373
  0
LINE
  8
0
 10
-226.556
 20
38.373
 11
-226.522
 21
38.4941
  0
LINE
  8
0
 10
-226.522
 20
38.4941
 11
-226.478
 21
38.6123
  0
LINE
  8
0
 10
-226.478
 20
38.6123
 11
-226.426
 21
38.7266
  0
LINE
  8
0
 10
-226.426
 20
38.7266
 11
-226.364
 21
38.8359
  0
LINE
  8
0
 10
-226.364
 20
38.8359
 11
-226.294
 21
38.9404
  0
LINE
  8
0
 10
-226.294
 20
38.9404
 11
-226.217
 21
39.0391
  0
LINE
  8
0
 10
-226.217
 20
39.0391
 11
-226.131
 21
39.1318
  0
LINE
  8
0
 10
-226.131
 20
39.1318
 11
-226.039
 21
39.2168
  0
LINE
  8
0
 10
-226.039
 20
39.2168
 11
-225.94
 21
39.2939
  0
LINE
  8
0
 10
-225.94
 20
39.2939
 11
-225.836
 21
39.3643
  0
LINE
  8
0
 10
-225.836
 20
39.3643
 11
-225.726
 21
39.4258
  0
LINE
  8
0
 10
-225.726
 20
39.4258
 11
-225.612
 21
39.4785
  0
LINE
  8
0
 10
-225.612
 20
39.4785
 11
-225.494
 21
39.5215
  0
LINE
  8
0
 10
-225.494
 20
39.5215
 11
-225.374
 21
39.5557
  0
LINE
  8
0
 10
-225.374
 20
39.5557
 11
-225.25
 21
39.5801
  0
LINE
  8
0
 10
-225.25
 20
39.5801
 11
-225.126
 21
39.5947
  0
LINE
  8
0
 10
-225.126
 20
39.5947
 11
-225
 21
39.5996
  0
LINE
  8
0
 10
-225
 20
39.5996
 11
-224.874
 21
39.5947
  0
LINE
  8
0
 10
-224.874
 20
39.5947
 11
-224.75
 21
39.5801
  0
LINE
  8
0
 10
-224.75
 20
39.5801
 11
-224.626
 21
39.5557
  0
LINE
  8
0
 10
-224.626
 20
39.5557
 11
-224.506
 21
39.5215
  0
LINE
  8
0
 10
-224.506
 20
39.5215
 11
-224.388
 21
39.4785
  0
LINE
  8
0
 10
-224.388
 20
39.4785
 11
-224.274
 21
39.4258
  0
LINE
  8
0
 10
-224.274
 20
39.4258
 11
-224.164
 21
39.3643
  0
LINE
  8
0
 10
-224.164
 20
39.3643
 11
-224.06
 21
39.2939
  0
LINE
  8
0
 10
-224.06
 20
39.2939
 11
-223.961
 21
39.2168
  0
LINE
  8
0
 10
-223.961
 20
39.2168
 11
-223.869
 21
39.1318
  0
LINE
  8
0
 10
-223.869
 20
39.1318
 11
-223.783
 21
39.0391
  0
LINE
  8
0
 10
-223.783
 20
39.0391
 11
-223.706
 21
38.9404
  0
LINE
  8
0
 10
-223.706
 20
38.9404
 11
-223.636
 21
38.8359
  0
LINE
  8
0
 10
-223.636
 20
38.8359
 11
-223.574
 21
38.7266
  0
LINE
  8
0
 10
-223.574
 20
38.7266
 11
-223.522
 21
38.6123
  0
LINE
  8
0
 10
-223.522
 20
38.6123
 11
-223.478
 21
38.4941
  0
LINE
  8
0
 10
-223.478
 20
38.4941
 11
-223.444
 21
38.373
  0
LINE
  8
0
 10
-223.444
 20
38.373
 11
-223.42
 21
38.25
  0
LINE
  8
0
 10
-223.42
 20
38.25
 11
-223.405
 21
38.126
  0
LINE
  8
0
 10
-223.405
 20
38.126
 11
-223.4
 21
38
  0
LINE
  8
0
 10
-223.4
 20
38
 11
-223.4
 21
30
  0
LINE
  8
0
 10
-223.4
 20
30
 11
-223.405
 21
29.874
  0
LINE
  8
0
 10
-223.405
 20
29.874
 11
-223.42
 21
29.75
  0
LINE
  8
0
 10
-223.42
 20
29.75
 11
-223.444
 21
29.627
  0
LINE
  8
0
 10
-223.444
 20
29.627
 11
-223.478
 21
29.5059
  0
LINE
  8
0
 10
-223.478
 20
29.5059
 11
-223.522
 21
29.3877
  0
LINE
  8
0
 10
-223.522
 20
29.3877
 11
-223.574
 21
29.2734
  0
LINE
  8
0
 10
-223.574
 20
29.2734
 11
-223.636
 21
29.1641
  0
LINE
  8
0
 10
-223.636
 20
29.1641
 11
-223.706
 21
29.0596
  0
LINE
  8
0
 10
-223.706
 20
29.0596
 11
-223.783
 21
28.9609
  0
LINE
  8
0
 10
-223.783
 20
28.9609
 11
-223.869
 21
28.8682
  0
LINE
  8
0
 10
-223.869
 20
28.8682
 11
-223.961
 21
28.7832
  0
LINE
  8
0
 10
-223.961
 20
28.7832
 11
-224.06
 21
28.7061
  0
LINE
  8
0
 10
-224.06
 20
28.7061
 11
-224.164
 21
28.6357
  0
LINE
  8
0
 10
-224.164
 20
28.6357
 11
-224.274
 21
28.5742
  0
LINE
  8
0
 10
-224.274
 20
28.5742
 11
-224.388
 21
28.5215
  0
LINE
  8
0
 10
-224.388
 20
28.5215
 11
-224.506
 21
28.4785
  0
LINE
  8
0
 10
-224.506
 20
28.4785
 11
-224.626
 21
28.4443
  0
LINE
  8
0
 10
-224.626
 20
28.4443
 11
-224.75
 21
28.4199
  0
LINE
  8
0
 10
-224.75
 20
28.4199
 11
-224.874
 21
28.4053
  0
LINE
  8
0
 10
-224.874
 20
28.4053
 11
-225
 21
28.4004
  0
LINE
  8
0
 10
-225
 20
28.4004
 11
-225.126
 21
28.4053
  0
LINE
  8
0
 10
9.87402
 20
28.4053
 11
9.75
 21
28.4199
  0
LINE
  8
0
 10
9.75
 20
28.4199
 11
9.62695
 21
28.4443
  0
LINE
  8
0
 10
9.62695
 20
28.4443
 11
9.50586
 21
28.4785
  0
LINE
  8
0
 10
9.50586
 20
28.4785
 11
9.3877
 21
28.5215
  0
LINE
  8
0
 10
9.3877
 20
28.5215
 11
9.27344
 21
28.5742
  0
LINE
  8
0
 10
9.27344
 20
28.5742
 11
9.16406
 21
28.6357
  0
LINE
  8
0
 10
9.16406
 20
28.6357
 11
9.05957
 21
28.7061
  0
LINE
  8
0
 10
9.05957
 20
28.7061
 11
8.96094
 21
28.7832
  0
LINE
  8
0
 10
8.96094
 20
28.7832
 11
8.86816
 21
28.8682
  0
LINE
  8
0
 10
8.86816
 20
28.8682
 11
8.7832
 21
28.9609
  0
LINE
  8
0
 10
8.7832
 20
28.9609
 11
8.70605
 21
29.0596
  0
LINE
  8
0
 10
8.70605
 20
29.0596
 11
8.63574
 21
29.1641
  0
LINE
  8
0
 10
8.63574
 20
29.1641
 11
8.57422
 21
29.2734
  0
LINE
  8
0
 10
8.57422
 20
29.2734
 11
8.52148
 21
29.3877
  0
LINE
  8
0
 10
8.52148
 20
29.3877
 11
8.47852
 21
29.5059
  0
LINE
  8
0
 10
8.47852
 20
29.5059
 11
8.44434
 21
29.627
  0
LINE
  8
0
 10
8.44434
 20
29.627
 11
8.41992
 21
29.75
  0
LINE
  8
0
 10
8.41992
 20
29.75
 11
8.40527
 21
29.874
  0
LINE
  8
0
 10
8.40527
 20
29.874
 11
8.40039
 21
30
  0
LINE
  8
0
 10
8.40039
 20
30
 11
8.40039
 21
38
  0
LINE
  8
0
 10
8.40039
 20
38
 11
8.40527
 21
38.126
  0
LINE
  8
0
 10
8.40527
 20
38.126
 11
8.41992
 21
38.25
  0
LINE
  8
0
 10
8.41992
 20
38.25
 11
8.44434
 21
38.373
  0
LINE
  8
0
 10
8.44434
 20
38.373
 11
8.47852
 21
38.4941
  0
LINE
  8
0
 10
8.47852
 20
38.4941
 11
8.52148
 21
38.6123
  0
LINE
  8
0
 10
8.52148
 20
38.6123
 11
8.57422
 21
38.7266
  0
LINE
  8
0
 10
8.57422
 20
38.7266
 11
8.63574
 21
38.8359
  0
LINE
  8
0
 10
8.63574
 20
38.8359
 11
8.70605
 21
38.9404
  0
LINE
  8
0
 10
8.70605
 20
38.9404
 11
8.7832
 21
39.0391
  0
LINE
  8
0
 10
8.7832
 20
39.0391
 11
8.86816
 21
39.1318
  0
LINE
  8
0
 10
8.86816
 20
39.1318
 11
8.96094
 21
39.2168
  0
LINE
  8
0
 10
8.96094
 20
39.2168
 11
9.05957
 21
39.2939
  0
LINE
  8
0
 10
9.05957
 20
39.2939
 11
9.16406
 21
39.3643
  0
LINE
  8
0
 10
9.16406
 20
39.3643
 11
9.27344
 21
39.4258
  0
LINE
  8
0
 10
9.27344
 20
39.4258
 11
9.3877
 21
39.4785
  0
LINE
  8
0
 10
9.3877
 20
39.4785
 11
9.50586
 21
39.5215
  0
LINE
  8
0
 10
9.50586
 20
39.5215
 11
9.62695
 21
39.5557
  0
LINE
  8
0
 10
9.62695
 20
39.5557
 11
9.75
 21
39.5801
  0
LINE
  8
0
 10
9.75
 20
39.5801
 11
9.87402
 21
39.5947
  0
LINE
  8
0
 10
9.87402
 20
39.5947
 11
10
 21
39.5996
  0
LINE
  8
0
 10
10
 20
39.5996
 11
10.126
 21
39.5947
  0
LINE
  8
0
 10
10.126
 20
39.5947
 11
10.25
 21
39.5801
  0
LINE
  8
0
 10
10.25
 20
39.5801
 11
10.373
 21
39.5557
  0
LINE
  8
0
 10
10.373
 20
39.5557
 11
10.4941
 21
39.5215
  0
LINE
  8
0
 10
10.4941
 20
39.5215
 11
10.6123
 21
39.4785
  0
LINE
  8
0
 10
10.6123
 20
39.4785
 11
10.7266
 21
39.4258
  0
LINE
  8
0
 10
10.7266
 20
39.4258
 11
10.8359
 21
39.3643
  0
LINE
  8
0
 10
10.8359
 20
39.3643
 11
10.9404
 21
39.2939
  0
LINE
  8
0
 10
10.9404
 20
39.2939
 11
11.0391
 21
39.2168
  0
LINE
  8
0
 10
11.0391
 20
39.2168
 11
11.1318
 21
39.1318
  0
LINE
  8
0
 10
11.1318
 20
39.1318
 11
11.2168
 21
39.0391
  0
LINE
  8
0
 10
11.2168
 20
39.0391
 11
11.2939
 21
38.9404
  0
LINE
  8
0
 10
11.2939
 20
38.9404
 11
11.3643
 21
38.8359
  0
LINE
  8
0
 10
11.3643
 20
38.8359
 11
11.4258
 21
38.7266
  0
LINE
  8
0
 10
11.4258
 20
38.7266
 11
11.4785
 21
38.6123
  0
LINE
  8
0
 10
11.4785
 20
38.6123
 11
11.5215
 21
38.4941
  0
LINE
  8
0
 10
11.5215
 20
38.4941
 11
11.5557
 21
38.373
  0
LINE
  8
0
 10
11.5557
 20
38.373
 11
11.5801
 21
38.25
  0
LINE
  8
0
 10
11.5801
 20
38.25
 11
11.5947
 21
38.126
  0
LINE
  8
0
 10
11.5947
 20
38.126
 11
11.5996
 21
38
  0
LINE
  8
0
 10
11.5996
 20
38
 11
11.5996
 21
30
  0
LINE
  8
0
 10
11.5996
 20
30
 11
11.5947
 21
29.874
  0
LINE
  8
0
 10
11.5947
 20
29.874
 11
11.5801
 21
29.75
  0
LINE
  8
0
 10
11.5801
 20
29.75
 11
11.5557
 21
29.627
  0
LINE
  8
0
 10
11.5557
 20
29.627
 11
11.5215
 21
29.5059
  0
LINE
  8
0
 10
11.5215
 20
29.5059
 11
11.4785
 21
29.3877
  0
LINE
  8
0
 10
11.4785
 20
29.3877
 11
11.4258
 21
29.2734
  0
LINE
  8
0
 10
11.4258
 20
29.2734
 11
11.3643
 21
29.1641
  0
LINE
  8
0
 10
11.3643
 20
29.1641
 11
11.2939
 21
29.0596
  0
LINE
  8
0
 10
11.2939
 20
29.0596
 11
11.2168
 21
28.9609
  0
LINE
  8
0
 10
11.2168
 20
28.9609
 11
11.1318
 21
28.8682
  0
LINE
  8
0
 10
11.1318
 20
28.8682
 11
11.0391
 21
28.7832
  0
LINE
  8
0
 10
11.0391
 20
28.7832
 11
10.9404
 21
28.7061
  0
LINE
  8
0
 10
10.9404
 20
28.7061
 11
10.8359
 21
28.6357
  0
LINE
  8
0
 10
10.8359
 20
28.6357
 11
10.7266
 21
28.5742
  0
LINE
  8
0
 10
10.7266
 20
28.5742
 11
10.6123
 21
28.5215
  0
LINE
  8
0
 10
10.6123
 20
28.5215
 11
10.4941
 21
28.4785
  0
LINE
  8
0
 10
10.4941
 20
28.4785
 11
10.373
 21
28.4443
  0
LINE
  8
0
 10
10.373
 20
28.4443
 11
10.25
 21
28.4199
  0
LINE
  8
0
 10
10.25
 20
28.4199
 11
10.126
 21
28.4053
  0
LINE
  8
0
 10
10.126
 20
28.4053
 11
10
 21
28.4004
  0
LINE
  8
0
 10
10
 20
28.4004
 11
9.87402
 21
28.4053
  0
LINE
  8
0
 10
-21.2744
 20
-53.2002
 11
-22.542
 21
-53.0498
  0
LINE
  8
0
 10
-22.542
 20
-53.0498
 11
-23.7939
 21
-52.8008
  0
LINE
  8
0
 10
-23.7939
 20
-52.8008
 11
-25.0215
 21
-52.4551
  0
LINE
  8
0
 10
-25.0215
 20
-52.4551
 11
-26.2188
 21
-52.0127
  0
LINE
  8
0
 10
-26.2188
 20
-52.0127
 11
-27.377
 21
-51.4785
  0
LINE
  8
0
 10
-27.377
 20
-51.4785
 11
-28.4902
 21
-50.8555
  0
LINE
  8
0
 10
-28.4902
 20
-50.8555
 11
-29.5518
 21
-50.1465
  0
LINE
  8
0
 10
-29.5518
 20
-50.1465
 11
-30.5537
 21
-49.3564
  0
LINE
  8
0
 10
-30.5537
 20
-49.3564
 11
-31.4902
 21
-48.4902
  0
LINE
  8
0
 10
-31.4902
 20
-48.4902
 11
-32.3564
 21
-47.5537
  0
LINE
  8
0
 10
-32.3564
 20
-47.5537
 11
-33.1465
 21
-46.5518
  0
LINE
  8
0
 10
-33.1465
 20
-46.5518
 11
-33.8555
 21
-45.4902
  0
LINE
  8
0
 10
-33.8555
 20
-45.4902
 11
-34.4785
 21
-44.377
  0
LINE
  8
0
 10
-34.4785
 20
-44.377
 11
-35.0127
 21
-43.2188
  0
LINE
  8
0
 10
-35.0127
 20
-43.2188
 11
-35.4551
 21
-42.0215
  0
LINE
  8
0
 10
-35.4551
 20
-42.0215
 11
-35.8008
 21
-40.7939
  0
LINE
  8
0
 10
-35.8008
 20
-40.7939
 11
-36.0498
 21
-39.542
  0
LINE
  8
0
 10
-36.0498
 20
-39.542
 11
-36.2002
 21
-38.2744
  0
LINE
  8
0
 10
-36.2002
 20
-38.2744
 11
-36.25
 21
-37
  0
LINE
  8
0
 10
-36.25
 20
-37
 11
-36.2002
 21
-35.7246
  0
LINE
  8
0
 10
-36.2002
 20
-35.7246
 11
-36.0498
 21
-34.458
  0
LINE
  8
0
 10
-36.0498
 20
-34.458
 11
-35.8008
 21
-33.2061
  0
LINE
  8
0
 10
-35.8008
 20
-33.2061
 11
-35.4551
 21
-31.9785
  0
LINE
  8
0
 10
-35.4551
 20
-31.9785
 11
-35.0127
 21
-30.7812
  0
LINE
  8
0
 10
-35.0127
 20
-30.7812
 11
-34.4785
 21
-29.623
  0
LINE
  8
0
 10
-34.4785
 20
-29.623
 11
-33.8555
 21
-28.5098
  0
LINE
  8
0
 10
-33.8555
 20
-28.5098
 11
-33.1465
 21
-27.4482
  0
LINE
  8
0
 10
-33.1465
 20
-27.4482
 11
-32.3564
 21
-26.4463
  0
LINE
  8
0
 10
-32.3564
 20
-26.4463
 11
-31.4902
 21
-25.5098
  0
LINE
  8
0
 10
-31.4902
 20
-25.5098
 11
-30.5537
 21
-24.6436
  0
LINE
  8
0
 10
-30.5537
 20
-24.6436
 11
-29.5518
 21
-23.8535
  0
LINE
  8
0
 10
-29.5518
 20
-23.8535
 11
-28.4902
 21
-23.1445
  0
LINE
  8
0
 10
-28.4902
 20
-23.1445
 11
-27.377
 21
-22.5215
  0
LINE
  8
0
 10
-27.377
 20
-22.5215
 11
-26.2188
 21
-21.9873
  0
LINE
  8
0
 10
-26.2188
 20
-21.9873
 11
-25.0215
 21
-21.5449
  0
LINE
  8
0
 10
-25.0215
 20
-21.5449
 11
-23.7939
 21
-21.1992
  0
LINE
  8
0
 10
-23.7939
 20
-21.1992
 11
-22.542
 21
-20.9502
  0
LINE
  8
0
 10
-22.542
 20
-20.9502
 11
-21.2744
 21
-20.7998
  0
LINE
  8
0
 10
-21.2744
 20
-20.7998
 11
-20
 21
-20.75
  0
LINE
  8
0
 10
-20
 20
-20.75
 11
-18.7246
 21
-20.7998
  0
LINE
  8
0
 10
-18.7246
 20
-20.7998
 11
-17.458
 21
-20.9502
  0
LINE
  8
0
 10
-17.458
 20
-20.9502
 11
-16.2061
 21
-21.1992
  0
LINE
  8
0
 10
-16.2061
 20
-21.1992
 11
-14.9785
 21
-21.5449
  0
LINE
  8
0
 10
-14.9785
 20
-21.5449
 11
-13.7812
 21
-21.9873
  0
LINE
  8
0
 10
-13.7812
 20
-21.9873
 11
-12.623
 21
-22.5215
  0
LINE
  8
0
 10
-12.623
 20
-22.5215
 11
-11.5098
 21
-23.1445
  0
LINE
  8
0
 10
-11.5098
 20
-23.1445
 11
-10.4482
 21
-23.8535
  0
LINE
  8
0
 10
-10.4482
 20
-23.8535
 11
-9.44629
 21
-24.6436
  0
LINE
  8
0
 10
-9.44629
 20
-24.6436
 11
-8.50977
 21
-25.5098
  0
LINE
  8
0
 10
-8.50977
 20
-25.5098
 11
-7.64355
 21
-26.4463
  0
LINE
  8
0
 10
-7.64355
 20
-26.4463
 11
-6.85352
 21
-27.4482
  0
LINE
  8
0
 10
-6.85352
 20
-27.4482
 11
-6.14453
 21
-28.5098
  0
LINE
  8
0
 10
-6.14453
 20
-28.5098
 11
-5.52148
 21
-29.623
  0
LINE
  8
0
 10
-5.52148
 20
-29.623
 11
-4.9873
 21
-30.7812
  0
LINE
  8
0
 10
-4.9873
 20
-30.7812
 11
-4.54492
 21
-31.9785
  0
LINE
  8
0
 10
-4.54492
 20
-31.9785
 11
-4.19922
 21
-33.2061
  0
LINE
  8
0
 10
-4.19922
 20
-33.2061
 11
-3.9502
 21
-34.458
  0
LINE
  8
0
 10
-3.9502
 20
-34.458
 11
-3.7998
 21
-35.7246
  0
LINE
  8
0
 10
-3.7998
 20
-35.7246
 11
-3.75
 21
-37
  0
LINE
  8
0
 10
-3.75
 20
-37
 11
-3.7998
 21
-38.2744
  0
LINE
  8
0
 10
-3.7998
 20
-38.2744
 11
-3.9502
 21
-39.542
  0
LINE
  8
0
 10
-3.9502
 20
-39.542
 11
-4.19922
 21
-40.7939
  0
LINE
  8
0
 10
-4.19922
 20
-40.7939
 11
-4.54492
 21
-42.0215
  0
LINE
  8
0
 10
-4.54492
 20
-42.0215
 11
-4.9873
 21
-43.2188
  0
LINE
  8
0
 10
-4.9873
 20
-43.2188
 11
-5.52148
 21
-44.377
  0
LINE
  8
0
 10
-5.52148
 20
-44.377
 11
-6.14453
 21
-45.4902
  0
LINE
  8
0
 10
-6.14453
 20
-45.4902
 11
-6.85352
 21
-46.5518
  0
LINE
  8
0
 10
-6.85352
 20
-46.5518
 11
-7.64355
 21
-47.5537
  0
LINE
  8
0
 10
-7.64355
 20
-47.5537
 11
-8.50977
 21
-48.4902
  0
LINE
  8
0
 10
-8.50977
 20
-48.4902
 11
-9.44629
 21
-49.3564
  0
LINE
  8
0
 10
-9.44629
 20
-49.3564
 11
-10.4482
 21
-50.1465
  0
LINE
  8
0
 10
-10.4482
 20
-50.1465
 11
-11.5098
 21
-50.8555
  0
LINE
  8
0
 10
-11.5098
 20
-50.8555
 11
-12.623
 21
-51.4785
  0
LINE
  8
0
 10
-12.623
 20
-51.4785
 11
-13.7812
 21
-52.0127
  0
LINE
  8
0
 10
-13.7812
 20
-52.0127
 11
-14.9785
 21
-52.4551
  0
LINE
  8
0
 10
-14.9785
 20
-52.4551
 11
-16.2061
 21
-52.8008
  0
LINE
  8
0
 10
-16.2061
 20
-52.8008
 11
-17.458
 21
-53.0498
  0
LINE
  8
0
 10
-17.458
 20
-53.0498
 11
-18.7246
 21
-53.2002
  0
LINE
  8
0
 10
-18.7246
 20
-53.2002
 11
-20
 21
-53.25
  0
LINE
  8
0
 10
-20
 20
-53.25
 11
-21.2744
 21
-53.2002
  0
LINE
  8
0
 10
-225.126
 20
-41.5947
 11
-225.25
 21
-41.5801
  0
LINE
  8
0
 10
-225.25
 20
-41.5801
 11
-225.374
 21
-41.5557
  0
LINE
  8
0
 10
-225.374
 20
-41.5557
 11
-225.494
 21
-41.5215
  0
LINE
  8
0
 10
-225.494
 20
-41.5215
 11
-225.612
 21
-41.4785
  0
LINE
  8
0
 10
-225.612
 20
-41.4785
 11
-225.726
 21
-41.4258
  0
LINE
  8
0
 10
-225.726
 20
-41.4258
 11
-225.836
 21
-41.3643
  0
LINE
  8
0
 10
-225.836
 20
-41.3643
 11
-225.94
 21
-41.2939
  0
LINE
  8
0
 10
-225.94
 20
-41.2939
 11
-226.039
 21
-41.2168
  0
LINE
  8
0
 10
-226.039
 20
-41.2168
 11
-226.131
 21
-41.1318
  0
LINE
  8
0
 10
-226.131
 20
-41.1318
 11
-226.217
 21
-41.0391
  0
LINE
  8
0
 10
-226.217
 20
-41.0391
 11
-226.294
 21
-40.9404
  0
LINE
  8
0
 10
-226.294
 20
-40.9404
 11
-226.364
 21
-40.8359
  0
LINE
  8
0
 10
-226.364
 20
-40.8359
 11
-226.426
 21
-40.7266
  0
LINE
  8
0
 10
-226.426
 20
-40.7266
 11
-226.478
 21
-40.6123
  0
LINE
  8
0
 10
-226.478
 20
-40.6123
 11
-226.522
 21
-40.4941
  0
LINE
  8
0
 10
-226.522
 20
-40.4941
 11
-226.556
 21
-40.373
  0
LINE
  8
0
 10
-226.556
 20
-40.373
 11
-226.58
 21
-40.25
  0
LINE
  8
0
 10
-226.58
 20
-40.25
 11
-226.595
 21
-40.126
  0
LINE
  8
0
 10
-226.595
 20
-40.126
 11
-226.6
 21
-40
  0
LINE
  8
0
 10
-226.6
 20
-40
 11
-226.6
 21
-32
  0
LINE
  8
0
 10
-226.6
 20
-32
 11
-226.595
 21
-31.874
  0
LINE
  8
0
 10
-226.595
 20
-31.874
 11
-226.58
 21
-31.75
  0
LINE
  8
0
 10
-226.58
 20
-31.75
 11
-226.556
 21
-31.627
  0
LINE
  8
0
 10
-226.556
 20
-31.627
 11
-226.522
 21
-31.5059
  0
LINE
  8
0
 10
-226.522
 20
-31.5059
 11
-226.478
 21
-31.3877
  0
LINE
  8
0
 10
-226.478
 20
-31.3877
 11
-226.426
 21
-31.2734
  0
LINE
  8
0
 10
-226.426
 20
-31.2734
 11
-226.364
 21
-31.1641
  0
LINE
  8
0
 10
-226.364
 20
-31.1641
 11
-226.294
 21
-31.0596
  0
LINE
  8
0
 10
-226.294
 20
-31.0596
 11
-226.217
 21
-30.9609
  0
LINE
  8
0
 10
-226.217
 20
-30.9609
 11
-226.131
 21
-30.8682
  0
LINE
  8
0
 10
-226.131
 20
-30.8682
 11
-226.039
 21
-30.7832
  0
LINE
  8
0
 10
-226.039
 20
-30.7832
 11
-225.94
 21
-30.7061
  0
LINE
  8
0
 10
-225.94
 20
-30.7061
 11
-225.836
 21
-30.6357
  0
LINE
  8
0
 10
-225.836
 20
-30.6357
 11
-225.726
 21
-30.5742
  0
LINE
  8
0
 10
-225.726
 20
-30.5742
 11
-225.612
 21
-30.5215
  0
LINE
  8
0
 10
-225.612
 20
-30.5215
 11
-225.494
 21
-30.4785
  0
LINE
  8
0
 10
-225.494
 20
-30.4785
 11
-225.374
 21
-30.4443
  0
LINE
  8
0
 10
-225.374
 20
-30.4443
 11
-225.25
 21
-30.4199
  0
LINE
  8
0
 10
-225.25
 20
-30.4199
 11
-225.126
 21
-30.4053
  0
LINE
  8
0
 10
-225.126
 20
-30.4053
 11
-225
 21
-30.4004
  0
LINE
  8
0
 10
-225
 20
-30.4004
 11
-224.874
 21
-30.4053
  0
LINE
  8
0
 10
-224.874
 20
-30.4053
 11
-224.75
 21
-30.4199
  0
LINE
  8
0
 10
-224.75
 20
-30.4199
 11
-224.626
 21
-30.4443
  0
LINE
  8
0
 10
-224.626
 20
-30.4443
 11
-224.506
 21
-30.4785
  0
LINE
  8
0
 10
-224.506
 20
-30.4785
 11
-224.388
 21
-30.5215
  0
LINE
  8
0
 10
-224.388
 20
-30.5215
 11
-224.274
 21
-30.5742
  0
LINE
  8
0
 10
-224.274
 20
-30.5742
 11
-224.164
 21
-30.6357
  0
LINE
  8
0
 10
-224.164
 20
-30.6357
 11
-224.06
 21
-30.7061
  0
LINE
  8
0
 10
-224.06
 20
-30.7061
 11
-223.961
 21
-30.7832
  0
LINE
  8
0
 10
-223.961
 20
-30.7832
 11
-223.869
 21
-30.8682
  0
LINE
  8
0
 10
-223.869
 20
-30.8682
 11
-223.783
 21
-30.9609
  0
LINE
  8
0
 10
-223.783
 20
-30.9609
 11
-223.706
 21
-31.0596
  0
LINE
  8
0
 10
-223.706
 20
-31.0596
 11
-223.636
 21
-31.1641
  0
LINE
  8
0
 10
-223.636
 20
-31.1641
 11
-223.574
 21
-31.2734
  0
LINE
  8
0
 10
-223.574
 20
-31.2734
 11
-223.522
 21
-31.3877
  0
LINE
  8
0
 10
-223.522
 20
-31.3877
 11
-223.478
 21
-31.5059
  0
LINE
  8
0
 10
-223.478
 20
-31.5059
 11
-223.444
 21
-31.627
  0
LINE
  8
0
 10
-223.444
 20
-31.627
 11
-223.42
 21
-31.75
  0
LINE
  8
0
 10
-223.42
 20
-31.75
 11
-223.405
 21
-31.874
  0
LINE
  8
0
 10
-223.405
 20
-31.874
 11
-223.4
 21
-32
  0
LINE
  8
0
 10
-223.4
 20
-32
 11
-223.4
 21
-40
  0
LINE
  8
0
 10
-223.4
 20
-40
 11
-223.405
 21
-40.126
  0
LINE
  8
0
 10
-223.405
 20
-40.126
 11
-223.42
 21
-40.25
  0
LINE
  8
0
 10
-223.42
 20
-40.25
 11
-223.444
 21
-40.373
  0
LINE
  8
0
 10
-223.444
 20
-40.373
 11
-223.478
 21
-40.4941
  0
LINE
  8
0
 10
-223.478
 20
-40.4941
 11
-223.522
 21
-40.6123
  0
LINE
  8
0
 10
-223.522
 20
-40.6123
 11
-223.574
 21
-40.7266
  0
LINE
  8
0
 10
-223.574
 20
-40.7266
 11
-223.636
 21
-40.8359
  0
LINE
  8
0
 10
-223.636
 20
-40.8359
 11
-223.706
 21
-40.9404
  0
LINE
  8
0
 10
-223.706
 20
-40.9404
 11
-223.783
 21
-41.0391
  0
LINE
  8
0
 10
-223.783
 20
-41.0391
 11
-223.869
 21
-41.1318
  0
LINE
  8
0
 10
-223.869
 20
-41.1318
 11
-223.961
 21
-41.2168
  0
LINE
  8
0
 10
-223.961
 20
-41.2168
 11
-224.06
 21
-41.2939
  0
LINE
  8
0
 10
-224.06
 20
-41.2939
 11
-224.164
 21
-41.3643
  0
LINE
  8
0
 10
-224.164
 20
-41.3643
 11
-224.274
 21
-41.4258
  0
LINE
  8
0
 10
-224.274
 20
-41.4258
 11
-224.388
 21
-41.4785
  0
LINE
  8
0
 10
-224.388
 20
-41.4785
 11
-224.506
 21
-41.5215
  0
LINE
  8
0
 10
-224.506
 20
-41.5215
 11
-224.626
 21
-41.5557
  0
LINE
  8
0
 10
-224.626
 20
-41.5557
 11
-224.75
 21
-41.5801
  0
LINE
  8
0
 10
-224.75
 20
-41.5801
 11
-224.874
 21
-41.5947
  0
LINE
  8
0
 10
-224.874
 20
-41.5947
 11
-225
 21
-41.5996
  0
LINE
  8
0
 10
-225
 20
-41.5996
 11
-225.126
 21
-41.5947
  0
LINE
  8
0
 10
9.87402
 20
-41.5947
 11
9.75
 21
-41.5801
  0
LINE
  8
0
 10
9.75
 20
-41.5801
 11
9.62695
 21
-41.5557
  0
LINE
  8
0
 10
9.62695
 20
-41.5557
 11
9.50586
 21
-41.5215
  0
LINE
  8
0
 10
9.50586
 20
-41.5215
 11
9.3877
 21
-41.4785
  0
LINE
  8
0
 10
9.3877
 20
-41.4785
 11
9.27344
 21
-41.4258
  0
LINE
  8
0
 10
9.27344
 20
-41.4258
 11
9.16406
 21
-41.3643
  0
LINE
  8
0
 10
9.16406
 20
-41.3643
 11
9.05957
 21
-41.2939
  0
LINE
  8
0
 10
9.05957
 20
-41.2939
 11
8.96094
 21
-41.2168
  0
LINE
  8
0
 10
8.96094
 20
-41.2168
 11
8.86816
 21
-41.1318
  0
LINE
  8
0
 10
8.86816
 20
-41.1318
 11
8.7832
 21
-41.0391
  0
LINE
  8
0
 10
8.7832
 20
-41.0391
 11
8.70605
 21
-40.9404
  0
LINE
  8
0
 10
8.70605
 20
-40.9404
 11
8.63574
 21
-40.8359
  0
LINE
  8
0
 10
8.63574
 20
-40.8359
 11
8.57422
 21
-40.7266
  0
LINE
  8
0
 10
8.57422
 20
-40.7266
 11
8.52148
 21
-40.6123
  0
LINE
  8
0
 10
8.52148
 20
-40.6123
 11
8.47852
 21
-40.4941
  0
LINE
  8
0
 10
8.47852
 20
-40.4941
 11
8.44434
 21
-40.373
  0
LINE
  8
0
 10
8.44434
 20
-40.373
 11
8.41992
 21
-40.25
  0
LINE
  8
0
 10
8.41992
 20
-40.25
 11
8.40527
 21
-40.126
  0
LINE
  8
0
 10
8.40527
 20
-40.126
 11
8.40039
 21
-40
  0
LINE
  8
0
 10
8.40039
 20
-40
 11
8.40039
 21
-32
  0
LINE
  8
0
 10
8.40039
 20
-32
 11
8.40527
 21
-31.874
  0
LINE
  8
0
 10
8.40527
 20
-31.874
 11
8.41992
 21
-31.75
  0
LINE
  8
0
 10
8.41992
 20
-31.75
 11
8.44434
 21
-31.627
  0
LINE
  8
0
 10
8.44434
 20
-31.627
 11
8.47852
 21
-31.5059
  0
LINE
  8
0
 10
8.47852
 20
-31.5059
 11
8.52148
 21
-31.3877
  0
LINE
  8
0
 10
8.52148
 20
-31.3877
 11
8.57422
 21
-31.2734
  0
LINE
  8
0
 10
8.57422
 20
-31.2734
 11
8.63574
 21
-31.1641
  0
LINE
  8
0
 10
8.63574
 20
-31.1641
 11
8.70605
 21
-31.0596
  0
LINE
  8
0
 10
8.70605
 20
-31.0596
 11
8.7832
 21
-30.9609
  0
LINE
  8
0
 10
8.7832
 20
-30.9609
 11
8.86816
 21
-30.8682
  0
LINE
  8
0
 10
8.86816
 20
-30.8682
 11
8.96094
 21
-30.7832
  0
LINE
  8
0
 10
8.96094
 20
-30.7832
 11
9.05957
 21
-30.7061
  0
LINE
  8
0
 10
9.05957
 20
-30.7061
 11
9.16406
 21
-30.6357
  0
LINE
  8
0
 10
9.16406
 20
-30.6357
 11
9.27344
 21
-30.5742
  0
LINE
  8
0
 10
9.27344
 20
-30.5742
 11
9.3877
 21
-30.5215
  0
LINE
  8
0
 10
9.3877
 20
-30.5215
 11
9.50586
 21
-30.4785
  0
LINE
  8
0
 10
9.50586
 20
-30.4785
 11
9.62695
 21
-30.4443
  0
LINE
  8
0
 10
9.62695
 20
-30.4443
 11
9.75
 21
-30.4199
  0
LINE
  8
0
 10
9.75
 20
-30.4199
 11
9.87402
 21
-30.4053
  0
LINE
  8
0
 10
9.87402
 20
-30.4053
 11
10
 21
-30.4004
  0
LINE
  8
0
 10
10
 20
-30.4004
 11
10.126
 21
-30.4053
  0
LINE
  8
0
 10
10.126
 20
-30.4053
 11
10.25
 21
-30.4199
  0
LINE
  8
0
 10
10.25
 20
-30.4199
 11
10.373
 21
-30.4443
  0
LINE
  8
0
 10
10.373
 20
-30.4443
 11
10.4941
 21
-30.4785
  0
LINE
  8
0
 10
10.4941
 20
-30.4785
 11
10.6123
 21
-30.5215
  0
LINE
  8
0
 10
10.6123
 20
-30.5215
 11
10.7266
 21
-30.5742
  0
LINE
  8
0
 10
10.7266
 20
-30.5742
 11
10.8359
 21
-30.6357
  0
LINE
  8
0
 10
10.8359
 20
-30.6357
 11
10.9404
 21
-30.7061
  0
LINE
  8
0
 10
10.9404
 20
-30.7061
 11
11.0391
 21
-30.7832
  0
LINE
  8
0
 10
11.0391
 20
-30.7832
 11
11.1318
 21
-30.8682
  0
LINE
  8
0
 10
11.1318
 20
-30.8682
 11
11.2168
 21
-30.9609
  0
LINE
  8
0
 10
11.2168
 20
-30.9609
 11
11.2939
 21
-31.0596
  0
LINE
  8
0
 10
11.2939
 20
-31.0596
 11
11.3643
 21
-31.1641
  0
LINE
  8
0
 10
11.3643
 20
-31.1641
 11
11.4258
 21
-31.2734
  0
LINE
  8
0
 10
11.4258
 20
-31.2734
 11
11.4785
 21
-31.3877
  0
LINE
  8
0
 10
11.4785
 20
-31.3877
 11
11.5215
 21
-31.5059
  0
LINE
  8
0
 10
11.5215
 20
-31.5059
 11
11.5557
 21
-31.627
  0
LINE
  8
0
 10
11.5557
 20
-31.627
 11
11.5801
 21
-31.75
  0
LINE
  8
0
 10
11.5801
 20
-31.75
 11
11.5947
 21
-31.874
  0
LINE
  8
0
 10
11.5947
 20
-31.874
 11
11.5996
 21
-32
  0
LINE
  8
0
 10
11.5996
 20
-32
 11
11.5996
 21
-40
  0
LINE
  8
0
 10
11.5996
 20
-40
 11
11.5947
 21
-40.126
  0
LINE
  8
0
 10
11.5947
 20
-40.126
 11
11.5801
 21
-40.25
  0
LINE
  8
0
 10
11.5801
 20
-40.25
 11
11.5557
 21
-40.373
  0
LINE
  8
0
 10
11.5557
 20
-40.373
 11
11.5215
 21
-40.4941
  0
LINE
  8
0
 10
11.5215
 20
-40.4941
 11
11.4785
 21
-40.6123
  0
LINE
  8
0
 10
11.4785
 20
-40.6123
 11
11.4258
 21
-40.7266
  0
LINE
  8
0
 10
11.4258
 20
-40.7266
 11
11.3643
 21
-40.8359
  0
LINE
  8
0
 10
11.3643
 20
-40.8359
 11
11.2939
 21
-40.9404
  0
LINE
  8
0
 10
11.2939
 20
-40.9404
 11
11.2168
 21
-41.0391
  0
LINE
  8
0
 10
11.2168
 20
-41.0391
 11
11.1318
 21
-41.1318
  0
LINE
  8
0
 10
11.1318
 20
-41.1318
 11
11.0391
 21
-41.2168
  0
LINE
  8
0
 10
11.0391
 20
-41.2168
 11
10.9404
 21
-41.2939
  0
LINE
  8
0
 10
10.9404
 20
-41.2939
 11
10.8359
 21
-41.3643
  0
LINE
  8
0
 10
10.8359
 20
-41.3643
 11
10.7266
 21
-41.4258
  0
LINE
  8
0
 10
10.7266
 20
-41.4258
 11
10.6123
 21
-41.4785
  0
LINE
  8
0
 10
10.6123
 20
-41.4785
 11
10.4941
 21
-41.5215
  0
LINE
  8
0
 10
10.4941
 20
-41.5215
 11
10.373
 21
-41.5557
  0
LINE
  8
0
 10
10.373
 20
-41.5557
 11
10.25
 21
-41.5801
  0
LINE
  8
0
 10
10.25
 20
-41.5801
 11
10.126
 21
-41.5947
  0
LINE
  8
0
 10
10.126
 20
-41.5947
 11
10
 21
-41.5996
  0
LINE
  8
0
 10
10
 20
-41.5996
 11
9.87402
 21
-41.5947
  0
LINE
  8
0
 10
-225.126
 20
-81.5947
 11
-225.25
 21
-81.5801
  0
LINE
  8
0
 10
-225.25
 20
-81.5801
 11
-225.374
 21
-81.5557
  0
LINE
  8
0
 10
-225.374
 20
-81.5557
 11
-225.494
 21
-81.5215
  0
LINE
  8
0
 10
-225.494
 20
-81.5215
 11
-225.612
 21
-81.4785
  0
LINE
  8
0
 10
-225.612
 20
-81.4785
 11
-225.726
 21
-81.4258
  0
LINE
  8
0
 10
-225.726
 20
-81.4258
 11
-225.836
 21
-81.3643
  0
LINE
  8
0
 10
-225.836
 20
-81.3643
 11
-225.94
 21
-81.2939
  0
LINE
  8
0
 10
-225.94
 20
-81.2939
 11
-226.039
 21
-81.2168
  0
LINE
  8
0
 10
-226.039
 20
-81.2168
 11
-226.131
 21
-81.1318
  0
LINE
  8
0
 10
-226.131
 20
-81.1318
 11
-226.217
 21
-81.0391
  0
LINE
  8
0
 10
-226.217
 20
-81.0391
 11
-226.294
 21
-80.9404
  0
LINE
  8
0
 10
-226.294
 20
-80.9404
 11
-226.364
 21
-80.8359
  0
LINE
  8
0
 10
-226.364
 20
-80.8359
 11
-226.426
 21
-80.7266
  0
LINE
  8
0
 10
-226.426
 20
-80.7266
 11
-226.478
 21
-80.6123
  0
LINE
  8
0
 10
-226.478
 20
-80.6123
 11
-226.522
 21
-80.4941
  0
LINE
  8
0
 10
-226.522
 20
-80.4941
 11
-226.556
 21
-80.373
  0
LINE
  8
0
 10
-226.556
 20
-80.373
 11
-226.58
 21
-80.25
  0
LINE
  8
0
 10
-226.58
 20
-80.25
 11
-226.595
 21
-80.126
  0
LINE
  8
0
 10
-226.595
 20
-80.126
 11
-226.6
 21
-80
  0
LINE
  8
0
 10
-226.6
 20
-80
 11
-226.6
 21
-72
  0
LINE
  8
0
 10
-226.6
 20
-72
 11
-226.595
 21
-71.874
  0
LINE
  8
0
 10
-226.595
 20
-71.874
 11
-226.58
 21
-71.75
  0
LINE
  8
0
 10
-226.58
 20
-71.75
 11
-226.556
 21
-71.627
  0
LINE
  8
0
 10
-226.556
 20
-71.627
 11
-226.522
 21
-71.5059
  0
LINE
  8
0
 10
-226.522
 20
-71.5059
 11
-226.478
 21
-71.3877
  0
LINE
  8
0
 10
-226.478
 20
-71.3877
 11
-226.426
 21
-71.2734
  0
LINE
  8
0
 10
-226.426
 20
-71.2734
 11
-226.364
 21
-71.1641
  0
LINE
  8
0
 10
-226.364
 20
-71.1641
 11
-226.294
 21
-71.0596
  0
LINE
  8
0
 10
-226.294
 20
-71.0596
 11
-226.217
 21
-70.9609
  0
LINE
  8
0
 10
-226.217
 20
-70.9609
 11
-226.131
 21
-70.8682
  0
LINE
  8
0
 10
-226.131
 20
-70.8682
 11
-226.039
 21
-70.7832
  0
LINE
  8
0
 10
-226.039
 20
-70.7832
 11
-225.94
 21
-70.7061
  0
LINE
  8
0
 10
-225.94
 20
-70.7061
 11
-225.836
 21
-70.6357
  0
LINE
  8
0
 10
-225.836
 20
-70.6357
 11
-225.726
 21
-70.5742
  0
LINE
  8
0
 10
-225.726
 20
-70.5742
 11
-225.612
 21
-70.5215
  0
LINE
  8
0
 10
-225.612
 20
-70.5215
 11
-225.494
 21
-70.4785
  0
LINE
  8
0
 10
-225.494
 20
-70.4785
 11
-225.374
 21
-70.4443
  0
LINE
  8
0
 10
-225.374
 20
-70.4443
 11
-225.25
 21
-70.4199
  0
LINE
  8
0
 10
-225.25
 20
-70.4199
 11
-225.126
 21
-70.4053
  0
LINE
  8
0
 10
-225.126
 20
-70.4053
 11
-225
 21
-70.4004
  0
LINE
  8
0
 10
-225
 20
-70.4004
 11
-224.874
 21
-70.4053
  0
LINE
  8
0
 10
-224.874
 20
-70.4053
 11
-224.75
 21
-70.4199
  0
LINE
  8
0
 10
-224.75
 20
-70.4199
 11
-224.626
 21
-70.4443
  0
LINE
  8
0
 10
-224.626
 20
-70.4443
 11
-224.506
 21
-70.4785
  0
LINE
  8
0
 10
-224.506
 20
-70.4785
 11
-224.388
 21
-70.5215
  0
LINE
  8
0
 10
-224.388
 20
-70.5215
 11
-224.274
 21
-70.5742
  0
LINE
  8
0
 10
-224.274
 20
-70.5742
 11
-224.164
 21
-70.6357
  0
LINE
  8
0
 10
-224.164
 20
-70.6357
 11
-224.06
 21
-70.7061
  0
LINE
  8
0
 10
-224.06
 20
-70.7061
 11
-223.961
 21
-70.7832
  0
LINE
  8
0
 10
-223.961
 20
-70.7832
 11
-223.869
 21
-70.8682
  0
LINE
  8
0
 10
-223.869
 20
-70.8682
 11
-223.783
 21
-70.9609
  0
LINE
  8
0
 10
-223.783
 20
-70.9609
 11
-223.706
 21
-71.0596
  0
LINE
  8
0
 10
-223.706
 20
-71.0596
 11
-223.636
 21
-71.1641
  0
LINE
  8
0
 10
-223.636
 20
-71.1641
 11
-223.574
 21
-71.2734
  0
LINE
  8
0
 10
-223.574
 20
-71.2734
 11
-223.522
 21
-71.3877
  0
LINE
  8
0
 10
-223.522
 20
-71.3877
 11
-223.478
 21
-71.5059
  0
LINE
  8
0
 10
-223.478
 20
-71.5059
 11
-223.444
 21
-71.627
  0
LINE
  8
0
 10
-223.444
 20
-71.627
 11
-223.42
 21
-71.75
  0
LINE
  8
0
 10
-223.42
 20
-71.75
 11
-223.405
 21
-71.874
  0
LINE
  8
0
 10
-223.405
 20
-71.874
 11
-223.4
 21
-72
  0
LINE
  8
0
 10
-223.4
 20
-72
 11
-223.4
 21
-80
  0
LINE
  8
0
 10
-223.4
 20
-80
 11
-223.405
 21
-80.126
  0
LINE
  8
0
 10
-223.405
 20
-80.126
 11
-223.42
 21
-80.25
  0
LINE
  8
0
 10
-223.42
 20
-80.25
 11
-223.444
 21
-80.373
  0
LINE
  8
0
 10
-223.444
 20
-80.373
 11
-223.478
 21
-80.4941
  0
LINE
  8
0
 10
-223.478
 20
-80.4941
 11
-223.522
 21
-80.6123
  0
LINE
  8
0
 10
-223.522
 20
-80.6123
 11
-223.574
 21
-80.7266
  0
LINE
  8
0
 10
-223.574
 20
-80.7266
 11
-223.636
 21
-80.8359
  0
LINE
  8
0
 10
-223.636
 20
-80.8359
 11
-223.706
 21
-80.9404
  0
LINE
  8
0
 10
-223.706
 20
-80.9404
 11
-223.783
 21
-81.0391
  0
LINE
  8
0
 10
-223.783
 20
-81.0391
 11
-223.869
 21
-81.1318
  0
LINE
  8
0
 10
-223.869
 20
-81.1318
 11
-223.961
 21
-81.2168
  0
LINE
  8
0
 10
-223.961
 20
-81.2168
 11
-224.06
 21
-81.2939
  0
LINE
  8
0
 10
-224.06
 20
-81.2939
 11
-224.164
 21
-81.3643
  0
LINE
  8
0
 10
-224.164
 20
-81.3643
 11
-224.274
 21
-81.4258
  0
LINE
  8
0
 10
-224.274
 20
-81.4258
 11
-224.388
 21
-81.4785
  0
LINE
  8
0
 10
-224.388
 20
-81.4785
 11
-224.506
 21
-81.5215
  0
LINE
  8
0
 10
-224.506
 20
-81.5215
 11
-224.626
 21
-81.5557
  0
LINE
  8
0
 10
-224.626
 20
-81.5557
 11
-224.75
 21
-81.5801
  0
LINE
  8
0
 10
-224.75
 20
-81.5801
 11
-224.874
 21
-81.5947
  0
LINE
  8
0
 10
-224.874
 20
-81.5947
 11
-225
 21
-81.5996
  0
LINE
  8
0
 10
-225
 20
-81.5996
 11
-225.126
 21
-81.5947
  0
LINE
  8
0
 10
9.87402
 20
-81.5947
 11
9.75
 21
-81.5801
  0
LINE
  8
0
 10
9.75
 20
-81.5801
 11
9.62695
 21
-81.5557
  0
LINE
  8
0
 10
9.62695
 20
-81.5557
 11
9.50586
 21
-81.5215
  0
LINE
  8
0
 10
9.50586
 20
-81.5215
 11
9.3877
 21
-81.4785
  0
LINE
  8
0
 10
9.3877
 20
-81.4785
 11
9.27344
 21
-81.4258
  0
LINE
  8
0
 10
9.27344
 20
-81.4258
 11
9.16406
 21
-81.3643
  0
LINE
  8
0
 10
9.16406
 20
-81.3643
 11
9.05957
 21
-81.2939
  0
LINE
  8
0
 10
9.05957
 20
-81.2939
 11
8.96094
 21
-81.2168
  0
LINE
  8
0
 10
8.96094
 20
-81.2168
 11
8.86816
 21
-81.1318
  0
LINE
  8
0
 10
8.86816
 20
-81.1318
 11
8.7832
 21
-81.0391
  0
LINE
  8
0
 10
8.7832
 20
-81.0391
 11
8.70605
 21
-80.9404
  0
LINE
  8
0
 10
8.70605
 20
-80.9404
 11
8.63574
 21
-80.8359
  0
LINE
  8
0
 10
8.63574
 20
-80.8359
 11
8.57422
 21
-80.7266
  0
LINE
  8
0
 10
8.57422
 20
-80.7266
 11
8.52148
 21
-80.6123
  0
LINE
  8
0
 10
8.52148
 20
-80.6123
 11
8.47852
 21
-80.4941
  0
LINE
  8
0
 10
8.47852
 20
-80.4941
 11
8.44434
 21
-80.373
  0
LINE
  8
0
 10
8.44434
 20
-80.373
 11
8.41992
 21
-80.25
  0
LINE
  8
0
 10
8.41992
 20
-80.25
 11
8.40527
 21
-80.126
  0
LINE
  8
0
 10
8.40527
 20
-80.126
 11
8.40039
 21
-80
  0
LINE
  8
0
 10
8.40039
 20
-80
 11
8.40039
 21
-72
  0
LINE
  8
0
 10
8.40039
 20
-72
 11
8.40527
 21
-71.874
  0
LINE
  8
0
 10
8.40527
 20
-71.874
 11
8.41992
 21
-71.75
  0
LINE
  8
0
 10
8.41992
 20
-71.75
 11
8.44434
 21
-71.627
  0
LINE
  8
0
 10
8.44434
 20
-71.627
 11
8.47852
 21
-71.5059
  0
LINE
  8
0
 10
8.47852
 20
-71.5059
 11
8.52148
 21
-71.3877
  0
LINE
  8
0
 10
8.52148
 20
-71.3877
 11
8.57422
 21
-71.2734
  0
LINE
  8
0
 10
8.57422
 20
-71.2734
 11
8.63574
 21
-71.1641
  0
LINE
  8
0
 10
8.63574
 20
-71.1641
 11
8.70605
 21
-71.0596
  0
LINE
  8
0
 10
8.70605
 20
-71.0596
 11
8.7832
 21
-70.9609
  0
LINE
  8
0
 10
8.7832
 20
-70.9609
 11
8.86816
 21
-70.8682
  0
LINE
  8
0
 10
8.86816
 20
-70.8682
 11
8.96094
 21
-70.7832
  0
LINE
  8
0
 10
8.96094
 20
-70.7832
 11
9.05957
 21
-70.7061
  0
LINE
  8
0
 10
9.05957
 20
-70.7061
 11
9.16406
 21
-70.6357
  0
LINE
  8
0
 10
9.16406
 20
-70.6357
 11
9.27344
 21
-70.5742
  0
LINE
  8
0
 10
9.27344
 20
-70.5742
 11
9.3877
 21
-70.5215
  0
LINE
  8
0
 10
9.3877
 20
-70.5215
 11
9.50586
 21
-70.4785
  0
LINE
  8
0
 10
9.50586
 20
-70.4785
 11
9.62695
 21
-70.4443
  0
LINE
  8
0
 10
9.62695
 20
-70.4443
 11
9.75
 21
-70.4199
  0
LINE
  8
0
 10
9.75
 20
-70.4199
 11
9.87402
 21
-70.4053
  0
LINE
  8
0
 10
9.87402
 20
-70.4053
 11
10
 21
-70.4004
  0
LINE
  8
0
 10
10
 20
-70.4004
 11
10.126
 21
-70.4053
  0
LINE
  8
0
 10
10.126
 20
-70.4053
 11
10.25
 21
-70.4199
  0
LINE
  8
0
 10
10.25
 20
-70.4199
 11
10.373
 21
-70.4443
  0
LINE
  8
0
 10
10.373
 20
-70.4443
 11
10.4941
 21
-70.4785
  0
LINE
  8
0
 10
10.4941
 20
-70.4785
 11
10.6123
 21
-70.5215
  0
LINE
  8
0
 10
10.6123
 20
-70.5215
 11
10.7266
 21
-70.5742
  0
LINE
  8
0
 10
10.7266
 20
-70.5742
 11
10.8359
 21
-70.6357
  0
LINE
  8
0
 10
10.8359
 20
-70.6357
 11
10.9404
 21
-70.7061
  0
LINE
  8
0
 10
10.9404
 20
-70.7061
 11
11.0391
 21
-70.7832
  0
LINE
  8
0
 10
11.0391
 20
-70.7832
 11
11.1318
 21
-70.8682
  0
LINE
  8
0
 10
11.1318
 20
-70.8682
 11
11.2168
 21
-70.9609
  0
LINE
  8
0
 10
11.2168
 20
-70.9609
 11
11.2939
 21
-71.0596
  0
LINE
  8
0
 10
11.2939
 20
-71.0596
 11
11.3643
 21
-71.1641
  0
LINE
  8
0
 10
11.3643
 20
-71.1641
 11
11.4258
 21
-71.2734
  0
LINE
  8
0
 10
11.4258
 20
-71.2734
 11
11.4785
 21
-71.3877
  0
LINE
  8
0
 10
11.4785
 20
-71.3877
 11
11.5215
 21
-71.5059
  0
LINE
  8
0
 10
11.5215
 20
-71.5059
 11
11.5557
 21
-71.627
  0
LINE
  8
0
 10
11.5557
 20
-71.627
 11
11.5801
 21
-71.75
  0
LINE
  8
0
 10
11.5801
 20
-71.75
 11
11.5947
 21
-71.874
  0
LINE
  8
0
 10
11.5947
 20
-71.874
 11
11.5996
 21
-72
  0
LINE
  8
0
 10
11.5996
 20
-72
 11
11.5996
 21
-80
  0
LINE
  8
0
 10
11.5996
 20
-80
 11
11.5947
 21
-80.126
  0
LINE
  8
0
 10
11.5947
 20
-80.126
 11
11.5801
 21
-80.25
  0
LINE
  8
0
 10
11.5801
 20
-80.25
 11
11.5557
 21
-80.373
  0
LINE
  8
0
 10
11.5557
 20
-80.373
 11
11.5215
 21
-80.4941
  0
LINE
  8
0
 10
11.5215
 20
-80.4941
 11
11.4785
 21
-80.6123
  0
LINE
  8
0
 10
11.4785
 20
-80.6123
 11
11.4258
 21
-80.7266
  0
LINE
  8
0
 10
11.4258
 20
-80.7266
 11
11.3643
 21
-80.8359
  0
LINE
  8
0
 10
11.3643
 20
-80.8359
 11
11.2939
 21
-80.9404
  0
LINE
  8
0
 10
11.2939
 20
-80.9404
 11
11.2168
 21
-81.0391
  0
LINE
  8
0
 10
11.2168
 20
-81.0391
 11
11.1318
 21
-81.1318
  0
LINE
  8
0
 10
11.1318
 20
-81.1318
 11
11.0391
 21
-81.2168
  0
LINE
  8
0
 10
11.0391
 20
-81.2168
 11
10.9404
 21
-81.2939
  0
LINE
  8
0
 10
10.9404
 20
-81.2939
 11
10.8359
 21
-81.3643
  0
LINE
  8
0
 10
10.8359
 20
-81.3643
 11
10.7266
 21
-81.4258
  0
LINE
  8
0
 10
10.7266
 20
-81.4258
 11
10.6123
 21
-81.4785
  0
LINE
  8
0
 10
10.6123
 20
-81.4785
 11
10.4941
 21
-81.5215
  0
LINE
  8
0
 10
10.4941
 20
-81.5215
 11
10.373
 21
-81.5557
  0
LINE
  8
0
 10
10.373
 20
-81.5557
 11
10.25
 21
-81.5801
  0
LINE
  8
0
 10
10.25
 20
-81.5801
 11
10.126
 21
-81.5947
  0
LINE
  8
0
 10
10.126
 20
-81.5947
 11
10
 21
-81.5996
  0
LINE
  8
0
 10
10
 20
-81.5996
 11
9.87402
 21
-81.5947
  0
LINE
  8
0
 10
-225.126
 20
-121.595
 11
-225.25
 21
-121.58
  0
LINE
  8
0
 10
-225.25
 20
-121.58
 11
-225.374
 21
-121.556
  0
LINE
  8
0
 10
-225.374
 20
-121.556
 11
-225.494
 21
-121.522
  0
LINE
  8
0
 10
-225.494
 20
-121.522
 11
-225.612
 21
-121.478
  0
LINE
  8
0
 10
-225.612
 20
-121.478
 11
-225.726
 21
-121.426
  0
LINE
  8
0
 10
-225.726
 20
-121.426
 11
-225.836
 21
-121.364
  0
LINE
  8
0
 10
-225.836
 20
-121.364
 11
-225.94
 21
-121.294
  0
LINE
  8
0
 10
-225.94
 20
-121.294
 11
-226.039
 21
-121.217
  0
LINE
  8
0
 10
-226.039
 20
-121.217
 11
-226.131
 21
-121.131
  0
LINE
  8
0
 10
-226.131
 20
-121.131
 11
-226.217
 21
-121.039
  0
LINE
  8
0
 10
-226.217
 20
-121.039
 11
-226.294
 21
-120.94
  0
LINE
  8
0
 10
-226.294
 20
-120.94
 11
-226.364
 21
-120.836
  0
LINE
  8
0
 10
-226.364
 20
-120.836
 11
-226.426
 21
-120.726
  0
LINE
  8
0
 10
-226.426
 20
-120.726
 11
-226.478
 21
-120.612
  0
LINE
  8
0
 10
-226.478
 20
-120.612
 11
-226.522
 21
-120.494
  0
LINE
  8
0
 10
-226.522
 20
-120.494
 11
-226.556
 21
-120.374
  0
LINE
  8
0
 10
-226.556
 20
-120.374
 11
-226.58
 21
-120.25
  0
LINE
  8
0
 10
-226.58
 20
-120.25
 11
-226.595
 21
-120.126
  0
LINE
  8
0
 10
-226.595
 20
-120.126
 11
-226.6
 21
-120
  0
LINE
  8
0
 10
-226.6
 20
-120
 11
-226.6
 21
-112
  0
LINE
  8
0
 10
-226.6
 20
-112
 11
-226.595
 21
-111.874
  0
LINE
  8
0
 10
-226.595
 20
-111.874
 11
-226.58
 21
-111.75
  0
LINE
  8
0
 10
-226.58
 20
-111.75
 11
-226.556
 21
-111.626
  0
LINE
  8
0
 10
-226.556
 20
-111.626
 11
-226.522
 21
-111.506
  0
LINE
  8
0
 10
-226.522
 20
-111.506
 11
-226.478
 21
-111.388
  0
LINE
  8
0
 10
-226.478
 20
-111.388
 11
-226.426
 21
-111.274
  0
LINE
  8
0
 10
-226.426
 20
-111.274
 11
-226.364
 21
-111.164
  0
LINE
  8
0
 10
-226.364
 20
-111.164
 11
-226.294
 21
-111.06
  0
LINE
  8
0
 10
-226.294
 20
-111.06
 11
-226.217
 21
-110.961
  0
LINE
  8
0
 10
-226.217
 20
-110.961
 11
-226.131
 21
-110.869
  0
LINE
  8
0
 10
-226.131
 20
-110.869
 11
-226.039
 21
-110.783
  0
LINE
  8
0
 10
-226.039
 20
-110.783
 11
-225.94
 21
-110.706
  0
LINE
  8
0
 10
-225.94
 20
-110.706
 11
-225.836
 21
-110.636
  0
LINE
  8
0
 10
-225.836
 20
-110.636
 11
-225.726
 21
-110.574
  0
LINE
  8
0
 10
-225.726
 20
-110.574
 11
-225.612
 21
-110.522
  0
LINE
  8
0
 10
-225.612
 20
-110.522
 11
-225.494
 21
-110.478
  0
LINE
  8
0
 10
-225.494
 20
-110.478
 11
-225.374
 21
-110.444
  0
LINE
  8
0
 10
-225.374
 20
-110.444
 11
-225.25
 21
-110.42
  0
LINE
  8
0
 10
-225.25
 20
-110.42
 11
-225.126
 21
-110.405
  0
LINE
  8
0
 10
-225.126
 20
-110.405
 11
-225
 21
-110.4
  0
LINE
  8
0
 10
-225
 20
-110.4
 11
-224.874
 21
-110.405
  0
LINE
  8
0
 10
-224.874
 20
-110.405
 11
-224.75
 21
-110.42
  0
LINE
  8
0
 10
-224.75
 20
-110.42
 11
-224.626
 21
-110.444
  0
LINE
  8
0
 10
-224.626
 20
-110.444
 11
-224.506
 21
-110.478
  0
LINE
  8
0
 10
-224.506
 20
-110.478
 11
-224.388
 21
-110.522
  0
LINE
  8
0
 10
-224.388
 20
-110.522
 11
-224.274
 21
-110.574
  0
LINE
  8
0
 10
-224.274
 20
-110.574
 11
-224.164
 21
-110.636
  0
LINE
  8
0
 10
-224.164
 20
-110.636
 11
-224.06
 21
-110.706
  0
LINE
  8
0
 10
-224.06
 20
-110.706
 11
-223.961
 21
-110.783
  0
LINE
  8
0
 10
-223.961
 20
-110.783
 11
-223.869
 21
-110.869
  0
LINE
  8
0
 10
-223.869
 20
-110.869
 11
-223.783
 21
-110.961
  0
LINE
  8
0
 10
-223.783
 20
-110.961
 11
-223.706
 21
-111.06
  0
LINE
  8
0
 10
-223.706
 20
-111.06
 11
-223.636
 21
-111.164
  0
LINE
  8
0
 10
-223.636
 20
-111.164
 11
-223.574
 21
-111.274
  0
LINE
  8
0
 10
-223.574
 20
-111.274
 11
-223.522
 21
-111.388
  0
LINE
  8
0
 10
-223.522
 20
-111.388
 11
-223.478
 21
-111.506
  0
LINE
  8
0
 10
-223.478
 20
-111.506
 11
-223.444
 21
-111.626
  0
LINE
  8
0
 10
-223.444
 20
-111.626
 11
-223.42
 21
-111.75
  0
LINE
  8
0
 10
-223.42
 20
-111.75
 11
-223.405
 21
-111.874
  0
LINE
  8
0
 10
-223.405
 20
-111.874
 11
-223.4
 21
-112
  0
LINE
  8
0
 10
-223.4
 20
-112
 11
-223.4
 21
-120
  0
LINE
  8
0
 10
-223.4
 20
-120
 11
-223.405
 21
-120.126
  0
LINE
  8
0
 10
-223.405
 20
-120.126
 11
-223.42
 21
-120.25
  0
LINE
  8
0
 10
-223.42
 20
-120.25
 11
-223.444
 21
-120.374
  0
LINE
  8
0
 10
-223.444
 20
-120.374
 11
-223.478
 21
-120.494
  0
LINE
  8
0
 10
-223.478
 20
-120.494
 11
-223.522
 21
-120.612
  0
LINE
  8
0
 10
-223.522
 20
-120.612
 11
-223.574
 21
-120.726
  0
LINE
  8
0
 10
-223.574
 20
-120.726
 11
-223.636
 21
-120.836
  0
LINE
  8
0
 10
-223.636
 20
-120.836
 11
-223.706
 21
-120.94
  0
LINE
  8
0
 10
-223.706
 20
-120.94
 11
-223.783
 21
-121.039
  0
LINE
  8
0
 10
-223.783
 20
-121.039
 11
-223.869
 21
-121.131
  0
LINE
  8
0
 10
-223.869
 20
-121.131
 11
-223.961
 21
-121.217
  0
LINE
  8
0
 10
-223.961
 20
-121.217
 11
-224.06
 21
-121.294
  0
LINE
  8
0
 10
-224.06
 20
-121.294
 11
-224.164
 21
-121.364
  0
LINE
  8
0
 10
-224.164
 20
-121.364
 11
-224.274
 21
-121.426
  0
LINE
  8
0
 10
-224.274
 20
-121.426
 11
-224.388
 21
-121.478
  0
LINE
  8
0
 10
-224.388
 20
-121.478
 11
-224.506
 21
-121.522
  0
LINE
  8
0
 10
-224.506
 20
-121.522
 11
-224.626
 21
-121.556
  0
LINE
  8
0
 10
-224.626
 20
-121.556
 11
-224.75
 21
-121.58
  0
LINE
  8
0
 10
-224.75
 20
-121.58
 11
-224.874
 21
-121.595
  0
LINE
  8
0
 10
-224.874
 20
-121.595
 11
-225
 21
-121.6
  0
LINE
  8
0
 10
-225
 20
-121.6
 11
-225.126
 21
-121.595
  0
LINE
  8
0
 10
9.87402
 20
-121.595
 11
9.75
 21
-121.58
  0
LINE
  8
0
 10
9.75
 20
-121.58
 11
9.62695
 21
-121.556
  0
LINE
  8
0
 10
9.62695
 20
-121.556
 11
9.50586
 21
-121.522
  0
LINE
  8
0
 10
9.50586
 20
-121.522
 11
9.3877
 21
-121.478
  0
LINE
  8
0
 10
9.3877
 20
-121.478
 11
9.27344
 21
-121.426
  0
LINE
  8
0
 10
9.27344
 20
-121.426
 11
9.16406
 21
-121.364
  0
LINE
  8
0
 10
9.16406
 20
-121.364
 11
9.05957
 21
-121.294
  0
LINE
  8
0
 10
9.05957
 20
-121.294
 11
8.96094
 21
-121.217
  0
LINE
  8
0
 10
8.96094
 20
-121.217
 11
8.86816
 21
-121.131
  0
LINE
  8
0
 10
8.86816
 20
-121.131
 11
8.7832
 21
-121.039
  0
LINE
  8
0
 10
8.7832
 20
-121.039
 11
8.70605
 21
-120.94
  0
LINE
  8
0
 10
8.70605
 20
-120.94
 11
8.63574
 21
-120.836
  0
LINE
  8
0
 10
8.63574
 20
-120.836
 11
8.57422
 21
-120.726
  0
LINE
  8
0
 10
8.57422
 20
-120.726
 11
8.52148
 21
-120.612
  0
LINE
  8
0
 10
8.52148
 20
-120.612
 11
8.47852
 21
-120.494
  0
LINE
  8
0
 10
8.47852
 20
-120.494
 11
8.44434
 21
-120.374
  0
LINE
  8
0
 10
8.44434
 20
-120.374
 11
8.41992
 21
-120.25
  0
LINE
  8
0
 10
8.41992
 20
-120.25
 11
8.40527
 21
-120.126
  0
LINE
  8
0
 10
8.40527
 20
-120.126
 11
8.40039
 21
-120
  0
LINE
  8
0
 10
8.40039
 20
-120
 11
8.40039
 21
-112
  0
LINE
  8
0
 10
8.40039
 20
-112
 11
8.40527
 21
-111.874
  0
LINE
  8
0
 10
8.40527
 20
-111.874
 11
8.41992
 21
-111.75
  0
LINE
  8
0
 10
8.41992
 20
-111.75
 11
8.44434
 21
-111.626
  0
LINE
  8
0
 10
8.44434
 20
-111.626
 11
8.47852
 21
-111.506
  0
LINE
  8
0
 10
8.47852
 20
-111.506
 11
8.52148
 21
-111.388
  0
LINE
  8
0
 10
8.52148
 20
-111.388
 11
8.57422
 21
-111.274
  0
LINE
  8
0
 10
8.57422
 20
-111.274
 11
8.63574
 21
-111.164
  0
LINE
  8
0
 10
8.63574
 20
-111.164
 11
8.70605
 21
-111.06
  0
LINE
  8
0
 10
8.70605
 20
-111.06
 11
8.7832
 21
-110.961
  0
LINE
  8
0
 10
8.7832
 20
-110.961
 11
8.86816
 21
-110.869
  0
LINE
  8
0
 10
8.86816
 20
-110.869
 11
8.96094
 21
-110.783
  0
LINE
  8
0
 10
8.96094
 20
-110.783
 11
9.05957
 21
-110.706
  0
LINE
  8
0
 10
9.05957
 20
-110.706
 11
9.16406
 21
-110.636
  0
LINE
  8
0
 10
9.16406
 20
-110.636
 11
9.27344
 21
-110.574
  0
LINE
  8
0
 10
9.27344
 20
-110.574
 11
9.3877
 21
-110.522
  0
LINE
  8
0
 10
9.3877
 20
-110.522
 11
9.50586
 21
-110.478
  0
LINE
  8
0
 10
9.50586
 20
-110.478
 11
9.62695
 21
-110.444
  0
LINE
  8
0
 10
9.62695
 20
-110.444
 11
9.75
 21
-110.42
  0
LINE
  8
0
 10
9.75
 20
-110.42
 11
9.87402
 21
-110.405
  0
LINE
  8
0
 10
9.87402
 20
-110.405
 11
10
 21
-110.4
  0
LINE
  8
0
 10
10
 20
-110.4
 11
10.126
 21
-110.405
  0
LINE
  8
0
 10
10.126
 20
-110.405
 11
10.25
 21
-110.42
  0
LINE
  8
0
 10
10.25
 20
-110.42
 11
10.373
 21
-110.444
  0
LINE
  8
0
 10
10.373
 20
-110.444
 11
10.4941
 21
-110.478
  0
LINE
  8
0
 10
10.4941
 20
-110.478
 11
10.6123
 21
-110.522
  0
LINE
  8
0
 10
10.6123
 20
-110.522
 11
10.7266
 21
-110.574
  0
LINE
  8
0
 10
10.7266
 20
-110.574
 11
10.8359
 21
-110.636
  0
LINE
  8
0
 10
10.8359
 20
-110.636
 11
10.9404
 21
-110.706
  0
LINE
  8
0
 10
10.9404
 20
-110.706
 11
11.0391
 21
-110.783
  0
LINE
  8
0
 10
11.0391
 20
-110.783
 11
11.1318
 21
-110.869
  0
LINE
  8
0
 10
11.1318
 20
-110.869
 11
11.2168
 21
-110.961
  0
LINE
  8
0
 10
11.2168
 20
-110.961
 11
11.2939
 21
-111.06
  0
LINE
  8
0
 10
11.2939
 20
-111.06
 11
11.3643
 21
-111.164
  0
LINE
  8
0
 10
11.3643
 20
-111.164
 11
11.4258
 21
-111.274
  0
LINE
  8
0
 10
11.4258
 20
-111.274
 11
11.4785
 21
-111.388
  0
LINE
  8
0
 10
11.4785
 20
-111.388
 11
11.5215
 21
-111.506
  0
LINE
  8
0
 10
11.5215
 20
-111.506
 11
11.5557
 21
-111.626
  0
LINE
  8
0
 10
11.5557
 20
-111.626
 11
11.5801
 21
-111.75
  0
LINE
  8
0
 10
11.5801
 20
-111.75
 11
11.5947
 21
-111.874
  0
LINE
  8
0
 10
11.5947
 20
-111.874
 11
11.5996
 21
-112
  0
LINE
  8
0
 10
11.5996
 20
-112
 11
11.5996
 21
-120
  0
LINE
  8
0
 10
11.5996
 20
-120
 11
11.5947
 21
-120.126
  0
LINE
  8
0
 10
11.5947
 20
-120.126
 11
11.5801
 21
-120.25
  0
LINE
  8
0
 10
11.5801
 20
-120.25
 11
11.5557
 21
-120.374
  0
LINE
  8
0
 10
11.5557
 20
-120.374
 11
11.5215
 21
-120.494
  0
LINE
  8
0
 10
11.5215
 20
-120.494
 11
11.4785
 21
-120.612
  0
LINE
  8
0
 10
11.4785
 20
-120.612
 11
11.4258
 21
-120.726
  0
LINE
  8
0
 10
11.4258
 20
-120.726
 11
11.3643
 21
-120.836
  0
LINE
  8
0
 10
11.3643
 20
-120.836
 11
11.2939
 21
-120.94
  0
LINE
  8
0
 10
11.2939
 20
-120.94
 11
11.2168
 21
-121.039
  0
LINE
  8
0
 10
11.2168
 20
-121.039
 11
11.1318
 21
-121.131
  0
LINE
  8
0
 10
11.1318
 20
-121.131
 11
11.0391
 21
-121.217
  0
LINE
  8
0
 10
11.0391
 20
-121.217
 11
10.9404
 21
-121.294
  0
LINE
  8
0
 10
10.9404
 20
-121.294
 11
10.8359
 21
-121.364
  0
LINE
  8
0
 10
10.8359
 20
-121.364
 11
10.7266
 21
-121.426
  0
LINE
  8
0
 10
10.7266
 20
-121.426
 11
10.6123
 21
-121.478
  0
LINE
  8
0
 10
10.6123
 20
-121.478
 11
10.4941
 21
-121.522
  0
LINE
  8
0
 10
10.4941
 20
-121.522
 11
10.373
 21
-121.556
  0
LINE
  8
0
 10
10.373
 20
-121.556
 11
10.25
 21
-121.58
  0
LINE
  8
0
 10
10.25
 20
-121.58
 11
10.126
 21
-121.595
  0
LINE
  8
0
 10
10.126
 20
-121.595
 11
10
 21
-121.6
  0
LINE
  8
0
 10
10
 20
-121.6
 11
9.87402
 21
-121.595
  0
LINE
  8
0
 10
-106.204
 20
-147.592
 11
-106.407
 21
-147.568
  0
LINE
  8
0
 10
-106.407
 20
-147.568
 11
-106.607
 21
-147.528
  0
LINE
  8
0
 10
-106.607
 20
-147.528
 11
-106.803
 21
-147.473
  0
LINE
  8
0
 10
-106.803
 20
-147.473
 11
-106.995
 21
-147.402
  0
LINE
  8
0
 10
-106.995
 20
-147.402
 11
-107.18
 21
-147.317
  0
LINE
  8
0
 10
-107.18
 20
-147.317
 11
-107.358
 21
-147.217
  0
LINE
  8
0
 10
-107.358
 20
-147.217
 11
-107.528
 21
-147.103
  0
LINE
  8
0
 10
-107.528
 20
-147.103
 11
-107.689
 21
-146.977
  0
LINE
  8
0
 10
-107.689
 20
-146.977
 11
-107.838
 21
-146.838
  0
LINE
  8
0
 10
-107.838
 20
-146.838
 11
-107.977
 21
-146.689
  0
LINE
  8
0
 10
-107.977
 20
-146.689
 11
-108.103
 21
-146.528
  0
LINE
  8
0
 10
-108.103
 20
-146.528
 11
-108.217
 21
-146.358
  0
LINE
  8
0
 10
-108.217
 20
-146.358
 11
-108.317
 21
-146.18
  0
LINE
  8
0
 10
-108.317
 20
-146.18
 11
-108.402
 21
-145.995
  0
LINE
  8
0
 10
-108.402
 20
-145.995
 11
-108.473
 21
-145.803
  0
LINE
  8
0
 10
-108.473
 20
-145.803
 11
-108.528
 21
-145.607
  0
LINE
  8
0
 10
-108.528
 20
-145.607
 11
-108.568
 21
-145.407
  0
LINE
  8
0
 10
-108.568
 20
-145.407
 11
-108.592
 21
-145.204
  0
LINE
  8
0
 10
-108.592
 20
-145.204
 11
-108.6
 21
-145
  0
LINE
  8
0
 10
-108.6
 20
-145
 11
-108.592
 21
-144.796
  0
LINE
  8
0
 10
-108.592
 20
-144.796
 11
-108.568
 21
-144.593
  0
LINE
  8
0
 10
-108.568
 20
-144.593
 11
-108.528
 21
-144.393
  0
LINE
  8
0
 10
-108.528
 20
-144.393
 11
-108.473
 21
-144.197
  0
LINE
  8
0
 10
-108.473
 20
-144.197
 11
-108.402
 21
-144.005
  0
LINE
  8
0
 10
-108.402
 20
-144.005
 11
-108.317
 21
-143.82
  0
LINE
  8
0
 10
-108.317
 20
-143.82
 11
-108.217
 21
-143.641
  0
LINE
  8
0
 10
-108.217
 20
-143.641
 11
-108.103
 21
-143.472
  0
LINE
  8
0
 10
-108.103
 20
-143.472
 11
-107.977
 21
-143.311
  0
LINE
  8
0
 10
-107.977
 20
-143.311
 11
-107.838
 21
-143.162
  0
LINE
  8
0
 10
-107.838
 20
-143.162
 11
-107.689
 21
-143.023
  0
LINE
  8
0
 10
-107.689
 20
-143.023
 11
-107.528
 21
-142.897
  0
LINE
  8
0
 10
-107.528
 20
-142.897
 11
-107.358
 21
-142.783
  0
LINE
  8
0
 10
-107.358
 20
-142.783
 11
-107.18
 21
-142.683
  0
LINE
  8
0
 10
-107.18
 20
-142.683
 11
-106.995
 21
-142.598
  0
LINE
  8
0
 10
-106.995
 20
-142.598
 11
-106.803
 21
-142.527
  0
LINE
  8
0
 10
-106.803
 20
-142.527
 11
-106.607
 21
-142.472
  0
LINE
  8
0
 10
-106.607
 20
-142.472
 11
-106.407
 21
-142.432
  0
LINE
  8
0
 10
-106.407
 20
-142.432
 11
-106.204
 21
-142.408
  0
LINE
  8
0
 10
-106.204
 20
-142.408
 11
-106
 21
-142.4
  0
LINE
  8
0
 10
-106
 20
-142.4
 11
-105.796
 21
-142.408
  0
LINE
  8
0
 10
-105.796
 20
-142.408
 11
-105.593
 21
-142.432
  0
LINE
  8
0
 10
-105.593
 20
-142.432
 11
-105.393
 21
-142.472
  0
LINE
  8
0
 10
-105.393
 20
-142.472
 11
-105.197
 21
-142.527
  0
LINE
  8
0
 10
-105.197
 20
-142.527
 11
-105.005
 21
-142.598
  0
LINE
  8
0
 10
-105.005
 20
-142.598
 11
-104.82
 21
-142.683
  0
LINE
  8
0
 10
-104.82
 20
-142.683
 11
-104.641
 21
-142.783
  0
LINE
  8
0
 10
-104.641
 20
-142.783
 11
-104.472
 21
-142.897
  0
LINE
  8
0
 10
-104.472
 20
-142.897
 11
-104.311
 21
-143.023
  0
LINE
  8
0
 10
-104.311
 20
-143.023
 11
-104.162
 21
-143.162
  0
LINE
  8
0
 10
-104.162
 20
-143.162
 11
-104.023
 21
-143.311
  0
LINE
  8
0
 10
-104.023
 20
-143.311
 11
-103.897
 21
-143.472
  0
LINE
  8
0
 10
-103.897
 20
-143.472
 11
-103.783
 21
-143.641
  0
LINE
  8
0
 10
-103.783
 20
-143.641
 11
-103.683
 21
-143.82
  0
LINE
  8
0
 10
-103.683
 20
-143.82
 11
-103.598
 21
-144.005
  0
LINE
  8
0
 10
-103.598
 20
-144.005
 11
-103.527
 21
-144.197
  0
LINE
  8
0
 10
-103.527
 20
-144.197
 11
-103.472
 21
-144.393
  0
LINE
  8
0
 10
-103.472
 20
-144.393
 11
-103.432
 21
-144.593
  0
LINE
  8
0
 10
-103.432
 20
-144.593
 11
-103.408
 21
-144.796
  0
LINE
  8
0
 10
-103.408
 20
-144.796
 11
-103.4
 21
-145
  0
LINE
  8
0
 10
-103.4
 20
-145
 11
-103.408
 21
-145.204
  0
LINE
  8
0
 10
-103.408
 20
-145.204
 11
-103.432
 21
-145.407
  0
LINE
  8
0
 10
-103.432
 20
-145.407
 11
-103.472
 21
-145.607
  0
LINE
  8
0
 10
-103.472
 20
-145.607
 11
-103.527
 21
-145.803
  0
LINE
  8
0
 10
-103.527
 20
-145.803
 11
-103.598
 21
-145.995
  0
LINE
  8
0
 10
-103.598
 20
-145.995
 11
-103.683
 21
-146.18
  0
LINE
  8
0
 10
-103.683
 20
-146.18
 11
-103.783
 21
-146.358
  0
LINE
  8
0
 10
-103.783
 20
-146.358
 11
-103.897
 21
-146.528
  0
LINE
  8
0
 10
-103.897
 20
-146.528
 11
-104.023
 21
-146.689
  0
LINE
  8
0
 10
-104.023
 20
-146.689
 11
-104.162
 21
-146.838
  0
LINE
  8
0
 10
-104.162
 20
-146.838
 11
-104.311
 21
-146.977
  0
LINE
  8
0
 10
-104.311
 20
-146.977
 11
-104.472
 21
-147.103
  0
LINE
  8
0
 10
-104.472
 20
-147.103
 11
-104.641
 21
-147.217
  0
LINE
  8
0
 10
-104.641
 20
-147.217
 11
-104.82
 21
-147.317
  0
LINE
  8
0
 10
-104.82
 20
-147.317
 11
-105.005
 21
-147.402
  0
LINE
  8
0
 10
-105.005
 20
-147.402
 11
-105.197
 21
-147.473
  0
LINE
  8
0
 10
-105.197
 20
-147.473
 11
-105.393
 21
-147.528
  0
LINE
  8
0
 10
-105.393
 20
-147.528
 11
-105.593
 21
-147.568
  0
LINE
  8
0
 10
-105.593
 20
-147.568
 11
-105.796
 21
-147.592
  0
LINE
  8
0
 10
-105.796
 20
-147.592
 11
-106
 21
-147.6
  0
LINE
  8
0
 10
-106
 20
-147.6
 11
-106.204
 21
-147.592
  0
LINE
  8
0
 10
-13
 20
-146.6
 11
-13.126
 21
-146.595
  0
LINE
  8
0
 10
-13.126
 20
-146.595
 11
-13.25
 21
-146.58
  0
LINE
  8
0
 10
-13.25
 20
-146.58
 11
-13.373
 21
-146.556
  0
LINE
  8
0
 10
-13.373
 20
-146.556
 11
-13.4941
 21
-146.522
  0
LINE
  8
0
 10
-13.4941
 20
-146.522
 11
-13.6123
 21
-146.478
  0
LINE
  8
0
 10
-13.6123
 20
-146.478
 11
-13.7266
 21
-146.426
  0
LINE
  8
0
 10
-13.7266
 20
-146.426
 11
-13.8359
 21
-146.364
  0
LINE
  8
0
 10
-13.8359
 20
-146.364
 11
-13.9404
 21
-146.294
  0
LINE
  8
0
 10
-13.9404
 20
-146.294
 11
-14.0391
 21
-146.217
  0
LINE
  8
0
 10
-14.0391
 20
-146.217
 11
-14.1318
 21
-146.131
  0
LINE
  8
0
 10
-14.1318
 20
-146.131
 11
-14.2168
 21
-146.039
  0
LINE
  8
0
 10
-14.2168
 20
-146.039
 11
-14.2939
 21
-145.94
  0
LINE
  8
0
 10
-14.2939
 20
-145.94
 11
-14.3643
 21
-145.836
  0
LINE
  8
0
 10
-14.3643
 20
-145.836
 11
-14.4258
 21
-145.726
  0
LINE
  8
0
 10
-14.4258
 20
-145.726
 11
-14.4785
 21
-145.612
  0
LINE
  8
0
 10
-14.4785
 20
-145.612
 11
-14.5215
 21
-145.494
  0
LINE
  8
0
 10
-14.5215
 20
-145.494
 11
-14.5557
 21
-145.374
  0
LINE
  8
0
 10
-14.5557
 20
-145.374
 11
-14.5801
 21
-145.25
  0
LINE
  8
0
 10
-14.5801
 20
-145.25
 11
-14.5947
 21
-145.126
  0
LINE
  8
0
 10
-14.5947
 20
-145.126
 11
-14.5996
 21
-145
  0
LINE
  8
0
 10
-14.5996
 20
-145
 11
-14.5947
 21
-144.874
  0
LINE
  8
0
 10
-14.5947
 20
-144.874
 11
-14.5801
 21
-144.75
  0
LINE
  8
0
 10
-14.5801
 20
-144.75
 11
-14.5557
 21
-144.626
  0
LINE
  8
0
 10
-14.5557
 20
-144.626
 11
-14.5215
 21
-144.506
  0
LINE
  8
0
 10
-14.5215
 20
-144.506
 11
-14.4785
 21
-144.388
  0
LINE
  8
0
 10
-14.4785
 20
-144.388
 11
-14.4258
 21
-144.274
  0
LINE
  8
0
 10
-14.4258
 20
-144.274
 11
-14.3643
 21
-144.164
  0
LINE
  8
0
 10
-14.3643
 20
-144.164
 11
-14.2939
 21
-144.06
  0
LINE
  8
0
 10
-14.2939
 20
-144.06
 11
-14.2168
 21
-143.961
  0
LINE
  8
0
 10
-14.2168
 20
-143.961
 11
-14.1318
 21
-143.869
  0
LINE
  8
0
 10
-14.1318
 20
-143.869
 11
-14.0391
 21
-143.783
  0
LINE
  8
0
 10
-14.0391
 20
-143.783
 11
-13.9404
 21
-143.706
  0
LINE
  8
0
 10
-13.9404
 20
-143.706
 11
-13.8359
 21
-143.636
  0
LINE
  8
0
 10
-13.8359
 20
-143.636
 11
-13.7266
 21
-143.574
  0
LINE
  8
0
 10
-13.7266
 20
-143.574
 11
-13.6123
 21
-143.522
  0
LINE
  8
0
 10
-13.6123
 20
-143.522
 11
-13.4941
 21
-143.478
  0
LINE
  8
0
 10
-13.4941
 20
-143.478
 11
-13.373
 21
-143.444
  0
LINE
  8
0
 10
-13.373
 20
-143.444
 11
-13.25
 21
-143.42
  0
LINE
  8
0
 10
-13.25
 20
-143.42
 11
-13.126
 21
-143.405
  0
LINE
  8
0
 10
-13.126
 20
-143.405
 11
-13
 21
-143.4
  0
LINE
  8
0
 10
-13
 20
-143.4
 11
-5
 21
-143.4
  0
LINE
  8
0
 10
-5
 20
-143.4
 11
-4.87402
 21
-143.405
  0
LINE
  8
0
 10
-4.87402
 20
-143.405
 11
-4.75
 21
-143.42
  0
LINE
  8
0
 10
-4.75
 20
-143.42
 11
-4.62695
 21
-143.444
  0
LINE
  8
0
 10
-4.62695
 20
-143.444
 11
-4.50586
 21
-143.478
  0
LINE
  8
0
 10
-4.50586
 20
-143.478
 11
-4.3877
 21
-143.522
  0
LINE
  8
0
 10
-4.3877
 20
-143.522
 11
-4.27344
 21
-143.574
  0
LINE
  8
0
 10
-4.27344
 20
-143.574
 11
-4.16406
 21
-143.636
  0
LINE
  8
0
 10
-4.16406
 20
-143.636
 11
-4.05957
 21
-143.706
  0
LINE
  8
0
 10
-4.05957
 20
-143.706
 11
-3.96094
 21
-143.783
  0
LINE
  8
0
 10
-3.96094
 20
-143.783
 11
-3.86816
 21
-143.869
  0
LINE
  8
0
 10
-3.86816
 20
-143.869
 11
-3.7832
 21
-143.961
  0
LINE
  8
0
 10
-3.7832
 20
-143.961
 11
-3.70605
 21
-144.06
  0
LINE
  8
0
 10
-3.70605
 20
-144.06
 11
-3.63574
 21
-144.164
  0
LINE
  8
0
 10
-3.63574
 20
-144.164
 11
-3.57422
 21
-144.274
  0
LINE
  8
0
 10
-3.57422
 20
-144.274
 11
-3.52148
 21
-144.388
  0
LINE
  8
0
 10
-3.52148
 20
-144.388
 11
-3.47852
 21
-144.506
  0
LINE
  8
0
 10
-3.47852
 20
-144.506
 11
-3.44434
 21
-144.626
  0
LINE
  8
0
 10
-3.44434
 20
-144.626
 11
-3.41992
 21
-144.75
  0
LINE
  8
0
 10
-3.41992
 20
-144.75
 11
-3.40527
 21
-144.874
  0
LINE
  8
0
 10
-3.40527
 20
-144.874
 11
-3.40039
 21
-145
  0
LINE
  8
0
 10
-3.40039
 20
-145
 11
-3.40527
 21
-145.126
  0
LINE
  8
0
 10
-3.40527
 20
-145.126
 11
-3.41992
 21
-145.25
  0
LINE
  8
0
 10
-3.41992
 20
-145.25
 11
-3.44434
 21
-145.374
  0
LINE
  8
0
 10
-3.44434
 20
-145.374
 11
-3.47852
 21
-145.494
  0
LINE
  8
0
 10
-3.47852
 20
-145.494
 11
-3.52148
 21
-145.612
  0
LINE
  8
0
 10
-3.52148
 20
-145.612
 11
-3.57422
 21
-145.726
  0
LINE
  8
0
 10
-3.57422
 20
-145.726
 11
-3.63574
 21
-145.836
  0
LINE
  8
0
 10
-3.63574
 20
-145.836
 11
-3.70605
 21
-145.94
  0
LINE
  8
0
 10
-3.70605
 20
-145.94
 11
-3.7832
 21
-146.039
  0
LINE
  8
0
 10
-3.7832
 20
-146.039
 11
-3.86816
 21
-146.131
  0
LINE
  8
0
 10
-3.86816
 20
-146.131
 11
-3.96094
 21
-146.217
  0
LINE
  8
0
 10
-3.96094
 20
-146.217
 11
-4.05957
 21
-146.294
  0
LINE
  8
0
 10
-4.05957
 20
-146.294
 11
-4.16406
 21
-146.364
  0
LINE
  8
0
 10
-4.16406
 20
-146.364
 11
-4.27344
 21
-146.426
  0
LINE
  8
0
 10
-4.27344
 20
-146.426
 11
-4.3877
 21
-146.478
  0
LINE
  8
0
 10
-4.3877
 20
-146.478
 11
-4.50586
 21
-146.522
  0
LINE
  8
0
 10
-4.50586
 20
-146.522
 11
-4.62695
 21
-146.556
  0
LINE
  8
0
 10
-4.62695
 20
-146.556
 11
-4.75
 21
-146.58
  0
LINE
  8
0
 10
-4.75
 20
-146.58
 11
-4.87402
 21
-146.595
  0
LINE
  8
0
 10
-4.87402
 20
-146.595
 11
-5
 21
-146.6
  0
LINE
  8
0
 10
-5
 20
-146.6
 11
-13
 21
-146.6
  0
LINE
  8
0
 10
-48
 20
-146.6
 11
-48.126
 21
-146.595
  0
LINE
  8
0
 10
-48.126
 20
-146.595
 11
-48.25
 21
-146.58
  0
LINE
  8
0
 10
-48.25
 20
-146.58
 11
-48.373
 21
-146.556
  0
LINE
  8
0
 10
-48.373
 20
-146.556
 11
-48.4941
 21
-146.522
  0
LINE
  8
0
 10
-48.4941
 20
-146.522
 11
-48.6123
 21
-146.478
  0
LINE
  8
0
 10
-48.6123
 20
-146.478
 11
-48.7266
 21
-146.426
  0
LINE
  8
0
 10
-48.7266
 20
-146.426
 11
-48.8359
 21
-146.364
  0
LINE
  8
0
 10
-48.8359
 20
-146.364
 11
-48.9404
 21
-146.294
  0
LINE
  8
0
 10
-48.9404
 20
-146.294
 11
-49.0391
 21
-146.217
  0
LINE
  8
0
 10
-49.0391
 20
-146.217
 11
-49.1318
 21
-146.131
  0
LINE
  8
0
 10
-49.1318
 20
-146.131
 11
-49.2168
 21
-146.039
  0
LINE
  8
0
 10
-49.2168
 20
-146.039
 11
-49.2939
 21
-145.94
  0
LINE
  8
0
 10
-49.2939
 20
-145.94
 11
-49.3643
 21
-145.836
  0
LINE
  8
0
 10
-49.3643
 20
-145.836
 11
-49.4258
 21
-145.726
  0
LINE
  8
0
 10
-49.4258
 20
-145.726
 11
-49.4785
 21
-145.612
  0
LINE
  8
0
 10
-49.4785
 20
-145.612
 11
-49.5215
 21
-145.494
  0
LINE
  8
0
 10
-49.5215
 20
-145.494
 11
-49.5557
 21
-145.374
  0
LINE
  8
0
 10
-49.5557
 20
-145.374
 11
-49.5801
 21
-145.25
  0
LINE
  8
0
 10
-49.5801
 20
-145.25
 11
-49.5947
 21
-145.126
  0
LINE
  8
0
 10
-49.5947
 20
-145.126
 11
-49.5996
 21
-145
  0
LINE
  8
0
 10
-49.5996
 20
-145
 11
-49.5947
 21
-144.874
  0
LINE
  8
0
 10
-49.5947
 20
-144.874
 11
-49.5801
 21
-144.75
  0
LINE
  8
0
 10
-49.5801
 20
-144.75
 11
-49.5557
 21
-144.626
  0
LINE
  8
0
 10
-49.5557
 20
-144.626
 11
-49.5215
 21
-144.506
  0
LINE
  8
0
 10
-49.5215
 20
-144.506
 11
-49.4785
 21
-144.388
  0
LINE
  8
0
 10
-49.4785
 20
-144.388
 11
-49.4258
 21
-144.274
  0
LINE
  8
0
 10
-49.4258
 20
-144.274
 11
-49.3643
 21
-144.164
  0
LINE
  8
0
 10
-49.3643
 20
-144.164
 11
-49.2939
 21
-144.06
  0
LINE
  8
0
 10
-49.2939
 20
-144.06
 11
-49.2168
 21
-143.961
  0
LINE
  8
0
 10
-49.2168
 20
-143.961
 11
-49.1318
 21
-143.869
  0
LINE
  8
0
 10
-49.1318
 20
-143.869
 11
-49.0391
 21
-143.783
  0
LINE
  8
0
 10
-49.0391
 20
-143.783
 11
-48.9404
 21
-143.706
  0
LINE
  8
0
 10
-48.9404
 20
-143.706
 11
-48.8359
 21
-143.636
  0
LINE
  8
0
 10
-48.8359
 20
-143.636
 11
-48.7266
 21
-143.574
  0
LINE
  8
0
 10
-48.7266
 20
-143.574
 11
-48.6123
 21
-143.522
  0
LINE
  8
0
 10
-48.6123
 20
-143.522
 11
-48.4941
 21
-143.478
  0
LINE
  8
0
 10
-48.4941
 20
-143.478
 11
-48.373
 21
-143.444
  0
LINE
  8
0
 10
-48.373
 20
-143.444
 11
-48.25
 21
-143.42
  0
LINE
  8
0
 10
-48.25
 20
-143.42
 11
-48.126
 21
-143.405
  0
LINE
  8
0
 10
-48.126
 20
-143.405
 11
-48
 21
-143.4
  0
LINE
  8
0
 10
-48
 20
-143.4
 11
-40
 21
-143.4
  0
LINE
  8
0
 10
-40
 20
-143.4
 11
-39.874
 21
-143.405
  0
LINE
  8
0
 10
-39.874
 20
-143.405
 11
-39.75
 21
-143.42
  0
LINE
  8
0
 10
-39.75
 20
-143.42
 11
-39.627
 21
-143.444
  0
LINE
  8
0
 10
-39.627
 20
-143.444
 11
-39.5059
 21
-143.478
  0
LINE
  8
0
 10
-39.5059
 20
-143.478
 11
-39.3877
 21
-143.522
  0
LINE
  8
0
 10
-39.3877
 20
-143.522
 11
-39.2734
 21
-143.574
  0
LINE
  8
0
 10
-39.2734
 20
-143.574
 11
-39.1641
 21
-143.636
  0
LINE
  8
0
 10
-39.1641
 20
-143.636
 11
-39.0596
 21
-143.706
  0
LINE
  8
0
 10
-39.0596
 20
-143.706
 11
-38.9609
 21
-143.783
  0
LINE
  8
0
 10
-38.9609
 20
-143.783
 11
-38.8682
 21
-143.869
  0
LINE
  8
0
 10
-38.8682
 20
-143.869
 11
-38.7832
 21
-143.961
  0
LINE
  8
0
 10
-38.7832
 20
-143.961
 11
-38.7061
 21
-144.06
  0
LINE
  8
0
 10
-38.7061
 20
-144.06
 11
-38.6357
 21
-144.164
  0
LINE
  8
0
 10
-38.6357
 20
-144.164
 11
-38.5742
 21
-144.274
  0
LINE
  8
0
 10
-38.5742
 20
-144.274
 11
-38.5215
 21
-144.388
  0
LINE
  8
0
 10
-38.5215
 20
-144.388
 11
-38.4785
 21
-144.506
  0
LINE
  8
0
 10
-38.4785
 20
-144.506
 11
-38.4443
 21
-144.626
  0
LINE
  8
0
 10
-38.4443
 20
-144.626
 11
-38.4199
 21
-144.75
  0
LINE
  8
0
 10
-38.4199
 20
-144.75
 11
-38.4053
 21
-144.874
  0
LINE
  8
0
 10
-38.4053
 20
-144.874
 11
-38.4004
 21
-145
  0
LINE
  8
0
 10
-38.4004
 20
-145
 11
-38.4053
 21
-145.126
  0
LINE
  8
0
 10
-38.4053
 20
-145.126
 11
-38.4199
 21
-145.25
  0
LINE
  8
0
 10
-38.4199
 20
-145.25
 11
-38.4443
 21
-145.374
  0
LINE
  8
0
 10
-38.4443
 20
-145.374
 11
-38.4785
 21
-145.494
  0
LINE
  8
0
 10
-38.4785
 20
-145.494
 11
-38.5215
 21
-145.612
  0
LINE
  8
0
 10
-38.5215
 20
-145.612
 11
-38.5742
 21
-145.726
  0
LINE
  8
0
 10
-38.5742
 20
-145.726
 11
-38.6357
 21
-145.836
  0
LINE
  8
0
 10
-38.6357
 20
-145.836
 11
-38.7061
 21
-145.94
  0
LINE
  8
0
 10
-38.7061
 20
-145.94
 11
-38.7832
 21
-146.039
  0
LINE
  8
0
 10
-38.7832
 20
-146.039
 11
-38.8682
 21
-146.131
  0
LINE
  8
0
 10
-38.8682
 20
-146.131
 11
-38.9609
 21
-146.217
  0
LINE
  8
0
 10
-38.9609
 20
-146.217
 11
-39.0596
 21
-146.294
  0
LINE
  8
0
 10
-39.0596
 20
-146.294
 11
-39.1641
 21
-146.364
  0
LINE
  8
0
 10
-39.1641
 20
-146.364
 11
-39.2734
 21
-146.426
  0
LINE
  8
0
 10
-39.2734
 20
-146.426
 11
-39.3877
 21
-146.478
  0
LINE
  8
0
 10
-39.3877
 20
-146.478
 11
-39.5059
 21
-146.522
  0
LINE
  8
0
 10
-39.5059
 20
-146.522
 11
-39.627
 21
-146.556
  0
LINE
  8
0
 10
-39.627
 20
-146.556
 11
-39.75
 21
-146.58
  0
LINE
  8
0
 10
-39.75
 20
-146.58
 11
-39.874
 21
-146.595
  0
LINE
  8
0
 10
-39.874
 20
-146.595
 11
-40
 21
-146.6
  0
LINE
  8
0
 10
-40
 20
-146.6
 11
-48
 21
-146.6
  0
LINE
  8
0
 10
-83
 20
-146.6
 11
-83.126
 21
-146.595
  0
LINE
  8
0
 10
-83.126
 20
-146.595
 11
-83.25
 21
-146.58
  0
LINE
  8
0
 10
-83.25
 20
-146.58
 11
-83.373
 21
-146.556
  0
LINE
  8
0
 10
-83.373
 20
-146.556
 11
-83.4941
 21
-146.522
  0
LINE
  8
0
 10
-83.4941
 20
-146.522
 11
-83.6123
 21
-146.478
  0
LINE
  8
0
 10
-83.6123
 20
-146.478
 11
-83.7266
 21
-146.426
  0
LINE
  8
0
 10
-83.7266
 20
-146.426
 11
-83.8359
 21
-146.364
  0
LINE
  8
0
 10
-83.8359
 20
-146.364
 11
-83.9404
 21
-146.294
  0
LINE
  8
0
 10
-83.9404
 20
-146.294
 11
-84.0391
 21
-146.217
  0
LINE
  8
0
 10
-84.0391
 20
-146.217
 11
-84.1318
 21
-146.131
  0
LINE
  8
0
 10
-84.1318
 20
-146.131
 11
-84.2168
 21
-146.039
  0
LINE
  8
0
 10
-84.2168
 20
-146.039
 11
-84.2939
 21
-145.94
  0
LINE
  8
0
 10
-84.2939
 20
-145.94
 11
-84.3643
 21
-145.836
  0
LINE
  8
0
 10
-84.3643
 20
-145.836
 11
-84.4258
 21
-145.726
  0
LINE
  8
0
 10
-84.4258
 20
-145.726
 11
-84.4785
 21
-145.612
  0
LINE
  8
0
 10
-84.4785
 20
-145.612
 11
-84.5215
 21
-145.494
  0
LINE
  8
0
 10
-84.5215
 20
-145.494
 11
-84.5557
 21
-145.374
  0
LINE
  8
0
 10
-84.5557
 20
-145.374
 11
-84.5801
 21
-145.25
  0
LINE
  8
0
 10
-84.5801
 20
-145.25
 11
-84.5947
 21
-145.126
  0
LINE
  8
0
 10
-84.5947
 20
-145.126
 11
-84.5996
 21
-145
  0
LINE
  8
0
 10
-84.5996
 20
-145
 11
-84.5947
 21
-144.874
  0
LINE
  8
0
 10
-84.5947
 20
-144.874
 11
-84.5801
 21
-144.75
  0
LINE
  8
0
 10
-84.5801
 20
-144.75
 11
-84.5557
 21
-144.626
  0
LINE
  8
0
 10
-84.5557
 20
-144.626
 11
-84.5215
 21
-144.506
  0
LINE
  8
0
 10
-84.5215
 20
-144.506
 11
-84.4785
 21
-144.388
  0
LINE
  8
0
 10
-84.4785
 20
-144.388
 11
-84.4258
 21
-144.274
  0
LINE
  8
0
 10
-84.4258
 20
-144.274
 11
-84.3643
 21
-144.164
  0
LINE
  8
0
 10
-84.3643
 20
-144.164
 11
-84.2939
 21
-144.06
  0
LINE
  8
0
 10
-84.2939
 20
-144.06
 11
-84.2168
 21
-143.961
  0
LINE
  8
0
 10
-84.2168
 20
-143.961
 11
-84.1318
 21
-143.869
  0
LINE
  8
0
 10
-84.1318
 20
-143.869
 11
-84.0391
 21
-143.783
  0
LINE
  8
0
 10
-84.0391
 20
-143.783
 11
-83.9404
 21
-143.706
  0
LINE
  8
0
 10
-83.9404
 20
-143.706
 11
-83.8359
 21
-143.636
  0
LINE
  8
0
 10
-83.8359
 20
-143.636
 11
-83.7266
 21
-143.574
  0
LINE
  8
0
 10
-83.7266
 20
-143.574
 11
-83.6123
 21
-143.522
  0
LINE
  8
0
 10
-83.6123
 20
-143.522
 11
-83.4941
 21
-143.478
  0
LINE
  8
0
 10
-83.4941
 20
-143.478
 11
-83.373
 21
-143.444
  0
LINE
  8
0
 10
-83.373
 20
-143.444
 11
-83.25
 21
-143.42
  0
LINE
  8
0
 10
-83.25
 20
-143.42
 11
-83.126
 21
-143.405
  0
LINE
  8
0
 10
-83.126
 20
-143.405
 11
-83
 21
-143.4
  0
LINE
  8
0
 10
-83
 20
-143.4
 11
-75
 21
-143.4
  0
LINE
  8
0
 10
-75
 20
-143.4
 11
-74.874
 21
-143.405
  0
LINE
  8
0
 10
-74.874
 20
-143.405
 11
-74.75
 21
-143.42
  0
LINE
  8
0
 10
-74.75
 20
-143.42
 11
-74.627
 21
-143.444
  0
LINE
  8
0
 10
-74.627
 20
-143.444
 11
-74.5059
 21
-143.478
  0
LINE
  8
0
 10
-74.5059
 20
-143.478
 11
-74.3877
 21
-143.522
  0
LINE
  8
0
 10
-74.3877
 20
-143.522
 11
-74.2734
 21
-143.574
  0
LINE
  8
0
 10
-74.2734
 20
-143.574
 11
-74.1641
 21
-143.636
  0
LINE
  8
0
 10
-74.1641
 20
-143.636
 11
-74.0596
 21
-143.706
  0
LINE
  8
0
 10
-74.0596
 20
-143.706
 11
-73.9609
 21
-143.783
  0
LINE
  8
0
 10
-73.9609
 20
-143.783
 11
-73.8682
 21
-143.869
  0
LINE
  8
0
 10
-73.8682
 20
-143.869
 11
-73.7832
 21
-143.961
  0
LINE
  8
0
 10
-73.7832
 20
-143.961
 11
-73.7061
 21
-144.06
  0
LINE
  8
0
 10
-73.7061
 20
-144.06
 11
-73.6357
 21
-144.164
  0
LINE
  8
0
 10
-73.6357
 20
-144.164
 11
-73.5742
 21
-144.274
  0
LINE
  8
0
 10
-73.5742
 20
-144.274
 11
-73.5215
 21
-144.388
  0
LINE
  8
0
 10
-73.5215
 20
-144.388
 11
-73.4785
 21
-144.506
  0
LINE
  8
0
 10
-73.4785
 20
-144.506
 11
-73.4443
 21
-144.626
  0
LINE
  8
0
 10
-73.4443
 20
-144.626
 11
-73.4199
 21
-144.75
  0
LINE
  8
0
 10
-73.4199
 20
-144.75
 11
-73.4053
 21
-144.874
  0
LINE
  8
0
 10
-73.4053
 20
-144.874
 11
-73.4004
 21
-145
  0
LINE
  8
0
 10
-73.4004
 20
-145
 11
-73.4053
 21
-145.126
  0
LINE
  8
0
 10
-73.4053
 20
-145.126
 11
-73.4199
 21
-145.25
  0
LINE
  8
0
 10
-73.4199
 20
-145.25
 11
-73.4443
 21
-145.374
  0
LINE
  8
0
 10
-73.4443
 20
-145.374
 11
-73.4785
 21
-145.494
  0
LINE
  8
0
 10
-73.4785
 20
-145.494
 11
-73.5215
 21
-145.612
  0
LINE
  8
0
 10
-73.5215
 20
-145.612
 11
-73.5742
 21
-145.726
  0
LINE
  8
0
 10
-73.5742
 20
-145.726
 11
-73.6357
 21
-145.836
  0
LINE
  8
0
 10
-73.6357
 20
-145.836
 11
-73.7061
 21
-145.94
  0
LINE
  8
0
 10
-73.7061
 20
-145.94
 11
-73.7832
 21
-146.039
  0
LINE
  8
0
 10
-73.7832
 20
-146.039
 11
-73.8682
 21
-146.131
  0
LINE
  8
0
 10
-73.8682
 20
-146.131
 11
-73.9609
 21
-146.217
  0
LINE
  8
0
 10
-73.9609
 20
-146.217
 11
-74.0596
 21
-146.294
  0
LINE
  8
0
 10
-74.0596
 20
-146.294
 11
-74.1641
 21
-146.364
  0
LINE
  8
0
 10
-74.1641
 20
-146.364
 11
-74.2734
 21
-146.426
  0
LINE
  8
0
 10
-74.2734
 20
-146.426
 11
-74.3877
 21
-146.478
  0
LINE
  8
0
 10
-74.3877
 20
-146.478
 11
-74.5059
 21
-146.522
  0
LINE
  8
0
 10
-74.5059
 20
-146.522
 11
-74.627
 21
-146.556
  0
LINE
  8
0
 10
-74.627
 20
-146.556
 11
-74.75
 21
-146.58
  0
LINE
  8
0
 10
-74.75
 20
-146.58
 11
-74.874
 21
-146.595
  0
LINE
  8
0
 10
-74.874
 20
-146.595
 11
-75
 21
-146.6
  0
LINE
  8
0
 10
-75
 20
-146.6
 11
-83
 21
-146.6
  0
LINE
  8
0
 10
-143
 20
-146.6
 11
-143.126
 21
-146.595
  0
LINE
  8
0
 10
-143.126
 20
-146.595
 11
-143.25
 21
-146.58
  0
LINE
  8
0
 10
-143.25
 20
-146.58
 11
-143.374
 21
-146.556
  0
LINE
  8
0
 10
-143.374
 20
-146.556
 11
-143.494
 21
-146.522
  0
LINE
  8
0
 10
-143.494
 20
-146.522
 11
-143.612
 21
-146.478
  0
LINE
  8
0
 10
-143.612
 20
-146.478
 11
-143.726
 21
-146.426
  0
LINE
  8
0
 10
-143.726
 20
-146.426
 11
-143.836
 21
-146.364
  0
LINE
  8
0
 10
-143.836
 20
-146.364
 11
-143.94
 21
-146.294
  0
LINE
  8
0
 10
-143.94
 20
-146.294
 11
-144.039
 21
-146.217
  0
LINE
  8
0
 10
-144.039
 20
-146.217
 11
-144.131
 21
-146.131
  0
LINE
  8
0
 10
-144.131
 20
-146.131
 11
-144.217
 21
-146.039
  0
LINE
  8
0
 10
-144.217
 20
-146.039
 11
-144.294
 21
-145.94
  0
LINE
  8
0
 10
-144.294
 20
-145.94
 11
-144.364
 21
-145.836
  0
LINE
  8
0
 10
-144.364
 20
-145.836
 11
-144.426
 21
-145.726
  0
LINE
  8
0
 10
-144.426
 20
-145.726
 11
-144.478
 21
-145.612
  0
LINE
  8
0
 10
-144.478
 20
-145.612
 11
-144.522
 21
-145.494
  0
LINE
  8
0
 10
-144.522
 20
-145.494
 11
-144.556
 21
-145.374
  0
LINE
  8
0
 10
-144.556
 20
-145.374
 11
-144.58
 21
-145.25
  0
LINE
  8
0
 10
-144.58
 20
-145.25
 11
-144.595
 21
-145.126
  0
LINE
  8
0
 10
-144.595
 20
-145.126
 11
-144.6
 21
-145
  0
LINE
  8
0
 10
-144.6
 20
-145
 11
-144.595
 21
-144.874
  0
LINE
  8
0
 10
-144.595
 20
-144.874
 11
-144.58
 21
-144.75
  0
LINE
  8
0
 10
-144.58
 20
-144.75
 11
-144.556
 21
-144.626
  0
LINE
  8
0
 10
-144.556
 20
-144.626
 11
-144.522
 21
-144.506
  0
LINE
  8
0
 10
-144.522
 20
-144.506
 11
-144.478
 21
-144.388
  0
LINE
  8
0
 10
-144.478
 20
-144.388
 11
-144.426
 21
-144.274
  0
LINE
  8
0
 10
-144.426
 20
-144.274
 11
-144.364
 21
-144.164
  0
LINE
  8
0
 10
-144.364
 20
-144.164
 11
-144.294
 21
-144.06
  0
LINE
  8
0
 10
-144.294
 20
-144.06
 11
-144.217
 21
-143.961
  0
LINE
  8
0
 10
-144.217
 20
-143.961
 11
-144.131
 21
-143.869
  0
LINE
  8
0
 10
-144.131
 20
-143.869
 11
-144.039
 21
-143.783
  0
LINE
  8
0
 10
-144.039
 20
-143.783
 11
-143.94
 21
-143.706
  0
LINE
  8
0
 10
-143.94
 20
-143.706
 11
-143.836
 21
-143.636
  0
LINE
  8
0
 10
-143.836
 20
-143.636
 11
-143.726
 21
-143.574
  0
LINE
  8
0
 10
-143.726
 20
-143.574
 11
-143.612
 21
-143.522
  0
LINE
  8
0
 10
-143.612
 20
-143.522
 11
-143.494
 21
-143.478
  0
LINE
  8
0
 10
-143.494
 20
-143.478
 11
-143.374
 21
-143.444
  0
LINE
  8
0
 10
-143.374
 20
-143.444
 11
-143.25
 21
-143.42
  0
LINE
  8
0
 10
-143.25
 20
-143.42
 11
-143.126
 21
-143.405
  0
LINE
  8
0
 10
-143.126
 20
-143.405
 11
-143
 21
-143.4
  0
LINE
  8
0
 10
-143
 20
-143.4
 11
-135
 21
-143.4
  0
LINE
  8
0
 10
-135
 20
-143.4
 11
-134.874
 21
-143.405
  0
LINE
  8
0
 10
-134.874
 20
-143.405
 11
-134.75
 21
-143.42
  0
LINE
  8
0
 10
-134.75
 20
-143.42
 11
-134.626
 21
-143.444
  0
LINE
  8
0
 10
-134.626
 20
-143.444
 11
-134.506
 21
-143.478
  0
LINE
  8
0
 10
-134.506
 20
-143.478
 11
-134.388
 21
-143.522
  0
LINE
  8
0
 10
-134.388
 20
-143.522
 11
-134.274
 21
-143.574
  0
LINE
  8
0
 10
-134.274
 20
-143.574
 11
-134.164
 21
-143.636
  0
LINE
  8
0
 10
-134.164
 20
-143.636
 11
-134.06
 21
-143.706
  0
LINE
  8
0
 10
-134.06
 20
-143.706
 11
-133.961
 21
-143.783
  0
LINE
  8
0
 10
-133.961
 20
-143.783
 11
-133.869
 21
-143.869
  0
LINE
  8
0
 10
-133.869
 20
-143.869
 11
-133.783
 21
-143.961
  0
LINE
  8
0
 10
-133.783
 20
-143.961
 11
-133.706
 21
-144.06
  0
LINE
  8
0
 10
-133.706
 20
-144.06
 11
-133.636
 21
-144.164
  0
LINE
  8
0
 10
-133.636
 20
-144.164
 11
-133.574
 21
-144.274
  0
LINE
  8
0
 10
-133.574
 20
-144.274
 11
-133.522
 21
-144.388
  0
LINE
  8
0
 10
-133.522
 20
-144.388
 11
-133.478
 21
-144.506
  0
LINE
  8
0
 10
-133.478
 20
-144.506
 11
-133.444
 21
-144.626
  0
LINE
  8
0
 10
-133.444
 20
-144.626
 11
-133.42
 21
-144.75
  0
LINE
  8
0
 10
-133.42
 20
-144.75
 11
-133.405
 21
-144.874
  0
LINE
  8
0
 10
-133.405
 20
-144.874
 11
-133.4
 21
-145
  0
LINE
  8
0
 10
-133.4
 20
-145
 11
-133.405
 21
-145.126
  0
LINE
  8
0
 10
-133.405
 20
-145.126
 11
-133.42
 21
-145.25
  0
LINE
  8
0
 10
-133.42
 20
-145.25
 11
-133.444
 21
-145.374
  0
LINE
  8
0
 10
-133.444
 20
-145.374
 11
-133.478
 21
-145.494
  0
LINE
  8
0
 10
-133.478
 20
-145.494
 11
-133.522
 21
-145.612
  0
LINE
  8
0
 10
-133.522
 20
-145.612
 11
-133.574
 21
-145.726
  0
LINE
  8
0
 10
-133.574
 20
-145.726
 11
-133.636
 21
-145.836
  0
LINE
  8
0
 10
-133.636
 20
-145.836
 11
-133.706
 21
-145.94
  0
LINE
  8
0
 10
-133.706
 20
-145.94
 11
-133.783
 21
-146.039
  0
LINE
  8
0
 10
-133.783
 20
-146.039
 11
-133.869
 21
-146.131
  0
LINE
  8
0
 10
-133.869
 20
-146.131
 11
-133.961
 21
-146.217
  0
LINE
  8
0
 10
-133.961
 20
-146.217
 11
-134.06
 21
-146.294
  0
LINE
  8
0
 10
-134.06
 20
-146.294
 11
-134.164
 21
-146.364
  0
LINE
  8
0
 10
-134.164
 20
-146.364
 11
-134.274
 21
-146.426
  0
LINE
  8
0
 10
-134.274
 20
-146.426
 11
-134.388
 21
-146.478
  0
LINE
  8
0
 10
-134.388
 20
-146.478
 11
-134.506
 21
-146.522
  0
LINE
  8
0
 10
-134.506
 20
-146.522
 11
-134.626
 21
-146.556
  0
LINE
  8
0
 10
-134.626
 20
-146.556
 11
-134.75
 21
-146.58
  0
LINE
  8
0
 10
-134.75
 20
-146.58
 11
-134.874
 21
-146.595
  0
LINE
  8
0
 10
-134.874
 20
-146.595
 11
-135
 21
-146.6
  0
LINE
  8
0
 10
-135
 20
-146.6
 11
-143
 21
-146.6
  0
LINE
  8
0
 10
-213
 20
-146.6
 11
-213.126
 21
-146.595
  0
LINE
  8
0
 10
-213.126
 20
-146.595
 11
-213.25
 21
-146.58
  0
LINE
  8
0
 10
-213.25
 20
-146.58
 11
-213.374
 21
-146.556
  0
LINE
  8
0
 10
-213.374
 20
-146.556
 11
-213.494
 21
-146.522
  0
LINE
  8
0
 10
-213.494
 20
-146.522
 11
-213.612
 21
-146.478
  0
LINE
  8
0
 10
-213.612
 20
-146.478
 11
-213.726
 21
-146.426
  0
LINE
  8
0
 10
-213.726
 20
-146.426
 11
-213.836
 21
-146.364
  0
LINE
  8
0
 10
-213.836
 20
-146.364
 11
-213.94
 21
-146.294
  0
LINE
  8
0
 10
-213.94
 20
-146.294
 11
-214.039
 21
-146.217
  0
LINE
  8
0
 10
-214.039
 20
-146.217
 11
-214.131
 21
-146.131
  0
LINE
  8
0
 10
-214.131
 20
-146.131
 11
-214.217
 21
-146.039
  0
LINE
  8
0
 10
-214.217
 20
-146.039
 11
-214.294
 21
-145.94
  0
LINE
  8
0
 10
-214.294
 20
-145.94
 11
-214.364
 21
-145.836
  0
LINE
  8
0
 10
-214.364
 20
-145.836
 11
-214.426
 21
-145.726
  0
LINE
  8
0
 10
-214.426
 20
-145.726
 11
-214.478
 21
-145.612
  0
LINE
  8
0
 10
-214.478
 20
-145.612
 11
-214.522
 21
-145.494
  0
LINE
  8
0
 10
-214.522
 20
-145.494
 11
-214.556
 21
-145.374
  0
LINE
  8
0
 10
-214.556
 20
-145.374
 11
-214.58
 21
-145.25
  0
LINE
  8
0
 10
-214.58
 20
-145.25
 11
-214.595
 21
-145.126
  0
LINE
  8
0
 10
-214.595
 20
-145.126
 11
-214.6
 21
-145
  0
LINE
  8
0
 10
-214.6
 20
-145
 11
-214.595
 21
-144.874
  0
LINE
  8
0
 10
-214.595
 20
-144.874
 11
-214.58
 21
-144.75
  0
LINE
  8
0
 10
-214.58
 20
-144.75
 11
-214.556
 21
-144.626
  0
LINE
  8
0
 10
-214.556
 20
-144.626
 11
-214.522
 21
-144.506
  0
LINE
  8
0
 10
-214.522
 20
-144.506
 11
-214.478
 21
-144.388
  0
LINE
  8
0
 10
-214.478
 20
-144.388
 11
-214.426
 21
-144.274
  0
LINE
  8
0
 10
-214.426
 20
-144.274
 11
-214.364
 21
-144.164
  0
LINE
  8
0
 10
-214.364
 20
-144.164
 11
-214.294
 21
-144.06
  0
LINE
  8
0
 10
-214.294
 20
-144.06
 11
-214.217
 21
-143.961
  0
LINE
  8
0
 10
-214.217
 20
-143.961
 11
-214.131
 21
-143.869
  0
LINE
  8
0
 10
-214.131
 20
-143.869
 11
-214.039
 21
-143.783
  0
LINE
  8
0
 10
-214.039
 20
-143.783
 11
-213.94
 21
-143.706
  0
LINE
  8
0
 10
-213.94
 20
-143.706
 11
-213.836
 21
-143.636
  0
LINE
  8
0
 10
-213.836
 20
-143.636
 11
-213.726
 21
-143.574
  0
LINE
  8
0
 10
-213.726
 20
-143.574
 11
-213.612
 21
-143.522
  0
LINE
  8
0
 10
-213.612
 20
-143.522
 11
-213.494
 21
-143.478
  0
LINE
  8
0
 10
-213.494
 20
-143.478
 11
-213.374
 21
-143.444
  0
LINE
  8
0
 10
-213.374
 20
-143.444
 11
-213.25
 21
-143.42
  0
LINE
  8
0
 10
-213.25
 20
-143.42
 11
-213.126
 21
-143.405
  0
LINE
  8
0
 10
-213.126
 20
-143.405
 11
-213
 21
-143.4
  0
LINE
  8
0
 10
-213
 20
-143.4
 11
-205
 21
-143.4
  0
LINE
  8
0
 10
-205
 20
-143.4
 11
-204.874
 21
-143.405
  0
LINE
  8
0
 10
-204.874
 20
-143.405
 11
-204.75
 21
-143.42
  0
LINE
  8
0
 10
-204.75
 20
-143.42
 11
-204.626
 21
-143.444
  0
LINE
  8
0
 10
-204.626
 20
-143.444
 11
-204.506
 21
-143.478
  0
LINE
  8
0
 10
-204.506
 20
-143.478
 11
-204.388
 21
-143.522
  0
LINE
  8
0
 10
-204.388
 20
-143.522
 11
-204.274
 21
-143.574
  0
LINE
  8
0
 10
-204.274
 20
-143.574
 11
-204.164
 21
-143.636
  0
LINE
  8
0
 10
-204.164
 20
-143.636
 11
-204.06
 21
-143.706
  0
LINE
  8
0
 10
-204.06
 20
-143.706
 11
-203.961
 21
-143.783
  0
LINE
  8
0
 10
-203.961
 20
-143.783
 11
-203.869
 21
-143.869
  0
LINE
  8
0
 10
-203.869
 20
-143.869
 11
-203.783
 21
-143.961
  0
LINE
  8
0
 10
-203.783
 20
-143.961
 11
-203.706
 21
-144.06
  0
LINE
  8
0
 10
-203.706
 20
-144.06
 11
-203.636
 21
-144.164
  0
LINE
  8
0
 10
-203.636
 20
-144.164
 11
-203.574
 21
-144.274
  0
LINE
  8
0
 10
-203.574
 20
-144.274
 11
-203.522
 21
-144.388
  0
LINE
  8
0
 10
-203.522
 20
-144.388
 11
-203.478
 21
-144.506
  0
LINE
  8
0
 10
-203.478
 20
-144.506
 11
-203.444
 21
-144.626
  0
LINE
  8
0
 10
-203.444
 20
-144.626
 11
-203.42
 21
-144.75
  0
LINE
  8
0
 10
-203.42
 20
-144.75
 11
-203.405
 21
-144.874
  0
LINE
  8
0
 10
-203.405
 20
-144.874
 11
-203.4
 21
-145
  0
LINE
  8
0
 10
-203.4
 20
-145
 11
-203.405
 21
-145.126
  0
LINE
  8
0
 10
-203.405
 20
-145.126
 11
-203.42
 21
-145.25
  0
LINE
  8
0
 10
-203.42
 20
-145.25
 11
-203.444
 21
-145.374
  0
LINE
  8
0
 10
-203.444
 20
-145.374
 11
-203.478
 21
-145.494
  0
LINE
  8
0
 10
-203.478
 20
-145.494
 11
-203.522
 21
-145.612
  0
LINE
  8
0
 10
-203.522
 20
-145.612
 11
-203.574
 21
-145.726
  0
LINE
  8
0
 10
-203.574
 20
-145.726
 11
-203.636
 21
-145.836
  0
LINE
  8
0
 10
-203.636
 20
-145.836
 11
-203.706
 21
-145.94
  0
LINE
  8
0
 10
-203.706
 20
-145.94
 11
-203.783
 21
-146.039
  0
LINE
  8
0
 10
-203.783
 20
-146.039
 11
-203.869
 21
-146.131
  0
LINE
  8
0
 10
-203.869
 20
-146.131
 11
-203.961
 21
-146.217
  0
LINE
  8
0
 10
-203.961
 20
-146.217
 11
-204.06
 21
-146.294
  0
LINE
  8
0
 10
-204.06
 20
-146.294
 11
-204.164
 21
-146.364
  0
LINE
  8
0
 10
-204.164
 20
-146.364
 11
-204.274
 21
-146.426
  0
LINE
  8
0
 10
-204.274
 20
-146.426
 11
-204.388
 21
-146.478
  0
LINE
  8
0
 10
-204.388
 20
-146.478
 11
-204.506
 21
-146.522
  0
LINE
  8
0
 10
-204.506
 20
-146.522
 11
-204.626
 21
-146.556
  0
LINE
  8
0
 10
-204.626
 20
-146.556
 11
-204.75
 21
-146.58
  0
LINE
  8
0
 10
-204.75
 20
-146.58
 11
-204.874
 21
-146.595
  0
LINE
  8
0
 10
-204.874
 20
-146.595
 11
-205
 21
-146.6
  0
LINE
  8
0
 10
-205
 20
-146.6
 11
-213
 21
-146.6
  0
ENDSEC
  0
SECTION
  2
OBJECTS
  0
DICTIONARY
  0
ENDSEC
  0
EOF
