  0
SECTION
  2
BLOCKS
  0
ENDSEC
  0
SECTION
  2
ENTITIES
  0
LINE
  8
0
 10
148
 20
210
 11
0
 21
210
  0
LINE
  8
0
 10
0
 20
210
 11
0
 21
0
  0
LINE
  8
0
 10
0
 20
0
 11
148
 21
0
  0
LINE
  8
0
 10
148
 20
0
 11
148
 21
210
  0
LINE
  8
0
 10
5.87445
 20
202.405
 11
5.74969
 21
202.42
  0
LINE
  8
0
 10
5.74969
 20
202.42
 11
5.62648
 21
202.444
  0
LINE
  8
0
 10
5.62648
 20
202.444
 11
5.50557
 21
202.478
  0
LINE
  8
0
 10
5.50557
 20
202.478
 11
5.3877
 21
202.522
  0
LINE
  8
0
 10
5.3877
 20
202.522
 11
5.27361
 21
202.574
  0
LINE
  8
0
 10
5.27361
 20
202.574
 11
5.164
 21
202.636
  0
LINE
  8
0
 10
5.164
 20
202.636
 11
5.05954
 21
202.706
  0
LINE
  8
0
 10
5.05954
 20
202.706
 11
4.96088
 21
202.783
  0
LINE
  8
0
 10
4.96088
 20
202.783
 11
4.86862
 21
202.869
  0
LINE
  8
0
 10
4.86862
 20
202.869
 11
4.78334
 21
202.961
  0
LINE
  8
0
 10
4.78334
 20
202.961
 11
4.70557
 21
203.06
  0
LINE
  8
0
 10
4.70557
 20
203.06
 11
4.63577
 21
203.164
  0
LINE
  8
0
 10
4.63577
 20
203.164
 11
4.57439
 21
203.274
  0
LINE
  8
0
 10
4.57439
 20
203.274
 11
4.52179
 21
203.388
  0
LINE
  8
0
 10
4.52179
 20
203.388
 11
4.4783
 21
203.506
  0
LINE
  8
0
 10
4.4783
 20
203.506
 11
4.4442
 21
203.626
  0
LINE
  8
0
 10
4.4442
 20
203.626
 11
4.41969
 21
203.75
  0
LINE
  8
0
 10
4.41969
 20
203.75
 11
4.40492
 21
203.874
  0
LINE
  8
0
 10
4.40492
 20
203.874
 11
4.39999
 21
204
  0
LINE
  8
0
 10
4.39999
 20
204
 11
4.40492
 21
204.126
  0
LINE
  8
0
 10
4.40492
 20
204.126
 11
4.41969
 21
204.25
  0
LINE
  8
0
 10
4.41969
 20
204.25
 11
4.4442
 21
204.374
  0
LINE
  8
0
 10
4.4442
 20
204.374
 11
4.4783
 21
204.494
  0
LINE
  8
0
 10
4.4783
 20
204.494
 11
4.52179
 21
204.612
  0
LINE
  8
0
 10
4.52179
 20
204.612
 11
4.57439
 21
204.726
  0
LINE
  8
0
 10
4.57439
 20
204.726
 11
4.63577
 21
204.836
  0
LINE
  8
0
 10
4.63577
 20
204.836
 11
4.70557
 21
204.94
  0
LINE
  8
0
 10
4.70557
 20
204.94
 11
4.78334
 21
205.039
  0
LINE
  8
0
 10
4.78334
 20
205.039
 11
4.86862
 21
205.131
  0
LINE
  8
0
 10
4.86862
 20
205.131
 11
4.96088
 21
205.217
  0
LINE
  8
0
 10
4.96088
 20
205.217
 11
5.05954
 21
205.294
  0
LINE
  8
0
 10
5.05954
 20
205.294
 11
5.164
 21
205.364
  0
LINE
  8
0
 10
5.164
 20
205.364
 11
5.27361
 21
205.426
  0
LINE
  8
0
 10
5.27361
 20
205.426
 11
5.3877
 21
205.478
  0
LINE
  8
0
 10
5.3877
 20
205.478
 11
5.50557
 21
205.522
  0
LINE
  8
0
 10
5.50557
 20
205.522
 11
5.62648
 21
205.556
  0
LINE
  8
0
 10
5.62648
 20
205.556
 11
5.74969
 21
205.58
  0
LINE
  8
0
 10
5.74969
 20
205.58
 11
5.87445
 21
205.595
  0
LINE
  8
0
 10
5.87445
 20
205.595
 11
6
 21
205.6
  0
LINE
  8
0
 10
6
 20
205.6
 11
6.12553
 21
205.595
  0
LINE
  8
0
 10
6.12553
 20
205.595
 11
6.25029
 21
205.58
  0
LINE
  8
0
 10
6.25029
 20
205.58
 11
6.3735
 21
205.556
  0
LINE
  8
0
 10
6.3735
 20
205.556
 11
6.49442
 21
205.522
  0
LINE
  8
0
 10
6.49442
 20
205.522
 11
6.61229
 21
205.478
  0
LINE
  8
0
 10
6.61229
 20
205.478
 11
6.72638
 21
205.426
  0
LINE
  8
0
 10
6.72638
 20
205.426
 11
6.83598
 21
205.364
  0
LINE
  8
0
 10
6.83598
 20
205.364
 11
6.94044
 21
205.294
  0
LINE
  8
0
 10
6.94044
 20
205.294
 11
7.03911
 21
205.217
  0
LINE
  8
0
 10
7.03911
 20
205.217
 11
7.13136
 21
205.131
  0
LINE
  8
0
 10
7.13136
 20
205.131
 11
7.21664
 21
205.039
  0
LINE
  8
0
 10
7.21664
 20
205.039
 11
7.29442
 21
204.94
  0
LINE
  8
0
 10
7.29442
 20
204.94
 11
7.36421
 21
204.836
  0
LINE
  8
0
 10
7.36421
 20
204.836
 11
7.4256
 21
204.726
  0
LINE
  8
0
 10
7.4256
 20
204.726
 11
7.4782
 21
204.612
  0
LINE
  8
0
 10
7.4782
 20
204.612
 11
7.52168
 21
204.494
  0
LINE
  8
0
 10
7.52168
 20
204.494
 11
7.55579
 21
204.374
  0
LINE
  8
0
 10
7.55579
 20
204.374
 11
7.58029
 21
204.25
  0
LINE
  8
0
 10
7.58029
 20
204.25
 11
7.59506
 21
204.126
  0
LINE
  8
0
 10
7.59506
 20
204.126
 11
7.59999
 21
204
  0
LINE
  8
0
 10
7.59999
 20
204
 11
7.59506
 21
203.874
  0
LINE
  8
0
 10
7.59506
 20
203.874
 11
7.58029
 21
203.75
  0
LINE
  8
0
 10
7.58029
 20
203.75
 11
7.55579
 21
203.626
  0
LINE
  8
0
 10
7.55579
 20
203.626
 11
7.52168
 21
203.506
  0
LINE
  8
0
 10
7.52168
 20
203.506
 11
7.4782
 21
203.388
  0
LINE
  8
0
 10
7.4782
 20
203.388
 11
7.4256
 21
203.274
  0
LINE
  8
0
 10
7.4256
 20
203.274
 11
7.36421
 21
203.164
  0
LINE
  8
0
 10
7.36421
 20
203.164
 11
7.29442
 21
203.06
  0
LINE
  8
0
 10
7.29442
 20
203.06
 11
7.21664
 21
202.961
  0
LINE
  8
0
 10
7.21664
 20
202.961
 11
7.13136
 21
202.869
  0
LINE
  8
0
 10
7.13136
 20
202.869
 11
7.03911
 21
202.783
  0
LINE
  8
0
 10
7.03911
 20
202.783
 11
6.94044
 21
202.706
  0
LINE
  8
0
 10
6.94044
 20
202.706
 11
6.83598
 21
202.636
  0
LINE
  8
0
 10
6.83598
 20
202.636
 11
6.72638
 21
202.574
  0
LINE
  8
0
 10
6.72638
 20
202.574
 11
6.61229
 21
202.522
  0
LINE
  8
0
 10
6.61229
 20
202.522
 11
6.49442
 21
202.478
  0
LINE
  8
0
 10
6.49442
 20
202.478
 11
6.3735
 21
202.444
  0
LINE
  8
0
 10
6.3735
 20
202.444
 11
6.25029
 21
202.42
  0
LINE
  8
0
 10
6.25029
 20
202.42
 11
6.12553
 21
202.405
  0
LINE
  8
0
 10
6.12553
 20
202.405
 11
6
 21
202.4
  0
LINE
  8
0
 10
6
 20
202.4
 11
5.87445
 21
202.405
  0
LINE
  8
0
 10
141.874
 20
202.405
 11
141.75
 21
202.42
  0
LINE
  8
0
 10
141.75
 20
202.42
 11
141.626
 21
202.444
  0
LINE
  8
0
 10
141.626
 20
202.444
 11
141.506
 21
202.478
  0
LINE
  8
0
 10
141.506
 20
202.478
 11
141.388
 21
202.522
  0
LINE
  8
0
 10
141.388
 20
202.522
 11
141.274
 21
202.574
  0
LINE
  8
0
 10
141.274
 20
202.574
 11
141.164
 21
202.636
  0
LINE
  8
0
 10
141.164
 20
202.636
 11
141.06
 21
202.706
  0
LINE
  8
0
 10
141.06
 20
202.706
 11
140.961
 21
202.783
  0
LINE
  8
0
 10
140.961
 20
202.783
 11
140.869
 21
202.869
  0
LINE
  8
0
 10
140.869
 20
202.869
 11
140.783
 21
202.961
  0
LINE
  8
0
 10
140.783
 20
202.961
 11
140.706
 21
203.06
  0
LINE
  8
0
 10
140.706
 20
203.06
 11
140.636
 21
203.164
  0
LINE
  8
0
 10
140.636
 20
203.164
 11
140.574
 21
203.274
  0
LINE
  8
0
 10
140.574
 20
203.274
 11
140.522
 21
203.388
  0
LINE
  8
0
 10
140.522
 20
203.388
 11
140.478
 21
203.506
  0
LINE
  8
0
 10
140.478
 20
203.506
 11
140.444
 21
203.626
  0
LINE
  8
0
 10
140.444
 20
203.626
 11
140.42
 21
203.75
  0
LINE
  8
0
 10
140.42
 20
203.75
 11
140.405
 21
203.874
  0
LINE
  8
0
 10
140.405
 20
203.874
 11
140.4
 21
204
  0
LINE
  8
0
 10
140.4
 20
204
 11
140.405
 21
204.126
  0
LINE
  8
0
 10
140.405
 20
204.126
 11
140.42
 21
204.25
  0
LINE
  8
0
 10
140.42
 20
204.25
 11
140.444
 21
204.374
  0
LINE
  8
0
 10
140.444
 20
204.374
 11
140.478
 21
204.494
  0
LINE
  8
0
 10
140.478
 20
204.494
 11
140.522
 21
204.612
  0
LINE
  8
0
 10
140.522
 20
204.612
 11
140.574
 21
204.726
  0
LINE
  8
0
 10
140.574
 20
204.726
 11
140.636
 21
204.836
  0
LINE
  8
0
 10
140.636
 20
204.836
 11
140.706
 21
204.94
  0
LINE
  8
0
 10
140.706
 20
204.94
 11
140.783
 21
205.039
  0
LINE
  8
0
 10
140.783
 20
205.039
 11
140.869
 21
205.131
  0
LINE
  8
0
 10
140.869
 20
205.131
 11
140.961
 21
205.217
  0
LINE
  8
0
 10
140.961
 20
205.217
 11
141.06
 21
205.294
  0
LINE
  8
0
 10
141.06
 20
205.294
 11
141.164
 21
205.364
  0
LINE
  8
0
 10
141.164
 20
205.364
 11
141.274
 21
205.426
  0
LINE
  8
0
 10
141.274
 20
205.426
 11
141.388
 21
205.478
  0
LINE
  8
0
 10
141.388
 20
205.478
 11
141.506
 21
205.522
  0
LINE
  8
0
 10
141.506
 20
205.522
 11
141.626
 21
205.556
  0
LINE
  8
0
 10
141.626
 20
205.556
 11
141.75
 21
205.58
  0
LINE
  8
0
 10
141.75
 20
205.58
 11
141.874
 21
205.595
  0
LINE
  8
0
 10
141.874
 20
205.595
 11
142
 21
205.6
  0
LINE
  8
0
 10
142
 20
205.6
 11
142.126
 21
205.595
  0
LINE
  8
0
 10
142.126
 20
205.595
 11
142.25
 21
205.58
  0
LINE
  8
0
 10
142.25
 20
205.58
 11
142.374
 21
205.556
  0
LINE
  8
0
 10
142.374
 20
205.556
 11
142.494
 21
205.522
  0
LINE
  8
0
 10
142.494
 20
205.522
 11
142.612
 21
205.478
  0
LINE
  8
0
 10
142.612
 20
205.478
 11
142.726
 21
205.426
  0
LINE
  8
0
 10
142.726
 20
205.426
 11
142.836
 21
205.364
  0
LINE
  8
0
 10
142.836
 20
205.364
 11
142.94
 21
205.294
  0
LINE
  8
0
 10
142.94
 20
205.294
 11
143.039
 21
205.217
  0
LINE
  8
0
 10
143.039
 20
205.217
 11
143.131
 21
205.131
  0
LINE
  8
0
 10
143.131
 20
205.131
 11
143.217
 21
205.039
  0
LINE
  8
0
 10
143.217
 20
205.039
 11
143.294
 21
204.94
  0
LINE
  8
0
 10
143.294
 20
204.94
 11
143.364
 21
204.836
  0
LINE
  8
0
 10
143.364
 20
204.836
 11
143.426
 21
204.726
  0
LINE
  8
0
 10
143.426
 20
204.726
 11
143.478
 21
204.612
  0
LINE
  8
0
 10
143.478
 20
204.612
 11
143.522
 21
204.494
  0
LINE
  8
0
 10
143.522
 20
204.494
 11
143.556
 21
204.374
  0
LINE
  8
0
 10
143.556
 20
204.374
 11
143.58
 21
204.25
  0
LINE
  8
0
 10
143.58
 20
204.25
 11
143.595
 21
204.126
  0
LINE
  8
0
 10
143.595
 20
204.126
 11
143.6
 21
204
  0
LINE
  8
0
 10
143.6
 20
204
 11
143.595
 21
203.874
  0
LINE
  8
0
 10
143.595
 20
203.874
 11
143.58
 21
203.75
  0
LINE
  8
0
 10
143.58
 20
203.75
 11
143.556
 21
203.626
  0
LINE
  8
0
 10
143.556
 20
203.626
 11
143.522
 21
203.506
  0
LINE
  8
0
 10
143.522
 20
203.506
 11
143.478
 21
203.388
  0
LINE
  8
0
 10
143.478
 20
203.388
 11
143.426
 21
203.274
  0
LINE
  8
0
 10
143.426
 20
203.274
 11
143.364
 21
203.164
  0
LINE
  8
0
 10
143.364
 20
203.164
 11
143.294
 21
203.06
  0
LINE
  8
0
 10
143.294
 20
203.06
 11
143.217
 21
202.961
  0
LINE
  8
0
 10
143.217
 20
202.961
 11
143.131
 21
202.869
  0
LINE
  8
0
 10
143.131
 20
202.869
 11
143.039
 21
202.783
  0
LINE
  8
0
 10
143.039
 20
202.783
 11
142.94
 21
202.706
  0
LINE
  8
0
 10
142.94
 20
202.706
 11
142.836
 21
202.636
  0
LINE
  8
0
 10
142.836
 20
202.636
 11
142.726
 21
202.574
  0
LINE
  8
0
 10
142.726
 20
202.574
 11
142.612
 21
202.522
  0
LINE
  8
0
 10
142.612
 20
202.522
 11
142.494
 21
202.478
  0
LINE
  8
0
 10
142.494
 20
202.478
 11
142.374
 21
202.444
  0
LINE
  8
0
 10
142.374
 20
202.444
 11
142.25
 21
202.42
  0
LINE
  8
0
 10
142.25
 20
202.42
 11
142.126
 21
202.405
  0
LINE
  8
0
 10
142.126
 20
202.405
 11
142
 21
202.4
  0
LINE
  8
0
 10
142
 20
202.4
 11
141.874
 21
202.405
  0
LINE
  8
0
 10
73.8745
 20
202.405
 11
73.7497
 21
202.42
  0
LINE
  8
0
 10
73.7497
 20
202.42
 11
73.6265
 21
202.444
  0
LINE
  8
0
 10
73.6265
 20
202.444
 11
73.5056
 21
202.478
  0
LINE
  8
0
 10
73.5056
 20
202.478
 11
73.3877
 21
202.522
  0
LINE
  8
0
 10
73.3877
 20
202.522
 11
73.2736
 21
202.574
  0
LINE
  8
0
 10
73.2736
 20
202.574
 11
73.164
 21
202.636
  0
LINE
  8
0
 10
73.164
 20
202.636
 11
73.0595
 21
202.706
  0
LINE
  8
0
 10
73.0595
 20
202.706
 11
72.9609
 21
202.783
  0
LINE
  8
0
 10
72.9609
 20
202.783
 11
72.8686
 21
202.869
  0
LINE
  8
0
 10
72.8686
 20
202.869
 11
72.7833
 21
202.961
  0
LINE
  8
0
 10
72.7833
 20
202.961
 11
72.7056
 21
203.06
  0
LINE
  8
0
 10
72.7056
 20
203.06
 11
72.6358
 21
203.164
  0
LINE
  8
0
 10
72.6358
 20
203.164
 11
72.5744
 21
203.274
  0
LINE
  8
0
 10
72.5744
 20
203.274
 11
72.5218
 21
203.388
  0
LINE
  8
0
 10
72.5218
 20
203.388
 11
72.4783
 21
203.506
  0
LINE
  8
0
 10
72.4783
 20
203.506
 11
72.4442
 21
203.626
  0
LINE
  8
0
 10
72.4442
 20
203.626
 11
72.4197
 21
203.75
  0
LINE
  8
0
 10
72.4197
 20
203.75
 11
72.4049
 21
203.874
  0
LINE
  8
0
 10
72.4049
 20
203.874
 11
72.4
 21
204
  0
LINE
  8
0
 10
72.4
 20
204
 11
72.4049
 21
204.126
  0
LINE
  8
0
 10
72.4049
 20
204.126
 11
72.4197
 21
204.25
  0
LINE
  8
0
 10
72.4197
 20
204.25
 11
72.4442
 21
204.374
  0
LINE
  8
0
 10
72.4442
 20
204.374
 11
72.4783
 21
204.494
  0
LINE
  8
0
 10
72.4783
 20
204.494
 11
72.5218
 21
204.612
  0
LINE
  8
0
 10
72.5218
 20
204.612
 11
72.5744
 21
204.726
  0
LINE
  8
0
 10
72.5744
 20
204.726
 11
72.6358
 21
204.836
  0
LINE
  8
0
 10
72.6358
 20
204.836
 11
72.7056
 21
204.94
  0
LINE
  8
0
 10
72.7056
 20
204.94
 11
72.7833
 21
205.039
  0
LINE
  8
0
 10
72.7833
 20
205.039
 11
72.8686
 21
205.131
  0
LINE
  8
0
 10
72.8686
 20
205.131
 11
72.9609
 21
205.217
  0
LINE
  8
0
 10
72.9609
 20
205.217
 11
73.0595
 21
205.294
  0
LINE
  8
0
 10
73.0595
 20
205.294
 11
73.164
 21
205.364
  0
LINE
  8
0
 10
73.164
 20
205.364
 11
73.2736
 21
205.426
  0
LINE
  8
0
 10
73.2736
 20
205.426
 11
73.3877
 21
205.478
  0
LINE
  8
0
 10
73.3877
 20
205.478
 11
73.5056
 21
205.522
  0
LINE
  8
0
 10
73.5056
 20
205.522
 11
73.6265
 21
205.556
  0
LINE
  8
0
 10
73.6265
 20
205.556
 11
73.7497
 21
205.58
  0
LINE
  8
0
 10
73.7497
 20
205.58
 11
73.8745
 21
205.595
  0
LINE
  8
0
 10
73.8745
 20
205.595
 11
74
 21
205.6
  0
LINE
  8
0
 10
74
 20
205.6
 11
74.1255
 21
205.595
  0
LINE
  8
0
 10
74.1255
 20
205.595
 11
74.2503
 21
205.58
  0
LINE
  8
0
 10
74.2503
 20
205.58
 11
74.3735
 21
205.556
  0
LINE
  8
0
 10
74.3735
 20
205.556
 11
74.4944
 21
205.522
  0
LINE
  8
0
 10
74.4944
 20
205.522
 11
74.6123
 21
205.478
  0
LINE
  8
0
 10
74.6123
 20
205.478
 11
74.7264
 21
205.426
  0
LINE
  8
0
 10
74.7264
 20
205.426
 11
74.836
 21
205.364
  0
LINE
  8
0
 10
74.836
 20
205.364
 11
74.9404
 21
205.294
  0
LINE
  8
0
 10
74.9404
 20
205.294
 11
75.0391
 21
205.217
  0
LINE
  8
0
 10
75.0391
 20
205.217
 11
75.1314
 21
205.131
  0
LINE
  8
0
 10
75.1314
 20
205.131
 11
75.2166
 21
205.039
  0
LINE
  8
0
 10
75.2166
 20
205.039
 11
75.2944
 21
204.94
  0
LINE
  8
0
 10
75.2944
 20
204.94
 11
75.3642
 21
204.836
  0
LINE
  8
0
 10
75.3642
 20
204.836
 11
75.4256
 21
204.726
  0
LINE
  8
0
 10
75.4256
 20
204.726
 11
75.4782
 21
204.612
  0
LINE
  8
0
 10
75.4782
 20
204.612
 11
75.5217
 21
204.494
  0
LINE
  8
0
 10
75.5217
 20
204.494
 11
75.5558
 21
204.374
  0
LINE
  8
0
 10
75.5558
 20
204.374
 11
75.5803
 21
204.25
  0
LINE
  8
0
 10
75.5803
 20
204.25
 11
75.5951
 21
204.126
  0
LINE
  8
0
 10
75.5951
 20
204.126
 11
75.6
 21
204
  0
LINE
  8
0
 10
75.6
 20
204
 11
75.5951
 21
203.874
  0
LINE
  8
0
 10
75.5951
 20
203.874
 11
75.5803
 21
203.75
  0
LINE
  8
0
 10
75.5803
 20
203.75
 11
75.5558
 21
203.626
  0
LINE
  8
0
 10
75.5558
 20
203.626
 11
75.5217
 21
203.506
  0
LINE
  8
0
 10
75.5217
 20
203.506
 11
75.4782
 21
203.388
  0
LINE
  8
0
 10
75.4782
 20
203.388
 11
75.4256
 21
203.274
  0
LINE
  8
0
 10
75.4256
 20
203.274
 11
75.3642
 21
203.164
  0
LINE
  8
0
 10
75.3642
 20
203.164
 11
75.2944
 21
203.06
  0
LINE
  8
0
 10
75.2944
 20
203.06
 11
75.2166
 21
202.961
  0
LINE
  8
0
 10
75.2166
 20
202.961
 11
75.1314
 21
202.869
  0
LINE
  8
0
 10
75.1314
 20
202.869
 11
75.0391
 21
202.783
  0
LINE
  8
0
 10
75.0391
 20
202.783
 11
74.9404
 21
202.706
  0
LINE
  8
0
 10
74.9404
 20
202.706
 11
74.836
 21
202.636
  0
LINE
  8
0
 10
74.836
 20
202.636
 11
74.7264
 21
202.574
  0
LINE
  8
0
 10
74.7264
 20
202.574
 11
74.6123
 21
202.522
  0
LINE
  8
0
 10
74.6123
 20
202.522
 11
74.4944
 21
202.478
  0
LINE
  8
0
 10
74.4944
 20
202.478
 11
74.3735
 21
202.444
  0
LINE
  8
0
 10
74.3735
 20
202.444
 11
74.2503
 21
202.42
  0
LINE
  8
0
 10
74.2503
 20
202.42
 11
74.1255
 21
202.405
  0
LINE
  8
0
 10
74.1255
 20
202.405
 11
74
 21
202.4
  0
LINE
  8
0
 10
74
 20
202.4
 11
73.8745
 21
202.405
  0
LINE
  8
0
 10
5.87445
 20
103.405
 11
5.74969
 21
103.42
  0
LINE
  8
0
 10
5.74969
 20
103.42
 11
5.62648
 21
103.444
  0
LINE
  8
0
 10
5.62648
 20
103.444
 11
5.50557
 21
103.478
  0
LINE
  8
0
 10
5.50557
 20
103.478
 11
5.3877
 21
103.522
  0
LINE
  8
0
 10
5.3877
 20
103.522
 11
5.27361
 21
103.574
  0
LINE
  8
0
 10
5.27361
 20
103.574
 11
5.164
 21
103.636
  0
LINE
  8
0
 10
5.164
 20
103.636
 11
5.05954
 21
103.706
  0
LINE
  8
0
 10
5.05954
 20
103.706
 11
4.96088
 21
103.783
  0
LINE
  8
0
 10
4.96088
 20
103.783
 11
4.86862
 21
103.869
  0
LINE
  8
0
 10
4.86862
 20
103.869
 11
4.78334
 21
103.961
  0
LINE
  8
0
 10
4.78334
 20
103.961
 11
4.70557
 21
104.06
  0
LINE
  8
0
 10
4.70557
 20
104.06
 11
4.63577
 21
104.164
  0
LINE
  8
0
 10
4.63577
 20
104.164
 11
4.57439
 21
104.274
  0
LINE
  8
0
 10
4.57439
 20
104.274
 11
4.52179
 21
104.388
  0
LINE
  8
0
 10
4.52179
 20
104.388
 11
4.4783
 21
104.506
  0
LINE
  8
0
 10
4.4783
 20
104.506
 11
4.4442
 21
104.626
  0
LINE
  8
0
 10
4.4442
 20
104.626
 11
4.41969
 21
104.75
  0
LINE
  8
0
 10
4.41969
 20
104.75
 11
4.40492
 21
104.874
  0
LINE
  8
0
 10
4.40492
 20
104.874
 11
4.39999
 21
105
  0
LINE
  8
0
 10
4.39999
 20
105
 11
4.40492
 21
105.126
  0
LINE
  8
0
 10
4.40492
 20
105.126
 11
4.41969
 21
105.25
  0
LINE
  8
0
 10
4.41969
 20
105.25
 11
4.4442
 21
105.374
  0
LINE
  8
0
 10
4.4442
 20
105.374
 11
4.4783
 21
105.494
  0
LINE
  8
0
 10
4.4783
 20
105.494
 11
4.52179
 21
105.612
  0
LINE
  8
0
 10
4.52179
 20
105.612
 11
4.57439
 21
105.726
  0
LINE
  8
0
 10
4.57439
 20
105.726
 11
4.63577
 21
105.836
  0
LINE
  8
0
 10
4.63577
 20
105.836
 11
4.70557
 21
105.94
  0
LINE
  8
0
 10
4.70557
 20
105.94
 11
4.78334
 21
106.039
  0
LINE
  8
0
 10
4.78334
 20
106.039
 11
4.86862
 21
106.131
  0
LINE
  8
0
 10
4.86862
 20
106.131
 11
4.96088
 21
106.217
  0
LINE
  8
0
 10
4.96088
 20
106.217
 11
5.05954
 21
106.294
  0
LINE
  8
0
 10
5.05954
 20
106.294
 11
5.164
 21
106.364
  0
LINE
  8
0
 10
5.164
 20
106.364
 11
5.27361
 21
106.426
  0
LINE
  8
0
 10
5.27361
 20
106.426
 11
5.3877
 21
106.478
  0
LINE
  8
0
 10
5.3877
 20
106.478
 11
5.50557
 21
106.522
  0
LINE
  8
0
 10
5.50557
 20
106.522
 11
5.62648
 21
106.556
  0
LINE
  8
0
 10
5.62648
 20
106.556
 11
5.74969
 21
106.58
  0
LINE
  8
0
 10
5.74969
 20
106.58
 11
5.87445
 21
106.595
  0
LINE
  8
0
 10
5.87445
 20
106.595
 11
6
 21
106.6
  0
LINE
  8
0
 10
6
 20
106.6
 11
6.12553
 21
106.595
  0
LINE
  8
0
 10
6.12553
 20
106.595
 11
6.25029
 21
106.58
  0
LINE
  8
0
 10
6.25029
 20
106.58
 11
6.3735
 21
106.556
  0
LINE
  8
0
 10
6.3735
 20
106.556
 11
6.49442
 21
106.522
  0
LINE
  8
0
 10
6.49442
 20
106.522
 11
6.61229
 21
106.478
  0
LINE
  8
0
 10
6.61229
 20
106.478
 11
6.72638
 21
106.426
  0
LINE
  8
0
 10
6.72638
 20
106.426
 11
6.83598
 21
106.364
  0
LINE
  8
0
 10
6.83598
 20
106.364
 11
6.94044
 21
106.294
  0
LINE
  8
0
 10
6.94044
 20
106.294
 11
7.03911
 21
106.217
  0
LINE
  8
0
 10
7.03911
 20
106.217
 11
7.13136
 21
106.131
  0
LINE
  8
0
 10
7.13136
 20
106.131
 11
7.21664
 21
106.039
  0
LINE
  8
0
 10
7.21664
 20
106.039
 11
7.29442
 21
105.94
  0
LINE
  8
0
 10
7.29442
 20
105.94
 11
7.36421
 21
105.836
  0
LINE
  8
0
 10
7.36421
 20
105.836
 11
7.4256
 21
105.726
  0
LINE
  8
0
 10
7.4256
 20
105.726
 11
7.4782
 21
105.612
  0
LINE
  8
0
 10
7.4782
 20
105.612
 11
7.52168
 21
105.494
  0
LINE
  8
0
 10
7.52168
 20
105.494
 11
7.55579
 21
105.374
  0
LINE
  8
0
 10
7.55579
 20
105.374
 11
7.58029
 21
105.25
  0
LINE
  8
0
 10
7.58029
 20
105.25
 11
7.59506
 21
105.126
  0
LINE
  8
0
 10
7.59506
 20
105.126
 11
7.59999
 21
105
  0
LINE
  8
0
 10
7.59999
 20
105
 11
7.59506
 21
104.874
  0
LINE
  8
0
 10
7.59506
 20
104.874
 11
7.58029
 21
104.75
  0
LINE
  8
0
 10
7.58029
 20
104.75
 11
7.55579
 21
104.626
  0
LINE
  8
0
 10
7.55579
 20
104.626
 11
7.52168
 21
104.506
  0
LINE
  8
0
 10
7.52168
 20
104.506
 11
7.4782
 21
104.388
  0
LINE
  8
0
 10
7.4782
 20
104.388
 11
7.4256
 21
104.274
  0
LINE
  8
0
 10
7.4256
 20
104.274
 11
7.36421
 21
104.164
  0
LINE
  8
0
 10
7.36421
 20
104.164
 11
7.29442
 21
104.06
  0
LINE
  8
0
 10
7.29442
 20
104.06
 11
7.21664
 21
103.961
  0
LINE
  8
0
 10
7.21664
 20
103.961
 11
7.13136
 21
103.869
  0
LINE
  8
0
 10
7.13136
 20
103.869
 11
7.03911
 21
103.783
  0
LINE
  8
0
 10
7.03911
 20
103.783
 11
6.94044
 21
103.706
  0
LINE
  8
0
 10
6.94044
 20
103.706
 11
6.83598
 21
103.636
  0
LINE
  8
0
 10
6.83598
 20
103.636
 11
6.72638
 21
103.574
  0
LINE
  8
0
 10
6.72638
 20
103.574
 11
6.61229
 21
103.522
  0
LINE
  8
0
 10
6.61229
 20
103.522
 11
6.49442
 21
103.478
  0
LINE
  8
0
 10
6.49442
 20
103.478
 11
6.3735
 21
103.444
  0
LINE
  8
0
 10
6.3735
 20
103.444
 11
6.25029
 21
103.42
  0
LINE
  8
0
 10
6.25029
 20
103.42
 11
6.12553
 21
103.405
  0
LINE
  8
0
 10
6.12553
 20
103.405
 11
6
 21
103.4
  0
LINE
  8
0
 10
6
 20
103.4
 11
5.87445
 21
103.405
  0
LINE
  8
0
 10
141.874
 20
103.405
 11
141.75
 21
103.42
  0
LINE
  8
0
 10
141.75
 20
103.42
 11
141.626
 21
103.444
  0
LINE
  8
0
 10
141.626
 20
103.444
 11
141.506
 21
103.478
  0
LINE
  8
0
 10
141.506
 20
103.478
 11
141.388
 21
103.522
  0
LINE
  8
0
 10
141.388
 20
103.522
 11
141.274
 21
103.574
  0
LINE
  8
0
 10
141.274
 20
103.574
 11
141.164
 21
103.636
  0
LINE
  8
0
 10
141.164
 20
103.636
 11
141.06
 21
103.706
  0
LINE
  8
0
 10
141.06
 20
103.706
 11
140.961
 21
103.783
  0
LINE
  8
0
 10
140.961
 20
103.783
 11
140.869
 21
103.869
  0
LINE
  8
0
 10
140.869
 20
103.869
 11
140.783
 21
103.961
  0
LINE
  8
0
 10
140.783
 20
103.961
 11
140.706
 21
104.06
  0
LINE
  8
0
 10
140.706
 20
104.06
 11
140.636
 21
104.164
  0
LINE
  8
0
 10
140.636
 20
104.164
 11
140.574
 21
104.274
  0
LINE
  8
0
 10
140.574
 20
104.274
 11
140.522
 21
104.388
  0
LINE
  8
0
 10
140.522
 20
104.388
 11
140.478
 21
104.506
  0
LINE
  8
0
 10
140.478
 20
104.506
 11
140.444
 21
104.626
  0
LINE
  8
0
 10
140.444
 20
104.626
 11
140.42
 21
104.75
  0
LINE
  8
0
 10
140.42
 20
104.75
 11
140.405
 21
104.874
  0
LINE
  8
0
 10
140.405
 20
104.874
 11
140.4
 21
105
  0
LINE
  8
0
 10
140.4
 20
105
 11
140.405
 21
105.126
  0
LINE
  8
0
 10
140.405
 20
105.126
 11
140.42
 21
105.25
  0
LINE
  8
0
 10
140.42
 20
105.25
 11
140.444
 21
105.374
  0
LINE
  8
0
 10
140.444
 20
105.374
 11
140.478
 21
105.494
  0
LINE
  8
0
 10
140.478
 20
105.494
 11
140.522
 21
105.612
  0
LINE
  8
0
 10
140.522
 20
105.612
 11
140.574
 21
105.726
  0
LINE
  8
0
 10
140.574
 20
105.726
 11
140.636
 21
105.836
  0
LINE
  8
0
 10
140.636
 20
105.836
 11
140.706
 21
105.94
  0
LINE
  8
0
 10
140.706
 20
105.94
 11
140.783
 21
106.039
  0
LINE
  8
0
 10
140.783
 20
106.039
 11
140.869
 21
106.131
  0
LINE
  8
0
 10
140.869
 20
106.131
 11
140.961
 21
106.217
  0
LINE
  8
0
 10
140.961
 20
106.217
 11
141.06
 21
106.294
  0
LINE
  8
0
 10
141.06
 20
106.294
 11
141.164
 21
106.364
  0
LINE
  8
0
 10
141.164
 20
106.364
 11
141.274
 21
106.426
  0
LINE
  8
0
 10
141.274
 20
106.426
 11
141.388
 21
106.478
  0
LINE
  8
0
 10
141.388
 20
106.478
 11
141.506
 21
106.522
  0
LINE
  8
0
 10
141.506
 20
106.522
 11
141.626
 21
106.556
  0
LINE
  8
0
 10
141.626
 20
106.556
 11
141.75
 21
106.58
  0
LINE
  8
0
 10
141.75
 20
106.58
 11
141.874
 21
106.595
  0
LINE
  8
0
 10
141.874
 20
106.595
 11
142
 21
106.6
  0
LINE
  8
0
 10
142
 20
106.6
 11
142.126
 21
106.595
  0
LINE
  8
0
 10
142.126
 20
106.595
 11
142.25
 21
106.58
  0
LINE
  8
0
 10
142.25
 20
106.58
 11
142.374
 21
106.556
  0
LINE
  8
0
 10
142.374
 20
106.556
 11
142.494
 21
106.522
  0
LINE
  8
0
 10
142.494
 20
106.522
 11
142.612
 21
106.478
  0
LINE
  8
0
 10
142.612
 20
106.478
 11
142.726
 21
106.426
  0
LINE
  8
0
 10
142.726
 20
106.426
 11
142.836
 21
106.364
  0
LINE
  8
0
 10
142.836
 20
106.364
 11
142.94
 21
106.294
  0
LINE
  8
0
 10
142.94
 20
106.294
 11
143.039
 21
106.217
  0
LINE
  8
0
 10
143.039
 20
106.217
 11
143.131
 21
106.131
  0
LINE
  8
0
 10
143.131
 20
106.131
 11
143.217
 21
106.039
  0
LINE
  8
0
 10
143.217
 20
106.039
 11
143.294
 21
105.94
  0
LINE
  8
0
 10
143.294
 20
105.94
 11
143.364
 21
105.836
  0
LINE
  8
0
 10
143.364
 20
105.836
 11
143.426
 21
105.726
  0
LINE
  8
0
 10
143.426
 20
105.726
 11
143.478
 21
105.612
  0
LINE
  8
0
 10
143.478
 20
105.612
 11
143.522
 21
105.494
  0
LINE
  8
0
 10
143.522
 20
105.494
 11
143.556
 21
105.374
  0
LINE
  8
0
 10
143.556
 20
105.374
 11
143.58
 21
105.25
  0
LINE
  8
0
 10
143.58
 20
105.25
 11
143.595
 21
105.126
  0
LINE
  8
0
 10
143.595
 20
105.126
 11
143.6
 21
105
  0
LINE
  8
0
 10
143.6
 20
105
 11
143.595
 21
104.874
  0
LINE
  8
0
 10
143.595
 20
104.874
 11
143.58
 21
104.75
  0
LINE
  8
0
 10
143.58
 20
104.75
 11
143.556
 21
104.626
  0
LINE
  8
0
 10
143.556
 20
104.626
 11
143.522
 21
104.506
  0
LINE
  8
0
 10
143.522
 20
104.506
 11
143.478
 21
104.388
  0
LINE
  8
0
 10
143.478
 20
104.388
 11
143.426
 21
104.274
  0
LINE
  8
0
 10
143.426
 20
104.274
 11
143.364
 21
104.164
  0
LINE
  8
0
 10
143.364
 20
104.164
 11
143.294
 21
104.06
  0
LINE
  8
0
 10
143.294
 20
104.06
 11
143.217
 21
103.961
  0
LINE
  8
0
 10
143.217
 20
103.961
 11
143.131
 21
103.869
  0
LINE
  8
0
 10
143.131
 20
103.869
 11
143.039
 21
103.783
  0
LINE
  8
0
 10
143.039
 20
103.783
 11
142.94
 21
103.706
  0
LINE
  8
0
 10
142.94
 20
103.706
 11
142.836
 21
103.636
  0
LINE
  8
0
 10
142.836
 20
103.636
 11
142.726
 21
103.574
  0
LINE
  8
0
 10
142.726
 20
103.574
 11
142.612
 21
103.522
  0
LINE
  8
0
 10
142.612
 20
103.522
 11
142.494
 21
103.478
  0
LINE
  8
0
 10
142.494
 20
103.478
 11
142.374
 21
103.444
  0
LINE
  8
0
 10
142.374
 20
103.444
 11
142.25
 21
103.42
  0
LINE
  8
0
 10
142.25
 20
103.42
 11
142.126
 21
103.405
  0
LINE
  8
0
 10
142.126
 20
103.405
 11
142
 21
103.4
  0
LINE
  8
0
 10
142
 20
103.4
 11
141.874
 21
103.405
  0
LINE
  8
0
 10
5.87445
 20
4.40492
 11
5.74969
 21
4.41969
  0
LINE
  8
0
 10
5.74969
 20
4.41969
 11
5.62648
 21
4.4442
  0
LINE
  8
0
 10
5.62648
 20
4.4442
 11
5.50557
 21
4.4783
  0
LINE
  8
0
 10
5.50557
 20
4.4783
 11
5.3877
 21
4.52179
  0
LINE
  8
0
 10
5.3877
 20
4.52179
 11
5.27361
 21
4.57439
  0
LINE
  8
0
 10
5.27361
 20
4.57439
 11
5.164
 21
4.63577
  0
LINE
  8
0
 10
5.164
 20
4.63577
 11
5.05954
 21
4.70557
  0
LINE
  8
0
 10
5.05954
 20
4.70557
 11
4.96088
 21
4.78334
  0
LINE
  8
0
 10
4.96088
 20
4.78334
 11
4.86862
 21
4.86862
  0
LINE
  8
0
 10
4.86862
 20
4.86862
 11
4.78334
 21
4.96088
  0
LINE
  8
0
 10
4.78334
 20
4.96088
 11
4.70557
 21
5.05954
  0
LINE
  8
0
 10
4.70557
 20
5.05954
 11
4.63577
 21
5.164
  0
LINE
  8
0
 10
4.63577
 20
5.164
 11
4.57439
 21
5.27361
  0
LINE
  8
0
 10
4.57439
 20
5.27361
 11
4.52179
 21
5.3877
  0
LINE
  8
0
 10
4.52179
 20
5.3877
 11
4.4783
 21
5.50557
  0
LINE
  8
0
 10
4.4783
 20
5.50557
 11
4.4442
 21
5.62648
  0
LINE
  8
0
 10
4.4442
 20
5.62648
 11
4.41969
 21
5.74969
  0
LINE
  8
0
 10
4.41969
 20
5.74969
 11
4.40492
 21
5.87445
  0
LINE
  8
0
 10
4.40492
 20
5.87445
 11
4.39999
 21
6
  0
LINE
  8
0
 10
4.39999
 20
6
 11
4.40492
 21
6.12553
  0
LINE
  8
0
 10
4.40492
 20
6.12553
 11
4.41969
 21
6.25029
  0
LINE
  8
0
 10
4.41969
 20
6.25029
 11
4.4442
 21
6.3735
  0
LINE
  8
0
 10
4.4442
 20
6.3735
 11
4.4783
 21
6.49442
  0
LINE
  8
0
 10
4.4783
 20
6.49442
 11
4.52179
 21
6.61229
  0
LINE
  8
0
 10
4.52179
 20
6.61229
 11
4.57439
 21
6.72638
  0
LINE
  8
0
 10
4.57439
 20
6.72638
 11
4.63577
 21
6.83598
  0
LINE
  8
0
 10
4.63577
 20
6.83598
 11
4.70557
 21
6.94044
  0
LINE
  8
0
 10
4.70557
 20
6.94044
 11
4.78334
 21
7.03911
  0
LINE
  8
0
 10
4.78334
 20
7.03911
 11
4.86862
 21
7.13136
  0
LINE
  8
0
 10
4.86862
 20
7.13136
 11
4.96088
 21
7.21664
  0
LINE
  8
0
 10
4.96088
 20
7.21664
 11
5.05954
 21
7.29442
  0
LINE
  8
0
 10
5.05954
 20
7.29442
 11
5.164
 21
7.36421
  0
LINE
  8
0
 10
5.164
 20
7.36421
 11
5.27361
 21
7.4256
  0
LINE
  8
0
 10
5.27361
 20
7.4256
 11
5.3877
 21
7.4782
  0
LINE
  8
0
 10
5.3877
 20
7.4782
 11
5.50557
 21
7.52168
  0
LINE
  8
0
 10
5.50557
 20
7.52168
 11
5.62648
 21
7.55579
  0
LINE
  8
0
 10
5.62648
 20
7.55579
 11
5.74969
 21
7.58029
  0
LINE
  8
0
 10
5.74969
 20
7.58029
 11
5.87445
 21
7.59506
  0
LINE
  8
0
 10
5.87445
 20
7.59506
 11
6
 21
7.59999
  0
LINE
  8
0
 10
6
 20
7.59999
 11
6.12553
 21
7.59506
  0
LINE
  8
0
 10
6.12553
 20
7.59506
 11
6.25029
 21
7.58029
  0
LINE
  8
0
 10
6.25029
 20
7.58029
 11
6.3735
 21
7.55579
  0
LINE
  8
0
 10
6.3735
 20
7.55579
 11
6.49442
 21
7.52168
  0
LINE
  8
0
 10
6.49442
 20
7.52168
 11
6.61229
 21
7.4782
  0
LINE
  8
0
 10
6.61229
 20
7.4782
 11
6.72638
 21
7.4256
  0
LINE
  8
0
 10
6.72638
 20
7.4256
 11
6.83598
 21
7.36421
  0
LINE
  8
0
 10
6.83598
 20
7.36421
 11
6.94044
 21
7.29442
  0
LINE
  8
0
 10
6.94044
 20
7.29442
 11
7.03911
 21
7.21664
  0
LINE
  8
0
 10
7.03911
 20
7.21664
 11
7.13136
 21
7.13136
  0
LINE
  8
0
 10
7.13136
 20
7.13136
 11
7.21664
 21
7.03911
  0
LINE
  8
0
 10
7.21664
 20
7.03911
 11
7.29442
 21
6.94044
  0
LINE
  8
0
 10
7.29442
 20
6.94044
 11
7.36421
 21
6.83598
  0
LINE
  8
0
 10
7.36421
 20
6.83598
 11
7.4256
 21
6.72638
  0
LINE
  8
0
 10
7.4256
 20
6.72638
 11
7.4782
 21
6.61229
  0
LINE
  8
0
 10
7.4782
 20
6.61229
 11
7.52168
 21
6.49442
  0
LINE
  8
0
 10
7.52168
 20
6.49442
 11
7.55579
 21
6.3735
  0
LINE
  8
0
 10
7.55579
 20
6.3735
 11
7.58029
 21
6.25029
  0
LINE
  8
0
 10
7.58029
 20
6.25029
 11
7.59506
 21
6.12553
  0
LINE
  8
0
 10
7.59506
 20
6.12553
 11
7.59999
 21
6
  0
LINE
  8
0
 10
7.59999
 20
6
 11
7.59506
 21
5.87445
  0
LINE
  8
0
 10
7.59506
 20
5.87445
 11
7.58029
 21
5.74969
  0
LINE
  8
0
 10
7.58029
 20
5.74969
 11
7.55579
 21
5.62648
  0
LINE
  8
0
 10
7.55579
 20
5.62648
 11
7.52168
 21
5.50557
  0
LINE
  8
0
 10
7.52168
 20
5.50557
 11
7.4782
 21
5.3877
  0
LINE
  8
0
 10
7.4782
 20
5.3877
 11
7.4256
 21
5.27361
  0
LINE
  8
0
 10
7.4256
 20
5.27361
 11
7.36421
 21
5.164
  0
LINE
  8
0
 10
7.36421
 20
5.164
 11
7.29442
 21
5.05954
  0
LINE
  8
0
 10
7.29442
 20
5.05954
 11
7.21664
 21
4.96088
  0
LINE
  8
0
 10
7.21664
 20
4.96088
 11
7.13136
 21
4.86862
  0
LINE
  8
0
 10
7.13136
 20
4.86862
 11
7.03911
 21
4.78334
  0
LINE
  8
0
 10
7.03911
 20
4.78334
 11
6.94044
 21
4.70557
  0
LINE
  8
0
 10
6.94044
 20
4.70557
 11
6.83598
 21
4.63577
  0
LINE
  8
0
 10
6.83598
 20
4.63577
 11
6.72638
 21
4.57439
  0
LINE
  8
0
 10
6.72638
 20
4.57439
 11
6.61229
 21
4.52179
  0
LINE
  8
0
 10
6.61229
 20
4.52179
 11
6.49442
 21
4.4783
  0
LINE
  8
0
 10
6.49442
 20
4.4783
 11
6.3735
 21
4.4442
  0
LINE
  8
0
 10
6.3735
 20
4.4442
 11
6.25029
 21
4.41969
  0
LINE
  8
0
 10
6.25029
 20
4.41969
 11
6.12553
 21
4.40492
  0
LINE
  8
0
 10
6.12553
 20
4.40492
 11
6
 21
4.39999
  0
LINE
  8
0
 10
6
 20
4.39999
 11
5.87445
 21
4.40492
  0
LINE
  8
0
 10
141.874
 20
4.40492
 11
141.75
 21
4.41969
  0
LINE
  8
0
 10
141.75
 20
4.41969
 11
141.626
 21
4.4442
  0
LINE
  8
0
 10
141.626
 20
4.4442
 11
141.506
 21
4.4783
  0
LINE
  8
0
 10
141.506
 20
4.4783
 11
141.388
 21
4.52179
  0
LINE
  8
0
 10
141.388
 20
4.52179
 11
141.274
 21
4.57439
  0
LINE
  8
0
 10
141.274
 20
4.57439
 11
141.164
 21
4.63577
  0
LINE
  8
0
 10
141.164
 20
4.63577
 11
141.06
 21
4.70557
  0
LINE
  8
0
 10
141.06
 20
4.70557
 11
140.961
 21
4.78334
  0
LINE
  8
0
 10
140.961
 20
4.78334
 11
140.869
 21
4.86862
  0
LINE
  8
0
 10
140.869
 20
4.86862
 11
140.783
 21
4.96088
  0
LINE
  8
0
 10
140.783
 20
4.96088
 11
140.706
 21
5.05954
  0
LINE
  8
0
 10
140.706
 20
5.05954
 11
140.636
 21
5.164
  0
LINE
  8
0
 10
140.636
 20
5.164
 11
140.574
 21
5.27361
  0
LINE
  8
0
 10
140.574
 20
5.27361
 11
140.522
 21
5.3877
  0
LINE
  8
0
 10
140.522
 20
5.3877
 11
140.478
 21
5.50557
  0
LINE
  8
0
 10
140.478
 20
5.50557
 11
140.444
 21
5.62648
  0
LINE
  8
0
 10
140.444
 20
5.62648
 11
140.42
 21
5.74969
  0
LINE
  8
0
 10
140.42
 20
5.74969
 11
140.405
 21
5.87445
  0
LINE
  8
0
 10
140.405
 20
5.87445
 11
140.4
 21
6
  0
LINE
  8
0
 10
140.4
 20
6
 11
140.405
 21
6.12553
  0
LINE
  8
0
 10
140.405
 20
6.12553
 11
140.42
 21
6.25029
  0
LINE
  8
0
 10
140.42
 20
6.25029
 11
140.444
 21
6.3735
  0
LINE
  8
0
 10
140.444
 20
6.3735
 11
140.478
 21
6.49442
  0
LINE
  8
0
 10
140.478
 20
6.49442
 11
140.522
 21
6.61229
  0
LINE
  8
0
 10
140.522
 20
6.61229
 11
140.574
 21
6.72638
  0
LINE
  8
0
 10
140.574
 20
6.72638
 11
140.636
 21
6.83598
  0
LINE
  8
0
 10
140.636
 20
6.83598
 11
140.706
 21
6.94044
  0
LINE
  8
0
 10
140.706
 20
6.94044
 11
140.783
 21
7.03911
  0
LINE
  8
0
 10
140.783
 20
7.03911
 11
140.869
 21
7.13136
  0
LINE
  8
0
 10
140.869
 20
7.13136
 11
140.961
 21
7.21664
  0
LINE
  8
0
 10
140.961
 20
7.21664
 11
141.06
 21
7.29442
  0
LINE
  8
0
 10
141.06
 20
7.29442
 11
141.164
 21
7.36421
  0
LINE
  8
0
 10
141.164
 20
7.36421
 11
141.274
 21
7.4256
  0
LINE
  8
0
 10
141.274
 20
7.4256
 11
141.388
 21
7.4782
  0
LINE
  8
0
 10
141.388
 20
7.4782
 11
141.506
 21
7.52168
  0
LINE
  8
0
 10
141.506
 20
7.52168
 11
141.626
 21
7.55579
  0
LINE
  8
0
 10
141.626
 20
7.55579
 11
141.75
 21
7.58029
  0
LINE
  8
0
 10
141.75
 20
7.58029
 11
141.874
 21
7.59506
  0
LINE
  8
0
 10
141.874
 20
7.59506
 11
142
 21
7.59999
  0
LINE
  8
0
 10
142
 20
7.59999
 11
142.126
 21
7.59506
  0
LINE
  8
0
 10
142.126
 20
7.59506
 11
142.25
 21
7.58029
  0
LINE
  8
0
 10
142.25
 20
7.58029
 11
142.374
 21
7.55579
  0
LINE
  8
0
 10
142.374
 20
7.55579
 11
142.494
 21
7.52168
  0
LINE
  8
0
 10
142.494
 20
7.52168
 11
142.612
 21
7.4782
  0
LINE
  8
0
 10
142.612
 20
7.4782
 11
142.726
 21
7.4256
  0
LINE
  8
0
 10
142.726
 20
7.4256
 11
142.836
 21
7.36421
  0
LINE
  8
0
 10
142.836
 20
7.36421
 11
142.94
 21
7.29442
  0
LINE
  8
0
 10
142.94
 20
7.29442
 11
143.039
 21
7.21664
  0
LINE
  8
0
 10
143.039
 20
7.21664
 11
143.131
 21
7.13136
  0
LINE
  8
0
 10
143.131
 20
7.13136
 11
143.217
 21
7.03911
  0
LINE
  8
0
 10
143.217
 20
7.03911
 11
143.294
 21
6.94044
  0
LINE
  8
0
 10
143.294
 20
6.94044
 11
143.364
 21
6.83598
  0
LINE
  8
0
 10
143.364
 20
6.83598
 11
143.426
 21
6.72638
  0
LINE
  8
0
 10
143.426
 20
6.72638
 11
143.478
 21
6.61229
  0
LINE
  8
0
 10
143.478
 20
6.61229
 11
143.522
 21
6.49442
  0
LINE
  8
0
 10
143.522
 20
6.49442
 11
143.556
 21
6.3735
  0
LINE
  8
0
 10
143.556
 20
6.3735
 11
143.58
 21
6.25029
  0
LINE
  8
0
 10
143.58
 20
6.25029
 11
143.595
 21
6.12553
  0
LINE
  8
0
 10
143.595
 20
6.12553
 11
143.6
 21
6
  0
LINE
  8
0
 10
143.6
 20
6
 11
143.595
 21
5.87445
  0
LINE
  8
0
 10
143.595
 20
5.87445
 11
143.58
 21
5.74969
  0
LINE
  8
0
 10
143.58
 20
5.74969
 11
143.556
 21
5.62648
  0
LINE
  8
0
 10
143.556
 20
5.62648
 11
143.522
 21
5.50557
  0
LINE
  8
0
 10
143.522
 20
5.50557
 11
143.478
 21
5.3877
  0
LINE
  8
0
 10
143.478
 20
5.3877
 11
143.426
 21
5.27361
  0
LINE
  8
0
 10
143.426
 20
5.27361
 11
143.364
 21
5.164
  0
LINE
  8
0
 10
143.364
 20
5.164
 11
143.294
 21
5.05954
  0
LINE
  8
0
 10
143.294
 20
5.05954
 11
143.217
 21
4.96088
  0
LINE
  8
0
 10
143.217
 20
4.96088
 11
143.131
 21
4.86862
  0
LINE
  8
0
 10
143.131
 20
4.86862
 11
143.039
 21
4.78334
  0
LINE
  8
0
 10
143.039
 20
4.78334
 11
142.94
 21
4.70557
  0
LINE
  8
0
 10
142.94
 20
4.70557
 11
142.836
 21
4.63577
  0
LINE
  8
0
 10
142.836
 20
4.63577
 11
142.726
 21
4.57439
  0
LINE
  8
0
 10
142.726
 20
4.57439
 11
142.612
 21
4.52179
  0
LINE
  8
0
 10
142.612
 20
4.52179
 11
142.494
 21
4.4783
  0
LINE
  8
0
 10
142.494
 20
4.4783
 11
142.374
 21
4.4442
  0
LINE
  8
0
 10
142.374
 20
4.4442
 11
142.25
 21
4.41969
  0
LINE
  8
0
 10
142.25
 20
4.41969
 11
142.126
 21
4.40492
  0
LINE
  8
0
 10
142.126
 20
4.40492
 11
142
 21
4.39999
  0
LINE
  8
0
 10
142
 20
4.39999
 11
141.874
 21
4.40492
  0
LINE
  8
0
 10
73.8745
 20
4.40492
 11
73.7497
 21
4.41969
  0
LINE
  8
0
 10
73.7497
 20
4.41969
 11
73.6265
 21
4.4442
  0
LINE
  8
0
 10
73.6265
 20
4.4442
 11
73.5056
 21
4.4783
  0
LINE
  8
0
 10
73.5056
 20
4.4783
 11
73.3877
 21
4.52179
  0
LINE
  8
0
 10
73.3877
 20
4.52179
 11
73.2736
 21
4.57439
  0
LINE
  8
0
 10
73.2736
 20
4.57439
 11
73.164
 21
4.63577
  0
LINE
  8
0
 10
73.164
 20
4.63577
 11
73.0595
 21
4.70557
  0
LINE
  8
0
 10
73.0595
 20
4.70557
 11
72.9609
 21
4.78334
  0
LINE
  8
0
 10
72.9609
 20
4.78334
 11
72.8686
 21
4.86862
  0
LINE
  8
0
 10
72.8686
 20
4.86862
 11
72.7833
 21
4.96088
  0
LINE
  8
0
 10
72.7833
 20
4.96088
 11
72.7056
 21
5.05954
  0
LINE
  8
0
 10
72.7056
 20
5.05954
 11
72.6358
 21
5.164
  0
LINE
  8
0
 10
72.6358
 20
5.164
 11
72.5744
 21
5.27361
  0
LINE
  8
0
 10
72.5744
 20
5.27361
 11
72.5218
 21
5.3877
  0
LINE
  8
0
 10
72.5218
 20
5.3877
 11
72.4783
 21
5.50557
  0
LINE
  8
0
 10
72.4783
 20
5.50557
 11
72.4442
 21
5.62648
  0
LINE
  8
0
 10
72.4442
 20
5.62648
 11
72.4197
 21
5.74969
  0
LINE
  8
0
 10
72.4197
 20
5.74969
 11
72.4049
 21
5.87445
  0
LINE
  8
0
 10
72.4049
 20
5.87445
 11
72.4
 21
6
  0
LINE
  8
0
 10
72.4
 20
6
 11
72.4049
 21
6.12553
  0
LINE
  8
0
 10
72.4049
 20
6.12553
 11
72.4197
 21
6.25029
  0
LINE
  8
0
 10
72.4197
 20
6.25029
 11
72.4442
 21
6.3735
  0
LINE
  8
0
 10
72.4442
 20
6.3735
 11
72.4783
 21
6.49442
  0
LINE
  8
0
 10
72.4783
 20
6.49442
 11
72.5218
 21
6.61229
  0
LINE
  8
0
 10
72.5218
 20
6.61229
 11
72.5744
 21
6.72638
  0
LINE
  8
0
 10
72.5744
 20
6.72638
 11
72.6358
 21
6.83598
  0
LINE
  8
0
 10
72.6358
 20
6.83598
 11
72.7056
 21
6.94044
  0
LINE
  8
0
 10
72.7056
 20
6.94044
 11
72.7833
 21
7.03911
  0
LINE
  8
0
 10
72.7833
 20
7.03911
 11
72.8686
 21
7.13136
  0
LINE
  8
0
 10
72.8686
 20
7.13136
 11
72.9609
 21
7.21664
  0
LINE
  8
0
 10
72.9609
 20
7.21664
 11
73.0595
 21
7.29442
  0
LINE
  8
0
 10
73.0595
 20
7.29442
 11
73.164
 21
7.36421
  0
LINE
  8
0
 10
73.164
 20
7.36421
 11
73.2736
 21
7.4256
  0
LINE
  8
0
 10
73.2736
 20
7.4256
 11
73.3877
 21
7.4782
  0
LINE
  8
0
 10
73.3877
 20
7.4782
 11
73.5056
 21
7.52168
  0
LINE
  8
0
 10
73.5056
 20
7.52168
 11
73.6265
 21
7.55579
  0
LINE
  8
0
 10
73.6265
 20
7.55579
 11
73.7497
 21
7.58029
  0
LINE
  8
0
 10
73.7497
 20
7.58029
 11
73.8745
 21
7.59506
  0
LINE
  8
0
 10
73.8745
 20
7.59506
 11
74
 21
7.59999
  0
LINE
  8
0
 10
74
 20
7.59999
 11
74.1255
 21
7.59506
  0
LINE
  8
0
 10
74.1255
 20
7.59506
 11
74.2503
 21
7.58029
  0
LINE
  8
0
 10
74.2503
 20
7.58029
 11
74.3735
 21
7.55579
  0
LINE
  8
0
 10
74.3735
 20
7.55579
 11
74.4944
 21
7.52168
  0
LINE
  8
0
 10
74.4944
 20
7.52168
 11
74.6123
 21
7.4782
  0
LINE
  8
0
 10
74.6123
 20
7.4782
 11
74.7264
 21
7.4256
  0
LINE
  8
0
 10
74.7264
 20
7.4256
 11
74.836
 21
7.36421
  0
LINE
  8
0
 10
74.836
 20
7.36421
 11
74.9404
 21
7.29442
  0
LINE
  8
0
 10
74.9404
 20
7.29442
 11
75.0391
 21
7.21664
  0
LINE
  8
0
 10
75.0391
 20
7.21664
 11
75.1314
 21
7.13136
  0
LINE
  8
0
 10
75.1314
 20
7.13136
 11
75.2166
 21
7.03911
  0
LINE
  8
0
 10
75.2166
 20
7.03911
 11
75.2944
 21
6.94044
  0
LINE
  8
0
 10
75.2944
 20
6.94044
 11
75.3642
 21
6.83598
  0
LINE
  8
0
 10
75.3642
 20
6.83598
 11
75.4256
 21
6.72638
  0
LINE
  8
0
 10
75.4256
 20
6.72638
 11
75.4782
 21
6.61229
  0
LINE
  8
0
 10
75.4782
 20
6.61229
 11
75.5217
 21
6.49442
  0
LINE
  8
0
 10
75.5217
 20
6.49442
 11
75.5558
 21
6.3735
  0
LINE
  8
0
 10
75.5558
 20
6.3735
 11
75.5803
 21
6.25029
  0
LINE
  8
0
 10
75.5803
 20
6.25029
 11
75.5951
 21
6.12553
  0
LINE
  8
0
 10
75.5951
 20
6.12553
 11
75.6
 21
6
  0
LINE
  8
0
 10
75.6
 20
6
 11
75.5951
 21
5.87445
  0
LINE
  8
0
 10
75.5951
 20
5.87445
 11
75.5803
 21
5.74969
  0
LINE
  8
0
 10
75.5803
 20
5.74969
 11
75.5558
 21
5.62648
  0
LINE
  8
0
 10
75.5558
 20
5.62648
 11
75.5217
 21
5.50557
  0
LINE
  8
0
 10
75.5217
 20
5.50557
 11
75.4782
 21
5.3877
  0
LINE
  8
0
 10
75.4782
 20
5.3877
 11
75.4256
 21
5.27361
  0
LINE
  8
0
 10
75.4256
 20
5.27361
 11
75.3642
 21
5.164
  0
LINE
  8
0
 10
75.3642
 20
5.164
 11
75.2944
 21
5.05954
  0
LINE
  8
0
 10
75.2944
 20
5.05954
 11
75.2166
 21
4.96088
  0
LINE
  8
0
 10
75.2166
 20
4.96088
 11
75.1314
 21
4.86862
  0
LINE
  8
0
 10
75.1314
 20
4.86862
 11
75.0391
 21
4.78334
  0
LINE
  8
0
 10
75.0391
 20
4.78334
 11
74.9404
 21
4.70557
  0
LINE
  8
0
 10
74.9404
 20
4.70557
 11
74.836
 21
4.63577
  0
LINE
  8
0
 10
74.836
 20
4.63577
 11
74.7264
 21
4.57439
  0
LINE
  8
0
 10
74.7264
 20
4.57439
 11
74.6123
 21
4.52179
  0
LINE
  8
0
 10
74.6123
 20
4.52179
 11
74.4944
 21
4.4783
  0
LINE
  8
0
 10
74.4944
 20
4.4783
 11
74.3735
 21
4.4442
  0
LINE
  8
0
 10
74.3735
 20
4.4442
 11
74.2503
 21
4.41969
  0
LINE
  8
0
 10
74.2503
 20
4.41969
 11
74.1255
 21
4.40492
  0
LINE
  8
0
 10
74.1255
 20
4.40492
 11
74
 21
4.39999
  0
LINE
  8
0
 10
74
 20
4.39999
 11
73.8745
 21
4.40492
  0
ENDSEC
  0
SECTION
  2
OBJECTS
  0
DICTIONARY
  0
ENDSEC
  0
EOF
