  0
SECTION
  2
BLOCKS
  0
ENDSEC
  0
SECTION
  2
ENTITIES
  0
LINE
  8
0
 10
102
 20
210
 11
0
 21
210
  0
LINE
  8
0
 10
0
 20
210
 11
0
 21
0
  0
LINE
  8
0
 10
0
 20
0
 11
102
 21
0
  0
LINE
  8
0
 10
102
 20
0
 11
102
 21
210
  0
LINE
  8
0
 10
5.87445
 20
202.405
 11
5.74969
 21
202.42
  0
LINE
  8
0
 10
5.74969
 20
202.42
 11
5.62648
 21
202.444
  0
LINE
  8
0
 10
5.62648
 20
202.444
 11
5.50557
 21
202.478
  0
LINE
  8
0
 10
5.50557
 20
202.478
 11
5.3877
 21
202.522
  0
LINE
  8
0
 10
5.3877
 20
202.522
 11
5.27361
 21
202.574
  0
LINE
  8
0
 10
5.27361
 20
202.574
 11
5.164
 21
202.636
  0
LINE
  8
0
 10
5.164
 20
202.636
 11
5.05954
 21
202.706
  0
LINE
  8
0
 10
5.05954
 20
202.706
 11
4.96088
 21
202.783
  0
LINE
  8
0
 10
4.96088
 20
202.783
 11
4.86862
 21
202.869
  0
LINE
  8
0
 10
4.86862
 20
202.869
 11
4.78334
 21
202.961
  0
LINE
  8
0
 10
4.78334
 20
202.961
 11
4.70557
 21
203.06
  0
LINE
  8
0
 10
4.70557
 20
203.06
 11
4.63577
 21
203.164
  0
LINE
  8
0
 10
4.63577
 20
203.164
 11
4.57439
 21
203.274
  0
LINE
  8
0
 10
4.57439
 20
203.274
 11
4.52179
 21
203.388
  0
LINE
  8
0
 10
4.52179
 20
203.388
 11
4.4783
 21
203.506
  0
LINE
  8
0
 10
4.4783
 20
203.506
 11
4.4442
 21
203.626
  0
LINE
  8
0
 10
4.4442
 20
203.626
 11
4.41969
 21
203.75
  0
LINE
  8
0
 10
4.41969
 20
203.75
 11
4.40492
 21
203.874
  0
LINE
  8
0
 10
4.40492
 20
203.874
 11
4.39999
 21
204
  0
LINE
  8
0
 10
4.39999
 20
204
 11
4.40492
 21
204.126
  0
LINE
  8
0
 10
4.40492
 20
204.126
 11
4.41969
 21
204.25
  0
LINE
  8
0
 10
4.41969
 20
204.25
 11
4.4442
 21
204.374
  0
LINE
  8
0
 10
4.4442
 20
204.374
 11
4.4783
 21
204.494
  0
LINE
  8
0
 10
4.4783
 20
204.494
 11
4.52179
 21
204.612
  0
LINE
  8
0
 10
4.52179
 20
204.612
 11
4.57439
 21
204.726
  0
LINE
  8
0
 10
4.57439
 20
204.726
 11
4.63577
 21
204.836
  0
LINE
  8
0
 10
4.63577
 20
204.836
 11
4.70557
 21
204.94
  0
LINE
  8
0
 10
4.70557
 20
204.94
 11
4.78334
 21
205.039
  0
LINE
  8
0
 10
4.78334
 20
205.039
 11
4.86862
 21
205.131
  0
LINE
  8
0
 10
4.86862
 20
205.131
 11
4.96088
 21
205.217
  0
LINE
  8
0
 10
4.96088
 20
205.217
 11
5.05954
 21
205.294
  0
LINE
  8
0
 10
5.05954
 20
205.294
 11
5.164
 21
205.364
  0
LINE
  8
0
 10
5.164
 20
205.364
 11
5.27361
 21
205.426
  0
LINE
  8
0
 10
5.27361
 20
205.426
 11
5.3877
 21
205.478
  0
LINE
  8
0
 10
5.3877
 20
205.478
 11
5.50557
 21
205.522
  0
LINE
  8
0
 10
5.50557
 20
205.522
 11
5.62648
 21
205.556
  0
LINE
  8
0
 10
5.62648
 20
205.556
 11
5.74969
 21
205.58
  0
LINE
  8
0
 10
5.74969
 20
205.58
 11
5.87445
 21
205.595
  0
LINE
  8
0
 10
5.87445
 20
205.595
 11
6
 21
205.6
  0
LINE
  8
0
 10
6
 20
205.6
 11
6.12553
 21
205.595
  0
LINE
  8
0
 10
6.12553
 20
205.595
 11
6.25029
 21
205.58
  0
LINE
  8
0
 10
6.25029
 20
205.58
 11
6.3735
 21
205.556
  0
LINE
  8
0
 10
6.3735
 20
205.556
 11
6.49442
 21
205.522
  0
LINE
  8
0
 10
6.49442
 20
205.522
 11
6.61229
 21
205.478
  0
LINE
  8
0
 10
6.61229
 20
205.478
 11
6.72638
 21
205.426
  0
LINE
  8
0
 10
6.72638
 20
205.426
 11
6.83598
 21
205.364
  0
LINE
  8
0
 10
6.83598
 20
205.364
 11
6.94044
 21
205.294
  0
LINE
  8
0
 10
6.94044
 20
205.294
 11
7.03911
 21
205.217
  0
LINE
  8
0
 10
7.03911
 20
205.217
 11
7.13136
 21
205.131
  0
LINE
  8
0
 10
7.13136
 20
205.131
 11
7.21664
 21
205.039
  0
LINE
  8
0
 10
7.21664
 20
205.039
 11
7.29442
 21
204.94
  0
LINE
  8
0
 10
7.29442
 20
204.94
 11
7.36421
 21
204.836
  0
LINE
  8
0
 10
7.36421
 20
204.836
 11
7.4256
 21
204.726
  0
LINE
  8
0
 10
7.4256
 20
204.726
 11
7.4782
 21
204.612
  0
LINE
  8
0
 10
7.4782
 20
204.612
 11
7.52168
 21
204.494
  0
LINE
  8
0
 10
7.52168
 20
204.494
 11
7.55579
 21
204.374
  0
LINE
  8
0
 10
7.55579
 20
204.374
 11
7.58029
 21
204.25
  0
LINE
  8
0
 10
7.58029
 20
204.25
 11
7.59506
 21
204.126
  0
LINE
  8
0
 10
7.59506
 20
204.126
 11
7.59999
 21
204
  0
LINE
  8
0
 10
7.59999
 20
204
 11
7.59506
 21
203.874
  0
LINE
  8
0
 10
7.59506
 20
203.874
 11
7.58029
 21
203.75
  0
LINE
  8
0
 10
7.58029
 20
203.75
 11
7.55579
 21
203.626
  0
LINE
  8
0
 10
7.55579
 20
203.626
 11
7.52168
 21
203.506
  0
LINE
  8
0
 10
7.52168
 20
203.506
 11
7.4782
 21
203.388
  0
LINE
  8
0
 10
7.4782
 20
203.388
 11
7.4256
 21
203.274
  0
LINE
  8
0
 10
7.4256
 20
203.274
 11
7.36421
 21
203.164
  0
LINE
  8
0
 10
7.36421
 20
203.164
 11
7.29442
 21
203.06
  0
LINE
  8
0
 10
7.29442
 20
203.06
 11
7.21664
 21
202.961
  0
LINE
  8
0
 10
7.21664
 20
202.961
 11
7.13136
 21
202.869
  0
LINE
  8
0
 10
7.13136
 20
202.869
 11
7.03911
 21
202.783
  0
LINE
  8
0
 10
7.03911
 20
202.783
 11
6.94044
 21
202.706
  0
LINE
  8
0
 10
6.94044
 20
202.706
 11
6.83598
 21
202.636
  0
LINE
  8
0
 10
6.83598
 20
202.636
 11
6.72638
 21
202.574
  0
LINE
  8
0
 10
6.72638
 20
202.574
 11
6.61229
 21
202.522
  0
LINE
  8
0
 10
6.61229
 20
202.522
 11
6.49442
 21
202.478
  0
LINE
  8
0
 10
6.49442
 20
202.478
 11
6.3735
 21
202.444
  0
LINE
  8
0
 10
6.3735
 20
202.444
 11
6.25029
 21
202.42
  0
LINE
  8
0
 10
6.25029
 20
202.42
 11
6.12553
 21
202.405
  0
LINE
  8
0
 10
6.12553
 20
202.405
 11
6
 21
202.4
  0
LINE
  8
0
 10
6
 20
202.4
 11
5.87445
 21
202.405
  0
LINE
  8
0
 10
95.8745
 20
202.405
 11
95.7497
 21
202.42
  0
LINE
  8
0
 10
95.7497
 20
202.42
 11
95.6265
 21
202.444
  0
LINE
  8
0
 10
95.6265
 20
202.444
 11
95.5056
 21
202.478
  0
LINE
  8
0
 10
95.5056
 20
202.478
 11
95.3877
 21
202.522
  0
LINE
  8
0
 10
95.3877
 20
202.522
 11
95.2736
 21
202.574
  0
LINE
  8
0
 10
95.2736
 20
202.574
 11
95.164
 21
202.636
  0
LINE
  8
0
 10
95.164
 20
202.636
 11
95.0595
 21
202.706
  0
LINE
  8
0
 10
95.0595
 20
202.706
 11
94.9609
 21
202.783
  0
LINE
  8
0
 10
94.9609
 20
202.783
 11
94.8686
 21
202.869
  0
LINE
  8
0
 10
94.8686
 20
202.869
 11
94.7833
 21
202.961
  0
LINE
  8
0
 10
94.7833
 20
202.961
 11
94.7056
 21
203.06
  0
LINE
  8
0
 10
94.7056
 20
203.06
 11
94.6358
 21
203.164
  0
LINE
  8
0
 10
94.6358
 20
203.164
 11
94.5744
 21
203.274
  0
LINE
  8
0
 10
94.5744
 20
203.274
 11
94.5218
 21
203.388
  0
LINE
  8
0
 10
94.5218
 20
203.388
 11
94.4783
 21
203.506
  0
LINE
  8
0
 10
94.4783
 20
203.506
 11
94.4442
 21
203.626
  0
LINE
  8
0
 10
94.4442
 20
203.626
 11
94.4197
 21
203.75
  0
LINE
  8
0
 10
94.4197
 20
203.75
 11
94.4049
 21
203.874
  0
LINE
  8
0
 10
94.4049
 20
203.874
 11
94.4
 21
204
  0
LINE
  8
0
 10
94.4
 20
204
 11
94.4049
 21
204.126
  0
LINE
  8
0
 10
94.4049
 20
204.126
 11
94.4197
 21
204.25
  0
LINE
  8
0
 10
94.4197
 20
204.25
 11
94.4442
 21
204.374
  0
LINE
  8
0
 10
94.4442
 20
204.374
 11
94.4783
 21
204.494
  0
LINE
  8
0
 10
94.4783
 20
204.494
 11
94.5218
 21
204.612
  0
LINE
  8
0
 10
94.5218
 20
204.612
 11
94.5744
 21
204.726
  0
LINE
  8
0
 10
94.5744
 20
204.726
 11
94.6358
 21
204.836
  0
LINE
  8
0
 10
94.6358
 20
204.836
 11
94.7056
 21
204.94
  0
LINE
  8
0
 10
94.7056
 20
204.94
 11
94.7833
 21
205.039
  0
LINE
  8
0
 10
94.7833
 20
205.039
 11
94.8686
 21
205.131
  0
LINE
  8
0
 10
94.8686
 20
205.131
 11
94.9609
 21
205.217
  0
LINE
  8
0
 10
94.9609
 20
205.217
 11
95.0595
 21
205.294
  0
LINE
  8
0
 10
95.0595
 20
205.294
 11
95.164
 21
205.364
  0
LINE
  8
0
 10
95.164
 20
205.364
 11
95.2736
 21
205.426
  0
LINE
  8
0
 10
95.2736
 20
205.426
 11
95.3877
 21
205.478
  0
LINE
  8
0
 10
95.3877
 20
205.478
 11
95.5056
 21
205.522
  0
LINE
  8
0
 10
95.5056
 20
205.522
 11
95.6265
 21
205.556
  0
LINE
  8
0
 10
95.6265
 20
205.556
 11
95.7497
 21
205.58
  0
LINE
  8
0
 10
95.7497
 20
205.58
 11
95.8745
 21
205.595
  0
LINE
  8
0
 10
95.8745
 20
205.595
 11
96
 21
205.6
  0
LINE
  8
0
 10
96
 20
205.6
 11
96.1255
 21
205.595
  0
LINE
  8
0
 10
96.1255
 20
205.595
 11
96.2503
 21
205.58
  0
LINE
  8
0
 10
96.2503
 20
205.58
 11
96.3735
 21
205.556
  0
LINE
  8
0
 10
96.3735
 20
205.556
 11
96.4944
 21
205.522
  0
LINE
  8
0
 10
96.4944
 20
205.522
 11
96.6123
 21
205.478
  0
LINE
  8
0
 10
96.6123
 20
205.478
 11
96.7264
 21
205.426
  0
LINE
  8
0
 10
96.7264
 20
205.426
 11
96.836
 21
205.364
  0
LINE
  8
0
 10
96.836
 20
205.364
 11
96.9404
 21
205.294
  0
LINE
  8
0
 10
96.9404
 20
205.294
 11
97.0391
 21
205.217
  0
LINE
  8
0
 10
97.0391
 20
205.217
 11
97.1314
 21
205.131
  0
LINE
  8
0
 10
97.1314
 20
205.131
 11
97.2166
 21
205.039
  0
LINE
  8
0
 10
97.2166
 20
205.039
 11
97.2944
 21
204.94
  0
LINE
  8
0
 10
97.2944
 20
204.94
 11
97.3642
 21
204.836
  0
LINE
  8
0
 10
97.3642
 20
204.836
 11
97.4256
 21
204.726
  0
LINE
  8
0
 10
97.4256
 20
204.726
 11
97.4782
 21
204.612
  0
LINE
  8
0
 10
97.4782
 20
204.612
 11
97.5217
 21
204.494
  0
LINE
  8
0
 10
97.5217
 20
204.494
 11
97.5558
 21
204.374
  0
LINE
  8
0
 10
97.5558
 20
204.374
 11
97.5803
 21
204.25
  0
LINE
  8
0
 10
97.5803
 20
204.25
 11
97.5951
 21
204.126
  0
LINE
  8
0
 10
97.5951
 20
204.126
 11
97.6
 21
204
  0
LINE
  8
0
 10
97.6
 20
204
 11
97.5951
 21
203.874
  0
LINE
  8
0
 10
97.5951
 20
203.874
 11
97.5803
 21
203.75
  0
LINE
  8
0
 10
97.5803
 20
203.75
 11
97.5558
 21
203.626
  0
LINE
  8
0
 10
97.5558
 20
203.626
 11
97.5217
 21
203.506
  0
LINE
  8
0
 10
97.5217
 20
203.506
 11
97.4782
 21
203.388
  0
LINE
  8
0
 10
97.4782
 20
203.388
 11
97.4256
 21
203.274
  0
LINE
  8
0
 10
97.4256
 20
203.274
 11
97.3642
 21
203.164
  0
LINE
  8
0
 10
97.3642
 20
203.164
 11
97.2944
 21
203.06
  0
LINE
  8
0
 10
97.2944
 20
203.06
 11
97.2166
 21
202.961
  0
LINE
  8
0
 10
97.2166
 20
202.961
 11
97.1314
 21
202.869
  0
LINE
  8
0
 10
97.1314
 20
202.869
 11
97.0391
 21
202.783
  0
LINE
  8
0
 10
97.0391
 20
202.783
 11
96.9404
 21
202.706
  0
LINE
  8
0
 10
96.9404
 20
202.706
 11
96.836
 21
202.636
  0
LINE
  8
0
 10
96.836
 20
202.636
 11
96.7264
 21
202.574
  0
LINE
  8
0
 10
96.7264
 20
202.574
 11
96.6123
 21
202.522
  0
LINE
  8
0
 10
96.6123
 20
202.522
 11
96.4944
 21
202.478
  0
LINE
  8
0
 10
96.4944
 20
202.478
 11
96.3735
 21
202.444
  0
LINE
  8
0
 10
96.3735
 20
202.444
 11
96.2503
 21
202.42
  0
LINE
  8
0
 10
96.2503
 20
202.42
 11
96.1255
 21
202.405
  0
LINE
  8
0
 10
96.1255
 20
202.405
 11
96
 21
202.4
  0
LINE
  8
0
 10
96
 20
202.4
 11
95.8745
 21
202.405
  0
LINE
  8
0
 10
50.8745
 20
202.405
 11
50.7497
 21
202.42
  0
LINE
  8
0
 10
50.7497
 20
202.42
 11
50.6265
 21
202.444
  0
LINE
  8
0
 10
50.6265
 20
202.444
 11
50.5056
 21
202.478
  0
LINE
  8
0
 10
50.5056
 20
202.478
 11
50.3877
 21
202.522
  0
LINE
  8
0
 10
50.3877
 20
202.522
 11
50.2736
 21
202.574
  0
LINE
  8
0
 10
50.2736
 20
202.574
 11
50.164
 21
202.636
  0
LINE
  8
0
 10
50.164
 20
202.636
 11
50.0595
 21
202.706
  0
LINE
  8
0
 10
50.0595
 20
202.706
 11
49.9609
 21
202.783
  0
LINE
  8
0
 10
49.9609
 20
202.783
 11
49.8686
 21
202.869
  0
LINE
  8
0
 10
49.8686
 20
202.869
 11
49.7833
 21
202.961
  0
LINE
  8
0
 10
49.7833
 20
202.961
 11
49.7056
 21
203.06
  0
LINE
  8
0
 10
49.7056
 20
203.06
 11
49.6358
 21
203.164
  0
LINE
  8
0
 10
49.6358
 20
203.164
 11
49.5744
 21
203.274
  0
LINE
  8
0
 10
49.5744
 20
203.274
 11
49.5218
 21
203.388
  0
LINE
  8
0
 10
49.5218
 20
203.388
 11
49.4783
 21
203.506
  0
LINE
  8
0
 10
49.4783
 20
203.506
 11
49.4442
 21
203.626
  0
LINE
  8
0
 10
49.4442
 20
203.626
 11
49.4197
 21
203.75
  0
LINE
  8
0
 10
49.4197
 20
203.75
 11
49.4049
 21
203.874
  0
LINE
  8
0
 10
49.4049
 20
203.874
 11
49.4
 21
204
  0
LINE
  8
0
 10
49.4
 20
204
 11
49.4049
 21
204.126
  0
LINE
  8
0
 10
49.4049
 20
204.126
 11
49.4197
 21
204.25
  0
LINE
  8
0
 10
49.4197
 20
204.25
 11
49.4442
 21
204.374
  0
LINE
  8
0
 10
49.4442
 20
204.374
 11
49.4783
 21
204.494
  0
LINE
  8
0
 10
49.4783
 20
204.494
 11
49.5218
 21
204.612
  0
LINE
  8
0
 10
49.5218
 20
204.612
 11
49.5744
 21
204.726
  0
LINE
  8
0
 10
49.5744
 20
204.726
 11
49.6358
 21
204.836
  0
LINE
  8
0
 10
49.6358
 20
204.836
 11
49.7056
 21
204.94
  0
LINE
  8
0
 10
49.7056
 20
204.94
 11
49.7833
 21
205.039
  0
LINE
  8
0
 10
49.7833
 20
205.039
 11
49.8686
 21
205.131
  0
LINE
  8
0
 10
49.8686
 20
205.131
 11
49.9609
 21
205.217
  0
LINE
  8
0
 10
49.9609
 20
205.217
 11
50.0595
 21
205.294
  0
LINE
  8
0
 10
50.0595
 20
205.294
 11
50.164
 21
205.364
  0
LINE
  8
0
 10
50.164
 20
205.364
 11
50.2736
 21
205.426
  0
LINE
  8
0
 10
50.2736
 20
205.426
 11
50.3877
 21
205.478
  0
LINE
  8
0
 10
50.3877
 20
205.478
 11
50.5056
 21
205.522
  0
LINE
  8
0
 10
50.5056
 20
205.522
 11
50.6265
 21
205.556
  0
LINE
  8
0
 10
50.6265
 20
205.556
 11
50.7497
 21
205.58
  0
LINE
  8
0
 10
50.7497
 20
205.58
 11
50.8745
 21
205.595
  0
LINE
  8
0
 10
50.8745
 20
205.595
 11
51
 21
205.6
  0
LINE
  8
0
 10
51
 20
205.6
 11
51.1255
 21
205.595
  0
LINE
  8
0
 10
51.1255
 20
205.595
 11
51.2503
 21
205.58
  0
LINE
  8
0
 10
51.2503
 20
205.58
 11
51.3735
 21
205.556
  0
LINE
  8
0
 10
51.3735
 20
205.556
 11
51.4944
 21
205.522
  0
LINE
  8
0
 10
51.4944
 20
205.522
 11
51.6123
 21
205.478
  0
LINE
  8
0
 10
51.6123
 20
205.478
 11
51.7264
 21
205.426
  0
LINE
  8
0
 10
51.7264
 20
205.426
 11
51.836
 21
205.364
  0
LINE
  8
0
 10
51.836
 20
205.364
 11
51.9404
 21
205.294
  0
LINE
  8
0
 10
51.9404
 20
205.294
 11
52.0391
 21
205.217
  0
LINE
  8
0
 10
52.0391
 20
205.217
 11
52.1314
 21
205.131
  0
LINE
  8
0
 10
52.1314
 20
205.131
 11
52.2166
 21
205.039
  0
LINE
  8
0
 10
52.2166
 20
205.039
 11
52.2944
 21
204.94
  0
LINE
  8
0
 10
52.2944
 20
204.94
 11
52.3642
 21
204.836
  0
LINE
  8
0
 10
52.3642
 20
204.836
 11
52.4256
 21
204.726
  0
LINE
  8
0
 10
52.4256
 20
204.726
 11
52.4782
 21
204.612
  0
LINE
  8
0
 10
52.4782
 20
204.612
 11
52.5217
 21
204.494
  0
LINE
  8
0
 10
52.5217
 20
204.494
 11
52.5558
 21
204.374
  0
LINE
  8
0
 10
52.5558
 20
204.374
 11
52.5803
 21
204.25
  0
LINE
  8
0
 10
52.5803
 20
204.25
 11
52.5951
 21
204.126
  0
LINE
  8
0
 10
52.5951
 20
204.126
 11
52.6
 21
204
  0
LINE
  8
0
 10
52.6
 20
204
 11
52.5951
 21
203.874
  0
LINE
  8
0
 10
52.5951
 20
203.874
 11
52.5803
 21
203.75
  0
LINE
  8
0
 10
52.5803
 20
203.75
 11
52.5558
 21
203.626
  0
LINE
  8
0
 10
52.5558
 20
203.626
 11
52.5217
 21
203.506
  0
LINE
  8
0
 10
52.5217
 20
203.506
 11
52.4782
 21
203.388
  0
LINE
  8
0
 10
52.4782
 20
203.388
 11
52.4256
 21
203.274
  0
LINE
  8
0
 10
52.4256
 20
203.274
 11
52.3642
 21
203.164
  0
LINE
  8
0
 10
52.3642
 20
203.164
 11
52.2944
 21
203.06
  0
LINE
  8
0
 10
52.2944
 20
203.06
 11
52.2166
 21
202.961
  0
LINE
  8
0
 10
52.2166
 20
202.961
 11
52.1314
 21
202.869
  0
LINE
  8
0
 10
52.1314
 20
202.869
 11
52.0391
 21
202.783
  0
LINE
  8
0
 10
52.0391
 20
202.783
 11
51.9404
 21
202.706
  0
LINE
  8
0
 10
51.9404
 20
202.706
 11
51.836
 21
202.636
  0
LINE
  8
0
 10
51.836
 20
202.636
 11
51.7264
 21
202.574
  0
LINE
  8
0
 10
51.7264
 20
202.574
 11
51.6123
 21
202.522
  0
LINE
  8
0
 10
51.6123
 20
202.522
 11
51.4944
 21
202.478
  0
LINE
  8
0
 10
51.4944
 20
202.478
 11
51.3735
 21
202.444
  0
LINE
  8
0
 10
51.3735
 20
202.444
 11
51.2503
 21
202.42
  0
LINE
  8
0
 10
51.2503
 20
202.42
 11
51.1255
 21
202.405
  0
LINE
  8
0
 10
51.1255
 20
202.405
 11
51
 21
202.4
  0
LINE
  8
0
 10
51
 20
202.4
 11
50.8745
 21
202.405
  0
LINE
  8
0
 10
5.87445
 20
103.405
 11
5.74969
 21
103.42
  0
LINE
  8
0
 10
5.74969
 20
103.42
 11
5.62648
 21
103.444
  0
LINE
  8
0
 10
5.62648
 20
103.444
 11
5.50557
 21
103.478
  0
LINE
  8
0
 10
5.50557
 20
103.478
 11
5.3877
 21
103.522
  0
LINE
  8
0
 10
5.3877
 20
103.522
 11
5.27361
 21
103.574
  0
LINE
  8
0
 10
5.27361
 20
103.574
 11
5.164
 21
103.636
  0
LINE
  8
0
 10
5.164
 20
103.636
 11
5.05954
 21
103.706
  0
LINE
  8
0
 10
5.05954
 20
103.706
 11
4.96088
 21
103.783
  0
LINE
  8
0
 10
4.96088
 20
103.783
 11
4.86862
 21
103.869
  0
LINE
  8
0
 10
4.86862
 20
103.869
 11
4.78334
 21
103.961
  0
LINE
  8
0
 10
4.78334
 20
103.961
 11
4.70557
 21
104.06
  0
LINE
  8
0
 10
4.70557
 20
104.06
 11
4.63577
 21
104.164
  0
LINE
  8
0
 10
4.63577
 20
104.164
 11
4.57439
 21
104.274
  0
LINE
  8
0
 10
4.57439
 20
104.274
 11
4.52179
 21
104.388
  0
LINE
  8
0
 10
4.52179
 20
104.388
 11
4.4783
 21
104.506
  0
LINE
  8
0
 10
4.4783
 20
104.506
 11
4.4442
 21
104.626
  0
LINE
  8
0
 10
4.4442
 20
104.626
 11
4.41969
 21
104.75
  0
LINE
  8
0
 10
4.41969
 20
104.75
 11
4.40492
 21
104.874
  0
LINE
  8
0
 10
4.40492
 20
104.874
 11
4.39999
 21
105
  0
LINE
  8
0
 10
4.39999
 20
105
 11
4.40492
 21
105.126
  0
LINE
  8
0
 10
4.40492
 20
105.126
 11
4.41969
 21
105.25
  0
LINE
  8
0
 10
4.41969
 20
105.25
 11
4.4442
 21
105.374
  0
LINE
  8
0
 10
4.4442
 20
105.374
 11
4.4783
 21
105.494
  0
LINE
  8
0
 10
4.4783
 20
105.494
 11
4.52179
 21
105.612
  0
LINE
  8
0
 10
4.52179
 20
105.612
 11
4.57439
 21
105.726
  0
LINE
  8
0
 10
4.57439
 20
105.726
 11
4.63577
 21
105.836
  0
LINE
  8
0
 10
4.63577
 20
105.836
 11
4.70557
 21
105.94
  0
LINE
  8
0
 10
4.70557
 20
105.94
 11
4.78334
 21
106.039
  0
LINE
  8
0
 10
4.78334
 20
106.039
 11
4.86862
 21
106.131
  0
LINE
  8
0
 10
4.86862
 20
106.131
 11
4.96088
 21
106.217
  0
LINE
  8
0
 10
4.96088
 20
106.217
 11
5.05954
 21
106.294
  0
LINE
  8
0
 10
5.05954
 20
106.294
 11
5.164
 21
106.364
  0
LINE
  8
0
 10
5.164
 20
106.364
 11
5.27361
 21
106.426
  0
LINE
  8
0
 10
5.27361
 20
106.426
 11
5.3877
 21
106.478
  0
LINE
  8
0
 10
5.3877
 20
106.478
 11
5.50557
 21
106.522
  0
LINE
  8
0
 10
5.50557
 20
106.522
 11
5.62648
 21
106.556
  0
LINE
  8
0
 10
5.62648
 20
106.556
 11
5.74969
 21
106.58
  0
LINE
  8
0
 10
5.74969
 20
106.58
 11
5.87445
 21
106.595
  0
LINE
  8
0
 10
5.87445
 20
106.595
 11
6
 21
106.6
  0
LINE
  8
0
 10
6
 20
106.6
 11
6.12553
 21
106.595
  0
LINE
  8
0
 10
6.12553
 20
106.595
 11
6.25029
 21
106.58
  0
LINE
  8
0
 10
6.25029
 20
106.58
 11
6.3735
 21
106.556
  0
LINE
  8
0
 10
6.3735
 20
106.556
 11
6.49442
 21
106.522
  0
LINE
  8
0
 10
6.49442
 20
106.522
 11
6.61229
 21
106.478
  0
LINE
  8
0
 10
6.61229
 20
106.478
 11
6.72638
 21
106.426
  0
LINE
  8
0
 10
6.72638
 20
106.426
 11
6.83598
 21
106.364
  0
LINE
  8
0
 10
6.83598
 20
106.364
 11
6.94044
 21
106.294
  0
LINE
  8
0
 10
6.94044
 20
106.294
 11
7.03911
 21
106.217
  0
LINE
  8
0
 10
7.03911
 20
106.217
 11
7.13136
 21
106.131
  0
LINE
  8
0
 10
7.13136
 20
106.131
 11
7.21664
 21
106.039
  0
LINE
  8
0
 10
7.21664
 20
106.039
 11
7.29442
 21
105.94
  0
LINE
  8
0
 10
7.29442
 20
105.94
 11
7.36421
 21
105.836
  0
LINE
  8
0
 10
7.36421
 20
105.836
 11
7.4256
 21
105.726
  0
LINE
  8
0
 10
7.4256
 20
105.726
 11
7.4782
 21
105.612
  0
LINE
  8
0
 10
7.4782
 20
105.612
 11
7.52168
 21
105.494
  0
LINE
  8
0
 10
7.52168
 20
105.494
 11
7.55579
 21
105.374
  0
LINE
  8
0
 10
7.55579
 20
105.374
 11
7.58029
 21
105.25
  0
LINE
  8
0
 10
7.58029
 20
105.25
 11
7.59506
 21
105.126
  0
LINE
  8
0
 10
7.59506
 20
105.126
 11
7.59999
 21
105
  0
LINE
  8
0
 10
7.59999
 20
105
 11
7.59506
 21
104.874
  0
LINE
  8
0
 10
7.59506
 20
104.874
 11
7.58029
 21
104.75
  0
LINE
  8
0
 10
7.58029
 20
104.75
 11
7.55579
 21
104.626
  0
LINE
  8
0
 10
7.55579
 20
104.626
 11
7.52168
 21
104.506
  0
LINE
  8
0
 10
7.52168
 20
104.506
 11
7.4782
 21
104.388
  0
LINE
  8
0
 10
7.4782
 20
104.388
 11
7.4256
 21
104.274
  0
LINE
  8
0
 10
7.4256
 20
104.274
 11
7.36421
 21
104.164
  0
LINE
  8
0
 10
7.36421
 20
104.164
 11
7.29442
 21
104.06
  0
LINE
  8
0
 10
7.29442
 20
104.06
 11
7.21664
 21
103.961
  0
LINE
  8
0
 10
7.21664
 20
103.961
 11
7.13136
 21
103.869
  0
LINE
  8
0
 10
7.13136
 20
103.869
 11
7.03911
 21
103.783
  0
LINE
  8
0
 10
7.03911
 20
103.783
 11
6.94044
 21
103.706
  0
LINE
  8
0
 10
6.94044
 20
103.706
 11
6.83598
 21
103.636
  0
LINE
  8
0
 10
6.83598
 20
103.636
 11
6.72638
 21
103.574
  0
LINE
  8
0
 10
6.72638
 20
103.574
 11
6.61229
 21
103.522
  0
LINE
  8
0
 10
6.61229
 20
103.522
 11
6.49442
 21
103.478
  0
LINE
  8
0
 10
6.49442
 20
103.478
 11
6.3735
 21
103.444
  0
LINE
  8
0
 10
6.3735
 20
103.444
 11
6.25029
 21
103.42
  0
LINE
  8
0
 10
6.25029
 20
103.42
 11
6.12553
 21
103.405
  0
LINE
  8
0
 10
6.12553
 20
103.405
 11
6
 21
103.4
  0
LINE
  8
0
 10
6
 20
103.4
 11
5.87445
 21
103.405
  0
LINE
  8
0
 10
95.8745
 20
103.405
 11
95.7497
 21
103.42
  0
LINE
  8
0
 10
95.7497
 20
103.42
 11
95.6265
 21
103.444
  0
LINE
  8
0
 10
95.6265
 20
103.444
 11
95.5056
 21
103.478
  0
LINE
  8
0
 10
95.5056
 20
103.478
 11
95.3877
 21
103.522
  0
LINE
  8
0
 10
95.3877
 20
103.522
 11
95.2736
 21
103.574
  0
LINE
  8
0
 10
95.2736
 20
103.574
 11
95.164
 21
103.636
  0
LINE
  8
0
 10
95.164
 20
103.636
 11
95.0595
 21
103.706
  0
LINE
  8
0
 10
95.0595
 20
103.706
 11
94.9609
 21
103.783
  0
LINE
  8
0
 10
94.9609
 20
103.783
 11
94.8686
 21
103.869
  0
LINE
  8
0
 10
94.8686
 20
103.869
 11
94.7833
 21
103.961
  0
LINE
  8
0
 10
94.7833
 20
103.961
 11
94.7056
 21
104.06
  0
LINE
  8
0
 10
94.7056
 20
104.06
 11
94.6358
 21
104.164
  0
LINE
  8
0
 10
94.6358
 20
104.164
 11
94.5744
 21
104.274
  0
LINE
  8
0
 10
94.5744
 20
104.274
 11
94.5218
 21
104.388
  0
LINE
  8
0
 10
94.5218
 20
104.388
 11
94.4783
 21
104.506
  0
LINE
  8
0
 10
94.4783
 20
104.506
 11
94.4442
 21
104.626
  0
LINE
  8
0
 10
94.4442
 20
104.626
 11
94.4197
 21
104.75
  0
LINE
  8
0
 10
94.4197
 20
104.75
 11
94.4049
 21
104.874
  0
LINE
  8
0
 10
94.4049
 20
104.874
 11
94.4
 21
105
  0
LINE
  8
0
 10
94.4
 20
105
 11
94.4049
 21
105.126
  0
LINE
  8
0
 10
94.4049
 20
105.126
 11
94.4197
 21
105.25
  0
LINE
  8
0
 10
94.4197
 20
105.25
 11
94.4442
 21
105.374
  0
LINE
  8
0
 10
94.4442
 20
105.374
 11
94.4783
 21
105.494
  0
LINE
  8
0
 10
94.4783
 20
105.494
 11
94.5218
 21
105.612
  0
LINE
  8
0
 10
94.5218
 20
105.612
 11
94.5744
 21
105.726
  0
LINE
  8
0
 10
94.5744
 20
105.726
 11
94.6358
 21
105.836
  0
LINE
  8
0
 10
94.6358
 20
105.836
 11
94.7056
 21
105.94
  0
LINE
  8
0
 10
94.7056
 20
105.94
 11
94.7833
 21
106.039
  0
LINE
  8
0
 10
94.7833
 20
106.039
 11
94.8686
 21
106.131
  0
LINE
  8
0
 10
94.8686
 20
106.131
 11
94.9609
 21
106.217
  0
LINE
  8
0
 10
94.9609
 20
106.217
 11
95.0595
 21
106.294
  0
LINE
  8
0
 10
95.0595
 20
106.294
 11
95.164
 21
106.364
  0
LINE
  8
0
 10
95.164
 20
106.364
 11
95.2736
 21
106.426
  0
LINE
  8
0
 10
95.2736
 20
106.426
 11
95.3877
 21
106.478
  0
LINE
  8
0
 10
95.3877
 20
106.478
 11
95.5056
 21
106.522
  0
LINE
  8
0
 10
95.5056
 20
106.522
 11
95.6265
 21
106.556
  0
LINE
  8
0
 10
95.6265
 20
106.556
 11
95.7497
 21
106.58
  0
LINE
  8
0
 10
95.7497
 20
106.58
 11
95.8745
 21
106.595
  0
LINE
  8
0
 10
95.8745
 20
106.595
 11
96
 21
106.6
  0
LINE
  8
0
 10
96
 20
106.6
 11
96.1255
 21
106.595
  0
LINE
  8
0
 10
96.1255
 20
106.595
 11
96.2503
 21
106.58
  0
LINE
  8
0
 10
96.2503
 20
106.58
 11
96.3735
 21
106.556
  0
LINE
  8
0
 10
96.3735
 20
106.556
 11
96.4944
 21
106.522
  0
LINE
  8
0
 10
96.4944
 20
106.522
 11
96.6123
 21
106.478
  0
LINE
  8
0
 10
96.6123
 20
106.478
 11
96.7264
 21
106.426
  0
LINE
  8
0
 10
96.7264
 20
106.426
 11
96.836
 21
106.364
  0
LINE
  8
0
 10
96.836
 20
106.364
 11
96.9404
 21
106.294
  0
LINE
  8
0
 10
96.9404
 20
106.294
 11
97.0391
 21
106.217
  0
LINE
  8
0
 10
97.0391
 20
106.217
 11
97.1314
 21
106.131
  0
LINE
  8
0
 10
97.1314
 20
106.131
 11
97.2166
 21
106.039
  0
LINE
  8
0
 10
97.2166
 20
106.039
 11
97.2944
 21
105.94
  0
LINE
  8
0
 10
97.2944
 20
105.94
 11
97.3642
 21
105.836
  0
LINE
  8
0
 10
97.3642
 20
105.836
 11
97.4256
 21
105.726
  0
LINE
  8
0
 10
97.4256
 20
105.726
 11
97.4782
 21
105.612
  0
LINE
  8
0
 10
97.4782
 20
105.612
 11
97.5217
 21
105.494
  0
LINE
  8
0
 10
97.5217
 20
105.494
 11
97.5558
 21
105.374
  0
LINE
  8
0
 10
97.5558
 20
105.374
 11
97.5803
 21
105.25
  0
LINE
  8
0
 10
97.5803
 20
105.25
 11
97.5951
 21
105.126
  0
LINE
  8
0
 10
97.5951
 20
105.126
 11
97.6
 21
105
  0
LINE
  8
0
 10
97.6
 20
105
 11
97.5951
 21
104.874
  0
LINE
  8
0
 10
97.5951
 20
104.874
 11
97.5803
 21
104.75
  0
LINE
  8
0
 10
97.5803
 20
104.75
 11
97.5558
 21
104.626
  0
LINE
  8
0
 10
97.5558
 20
104.626
 11
97.5217
 21
104.506
  0
LINE
  8
0
 10
97.5217
 20
104.506
 11
97.4782
 21
104.388
  0
LINE
  8
0
 10
97.4782
 20
104.388
 11
97.4256
 21
104.274
  0
LINE
  8
0
 10
97.4256
 20
104.274
 11
97.3642
 21
104.164
  0
LINE
  8
0
 10
97.3642
 20
104.164
 11
97.2944
 21
104.06
  0
LINE
  8
0
 10
97.2944
 20
104.06
 11
97.2166
 21
103.961
  0
LINE
  8
0
 10
97.2166
 20
103.961
 11
97.1314
 21
103.869
  0
LINE
  8
0
 10
97.1314
 20
103.869
 11
97.0391
 21
103.783
  0
LINE
  8
0
 10
97.0391
 20
103.783
 11
96.9404
 21
103.706
  0
LINE
  8
0
 10
96.9404
 20
103.706
 11
96.836
 21
103.636
  0
LINE
  8
0
 10
96.836
 20
103.636
 11
96.7264
 21
103.574
  0
LINE
  8
0
 10
96.7264
 20
103.574
 11
96.6123
 21
103.522
  0
LINE
  8
0
 10
96.6123
 20
103.522
 11
96.4944
 21
103.478
  0
LINE
  8
0
 10
96.4944
 20
103.478
 11
96.3735
 21
103.444
  0
LINE
  8
0
 10
96.3735
 20
103.444
 11
96.2503
 21
103.42
  0
LINE
  8
0
 10
96.2503
 20
103.42
 11
96.1255
 21
103.405
  0
LINE
  8
0
 10
96.1255
 20
103.405
 11
96
 21
103.4
  0
LINE
  8
0
 10
96
 20
103.4
 11
95.8745
 21
103.405
  0
LINE
  8
0
 10
5.87445
 20
4.40492
 11
5.74969
 21
4.41969
  0
LINE
  8
0
 10
5.74969
 20
4.41969
 11
5.62648
 21
4.4442
  0
LINE
  8
0
 10
5.62648
 20
4.4442
 11
5.50557
 21
4.4783
  0
LINE
  8
0
 10
5.50557
 20
4.4783
 11
5.3877
 21
4.52179
  0
LINE
  8
0
 10
5.3877
 20
4.52179
 11
5.27361
 21
4.57439
  0
LINE
  8
0
 10
5.27361
 20
4.57439
 11
5.164
 21
4.63577
  0
LINE
  8
0
 10
5.164
 20
4.63577
 11
5.05954
 21
4.70557
  0
LINE
  8
0
 10
5.05954
 20
4.70557
 11
4.96088
 21
4.78334
  0
LINE
  8
0
 10
4.96088
 20
4.78334
 11
4.86862
 21
4.86862
  0
LINE
  8
0
 10
4.86862
 20
4.86862
 11
4.78334
 21
4.96088
  0
LINE
  8
0
 10
4.78334
 20
4.96088
 11
4.70557
 21
5.05954
  0
LINE
  8
0
 10
4.70557
 20
5.05954
 11
4.63577
 21
5.164
  0
LINE
  8
0
 10
4.63577
 20
5.164
 11
4.57439
 21
5.27361
  0
LINE
  8
0
 10
4.57439
 20
5.27361
 11
4.52179
 21
5.3877
  0
LINE
  8
0
 10
4.52179
 20
5.3877
 11
4.4783
 21
5.50557
  0
LINE
  8
0
 10
4.4783
 20
5.50557
 11
4.4442
 21
5.62648
  0
LINE
  8
0
 10
4.4442
 20
5.62648
 11
4.41969
 21
5.74969
  0
LINE
  8
0
 10
4.41969
 20
5.74969
 11
4.40492
 21
5.87445
  0
LINE
  8
0
 10
4.40492
 20
5.87445
 11
4.39999
 21
6
  0
LINE
  8
0
 10
4.39999
 20
6
 11
4.40492
 21
6.12553
  0
LINE
  8
0
 10
4.40492
 20
6.12553
 11
4.41969
 21
6.25029
  0
LINE
  8
0
 10
4.41969
 20
6.25029
 11
4.4442
 21
6.3735
  0
LINE
  8
0
 10
4.4442
 20
6.3735
 11
4.4783
 21
6.49442
  0
LINE
  8
0
 10
4.4783
 20
6.49442
 11
4.52179
 21
6.61229
  0
LINE
  8
0
 10
4.52179
 20
6.61229
 11
4.57439
 21
6.72638
  0
LINE
  8
0
 10
4.57439
 20
6.72638
 11
4.63577
 21
6.83598
  0
LINE
  8
0
 10
4.63577
 20
6.83598
 11
4.70557
 21
6.94044
  0
LINE
  8
0
 10
4.70557
 20
6.94044
 11
4.78334
 21
7.03911
  0
LINE
  8
0
 10
4.78334
 20
7.03911
 11
4.86862
 21
7.13136
  0
LINE
  8
0
 10
4.86862
 20
7.13136
 11
4.96088
 21
7.21664
  0
LINE
  8
0
 10
4.96088
 20
7.21664
 11
5.05954
 21
7.29442
  0
LINE
  8
0
 10
5.05954
 20
7.29442
 11
5.164
 21
7.36421
  0
LINE
  8
0
 10
5.164
 20
7.36421
 11
5.27361
 21
7.4256
  0
LINE
  8
0
 10
5.27361
 20
7.4256
 11
5.3877
 21
7.4782
  0
LINE
  8
0
 10
5.3877
 20
7.4782
 11
5.50557
 21
7.52168
  0
LINE
  8
0
 10
5.50557
 20
7.52168
 11
5.62648
 21
7.55579
  0
LINE
  8
0
 10
5.62648
 20
7.55579
 11
5.74969
 21
7.58029
  0
LINE
  8
0
 10
5.74969
 20
7.58029
 11
5.87445
 21
7.59506
  0
LINE
  8
0
 10
5.87445
 20
7.59506
 11
6
 21
7.59999
  0
LINE
  8
0
 10
6
 20
7.59999
 11
6.12553
 21
7.59506
  0
LINE
  8
0
 10
6.12553
 20
7.59506
 11
6.25029
 21
7.58029
  0
LINE
  8
0
 10
6.25029
 20
7.58029
 11
6.3735
 21
7.55579
  0
LINE
  8
0
 10
6.3735
 20
7.55579
 11
6.49442
 21
7.52168
  0
LINE
  8
0
 10
6.49442
 20
7.52168
 11
6.61229
 21
7.4782
  0
LINE
  8
0
 10
6.61229
 20
7.4782
 11
6.72638
 21
7.4256
  0
LINE
  8
0
 10
6.72638
 20
7.4256
 11
6.83598
 21
7.36421
  0
LINE
  8
0
 10
6.83598
 20
7.36421
 11
6.94044
 21
7.29442
  0
LINE
  8
0
 10
6.94044
 20
7.29442
 11
7.03911
 21
7.21664
  0
LINE
  8
0
 10
7.03911
 20
7.21664
 11
7.13136
 21
7.13136
  0
LINE
  8
0
 10
7.13136
 20
7.13136
 11
7.21664
 21
7.03911
  0
LINE
  8
0
 10
7.21664
 20
7.03911
 11
7.29442
 21
6.94044
  0
LINE
  8
0
 10
7.29442
 20
6.94044
 11
7.36421
 21
6.83598
  0
LINE
  8
0
 10
7.36421
 20
6.83598
 11
7.4256
 21
6.72638
  0
LINE
  8
0
 10
7.4256
 20
6.72638
 11
7.4782
 21
6.61229
  0
LINE
  8
0
 10
7.4782
 20
6.61229
 11
7.52168
 21
6.49442
  0
LINE
  8
0
 10
7.52168
 20
6.49442
 11
7.55579
 21
6.3735
  0
LINE
  8
0
 10
7.55579
 20
6.3735
 11
7.58029
 21
6.25029
  0
LINE
  8
0
 10
7.58029
 20
6.25029
 11
7.59506
 21
6.12553
  0
LINE
  8
0
 10
7.59506
 20
6.12553
 11
7.59999
 21
6
  0
LINE
  8
0
 10
7.59999
 20
6
 11
7.59506
 21
5.87445
  0
LINE
  8
0
 10
7.59506
 20
5.87445
 11
7.58029
 21
5.74969
  0
LINE
  8
0
 10
7.58029
 20
5.74969
 11
7.55579
 21
5.62648
  0
LINE
  8
0
 10
7.55579
 20
5.62648
 11
7.52168
 21
5.50557
  0
LINE
  8
0
 10
7.52168
 20
5.50557
 11
7.4782
 21
5.3877
  0
LINE
  8
0
 10
7.4782
 20
5.3877
 11
7.4256
 21
5.27361
  0
LINE
  8
0
 10
7.4256
 20
5.27361
 11
7.36421
 21
5.164
  0
LINE
  8
0
 10
7.36421
 20
5.164
 11
7.29442
 21
5.05954
  0
LINE
  8
0
 10
7.29442
 20
5.05954
 11
7.21664
 21
4.96088
  0
LINE
  8
0
 10
7.21664
 20
4.96088
 11
7.13136
 21
4.86862
  0
LINE
  8
0
 10
7.13136
 20
4.86862
 11
7.03911
 21
4.78334
  0
LINE
  8
0
 10
7.03911
 20
4.78334
 11
6.94044
 21
4.70557
  0
LINE
  8
0
 10
6.94044
 20
4.70557
 11
6.83598
 21
4.63577
  0
LINE
  8
0
 10
6.83598
 20
4.63577
 11
6.72638
 21
4.57439
  0
LINE
  8
0
 10
6.72638
 20
4.57439
 11
6.61229
 21
4.52179
  0
LINE
  8
0
 10
6.61229
 20
4.52179
 11
6.49442
 21
4.4783
  0
LINE
  8
0
 10
6.49442
 20
4.4783
 11
6.3735
 21
4.4442
  0
LINE
  8
0
 10
6.3735
 20
4.4442
 11
6.25029
 21
4.41969
  0
LINE
  8
0
 10
6.25029
 20
4.41969
 11
6.12553
 21
4.40492
  0
LINE
  8
0
 10
6.12553
 20
4.40492
 11
6
 21
4.39999
  0
LINE
  8
0
 10
6
 20
4.39999
 11
5.87445
 21
4.40492
  0
LINE
  8
0
 10
95.8745
 20
4.40492
 11
95.7497
 21
4.41969
  0
LINE
  8
0
 10
95.7497
 20
4.41969
 11
95.6265
 21
4.4442
  0
LINE
  8
0
 10
95.6265
 20
4.4442
 11
95.5056
 21
4.4783
  0
LINE
  8
0
 10
95.5056
 20
4.4783
 11
95.3877
 21
4.52179
  0
LINE
  8
0
 10
95.3877
 20
4.52179
 11
95.2736
 21
4.57439
  0
LINE
  8
0
 10
95.2736
 20
4.57439
 11
95.164
 21
4.63577
  0
LINE
  8
0
 10
95.164
 20
4.63577
 11
95.0595
 21
4.70557
  0
LINE
  8
0
 10
95.0595
 20
4.70557
 11
94.9609
 21
4.78334
  0
LINE
  8
0
 10
94.9609
 20
4.78334
 11
94.8686
 21
4.86862
  0
LINE
  8
0
 10
94.8686
 20
4.86862
 11
94.7833
 21
4.96088
  0
LINE
  8
0
 10
94.7833
 20
4.96088
 11
94.7056
 21
5.05954
  0
LINE
  8
0
 10
94.7056
 20
5.05954
 11
94.6358
 21
5.164
  0
LINE
  8
0
 10
94.6358
 20
5.164
 11
94.5744
 21
5.27361
  0
LINE
  8
0
 10
94.5744
 20
5.27361
 11
94.5218
 21
5.3877
  0
LINE
  8
0
 10
94.5218
 20
5.3877
 11
94.4783
 21
5.50557
  0
LINE
  8
0
 10
94.4783
 20
5.50557
 11
94.4442
 21
5.62648
  0
LINE
  8
0
 10
94.4442
 20
5.62648
 11
94.4197
 21
5.74969
  0
LINE
  8
0
 10
94.4197
 20
5.74969
 11
94.4049
 21
5.87445
  0
LINE
  8
0
 10
94.4049
 20
5.87445
 11
94.4
 21
6
  0
LINE
  8
0
 10
94.4
 20
6
 11
94.4049
 21
6.12553
  0
LINE
  8
0
 10
94.4049
 20
6.12553
 11
94.4197
 21
6.25029
  0
LINE
  8
0
 10
94.4197
 20
6.25029
 11
94.4442
 21
6.3735
  0
LINE
  8
0
 10
94.4442
 20
6.3735
 11
94.4783
 21
6.49442
  0
LINE
  8
0
 10
94.4783
 20
6.49442
 11
94.5218
 21
6.61229
  0
LINE
  8
0
 10
94.5218
 20
6.61229
 11
94.5744
 21
6.72638
  0
LINE
  8
0
 10
94.5744
 20
6.72638
 11
94.6358
 21
6.83598
  0
LINE
  8
0
 10
94.6358
 20
6.83598
 11
94.7056
 21
6.94044
  0
LINE
  8
0
 10
94.7056
 20
6.94044
 11
94.7833
 21
7.03911
  0
LINE
  8
0
 10
94.7833
 20
7.03911
 11
94.8686
 21
7.13136
  0
LINE
  8
0
 10
94.8686
 20
7.13136
 11
94.9609
 21
7.21664
  0
LINE
  8
0
 10
94.9609
 20
7.21664
 11
95.0595
 21
7.29442
  0
LINE
  8
0
 10
95.0595
 20
7.29442
 11
95.164
 21
7.36421
  0
LINE
  8
0
 10
95.164
 20
7.36421
 11
95.2736
 21
7.4256
  0
LINE
  8
0
 10
95.2736
 20
7.4256
 11
95.3877
 21
7.4782
  0
LINE
  8
0
 10
95.3877
 20
7.4782
 11
95.5056
 21
7.52168
  0
LINE
  8
0
 10
95.5056
 20
7.52168
 11
95.6265
 21
7.55579
  0
LINE
  8
0
 10
95.6265
 20
7.55579
 11
95.7497
 21
7.58029
  0
LINE
  8
0
 10
95.7497
 20
7.58029
 11
95.8745
 21
7.59506
  0
LINE
  8
0
 10
95.8745
 20
7.59506
 11
96
 21
7.59999
  0
LINE
  8
0
 10
96
 20
7.59999
 11
96.1255
 21
7.59506
  0
LINE
  8
0
 10
96.1255
 20
7.59506
 11
96.2503
 21
7.58029
  0
LINE
  8
0
 10
96.2503
 20
7.58029
 11
96.3735
 21
7.55579
  0
LINE
  8
0
 10
96.3735
 20
7.55579
 11
96.4944
 21
7.52168
  0
LINE
  8
0
 10
96.4944
 20
7.52168
 11
96.6123
 21
7.4782
  0
LINE
  8
0
 10
96.6123
 20
7.4782
 11
96.7264
 21
7.4256
  0
LINE
  8
0
 10
96.7264
 20
7.4256
 11
96.836
 21
7.36421
  0
LINE
  8
0
 10
96.836
 20
7.36421
 11
96.9404
 21
7.29442
  0
LINE
  8
0
 10
96.9404
 20
7.29442
 11
97.0391
 21
7.21664
  0
LINE
  8
0
 10
97.0391
 20
7.21664
 11
97.1314
 21
7.13136
  0
LINE
  8
0
 10
97.1314
 20
7.13136
 11
97.2166
 21
7.03911
  0
LINE
  8
0
 10
97.2166
 20
7.03911
 11
97.2944
 21
6.94044
  0
LINE
  8
0
 10
97.2944
 20
6.94044
 11
97.3642
 21
6.83598
  0
LINE
  8
0
 10
97.3642
 20
6.83598
 11
97.4256
 21
6.72638
  0
LINE
  8
0
 10
97.4256
 20
6.72638
 11
97.4782
 21
6.61229
  0
LINE
  8
0
 10
97.4782
 20
6.61229
 11
97.5217
 21
6.49442
  0
LINE
  8
0
 10
97.5217
 20
6.49442
 11
97.5558
 21
6.3735
  0
LINE
  8
0
 10
97.5558
 20
6.3735
 11
97.5803
 21
6.25029
  0
LINE
  8
0
 10
97.5803
 20
6.25029
 11
97.5951
 21
6.12553
  0
LINE
  8
0
 10
97.5951
 20
6.12553
 11
97.6
 21
6
  0
LINE
  8
0
 10
97.6
 20
6
 11
97.5951
 21
5.87445
  0
LINE
  8
0
 10
97.5951
 20
5.87445
 11
97.5803
 21
5.74969
  0
LINE
  8
0
 10
97.5803
 20
5.74969
 11
97.5558
 21
5.62648
  0
LINE
  8
0
 10
97.5558
 20
5.62648
 11
97.5217
 21
5.50557
  0
LINE
  8
0
 10
97.5217
 20
5.50557
 11
97.4782
 21
5.3877
  0
LINE
  8
0
 10
97.4782
 20
5.3877
 11
97.4256
 21
5.27361
  0
LINE
  8
0
 10
97.4256
 20
5.27361
 11
97.3642
 21
5.164
  0
LINE
  8
0
 10
97.3642
 20
5.164
 11
97.2944
 21
5.05954
  0
LINE
  8
0
 10
97.2944
 20
5.05954
 11
97.2166
 21
4.96088
  0
LINE
  8
0
 10
97.2166
 20
4.96088
 11
97.1314
 21
4.86862
  0
LINE
  8
0
 10
97.1314
 20
4.86862
 11
97.0391
 21
4.78334
  0
LINE
  8
0
 10
97.0391
 20
4.78334
 11
96.9404
 21
4.70557
  0
LINE
  8
0
 10
96.9404
 20
4.70557
 11
96.836
 21
4.63577
  0
LINE
  8
0
 10
96.836
 20
4.63577
 11
96.7264
 21
4.57439
  0
LINE
  8
0
 10
96.7264
 20
4.57439
 11
96.6123
 21
4.52179
  0
LINE
  8
0
 10
96.6123
 20
4.52179
 11
96.4944
 21
4.4783
  0
LINE
  8
0
 10
96.4944
 20
4.4783
 11
96.3735
 21
4.4442
  0
LINE
  8
0
 10
96.3735
 20
4.4442
 11
96.2503
 21
4.41969
  0
LINE
  8
0
 10
96.2503
 20
4.41969
 11
96.1255
 21
4.40492
  0
LINE
  8
0
 10
96.1255
 20
4.40492
 11
96
 21
4.39999
  0
LINE
  8
0
 10
96
 20
4.39999
 11
95.8745
 21
4.40492
  0
LINE
  8
0
 10
50.8745
 20
4.40492
 11
50.7497
 21
4.41969
  0
LINE
  8
0
 10
50.7497
 20
4.41969
 11
50.6265
 21
4.4442
  0
LINE
  8
0
 10
50.6265
 20
4.4442
 11
50.5056
 21
4.4783
  0
LINE
  8
0
 10
50.5056
 20
4.4783
 11
50.3877
 21
4.52179
  0
LINE
  8
0
 10
50.3877
 20
4.52179
 11
50.2736
 21
4.57439
  0
LINE
  8
0
 10
50.2736
 20
4.57439
 11
50.164
 21
4.63577
  0
LINE
  8
0
 10
50.164
 20
4.63577
 11
50.0595
 21
4.70557
  0
LINE
  8
0
 10
50.0595
 20
4.70557
 11
49.9609
 21
4.78334
  0
LINE
  8
0
 10
49.9609
 20
4.78334
 11
49.8686
 21
4.86862
  0
LINE
  8
0
 10
49.8686
 20
4.86862
 11
49.7833
 21
4.96088
  0
LINE
  8
0
 10
49.7833
 20
4.96088
 11
49.7056
 21
5.05954
  0
LINE
  8
0
 10
49.7056
 20
5.05954
 11
49.6358
 21
5.164
  0
LINE
  8
0
 10
49.6358
 20
5.164
 11
49.5744
 21
5.27361
  0
LINE
  8
0
 10
49.5744
 20
5.27361
 11
49.5218
 21
5.3877
  0
LINE
  8
0
 10
49.5218
 20
5.3877
 11
49.4783
 21
5.50557
  0
LINE
  8
0
 10
49.4783
 20
5.50557
 11
49.4442
 21
5.62648
  0
LINE
  8
0
 10
49.4442
 20
5.62648
 11
49.4197
 21
5.74969
  0
LINE
  8
0
 10
49.4197
 20
5.74969
 11
49.4049
 21
5.87445
  0
LINE
  8
0
 10
49.4049
 20
5.87445
 11
49.4
 21
6
  0
LINE
  8
0
 10
49.4
 20
6
 11
49.4049
 21
6.12553
  0
LINE
  8
0
 10
49.4049
 20
6.12553
 11
49.4197
 21
6.25029
  0
LINE
  8
0
 10
49.4197
 20
6.25029
 11
49.4442
 21
6.3735
  0
LINE
  8
0
 10
49.4442
 20
6.3735
 11
49.4783
 21
6.49442
  0
LINE
  8
0
 10
49.4783
 20
6.49442
 11
49.5218
 21
6.61229
  0
LINE
  8
0
 10
49.5218
 20
6.61229
 11
49.5744
 21
6.72638
  0
LINE
  8
0
 10
49.5744
 20
6.72638
 11
49.6358
 21
6.83598
  0
LINE
  8
0
 10
49.6358
 20
6.83598
 11
49.7056
 21
6.94044
  0
LINE
  8
0
 10
49.7056
 20
6.94044
 11
49.7833
 21
7.03911
  0
LINE
  8
0
 10
49.7833
 20
7.03911
 11
49.8686
 21
7.13136
  0
LINE
  8
0
 10
49.8686
 20
7.13136
 11
49.9609
 21
7.21664
  0
LINE
  8
0
 10
49.9609
 20
7.21664
 11
50.0595
 21
7.29442
  0
LINE
  8
0
 10
50.0595
 20
7.29442
 11
50.164
 21
7.36421
  0
LINE
  8
0
 10
50.164
 20
7.36421
 11
50.2736
 21
7.4256
  0
LINE
  8
0
 10
50.2736
 20
7.4256
 11
50.3877
 21
7.4782
  0
LINE
  8
0
 10
50.3877
 20
7.4782
 11
50.5056
 21
7.52168
  0
LINE
  8
0
 10
50.5056
 20
7.52168
 11
50.6265
 21
7.55579
  0
LINE
  8
0
 10
50.6265
 20
7.55579
 11
50.7497
 21
7.58029
  0
LINE
  8
0
 10
50.7497
 20
7.58029
 11
50.8745
 21
7.59506
  0
LINE
  8
0
 10
50.8745
 20
7.59506
 11
51
 21
7.59999
  0
LINE
  8
0
 10
51
 20
7.59999
 11
51.1255
 21
7.59506
  0
LINE
  8
0
 10
51.1255
 20
7.59506
 11
51.2503
 21
7.58029
  0
LINE
  8
0
 10
51.2503
 20
7.58029
 11
51.3735
 21
7.55579
  0
LINE
  8
0
 10
51.3735
 20
7.55579
 11
51.4944
 21
7.52168
  0
LINE
  8
0
 10
51.4944
 20
7.52168
 11
51.6123
 21
7.4782
  0
LINE
  8
0
 10
51.6123
 20
7.4782
 11
51.7264
 21
7.4256
  0
LINE
  8
0
 10
51.7264
 20
7.4256
 11
51.836
 21
7.36421
  0
LINE
  8
0
 10
51.836
 20
7.36421
 11
51.9404
 21
7.29442
  0
LINE
  8
0
 10
51.9404
 20
7.29442
 11
52.0391
 21
7.21664
  0
LINE
  8
0
 10
52.0391
 20
7.21664
 11
52.1314
 21
7.13136
  0
LINE
  8
0
 10
52.1314
 20
7.13136
 11
52.2166
 21
7.03911
  0
LINE
  8
0
 10
52.2166
 20
7.03911
 11
52.2944
 21
6.94044
  0
LINE
  8
0
 10
52.2944
 20
6.94044
 11
52.3642
 21
6.83598
  0
LINE
  8
0
 10
52.3642
 20
6.83598
 11
52.4256
 21
6.72638
  0
LINE
  8
0
 10
52.4256
 20
6.72638
 11
52.4782
 21
6.61229
  0
LINE
  8
0
 10
52.4782
 20
6.61229
 11
52.5217
 21
6.49442
  0
LINE
  8
0
 10
52.5217
 20
6.49442
 11
52.5558
 21
6.3735
  0
LINE
  8
0
 10
52.5558
 20
6.3735
 11
52.5803
 21
6.25029
  0
LINE
  8
0
 10
52.5803
 20
6.25029
 11
52.5951
 21
6.12553
  0
LINE
  8
0
 10
52.5951
 20
6.12553
 11
52.6
 21
6
  0
LINE
  8
0
 10
52.6
 20
6
 11
52.5951
 21
5.87445
  0
LINE
  8
0
 10
52.5951
 20
5.87445
 11
52.5803
 21
5.74969
  0
LINE
  8
0
 10
52.5803
 20
5.74969
 11
52.5558
 21
5.62648
  0
LINE
  8
0
 10
52.5558
 20
5.62648
 11
52.5217
 21
5.50557
  0
LINE
  8
0
 10
52.5217
 20
5.50557
 11
52.4782
 21
5.3877
  0
LINE
  8
0
 10
52.4782
 20
5.3877
 11
52.4256
 21
5.27361
  0
LINE
  8
0
 10
52.4256
 20
5.27361
 11
52.3642
 21
5.164
  0
LINE
  8
0
 10
52.3642
 20
5.164
 11
52.2944
 21
5.05954
  0
LINE
  8
0
 10
52.2944
 20
5.05954
 11
52.2166
 21
4.96088
  0
LINE
  8
0
 10
52.2166
 20
4.96088
 11
52.1314
 21
4.86862
  0
LINE
  8
0
 10
52.1314
 20
4.86862
 11
52.0391
 21
4.78334
  0
LINE
  8
0
 10
52.0391
 20
4.78334
 11
51.9404
 21
4.70557
  0
LINE
  8
0
 10
51.9404
 20
4.70557
 11
51.836
 21
4.63577
  0
LINE
  8
0
 10
51.836
 20
4.63577
 11
51.7264
 21
4.57439
  0
LINE
  8
0
 10
51.7264
 20
4.57439
 11
51.6123
 21
4.52179
  0
LINE
  8
0
 10
51.6123
 20
4.52179
 11
51.4944
 21
4.4783
  0
LINE
  8
0
 10
51.4944
 20
4.4783
 11
51.3735
 21
4.4442
  0
LINE
  8
0
 10
51.3735
 20
4.4442
 11
51.2503
 21
4.41969
  0
LINE
  8
0
 10
51.2503
 20
4.41969
 11
51.1255
 21
4.40492
  0
LINE
  8
0
 10
51.1255
 20
4.40492
 11
51
 21
4.39999
  0
LINE
  8
0
 10
51
 20
4.39999
 11
50.8745
 21
4.40492
  0
ENDSEC
  0
SECTION
  2
OBJECTS
  0
DICTIONARY
  0
ENDSEC
  0
EOF
