  0
SECTION
  2
BLOCKS
  0
ENDSEC
  0
SECTION
  2
ENTITIES
  0
LINE
  8
0
 10
28.4505
 20
5.74138
 11
28.5133
 21
6.05711
  0
LINE
  8
0
 10
28.5133
 20
6.05711
 11
28.6007
 21
6.36696
  0
LINE
  8
0
 10
28.6007
 20
6.36696
 11
28.7121
 21
6.66899
  0
LINE
  8
0
 10
28.7121
 20
6.66899
 11
28.8469
 21
6.96135
  0
LINE
  8
0
 10
28.8469
 20
6.96135
 11
29.0042
 21
7.24223
  0
LINE
  8
0
 10
29.0042
 20
7.24223
 11
29.183
 21
7.50992
  0
LINE
  8
0
 10
29.183
 20
7.50992
 11
29.3823
 21
7.76273
  0
LINE
  8
0
 10
29.3823
 20
7.76273
 11
29.6009
 21
7.99913
  0
LINE
  8
0
 10
29.6009
 20
7.99913
 11
29.8372
 21
8.21765
  0
LINE
  8
0
 10
29.8372
 20
8.21765
 11
30.0901
 21
8.41696
  0
LINE
  8
0
 10
30.0901
 20
8.41696
 11
30.3577
 21
8.59581
  0
LINE
  8
0
 10
30.3577
 20
8.59581
 11
30.6386
 21
8.75311
  0
LINE
  8
0
 10
30.6386
 20
8.75311
 11
30.931
 21
8.88789
  0
LINE
  8
0
 10
30.931
 20
8.88789
 11
31.233
 21
8.99933
  0
LINE
  8
0
 10
31.233
 20
8.99933
 11
31.5429
 21
9.08672
  0
LINE
  8
0
 10
31.5429
 20
9.08672
 11
31.8586
 21
9.14952
  0
LINE
  8
0
 10
31.8586
 20
9.14952
 11
32.1783
 21
9.18735
  0
LINE
  8
0
 10
32.1783
 20
9.18735
 11
32.5
 21
9.2
  0
LINE
  8
0
 10
32.5
 20
9.2
 11
32.8217
 21
9.18735
  0
LINE
  8
0
 10
32.8217
 20
9.18735
 11
33.1414
 21
9.14952
  0
LINE
  8
0
 10
33.1414
 20
9.14952
 11
33.4571
 21
9.08672
  0
LINE
  8
0
 10
33.4571
 20
9.08672
 11
33.767
 21
8.99933
  0
LINE
  8
0
 10
33.767
 20
8.99933
 11
34.069
 21
8.88789
  0
LINE
  8
0
 10
34.069
 20
8.88789
 11
34.3614
 21
8.75311
  0
LINE
  8
0
 10
34.3614
 20
8.75311
 11
34.6422
 21
8.59581
  0
LINE
  8
0
 10
34.6422
 20
8.59581
 11
34.9099
 21
8.41696
  0
LINE
  8
0
 10
34.9099
 20
8.41696
 11
35.1627
 21
8.21765
  0
LINE
  8
0
 10
35.1627
 20
8.21765
 11
35.3991
 21
7.99913
  0
LINE
  8
0
 10
35.3991
 20
7.99913
 11
35.6177
 21
7.76273
  0
LINE
  8
0
 10
35.6177
 20
7.76273
 11
35.817
 21
7.50992
  0
LINE
  8
0
 10
35.817
 20
7.50992
 11
35.9958
 21
7.24223
  0
LINE
  8
0
 10
35.9958
 20
7.24223
 11
36.1531
 21
6.96135
  0
LINE
  8
0
 10
36.1531
 20
6.96135
 11
36.2879
 21
6.66899
  0
LINE
  8
0
 10
36.2879
 20
6.66899
 11
36.3993
 21
6.36696
  0
LINE
  8
0
 10
36.3993
 20
6.36696
 11
36.4867
 21
6.05711
  0
LINE
  8
0
 10
36.4867
 20
6.05711
 11
36.5495
 21
5.74138
  0
LINE
  8
0
 10
36.5495
 20
5.74138
 11
36.5874
 21
5.42168
  0
LINE
  8
0
 10
36.5874
 20
5.42168
 11
36.6
 21
5.09999
  0
LINE
  8
0
 10
36.6
 20
5.09999
 11
36.6
 21
0
  0
LINE
  8
0
 10
36.6
 20
0
 11
65
 21
0
  0
LINE
  8
0
 10
65
 20
0
 11
65
 21
3
  0
LINE
  8
0
 10
65
 20
3
 11
65.0062
 21
3.15691
  0
LINE
  8
0
 10
65.0062
 20
3.15691
 11
65.0246
 21
3.31287
  0
LINE
  8
0
 10
65.0246
 20
3.31287
 11
65.0553
 21
3.46689
  0
LINE
  8
0
 10
65.0553
 20
3.46689
 11
65.0979
 21
3.61803
  0
LINE
  8
0
 10
65.0979
 20
3.61803
 11
65.1522
 21
3.76537
  0
LINE
  8
0
 10
65.1522
 20
3.76537
 11
65.218
 21
3.90797
  0
LINE
  8
0
 10
65.218
 20
3.90797
 11
65.2947
 21
4.04498
  0
LINE
  8
0
 10
65.2947
 20
4.04498
 11
65.382
 21
4.17557
  0
LINE
  8
0
 10
65.382
 20
4.17557
 11
65.4792
 21
4.29889
  0
LINE
  8
0
 10
65.4792
 20
4.29889
 11
65.5858
 21
4.4142
  0
LINE
  8
0
 10
65.5858
 20
4.4142
 11
65.7011
 21
4.5208
  0
LINE
  8
0
 10
65.7011
 20
4.5208
 11
65.8244
 21
4.61803
  0
LINE
  8
0
 10
65.8244
 20
4.61803
 11
65.955
 21
4.70528
  0
LINE
  8
0
 10
65.955
 20
4.70528
 11
66.092
 21
4.78201
  0
LINE
  8
0
 10
66.092
 20
4.78201
 11
66.2346
 21
4.84775
  0
LINE
  8
0
 10
66.2346
 20
4.84775
 11
66.382
 21
4.9021
  0
LINE
  8
0
 10
66.382
 20
4.9021
 11
66.5331
 21
4.94473
  0
LINE
  8
0
 10
66.5331
 20
4.94473
 11
66.6871
 21
4.97537
  0
LINE
  8
0
 10
66.6871
 20
4.97537
 11
66.8431
 21
4.99382
  0
LINE
  8
0
 10
66.8431
 20
4.99382
 11
67
 21
5
  0
LINE
  8
0
 10
67
 20
5
 11
67.1569
 21
4.99382
  0
LINE
  8
0
 10
67.1569
 20
4.99382
 11
67.3129
 21
4.97537
  0
LINE
  8
0
 10
67.3129
 20
4.97537
 11
67.4669
 21
4.94473
  0
LINE
  8
0
 10
67.4669
 20
4.94473
 11
67.618
 21
4.9021
  0
LINE
  8
0
 10
67.618
 20
4.9021
 11
67.7654
 21
4.84775
  0
LINE
  8
0
 10
67.7654
 20
4.84775
 11
67.908
 21
4.78201
  0
LINE
  8
0
 10
67.908
 20
4.78201
 11
68.045
 21
4.70528
  0
LINE
  8
0
 10
68.045
 20
4.70528
 11
68.1756
 21
4.61803
  0
LINE
  8
0
 10
68.1756
 20
4.61803
 11
68.2989
 21
4.5208
  0
LINE
  8
0
 10
68.2989
 20
4.5208
 11
68.4142
 21
4.4142
  0
LINE
  8
0
 10
68.4142
 20
4.4142
 11
68.5208
 21
4.29889
  0
LINE
  8
0
 10
68.5208
 20
4.29889
 11
68.618
 21
4.17557
  0
LINE
  8
0
 10
68.618
 20
4.17557
 11
68.7053
 21
4.04498
  0
LINE
  8
0
 10
68.7053
 20
4.04498
 11
68.782
 21
3.90797
  0
LINE
  8
0
 10
68.782
 20
3.90797
 11
68.8477
 21
3.76537
  0
LINE
  8
0
 10
68.8477
 20
3.76537
 11
68.9021
 21
3.61803
  0
LINE
  8
0
 10
68.9021
 20
3.61803
 11
68.9447
 21
3.46689
  0
LINE
  8
0
 10
68.9447
 20
3.46689
 11
68.9754
 21
3.31287
  0
LINE
  8
0
 10
68.9754
 20
3.31287
 11
68.9938
 21
3.15691
  0
LINE
  8
0
 10
68.9938
 20
3.15691
 11
69
 21
3
  0
LINE
  8
0
 10
69
 20
3
 11
69
 21
0
  0
LINE
  8
0
 10
69
 20
0
 11
215
 21
0
  0
LINE
  8
0
 10
215
 20
0
 11
215
 21
190
  0
LINE
  8
0
 10
215
 20
190
 11
0
 21
190
  0
LINE
  8
0
 10
0
 20
190
 11
0
 21
0
  0
LINE
  8
0
 10
0
 20
0
 11
28.4
 21
0
  0
LINE
  8
0
 10
28.4
 20
0
 11
28.4
 21
5.09999
  0
LINE
  8
0
 10
28.4
 20
5.09999
 11
28.4126
 21
5.42168
  0
LINE
  8
0
 10
28.4126
 20
5.42168
 11
28.4505
 21
5.74138
  0
LINE
  8
0
 10
5.87445
 20
182.405
 11
5.74969
 21
182.42
  0
LINE
  8
0
 10
5.74969
 20
182.42
 11
5.62648
 21
182.444
  0
LINE
  8
0
 10
5.62648
 20
182.444
 11
5.50557
 21
182.478
  0
LINE
  8
0
 10
5.50557
 20
182.478
 11
5.3877
 21
182.522
  0
LINE
  8
0
 10
5.3877
 20
182.522
 11
5.27361
 21
182.574
  0
LINE
  8
0
 10
5.27361
 20
182.574
 11
5.164
 21
182.636
  0
LINE
  8
0
 10
5.164
 20
182.636
 11
5.05954
 21
182.706
  0
LINE
  8
0
 10
5.05954
 20
182.706
 11
4.96088
 21
182.783
  0
LINE
  8
0
 10
4.96088
 20
182.783
 11
4.86862
 21
182.869
  0
LINE
  8
0
 10
4.86862
 20
182.869
 11
4.78334
 21
182.961
  0
LINE
  8
0
 10
4.78334
 20
182.961
 11
4.70557
 21
183.06
  0
LINE
  8
0
 10
4.70557
 20
183.06
 11
4.63577
 21
183.164
  0
LINE
  8
0
 10
4.63577
 20
183.164
 11
4.57439
 21
183.274
  0
LINE
  8
0
 10
4.57439
 20
183.274
 11
4.52179
 21
183.388
  0
LINE
  8
0
 10
4.52179
 20
183.388
 11
4.4783
 21
183.506
  0
LINE
  8
0
 10
4.4783
 20
183.506
 11
4.4442
 21
183.626
  0
LINE
  8
0
 10
4.4442
 20
183.626
 11
4.41969
 21
183.75
  0
LINE
  8
0
 10
4.41969
 20
183.75
 11
4.40492
 21
183.874
  0
LINE
  8
0
 10
4.40492
 20
183.874
 11
4.39999
 21
184
  0
LINE
  8
0
 10
4.39999
 20
184
 11
4.40492
 21
184.126
  0
LINE
  8
0
 10
4.40492
 20
184.126
 11
4.41969
 21
184.25
  0
LINE
  8
0
 10
4.41969
 20
184.25
 11
4.4442
 21
184.374
  0
LINE
  8
0
 10
4.4442
 20
184.374
 11
4.4783
 21
184.494
  0
LINE
  8
0
 10
4.4783
 20
184.494
 11
4.52179
 21
184.612
  0
LINE
  8
0
 10
4.52179
 20
184.612
 11
4.57439
 21
184.726
  0
LINE
  8
0
 10
4.57439
 20
184.726
 11
4.63577
 21
184.836
  0
LINE
  8
0
 10
4.63577
 20
184.836
 11
4.70557
 21
184.94
  0
LINE
  8
0
 10
4.70557
 20
184.94
 11
4.78334
 21
185.039
  0
LINE
  8
0
 10
4.78334
 20
185.039
 11
4.86862
 21
185.131
  0
LINE
  8
0
 10
4.86862
 20
185.131
 11
4.96088
 21
185.217
  0
LINE
  8
0
 10
4.96088
 20
185.217
 11
5.05954
 21
185.294
  0
LINE
  8
0
 10
5.05954
 20
185.294
 11
5.164
 21
185.364
  0
LINE
  8
0
 10
5.164
 20
185.364
 11
5.27361
 21
185.426
  0
LINE
  8
0
 10
5.27361
 20
185.426
 11
5.3877
 21
185.478
  0
LINE
  8
0
 10
5.3877
 20
185.478
 11
5.50557
 21
185.522
  0
LINE
  8
0
 10
5.50557
 20
185.522
 11
5.62648
 21
185.556
  0
LINE
  8
0
 10
5.62648
 20
185.556
 11
5.74969
 21
185.58
  0
LINE
  8
0
 10
5.74969
 20
185.58
 11
5.87445
 21
185.595
  0
LINE
  8
0
 10
5.87445
 20
185.595
 11
6
 21
185.6
  0
LINE
  8
0
 10
6
 20
185.6
 11
6.12553
 21
185.595
  0
LINE
  8
0
 10
6.12553
 20
185.595
 11
6.25029
 21
185.58
  0
LINE
  8
0
 10
6.25029
 20
185.58
 11
6.3735
 21
185.556
  0
LINE
  8
0
 10
6.3735
 20
185.556
 11
6.49442
 21
185.522
  0
LINE
  8
0
 10
6.49442
 20
185.522
 11
6.61229
 21
185.478
  0
LINE
  8
0
 10
6.61229
 20
185.478
 11
6.72638
 21
185.426
  0
LINE
  8
0
 10
6.72638
 20
185.426
 11
6.83598
 21
185.364
  0
LINE
  8
0
 10
6.83598
 20
185.364
 11
6.94044
 21
185.294
  0
LINE
  8
0
 10
6.94044
 20
185.294
 11
7.03911
 21
185.217
  0
LINE
  8
0
 10
7.03911
 20
185.217
 11
7.13136
 21
185.131
  0
LINE
  8
0
 10
7.13136
 20
185.131
 11
7.21664
 21
185.039
  0
LINE
  8
0
 10
7.21664
 20
185.039
 11
7.29442
 21
184.94
  0
LINE
  8
0
 10
7.29442
 20
184.94
 11
7.36421
 21
184.836
  0
LINE
  8
0
 10
7.36421
 20
184.836
 11
7.4256
 21
184.726
  0
LINE
  8
0
 10
7.4256
 20
184.726
 11
7.4782
 21
184.612
  0
LINE
  8
0
 10
7.4782
 20
184.612
 11
7.52168
 21
184.494
  0
LINE
  8
0
 10
7.52168
 20
184.494
 11
7.55579
 21
184.374
  0
LINE
  8
0
 10
7.55579
 20
184.374
 11
7.58029
 21
184.25
  0
LINE
  8
0
 10
7.58029
 20
184.25
 11
7.59506
 21
184.126
  0
LINE
  8
0
 10
7.59506
 20
184.126
 11
7.59999
 21
184
  0
LINE
  8
0
 10
7.59999
 20
184
 11
7.59506
 21
183.874
  0
LINE
  8
0
 10
7.59506
 20
183.874
 11
7.58029
 21
183.75
  0
LINE
  8
0
 10
7.58029
 20
183.75
 11
7.55579
 21
183.626
  0
LINE
  8
0
 10
7.55579
 20
183.626
 11
7.52168
 21
183.506
  0
LINE
  8
0
 10
7.52168
 20
183.506
 11
7.4782
 21
183.388
  0
LINE
  8
0
 10
7.4782
 20
183.388
 11
7.4256
 21
183.274
  0
LINE
  8
0
 10
7.4256
 20
183.274
 11
7.36421
 21
183.164
  0
LINE
  8
0
 10
7.36421
 20
183.164
 11
7.29442
 21
183.06
  0
LINE
  8
0
 10
7.29442
 20
183.06
 11
7.21664
 21
182.961
  0
LINE
  8
0
 10
7.21664
 20
182.961
 11
7.13136
 21
182.869
  0
LINE
  8
0
 10
7.13136
 20
182.869
 11
7.03911
 21
182.783
  0
LINE
  8
0
 10
7.03911
 20
182.783
 11
6.94044
 21
182.706
  0
LINE
  8
0
 10
6.94044
 20
182.706
 11
6.83598
 21
182.636
  0
LINE
  8
0
 10
6.83598
 20
182.636
 11
6.72638
 21
182.574
  0
LINE
  8
0
 10
6.72638
 20
182.574
 11
6.61229
 21
182.522
  0
LINE
  8
0
 10
6.61229
 20
182.522
 11
6.49442
 21
182.478
  0
LINE
  8
0
 10
6.49442
 20
182.478
 11
6.3735
 21
182.444
  0
LINE
  8
0
 10
6.3735
 20
182.444
 11
6.25029
 21
182.42
  0
LINE
  8
0
 10
6.25029
 20
182.42
 11
6.12553
 21
182.405
  0
LINE
  8
0
 10
6.12553
 20
182.405
 11
6
 21
182.4
  0
LINE
  8
0
 10
6
 20
182.4
 11
5.87445
 21
182.405
  0
LINE
  8
0
 10
208.874
 20
182.405
 11
208.75
 21
182.42
  0
LINE
  8
0
 10
208.75
 20
182.42
 11
208.626
 21
182.444
  0
LINE
  8
0
 10
208.626
 20
182.444
 11
208.506
 21
182.478
  0
LINE
  8
0
 10
208.506
 20
182.478
 11
208.388
 21
182.522
  0
LINE
  8
0
 10
208.388
 20
182.522
 11
208.274
 21
182.574
  0
LINE
  8
0
 10
208.274
 20
182.574
 11
208.164
 21
182.636
  0
LINE
  8
0
 10
208.164
 20
182.636
 11
208.06
 21
182.706
  0
LINE
  8
0
 10
208.06
 20
182.706
 11
207.961
 21
182.783
  0
LINE
  8
0
 10
207.961
 20
182.783
 11
207.869
 21
182.869
  0
LINE
  8
0
 10
207.869
 20
182.869
 11
207.783
 21
182.961
  0
LINE
  8
0
 10
207.783
 20
182.961
 11
207.706
 21
183.06
  0
LINE
  8
0
 10
207.706
 20
183.06
 11
207.636
 21
183.164
  0
LINE
  8
0
 10
207.636
 20
183.164
 11
207.574
 21
183.274
  0
LINE
  8
0
 10
207.574
 20
183.274
 11
207.522
 21
183.388
  0
LINE
  8
0
 10
207.522
 20
183.388
 11
207.478
 21
183.506
  0
LINE
  8
0
 10
207.478
 20
183.506
 11
207.444
 21
183.626
  0
LINE
  8
0
 10
207.444
 20
183.626
 11
207.42
 21
183.75
  0
LINE
  8
0
 10
207.42
 20
183.75
 11
207.405
 21
183.874
  0
LINE
  8
0
 10
207.405
 20
183.874
 11
207.4
 21
184
  0
LINE
  8
0
 10
207.4
 20
184
 11
207.405
 21
184.126
  0
LINE
  8
0
 10
207.405
 20
184.126
 11
207.42
 21
184.25
  0
LINE
  8
0
 10
207.42
 20
184.25
 11
207.444
 21
184.374
  0
LINE
  8
0
 10
207.444
 20
184.374
 11
207.478
 21
184.494
  0
LINE
  8
0
 10
207.478
 20
184.494
 11
207.522
 21
184.612
  0
LINE
  8
0
 10
207.522
 20
184.612
 11
207.574
 21
184.726
  0
LINE
  8
0
 10
207.574
 20
184.726
 11
207.636
 21
184.836
  0
LINE
  8
0
 10
207.636
 20
184.836
 11
207.706
 21
184.94
  0
LINE
  8
0
 10
207.706
 20
184.94
 11
207.783
 21
185.039
  0
LINE
  8
0
 10
207.783
 20
185.039
 11
207.869
 21
185.131
  0
LINE
  8
0
 10
207.869
 20
185.131
 11
207.961
 21
185.217
  0
LINE
  8
0
 10
207.961
 20
185.217
 11
208.06
 21
185.294
  0
LINE
  8
0
 10
208.06
 20
185.294
 11
208.164
 21
185.364
  0
LINE
  8
0
 10
208.164
 20
185.364
 11
208.274
 21
185.426
  0
LINE
  8
0
 10
208.274
 20
185.426
 11
208.388
 21
185.478
  0
LINE
  8
0
 10
208.388
 20
185.478
 11
208.506
 21
185.522
  0
LINE
  8
0
 10
208.506
 20
185.522
 11
208.626
 21
185.556
  0
LINE
  8
0
 10
208.626
 20
185.556
 11
208.75
 21
185.58
  0
LINE
  8
0
 10
208.75
 20
185.58
 11
208.874
 21
185.595
  0
LINE
  8
0
 10
208.874
 20
185.595
 11
209
 21
185.6
  0
LINE
  8
0
 10
209
 20
185.6
 11
209.126
 21
185.595
  0
LINE
  8
0
 10
209.126
 20
185.595
 11
209.25
 21
185.58
  0
LINE
  8
0
 10
209.25
 20
185.58
 11
209.374
 21
185.556
  0
LINE
  8
0
 10
209.374
 20
185.556
 11
209.494
 21
185.522
  0
LINE
  8
0
 10
209.494
 20
185.522
 11
209.612
 21
185.478
  0
LINE
  8
0
 10
209.612
 20
185.478
 11
209.726
 21
185.426
  0
LINE
  8
0
 10
209.726
 20
185.426
 11
209.836
 21
185.364
  0
LINE
  8
0
 10
209.836
 20
185.364
 11
209.94
 21
185.294
  0
LINE
  8
0
 10
209.94
 20
185.294
 11
210.039
 21
185.217
  0
LINE
  8
0
 10
210.039
 20
185.217
 11
210.131
 21
185.131
  0
LINE
  8
0
 10
210.131
 20
185.131
 11
210.217
 21
185.039
  0
LINE
  8
0
 10
210.217
 20
185.039
 11
210.294
 21
184.94
  0
LINE
  8
0
 10
210.294
 20
184.94
 11
210.364
 21
184.836
  0
LINE
  8
0
 10
210.364
 20
184.836
 11
210.426
 21
184.726
  0
LINE
  8
0
 10
210.426
 20
184.726
 11
210.478
 21
184.612
  0
LINE
  8
0
 10
210.478
 20
184.612
 11
210.522
 21
184.494
  0
LINE
  8
0
 10
210.522
 20
184.494
 11
210.556
 21
184.374
  0
LINE
  8
0
 10
210.556
 20
184.374
 11
210.58
 21
184.25
  0
LINE
  8
0
 10
210.58
 20
184.25
 11
210.595
 21
184.126
  0
LINE
  8
0
 10
210.595
 20
184.126
 11
210.6
 21
184
  0
LINE
  8
0
 10
210.6
 20
184
 11
210.595
 21
183.874
  0
LINE
  8
0
 10
210.595
 20
183.874
 11
210.58
 21
183.75
  0
LINE
  8
0
 10
210.58
 20
183.75
 11
210.556
 21
183.626
  0
LINE
  8
0
 10
210.556
 20
183.626
 11
210.522
 21
183.506
  0
LINE
  8
0
 10
210.522
 20
183.506
 11
210.478
 21
183.388
  0
LINE
  8
0
 10
210.478
 20
183.388
 11
210.426
 21
183.274
  0
LINE
  8
0
 10
210.426
 20
183.274
 11
210.364
 21
183.164
  0
LINE
  8
0
 10
210.364
 20
183.164
 11
210.294
 21
183.06
  0
LINE
  8
0
 10
210.294
 20
183.06
 11
210.217
 21
182.961
  0
LINE
  8
0
 10
210.217
 20
182.961
 11
210.131
 21
182.869
  0
LINE
  8
0
 10
210.131
 20
182.869
 11
210.039
 21
182.783
  0
LINE
  8
0
 10
210.039
 20
182.783
 11
209.94
 21
182.706
  0
LINE
  8
0
 10
209.94
 20
182.706
 11
209.836
 21
182.636
  0
LINE
  8
0
 10
209.836
 20
182.636
 11
209.726
 21
182.574
  0
LINE
  8
0
 10
209.726
 20
182.574
 11
209.612
 21
182.522
  0
LINE
  8
0
 10
209.612
 20
182.522
 11
209.494
 21
182.478
  0
LINE
  8
0
 10
209.494
 20
182.478
 11
209.374
 21
182.444
  0
LINE
  8
0
 10
209.374
 20
182.444
 11
209.25
 21
182.42
  0
LINE
  8
0
 10
209.25
 20
182.42
 11
209.126
 21
182.405
  0
LINE
  8
0
 10
209.126
 20
182.405
 11
209
 21
182.4
  0
LINE
  8
0
 10
209
 20
182.4
 11
208.874
 21
182.405
  0
LINE
  8
0
 10
107.374
 20
182.405
 11
107.25
 21
182.42
  0
LINE
  8
0
 10
107.25
 20
182.42
 11
107.126
 21
182.444
  0
LINE
  8
0
 10
107.126
 20
182.444
 11
107.006
 21
182.478
  0
LINE
  8
0
 10
107.006
 20
182.478
 11
106.888
 21
182.522
  0
LINE
  8
0
 10
106.888
 20
182.522
 11
106.774
 21
182.574
  0
LINE
  8
0
 10
106.774
 20
182.574
 11
106.664
 21
182.636
  0
LINE
  8
0
 10
106.664
 20
182.636
 11
106.56
 21
182.706
  0
LINE
  8
0
 10
106.56
 20
182.706
 11
106.461
 21
182.783
  0
LINE
  8
0
 10
106.461
 20
182.783
 11
106.369
 21
182.869
  0
LINE
  8
0
 10
106.369
 20
182.869
 11
106.283
 21
182.961
  0
LINE
  8
0
 10
106.283
 20
182.961
 11
106.206
 21
183.06
  0
LINE
  8
0
 10
106.206
 20
183.06
 11
106.136
 21
183.164
  0
LINE
  8
0
 10
106.136
 20
183.164
 11
106.074
 21
183.274
  0
LINE
  8
0
 10
106.074
 20
183.274
 11
106.022
 21
183.388
  0
LINE
  8
0
 10
106.022
 20
183.388
 11
105.978
 21
183.506
  0
LINE
  8
0
 10
105.978
 20
183.506
 11
105.944
 21
183.626
  0
LINE
  8
0
 10
105.944
 20
183.626
 11
105.92
 21
183.75
  0
LINE
  8
0
 10
105.92
 20
183.75
 11
105.905
 21
183.874
  0
LINE
  8
0
 10
105.905
 20
183.874
 11
105.9
 21
184
  0
LINE
  8
0
 10
105.9
 20
184
 11
105.905
 21
184.126
  0
LINE
  8
0
 10
105.905
 20
184.126
 11
105.92
 21
184.25
  0
LINE
  8
0
 10
105.92
 20
184.25
 11
105.944
 21
184.374
  0
LINE
  8
0
 10
105.944
 20
184.374
 11
105.978
 21
184.494
  0
LINE
  8
0
 10
105.978
 20
184.494
 11
106.022
 21
184.612
  0
LINE
  8
0
 10
106.022
 20
184.612
 11
106.074
 21
184.726
  0
LINE
  8
0
 10
106.074
 20
184.726
 11
106.136
 21
184.836
  0
LINE
  8
0
 10
106.136
 20
184.836
 11
106.206
 21
184.94
  0
LINE
  8
0
 10
106.206
 20
184.94
 11
106.283
 21
185.039
  0
LINE
  8
0
 10
106.283
 20
185.039
 11
106.369
 21
185.131
  0
LINE
  8
0
 10
106.369
 20
185.131
 11
106.461
 21
185.217
  0
LINE
  8
0
 10
106.461
 20
185.217
 11
106.56
 21
185.294
  0
LINE
  8
0
 10
106.56
 20
185.294
 11
106.664
 21
185.364
  0
LINE
  8
0
 10
106.664
 20
185.364
 11
106.774
 21
185.426
  0
LINE
  8
0
 10
106.774
 20
185.426
 11
106.888
 21
185.478
  0
LINE
  8
0
 10
106.888
 20
185.478
 11
107.006
 21
185.522
  0
LINE
  8
0
 10
107.006
 20
185.522
 11
107.126
 21
185.556
  0
LINE
  8
0
 10
107.126
 20
185.556
 11
107.25
 21
185.58
  0
LINE
  8
0
 10
107.25
 20
185.58
 11
107.374
 21
185.595
  0
LINE
  8
0
 10
107.374
 20
185.595
 11
107.5
 21
185.6
  0
LINE
  8
0
 10
107.5
 20
185.6
 11
107.626
 21
185.595
  0
LINE
  8
0
 10
107.626
 20
185.595
 11
107.75
 21
185.58
  0
LINE
  8
0
 10
107.75
 20
185.58
 11
107.874
 21
185.556
  0
LINE
  8
0
 10
107.874
 20
185.556
 11
107.994
 21
185.522
  0
LINE
  8
0
 10
107.994
 20
185.522
 11
108.112
 21
185.478
  0
LINE
  8
0
 10
108.112
 20
185.478
 11
108.226
 21
185.426
  0
LINE
  8
0
 10
108.226
 20
185.426
 11
108.336
 21
185.364
  0
LINE
  8
0
 10
108.336
 20
185.364
 11
108.44
 21
185.294
  0
LINE
  8
0
 10
108.44
 20
185.294
 11
108.539
 21
185.217
  0
LINE
  8
0
 10
108.539
 20
185.217
 11
108.631
 21
185.131
  0
LINE
  8
0
 10
108.631
 20
185.131
 11
108.717
 21
185.039
  0
LINE
  8
0
 10
108.717
 20
185.039
 11
108.794
 21
184.94
  0
LINE
  8
0
 10
108.794
 20
184.94
 11
108.864
 21
184.836
  0
LINE
  8
0
 10
108.864
 20
184.836
 11
108.926
 21
184.726
  0
LINE
  8
0
 10
108.926
 20
184.726
 11
108.978
 21
184.612
  0
LINE
  8
0
 10
108.978
 20
184.612
 11
109.022
 21
184.494
  0
LINE
  8
0
 10
109.022
 20
184.494
 11
109.056
 21
184.374
  0
LINE
  8
0
 10
109.056
 20
184.374
 11
109.08
 21
184.25
  0
LINE
  8
0
 10
109.08
 20
184.25
 11
109.095
 21
184.126
  0
LINE
  8
0
 10
109.095
 20
184.126
 11
109.1
 21
184
  0
LINE
  8
0
 10
109.1
 20
184
 11
109.095
 21
183.874
  0
LINE
  8
0
 10
109.095
 20
183.874
 11
109.08
 21
183.75
  0
LINE
  8
0
 10
109.08
 20
183.75
 11
109.056
 21
183.626
  0
LINE
  8
0
 10
109.056
 20
183.626
 11
109.022
 21
183.506
  0
LINE
  8
0
 10
109.022
 20
183.506
 11
108.978
 21
183.388
  0
LINE
  8
0
 10
108.978
 20
183.388
 11
108.926
 21
183.274
  0
LINE
  8
0
 10
108.926
 20
183.274
 11
108.864
 21
183.164
  0
LINE
  8
0
 10
108.864
 20
183.164
 11
108.794
 21
183.06
  0
LINE
  8
0
 10
108.794
 20
183.06
 11
108.717
 21
182.961
  0
LINE
  8
0
 10
108.717
 20
182.961
 11
108.631
 21
182.869
  0
LINE
  8
0
 10
108.631
 20
182.869
 11
108.539
 21
182.783
  0
LINE
  8
0
 10
108.539
 20
182.783
 11
108.44
 21
182.706
  0
LINE
  8
0
 10
108.44
 20
182.706
 11
108.336
 21
182.636
  0
LINE
  8
0
 10
108.336
 20
182.636
 11
108.226
 21
182.574
  0
LINE
  8
0
 10
108.226
 20
182.574
 11
108.112
 21
182.522
  0
LINE
  8
0
 10
108.112
 20
182.522
 11
107.994
 21
182.478
  0
LINE
  8
0
 10
107.994
 20
182.478
 11
107.874
 21
182.444
  0
LINE
  8
0
 10
107.874
 20
182.444
 11
107.75
 21
182.42
  0
LINE
  8
0
 10
107.75
 20
182.42
 11
107.626
 21
182.405
  0
LINE
  8
0
 10
107.626
 20
182.405
 11
107.5
 21
182.4
  0
LINE
  8
0
 10
107.5
 20
182.4
 11
107.374
 21
182.405
  0
LINE
  8
0
 10
5.87445
 20
93.4049
 11
5.74969
 21
93.4197
  0
LINE
  8
0
 10
5.74969
 20
93.4197
 11
5.62648
 21
93.4442
  0
LINE
  8
0
 10
5.62648
 20
93.4442
 11
5.50557
 21
93.4783
  0
LINE
  8
0
 10
5.50557
 20
93.4783
 11
5.3877
 21
93.5218
  0
LINE
  8
0
 10
5.3877
 20
93.5218
 11
5.27361
 21
93.5744
  0
LINE
  8
0
 10
5.27361
 20
93.5744
 11
5.164
 21
93.6358
  0
LINE
  8
0
 10
5.164
 20
93.6358
 11
5.05954
 21
93.7056
  0
LINE
  8
0
 10
5.05954
 20
93.7056
 11
4.96088
 21
93.7833
  0
LINE
  8
0
 10
4.96088
 20
93.7833
 11
4.86862
 21
93.8686
  0
LINE
  8
0
 10
4.86862
 20
93.8686
 11
4.78334
 21
93.9609
  0
LINE
  8
0
 10
4.78334
 20
93.9609
 11
4.70557
 21
94.0595
  0
LINE
  8
0
 10
4.70557
 20
94.0595
 11
4.63577
 21
94.164
  0
LINE
  8
0
 10
4.63577
 20
94.164
 11
4.57439
 21
94.2736
  0
LINE
  8
0
 10
4.57439
 20
94.2736
 11
4.52179
 21
94.3877
  0
LINE
  8
0
 10
4.52179
 20
94.3877
 11
4.4783
 21
94.5056
  0
LINE
  8
0
 10
4.4783
 20
94.5056
 11
4.4442
 21
94.6265
  0
LINE
  8
0
 10
4.4442
 20
94.6265
 11
4.41969
 21
94.7497
  0
LINE
  8
0
 10
4.41969
 20
94.7497
 11
4.40492
 21
94.8745
  0
LINE
  8
0
 10
4.40492
 20
94.8745
 11
4.39999
 21
95
  0
LINE
  8
0
 10
4.39999
 20
95
 11
4.40492
 21
95.1255
  0
LINE
  8
0
 10
4.40492
 20
95.1255
 11
4.41969
 21
95.2503
  0
LINE
  8
0
 10
4.41969
 20
95.2503
 11
4.4442
 21
95.3735
  0
LINE
  8
0
 10
4.4442
 20
95.3735
 11
4.4783
 21
95.4944
  0
LINE
  8
0
 10
4.4783
 20
95.4944
 11
4.52179
 21
95.6123
  0
LINE
  8
0
 10
4.52179
 20
95.6123
 11
4.57439
 21
95.7264
  0
LINE
  8
0
 10
4.57439
 20
95.7264
 11
4.63577
 21
95.836
  0
LINE
  8
0
 10
4.63577
 20
95.836
 11
4.70557
 21
95.9404
  0
LINE
  8
0
 10
4.70557
 20
95.9404
 11
4.78334
 21
96.0391
  0
LINE
  8
0
 10
4.78334
 20
96.0391
 11
4.86862
 21
96.1314
  0
LINE
  8
0
 10
4.86862
 20
96.1314
 11
4.96088
 21
96.2166
  0
LINE
  8
0
 10
4.96088
 20
96.2166
 11
5.05954
 21
96.2944
  0
LINE
  8
0
 10
5.05954
 20
96.2944
 11
5.164
 21
96.3642
  0
LINE
  8
0
 10
5.164
 20
96.3642
 11
5.27361
 21
96.4256
  0
LINE
  8
0
 10
5.27361
 20
96.4256
 11
5.3877
 21
96.4782
  0
LINE
  8
0
 10
5.3877
 20
96.4782
 11
5.50557
 21
96.5217
  0
LINE
  8
0
 10
5.50557
 20
96.5217
 11
5.62648
 21
96.5558
  0
LINE
  8
0
 10
5.62648
 20
96.5558
 11
5.74969
 21
96.5803
  0
LINE
  8
0
 10
5.74969
 20
96.5803
 11
5.87445
 21
96.5951
  0
LINE
  8
0
 10
5.87445
 20
96.5951
 11
6
 21
96.6
  0
LINE
  8
0
 10
6
 20
96.6
 11
6.12553
 21
96.5951
  0
LINE
  8
0
 10
6.12553
 20
96.5951
 11
6.25029
 21
96.5803
  0
LINE
  8
0
 10
6.25029
 20
96.5803
 11
6.3735
 21
96.5558
  0
LINE
  8
0
 10
6.3735
 20
96.5558
 11
6.49442
 21
96.5217
  0
LINE
  8
0
 10
6.49442
 20
96.5217
 11
6.61229
 21
96.4782
  0
LINE
  8
0
 10
6.61229
 20
96.4782
 11
6.72638
 21
96.4256
  0
LINE
  8
0
 10
6.72638
 20
96.4256
 11
6.83598
 21
96.3642
  0
LINE
  8
0
 10
6.83598
 20
96.3642
 11
6.94044
 21
96.2944
  0
LINE
  8
0
 10
6.94044
 20
96.2944
 11
7.03911
 21
96.2166
  0
LINE
  8
0
 10
7.03911
 20
96.2166
 11
7.13136
 21
96.1314
  0
LINE
  8
0
 10
7.13136
 20
96.1314
 11
7.21664
 21
96.0391
  0
LINE
  8
0
 10
7.21664
 20
96.0391
 11
7.29442
 21
95.9404
  0
LINE
  8
0
 10
7.29442
 20
95.9404
 11
7.36421
 21
95.836
  0
LINE
  8
0
 10
7.36421
 20
95.836
 11
7.4256
 21
95.7264
  0
LINE
  8
0
 10
7.4256
 20
95.7264
 11
7.4782
 21
95.6123
  0
LINE
  8
0
 10
7.4782
 20
95.6123
 11
7.52168
 21
95.4944
  0
LINE
  8
0
 10
7.52168
 20
95.4944
 11
7.55579
 21
95.3735
  0
LINE
  8
0
 10
7.55579
 20
95.3735
 11
7.58029
 21
95.2503
  0
LINE
  8
0
 10
7.58029
 20
95.2503
 11
7.59506
 21
95.1255
  0
LINE
  8
0
 10
7.59506
 20
95.1255
 11
7.59999
 21
95
  0
LINE
  8
0
 10
7.59999
 20
95
 11
7.59506
 21
94.8745
  0
LINE
  8
0
 10
7.59506
 20
94.8745
 11
7.58029
 21
94.7497
  0
LINE
  8
0
 10
7.58029
 20
94.7497
 11
7.55579
 21
94.6265
  0
LINE
  8
0
 10
7.55579
 20
94.6265
 11
7.52168
 21
94.5056
  0
LINE
  8
0
 10
7.52168
 20
94.5056
 11
7.4782
 21
94.3877
  0
LINE
  8
0
 10
7.4782
 20
94.3877
 11
7.4256
 21
94.2736
  0
LINE
  8
0
 10
7.4256
 20
94.2736
 11
7.36421
 21
94.164
  0
LINE
  8
0
 10
7.36421
 20
94.164
 11
7.29442
 21
94.0595
  0
LINE
  8
0
 10
7.29442
 20
94.0595
 11
7.21664
 21
93.9609
  0
LINE
  8
0
 10
7.21664
 20
93.9609
 11
7.13136
 21
93.8686
  0
LINE
  8
0
 10
7.13136
 20
93.8686
 11
7.03911
 21
93.7833
  0
LINE
  8
0
 10
7.03911
 20
93.7833
 11
6.94044
 21
93.7056
  0
LINE
  8
0
 10
6.94044
 20
93.7056
 11
6.83598
 21
93.6358
  0
LINE
  8
0
 10
6.83598
 20
93.6358
 11
6.72638
 21
93.5744
  0
LINE
  8
0
 10
6.72638
 20
93.5744
 11
6.61229
 21
93.5218
  0
LINE
  8
0
 10
6.61229
 20
93.5218
 11
6.49442
 21
93.4783
  0
LINE
  8
0
 10
6.49442
 20
93.4783
 11
6.3735
 21
93.4442
  0
LINE
  8
0
 10
6.3735
 20
93.4442
 11
6.25029
 21
93.4197
  0
LINE
  8
0
 10
6.25029
 20
93.4197
 11
6.12553
 21
93.4049
  0
LINE
  8
0
 10
6.12553
 20
93.4049
 11
6
 21
93.4
  0
LINE
  8
0
 10
6
 20
93.4
 11
5.87445
 21
93.4049
  0
LINE
  8
0
 10
208.874
 20
93.4049
 11
208.75
 21
93.4197
  0
LINE
  8
0
 10
208.75
 20
93.4197
 11
208.626
 21
93.4442
  0
LINE
  8
0
 10
208.626
 20
93.4442
 11
208.506
 21
93.4783
  0
LINE
  8
0
 10
208.506
 20
93.4783
 11
208.388
 21
93.5218
  0
LINE
  8
0
 10
208.388
 20
93.5218
 11
208.274
 21
93.5744
  0
LINE
  8
0
 10
208.274
 20
93.5744
 11
208.164
 21
93.6358
  0
LINE
  8
0
 10
208.164
 20
93.6358
 11
208.06
 21
93.7056
  0
LINE
  8
0
 10
208.06
 20
93.7056
 11
207.961
 21
93.7833
  0
LINE
  8
0
 10
207.961
 20
93.7833
 11
207.869
 21
93.8686
  0
LINE
  8
0
 10
207.869
 20
93.8686
 11
207.783
 21
93.9609
  0
LINE
  8
0
 10
207.783
 20
93.9609
 11
207.706
 21
94.0595
  0
LINE
  8
0
 10
207.706
 20
94.0595
 11
207.636
 21
94.164
  0
LINE
  8
0
 10
207.636
 20
94.164
 11
207.574
 21
94.2736
  0
LINE
  8
0
 10
207.574
 20
94.2736
 11
207.522
 21
94.3877
  0
LINE
  8
0
 10
207.522
 20
94.3877
 11
207.478
 21
94.5056
  0
LINE
  8
0
 10
207.478
 20
94.5056
 11
207.444
 21
94.6265
  0
LINE
  8
0
 10
207.444
 20
94.6265
 11
207.42
 21
94.7497
  0
LINE
  8
0
 10
207.42
 20
94.7497
 11
207.405
 21
94.8745
  0
LINE
  8
0
 10
207.405
 20
94.8745
 11
207.4
 21
95
  0
LINE
  8
0
 10
207.4
 20
95
 11
207.405
 21
95.1255
  0
LINE
  8
0
 10
207.405
 20
95.1255
 11
207.42
 21
95.2503
  0
LINE
  8
0
 10
207.42
 20
95.2503
 11
207.444
 21
95.3735
  0
LINE
  8
0
 10
207.444
 20
95.3735
 11
207.478
 21
95.4944
  0
LINE
  8
0
 10
207.478
 20
95.4944
 11
207.522
 21
95.6123
  0
LINE
  8
0
 10
207.522
 20
95.6123
 11
207.574
 21
95.7264
  0
LINE
  8
0
 10
207.574
 20
95.7264
 11
207.636
 21
95.836
  0
LINE
  8
0
 10
207.636
 20
95.836
 11
207.706
 21
95.9404
  0
LINE
  8
0
 10
207.706
 20
95.9404
 11
207.783
 21
96.0391
  0
LINE
  8
0
 10
207.783
 20
96.0391
 11
207.869
 21
96.1314
  0
LINE
  8
0
 10
207.869
 20
96.1314
 11
207.961
 21
96.2166
  0
LINE
  8
0
 10
207.961
 20
96.2166
 11
208.06
 21
96.2944
  0
LINE
  8
0
 10
208.06
 20
96.2944
 11
208.164
 21
96.3642
  0
LINE
  8
0
 10
208.164
 20
96.3642
 11
208.274
 21
96.4256
  0
LINE
  8
0
 10
208.274
 20
96.4256
 11
208.388
 21
96.4782
  0
LINE
  8
0
 10
208.388
 20
96.4782
 11
208.506
 21
96.5217
  0
LINE
  8
0
 10
208.506
 20
96.5217
 11
208.626
 21
96.5558
  0
LINE
  8
0
 10
208.626
 20
96.5558
 11
208.75
 21
96.5803
  0
LINE
  8
0
 10
208.75
 20
96.5803
 11
208.874
 21
96.5951
  0
LINE
  8
0
 10
208.874
 20
96.5951
 11
209
 21
96.6
  0
LINE
  8
0
 10
209
 20
96.6
 11
209.126
 21
96.5951
  0
LINE
  8
0
 10
209.126
 20
96.5951
 11
209.25
 21
96.5803
  0
LINE
  8
0
 10
209.25
 20
96.5803
 11
209.374
 21
96.5558
  0
LINE
  8
0
 10
209.374
 20
96.5558
 11
209.494
 21
96.5217
  0
LINE
  8
0
 10
209.494
 20
96.5217
 11
209.612
 21
96.4782
  0
LINE
  8
0
 10
209.612
 20
96.4782
 11
209.726
 21
96.4256
  0
LINE
  8
0
 10
209.726
 20
96.4256
 11
209.836
 21
96.3642
  0
LINE
  8
0
 10
209.836
 20
96.3642
 11
209.94
 21
96.2944
  0
LINE
  8
0
 10
209.94
 20
96.2944
 11
210.039
 21
96.2166
  0
LINE
  8
0
 10
210.039
 20
96.2166
 11
210.131
 21
96.1314
  0
LINE
  8
0
 10
210.131
 20
96.1314
 11
210.217
 21
96.0391
  0
LINE
  8
0
 10
210.217
 20
96.0391
 11
210.294
 21
95.9404
  0
LINE
  8
0
 10
210.294
 20
95.9404
 11
210.364
 21
95.836
  0
LINE
  8
0
 10
210.364
 20
95.836
 11
210.426
 21
95.7264
  0
LINE
  8
0
 10
210.426
 20
95.7264
 11
210.478
 21
95.6123
  0
LINE
  8
0
 10
210.478
 20
95.6123
 11
210.522
 21
95.4944
  0
LINE
  8
0
 10
210.522
 20
95.4944
 11
210.556
 21
95.3735
  0
LINE
  8
0
 10
210.556
 20
95.3735
 11
210.58
 21
95.2503
  0
LINE
  8
0
 10
210.58
 20
95.2503
 11
210.595
 21
95.1255
  0
LINE
  8
0
 10
210.595
 20
95.1255
 11
210.6
 21
95
  0
LINE
  8
0
 10
210.6
 20
95
 11
210.595
 21
94.8745
  0
LINE
  8
0
 10
210.595
 20
94.8745
 11
210.58
 21
94.7497
  0
LINE
  8
0
 10
210.58
 20
94.7497
 11
210.556
 21
94.6265
  0
LINE
  8
0
 10
210.556
 20
94.6265
 11
210.522
 21
94.5056
  0
LINE
  8
0
 10
210.522
 20
94.5056
 11
210.478
 21
94.3877
  0
LINE
  8
0
 10
210.478
 20
94.3877
 11
210.426
 21
94.2736
  0
LINE
  8
0
 10
210.426
 20
94.2736
 11
210.364
 21
94.164
  0
LINE
  8
0
 10
210.364
 20
94.164
 11
210.294
 21
94.0595
  0
LINE
  8
0
 10
210.294
 20
94.0595
 11
210.217
 21
93.9609
  0
LINE
  8
0
 10
210.217
 20
93.9609
 11
210.131
 21
93.8686
  0
LINE
  8
0
 10
210.131
 20
93.8686
 11
210.039
 21
93.7833
  0
LINE
  8
0
 10
210.039
 20
93.7833
 11
209.94
 21
93.7056
  0
LINE
  8
0
 10
209.94
 20
93.7056
 11
209.836
 21
93.6358
  0
LINE
  8
0
 10
209.836
 20
93.6358
 11
209.726
 21
93.5744
  0
LINE
  8
0
 10
209.726
 20
93.5744
 11
209.612
 21
93.5218
  0
LINE
  8
0
 10
209.612
 20
93.5218
 11
209.494
 21
93.4783
  0
LINE
  8
0
 10
209.494
 20
93.4783
 11
209.374
 21
93.4442
  0
LINE
  8
0
 10
209.374
 20
93.4442
 11
209.25
 21
93.4197
  0
LINE
  8
0
 10
209.25
 20
93.4197
 11
209.126
 21
93.4049
  0
LINE
  8
0
 10
209.126
 20
93.4049
 11
209
 21
93.4
  0
LINE
  8
0
 10
209
 20
93.4
 11
208.874
 21
93.4049
  0
LINE
  8
0
 10
107.374
 20
4.40492
 11
107.25
 21
4.41969
  0
LINE
  8
0
 10
107.25
 20
4.41969
 11
107.126
 21
4.4442
  0
LINE
  8
0
 10
107.126
 20
4.4442
 11
107.006
 21
4.4783
  0
LINE
  8
0
 10
107.006
 20
4.4783
 11
106.888
 21
4.52179
  0
LINE
  8
0
 10
106.888
 20
4.52179
 11
106.774
 21
4.57439
  0
LINE
  8
0
 10
106.774
 20
4.57439
 11
106.664
 21
4.63577
  0
LINE
  8
0
 10
106.664
 20
4.63577
 11
106.56
 21
4.70557
  0
LINE
  8
0
 10
106.56
 20
4.70557
 11
106.461
 21
4.78334
  0
LINE
  8
0
 10
106.461
 20
4.78334
 11
106.369
 21
4.86862
  0
LINE
  8
0
 10
106.369
 20
4.86862
 11
106.283
 21
4.96088
  0
LINE
  8
0
 10
106.283
 20
4.96088
 11
106.206
 21
5.05954
  0
LINE
  8
0
 10
106.206
 20
5.05954
 11
106.136
 21
5.164
  0
LINE
  8
0
 10
106.136
 20
5.164
 11
106.074
 21
5.27361
  0
LINE
  8
0
 10
106.074
 20
5.27361
 11
106.022
 21
5.3877
  0
LINE
  8
0
 10
106.022
 20
5.3877
 11
105.978
 21
5.50557
  0
LINE
  8
0
 10
105.978
 20
5.50557
 11
105.944
 21
5.62648
  0
LINE
  8
0
 10
105.944
 20
5.62648
 11
105.92
 21
5.74969
  0
LINE
  8
0
 10
105.92
 20
5.74969
 11
105.905
 21
5.87445
  0
LINE
  8
0
 10
105.905
 20
5.87445
 11
105.9
 21
6
  0
LINE
  8
0
 10
105.9
 20
6
 11
105.905
 21
6.12553
  0
LINE
  8
0
 10
105.905
 20
6.12553
 11
105.92
 21
6.25029
  0
LINE
  8
0
 10
105.92
 20
6.25029
 11
105.944
 21
6.3735
  0
LINE
  8
0
 10
105.944
 20
6.3735
 11
105.978
 21
6.49442
  0
LINE
  8
0
 10
105.978
 20
6.49442
 11
106.022
 21
6.61229
  0
LINE
  8
0
 10
106.022
 20
6.61229
 11
106.074
 21
6.72638
  0
LINE
  8
0
 10
106.074
 20
6.72638
 11
106.136
 21
6.83598
  0
LINE
  8
0
 10
106.136
 20
6.83598
 11
106.206
 21
6.94044
  0
LINE
  8
0
 10
106.206
 20
6.94044
 11
106.283
 21
7.03911
  0
LINE
  8
0
 10
106.283
 20
7.03911
 11
106.369
 21
7.13136
  0
LINE
  8
0
 10
106.369
 20
7.13136
 11
106.461
 21
7.21664
  0
LINE
  8
0
 10
106.461
 20
7.21664
 11
106.56
 21
7.29442
  0
LINE
  8
0
 10
106.56
 20
7.29442
 11
106.664
 21
7.36421
  0
LINE
  8
0
 10
106.664
 20
7.36421
 11
106.774
 21
7.4256
  0
LINE
  8
0
 10
106.774
 20
7.4256
 11
106.888
 21
7.4782
  0
LINE
  8
0
 10
106.888
 20
7.4782
 11
107.006
 21
7.52168
  0
LINE
  8
0
 10
107.006
 20
7.52168
 11
107.126
 21
7.55579
  0
LINE
  8
0
 10
107.126
 20
7.55579
 11
107.25
 21
7.58029
  0
LINE
  8
0
 10
107.25
 20
7.58029
 11
107.374
 21
7.59506
  0
LINE
  8
0
 10
107.374
 20
7.59506
 11
107.5
 21
7.59999
  0
LINE
  8
0
 10
107.5
 20
7.59999
 11
107.626
 21
7.59506
  0
LINE
  8
0
 10
107.626
 20
7.59506
 11
107.75
 21
7.58029
  0
LINE
  8
0
 10
107.75
 20
7.58029
 11
107.874
 21
7.55579
  0
LINE
  8
0
 10
107.874
 20
7.55579
 11
107.994
 21
7.52168
  0
LINE
  8
0
 10
107.994
 20
7.52168
 11
108.112
 21
7.4782
  0
LINE
  8
0
 10
108.112
 20
7.4782
 11
108.226
 21
7.4256
  0
LINE
  8
0
 10
108.226
 20
7.4256
 11
108.336
 21
7.36421
  0
LINE
  8
0
 10
108.336
 20
7.36421
 11
108.44
 21
7.29442
  0
LINE
  8
0
 10
108.44
 20
7.29442
 11
108.539
 21
7.21664
  0
LINE
  8
0
 10
108.539
 20
7.21664
 11
108.631
 21
7.13136
  0
LINE
  8
0
 10
108.631
 20
7.13136
 11
108.717
 21
7.03911
  0
LINE
  8
0
 10
108.717
 20
7.03911
 11
108.794
 21
6.94044
  0
LINE
  8
0
 10
108.794
 20
6.94044
 11
108.864
 21
6.83598
  0
LINE
  8
0
 10
108.864
 20
6.83598
 11
108.926
 21
6.72638
  0
LINE
  8
0
 10
108.926
 20
6.72638
 11
108.978
 21
6.61229
  0
LINE
  8
0
 10
108.978
 20
6.61229
 11
109.022
 21
6.49442
  0
LINE
  8
0
 10
109.022
 20
6.49442
 11
109.056
 21
6.3735
  0
LINE
  8
0
 10
109.056
 20
6.3735
 11
109.08
 21
6.25029
  0
LINE
  8
0
 10
109.08
 20
6.25029
 11
109.095
 21
6.12553
  0
LINE
  8
0
 10
109.095
 20
6.12553
 11
109.1
 21
6
  0
LINE
  8
0
 10
109.1
 20
6
 11
109.095
 21
5.87445
  0
LINE
  8
0
 10
109.095
 20
5.87445
 11
109.08
 21
5.74969
  0
LINE
  8
0
 10
109.08
 20
5.74969
 11
109.056
 21
5.62648
  0
LINE
  8
0
 10
109.056
 20
5.62648
 11
109.022
 21
5.50557
  0
LINE
  8
0
 10
109.022
 20
5.50557
 11
108.978
 21
5.3877
  0
LINE
  8
0
 10
108.978
 20
5.3877
 11
108.926
 21
5.27361
  0
LINE
  8
0
 10
108.926
 20
5.27361
 11
108.864
 21
5.164
  0
LINE
  8
0
 10
108.864
 20
5.164
 11
108.794
 21
5.05954
  0
LINE
  8
0
 10
108.794
 20
5.05954
 11
108.717
 21
4.96088
  0
LINE
  8
0
 10
108.717
 20
4.96088
 11
108.631
 21
4.86862
  0
LINE
  8
0
 10
108.631
 20
4.86862
 11
108.539
 21
4.78334
  0
LINE
  8
0
 10
108.539
 20
4.78334
 11
108.44
 21
4.70557
  0
LINE
  8
0
 10
108.44
 20
4.70557
 11
108.336
 21
4.63577
  0
LINE
  8
0
 10
108.336
 20
4.63577
 11
108.226
 21
4.57439
  0
LINE
  8
0
 10
108.226
 20
4.57439
 11
108.112
 21
4.52179
  0
LINE
  8
0
 10
108.112
 20
4.52179
 11
107.994
 21
4.4783
  0
LINE
  8
0
 10
107.994
 20
4.4783
 11
107.874
 21
4.4442
  0
LINE
  8
0
 10
107.874
 20
4.4442
 11
107.75
 21
4.41969
  0
LINE
  8
0
 10
107.75
 20
4.41969
 11
107.626
 21
4.40492
  0
LINE
  8
0
 10
107.626
 20
4.40492
 11
107.5
 21
4.39999
  0
LINE
  8
0
 10
107.5
 20
4.39999
 11
107.374
 21
4.40492
  0
LINE
  8
0
 10
208.874
 20
4.40492
 11
208.75
 21
4.41969
  0
LINE
  8
0
 10
208.75
 20
4.41969
 11
208.626
 21
4.4442
  0
LINE
  8
0
 10
208.626
 20
4.4442
 11
208.506
 21
4.4783
  0
LINE
  8
0
 10
208.506
 20
4.4783
 11
208.388
 21
4.52179
  0
LINE
  8
0
 10
208.388
 20
4.52179
 11
208.274
 21
4.57439
  0
LINE
  8
0
 10
208.274
 20
4.57439
 11
208.164
 21
4.63577
  0
LINE
  8
0
 10
208.164
 20
4.63577
 11
208.06
 21
4.70557
  0
LINE
  8
0
 10
208.06
 20
4.70557
 11
207.961
 21
4.78334
  0
LINE
  8
0
 10
207.961
 20
4.78334
 11
207.869
 21
4.86862
  0
LINE
  8
0
 10
207.869
 20
4.86862
 11
207.783
 21
4.96088
  0
LINE
  8
0
 10
207.783
 20
4.96088
 11
207.706
 21
5.05954
  0
LINE
  8
0
 10
207.706
 20
5.05954
 11
207.636
 21
5.164
  0
LINE
  8
0
 10
207.636
 20
5.164
 11
207.574
 21
5.27361
  0
LINE
  8
0
 10
207.574
 20
5.27361
 11
207.522
 21
5.3877
  0
LINE
  8
0
 10
207.522
 20
5.3877
 11
207.478
 21
5.50557
  0
LINE
  8
0
 10
207.478
 20
5.50557
 11
207.444
 21
5.62648
  0
LINE
  8
0
 10
207.444
 20
5.62648
 11
207.42
 21
5.74969
  0
LINE
  8
0
 10
207.42
 20
5.74969
 11
207.405
 21
5.87445
  0
LINE
  8
0
 10
207.405
 20
5.87445
 11
207.4
 21
6
  0
LINE
  8
0
 10
207.4
 20
6
 11
207.405
 21
6.12553
  0
LINE
  8
0
 10
207.405
 20
6.12553
 11
207.42
 21
6.25029
  0
LINE
  8
0
 10
207.42
 20
6.25029
 11
207.444
 21
6.3735
  0
LINE
  8
0
 10
207.444
 20
6.3735
 11
207.478
 21
6.49442
  0
LINE
  8
0
 10
207.478
 20
6.49442
 11
207.522
 21
6.61229
  0
LINE
  8
0
 10
207.522
 20
6.61229
 11
207.574
 21
6.72638
  0
LINE
  8
0
 10
207.574
 20
6.72638
 11
207.636
 21
6.83598
  0
LINE
  8
0
 10
207.636
 20
6.83598
 11
207.706
 21
6.94044
  0
LINE
  8
0
 10
207.706
 20
6.94044
 11
207.783
 21
7.03911
  0
LINE
  8
0
 10
207.783
 20
7.03911
 11
207.869
 21
7.13136
  0
LINE
  8
0
 10
207.869
 20
7.13136
 11
207.961
 21
7.21664
  0
LINE
  8
0
 10
207.961
 20
7.21664
 11
208.06
 21
7.29442
  0
LINE
  8
0
 10
208.06
 20
7.29442
 11
208.164
 21
7.36421
  0
LINE
  8
0
 10
208.164
 20
7.36421
 11
208.274
 21
7.4256
  0
LINE
  8
0
 10
208.274
 20
7.4256
 11
208.388
 21
7.4782
  0
LINE
  8
0
 10
208.388
 20
7.4782
 11
208.506
 21
7.52168
  0
LINE
  8
0
 10
208.506
 20
7.52168
 11
208.626
 21
7.55579
  0
LINE
  8
0
 10
208.626
 20
7.55579
 11
208.75
 21
7.58029
  0
LINE
  8
0
 10
208.75
 20
7.58029
 11
208.874
 21
7.59506
  0
LINE
  8
0
 10
208.874
 20
7.59506
 11
209
 21
7.59999
  0
LINE
  8
0
 10
209
 20
7.59999
 11
209.126
 21
7.59506
  0
LINE
  8
0
 10
209.126
 20
7.59506
 11
209.25
 21
7.58029
  0
LINE
  8
0
 10
209.25
 20
7.58029
 11
209.374
 21
7.55579
  0
LINE
  8
0
 10
209.374
 20
7.55579
 11
209.494
 21
7.52168
  0
LINE
  8
0
 10
209.494
 20
7.52168
 11
209.612
 21
7.4782
  0
LINE
  8
0
 10
209.612
 20
7.4782
 11
209.726
 21
7.4256
  0
LINE
  8
0
 10
209.726
 20
7.4256
 11
209.836
 21
7.36421
  0
LINE
  8
0
 10
209.836
 20
7.36421
 11
209.94
 21
7.29442
  0
LINE
  8
0
 10
209.94
 20
7.29442
 11
210.039
 21
7.21664
  0
LINE
  8
0
 10
210.039
 20
7.21664
 11
210.131
 21
7.13136
  0
LINE
  8
0
 10
210.131
 20
7.13136
 11
210.217
 21
7.03911
  0
LINE
  8
0
 10
210.217
 20
7.03911
 11
210.294
 21
6.94044
  0
LINE
  8
0
 10
210.294
 20
6.94044
 11
210.364
 21
6.83598
  0
LINE
  8
0
 10
210.364
 20
6.83598
 11
210.426
 21
6.72638
  0
LINE
  8
0
 10
210.426
 20
6.72638
 11
210.478
 21
6.61229
  0
LINE
  8
0
 10
210.478
 20
6.61229
 11
210.522
 21
6.49442
  0
LINE
  8
0
 10
210.522
 20
6.49442
 11
210.556
 21
6.3735
  0
LINE
  8
0
 10
210.556
 20
6.3735
 11
210.58
 21
6.25029
  0
LINE
  8
0
 10
210.58
 20
6.25029
 11
210.595
 21
6.12553
  0
LINE
  8
0
 10
210.595
 20
6.12553
 11
210.6
 21
6
  0
LINE
  8
0
 10
210.6
 20
6
 11
210.595
 21
5.87445
  0
LINE
  8
0
 10
210.595
 20
5.87445
 11
210.58
 21
5.74969
  0
LINE
  8
0
 10
210.58
 20
5.74969
 11
210.556
 21
5.62648
  0
LINE
  8
0
 10
210.556
 20
5.62648
 11
210.522
 21
5.50557
  0
LINE
  8
0
 10
210.522
 20
5.50557
 11
210.478
 21
5.3877
  0
LINE
  8
0
 10
210.478
 20
5.3877
 11
210.426
 21
5.27361
  0
LINE
  8
0
 10
210.426
 20
5.27361
 11
210.364
 21
5.164
  0
LINE
  8
0
 10
210.364
 20
5.164
 11
210.294
 21
5.05954
  0
LINE
  8
0
 10
210.294
 20
5.05954
 11
210.217
 21
4.96088
  0
LINE
  8
0
 10
210.217
 20
4.96088
 11
210.131
 21
4.86862
  0
LINE
  8
0
 10
210.131
 20
4.86862
 11
210.039
 21
4.78334
  0
LINE
  8
0
 10
210.039
 20
4.78334
 11
209.94
 21
4.70557
  0
LINE
  8
0
 10
209.94
 20
4.70557
 11
209.836
 21
4.63577
  0
LINE
  8
0
 10
209.836
 20
4.63577
 11
209.726
 21
4.57439
  0
LINE
  8
0
 10
209.726
 20
4.57439
 11
209.612
 21
4.52179
  0
LINE
  8
0
 10
209.612
 20
4.52179
 11
209.494
 21
4.4783
  0
LINE
  8
0
 10
209.494
 20
4.4783
 11
209.374
 21
4.4442
  0
LINE
  8
0
 10
209.374
 20
4.4442
 11
209.25
 21
4.41969
  0
LINE
  8
0
 10
209.25
 20
4.41969
 11
209.126
 21
4.40492
  0
LINE
  8
0
 10
209.126
 20
4.40492
 11
209
 21
4.39999
  0
LINE
  8
0
 10
209
 20
4.39999
 11
208.874
 21
4.40492
  0
LINE
  8
0
 10
5.87445
 20
4.40492
 11
5.74969
 21
4.41969
  0
LINE
  8
0
 10
5.74969
 20
4.41969
 11
5.62648
 21
4.4442
  0
LINE
  8
0
 10
5.62648
 20
4.4442
 11
5.50557
 21
4.4783
  0
LINE
  8
0
 10
5.50557
 20
4.4783
 11
5.3877
 21
4.52179
  0
LINE
  8
0
 10
5.3877
 20
4.52179
 11
5.27361
 21
4.57439
  0
LINE
  8
0
 10
5.27361
 20
4.57439
 11
5.164
 21
4.63577
  0
LINE
  8
0
 10
5.164
 20
4.63577
 11
5.05954
 21
4.70557
  0
LINE
  8
0
 10
5.05954
 20
4.70557
 11
4.96088
 21
4.78334
  0
LINE
  8
0
 10
4.96088
 20
4.78334
 11
4.86862
 21
4.86862
  0
LINE
  8
0
 10
4.86862
 20
4.86862
 11
4.78334
 21
4.96088
  0
LINE
  8
0
 10
4.78334
 20
4.96088
 11
4.70557
 21
5.05954
  0
LINE
  8
0
 10
4.70557
 20
5.05954
 11
4.63577
 21
5.164
  0
LINE
  8
0
 10
4.63577
 20
5.164
 11
4.57439
 21
5.27361
  0
LINE
  8
0
 10
4.57439
 20
5.27361
 11
4.52179
 21
5.3877
  0
LINE
  8
0
 10
4.52179
 20
5.3877
 11
4.4783
 21
5.50557
  0
LINE
  8
0
 10
4.4783
 20
5.50557
 11
4.4442
 21
5.62648
  0
LINE
  8
0
 10
4.4442
 20
5.62648
 11
4.41969
 21
5.74969
  0
LINE
  8
0
 10
4.41969
 20
5.74969
 11
4.40492
 21
5.87445
  0
LINE
  8
0
 10
4.40492
 20
5.87445
 11
4.39999
 21
6
  0
LINE
  8
0
 10
4.39999
 20
6
 11
4.40492
 21
6.12553
  0
LINE
  8
0
 10
4.40492
 20
6.12553
 11
4.41969
 21
6.25029
  0
LINE
  8
0
 10
4.41969
 20
6.25029
 11
4.4442
 21
6.3735
  0
LINE
  8
0
 10
4.4442
 20
6.3735
 11
4.4783
 21
6.49442
  0
LINE
  8
0
 10
4.4783
 20
6.49442
 11
4.52179
 21
6.61229
  0
LINE
  8
0
 10
4.52179
 20
6.61229
 11
4.57439
 21
6.72638
  0
LINE
  8
0
 10
4.57439
 20
6.72638
 11
4.63577
 21
6.83598
  0
LINE
  8
0
 10
4.63577
 20
6.83598
 11
4.70557
 21
6.94044
  0
LINE
  8
0
 10
4.70557
 20
6.94044
 11
4.78334
 21
7.03911
  0
LINE
  8
0
 10
4.78334
 20
7.03911
 11
4.86862
 21
7.13136
  0
LINE
  8
0
 10
4.86862
 20
7.13136
 11
4.96088
 21
7.21664
  0
LINE
  8
0
 10
4.96088
 20
7.21664
 11
5.05954
 21
7.29442
  0
LINE
  8
0
 10
5.05954
 20
7.29442
 11
5.164
 21
7.36421
  0
LINE
  8
0
 10
5.164
 20
7.36421
 11
5.27361
 21
7.4256
  0
LINE
  8
0
 10
5.27361
 20
7.4256
 11
5.3877
 21
7.4782
  0
LINE
  8
0
 10
5.3877
 20
7.4782
 11
5.50557
 21
7.52168
  0
LINE
  8
0
 10
5.50557
 20
7.52168
 11
5.62648
 21
7.55579
  0
LINE
  8
0
 10
5.62648
 20
7.55579
 11
5.74969
 21
7.58029
  0
LINE
  8
0
 10
5.74969
 20
7.58029
 11
5.87445
 21
7.59506
  0
LINE
  8
0
 10
5.87445
 20
7.59506
 11
6
 21
7.59999
  0
LINE
  8
0
 10
6
 20
7.59999
 11
6.12553
 21
7.59506
  0
LINE
  8
0
 10
6.12553
 20
7.59506
 11
6.25029
 21
7.58029
  0
LINE
  8
0
 10
6.25029
 20
7.58029
 11
6.3735
 21
7.55579
  0
LINE
  8
0
 10
6.3735
 20
7.55579
 11
6.49442
 21
7.52168
  0
LINE
  8
0
 10
6.49442
 20
7.52168
 11
6.61229
 21
7.4782
  0
LINE
  8
0
 10
6.61229
 20
7.4782
 11
6.72638
 21
7.4256
  0
LINE
  8
0
 10
6.72638
 20
7.4256
 11
6.83598
 21
7.36421
  0
LINE
  8
0
 10
6.83598
 20
7.36421
 11
6.94044
 21
7.29442
  0
LINE
  8
0
 10
6.94044
 20
7.29442
 11
7.03911
 21
7.21664
  0
LINE
  8
0
 10
7.03911
 20
7.21664
 11
7.13136
 21
7.13136
  0
LINE
  8
0
 10
7.13136
 20
7.13136
 11
7.21664
 21
7.03911
  0
LINE
  8
0
 10
7.21664
 20
7.03911
 11
7.29442
 21
6.94044
  0
LINE
  8
0
 10
7.29442
 20
6.94044
 11
7.36421
 21
6.83598
  0
LINE
  8
0
 10
7.36421
 20
6.83598
 11
7.4256
 21
6.72638
  0
LINE
  8
0
 10
7.4256
 20
6.72638
 11
7.4782
 21
6.61229
  0
LINE
  8
0
 10
7.4782
 20
6.61229
 11
7.52168
 21
6.49442
  0
LINE
  8
0
 10
7.52168
 20
6.49442
 11
7.55579
 21
6.3735
  0
LINE
  8
0
 10
7.55579
 20
6.3735
 11
7.58029
 21
6.25029
  0
LINE
  8
0
 10
7.58029
 20
6.25029
 11
7.59506
 21
6.12553
  0
LINE
  8
0
 10
7.59506
 20
6.12553
 11
7.59999
 21
6
  0
LINE
  8
0
 10
7.59999
 20
6
 11
7.59506
 21
5.87445
  0
LINE
  8
0
 10
7.59506
 20
5.87445
 11
7.58029
 21
5.74969
  0
LINE
  8
0
 10
7.58029
 20
5.74969
 11
7.55579
 21
5.62648
  0
LINE
  8
0
 10
7.55579
 20
5.62648
 11
7.52168
 21
5.50557
  0
LINE
  8
0
 10
7.52168
 20
5.50557
 11
7.4782
 21
5.3877
  0
LINE
  8
0
 10
7.4782
 20
5.3877
 11
7.4256
 21
5.27361
  0
LINE
  8
0
 10
7.4256
 20
5.27361
 11
7.36421
 21
5.164
  0
LINE
  8
0
 10
7.36421
 20
5.164
 11
7.29442
 21
5.05954
  0
LINE
  8
0
 10
7.29442
 20
5.05954
 11
7.21664
 21
4.96088
  0
LINE
  8
0
 10
7.21664
 20
4.96088
 11
7.13136
 21
4.86862
  0
LINE
  8
0
 10
7.13136
 20
4.86862
 11
7.03911
 21
4.78334
  0
LINE
  8
0
 10
7.03911
 20
4.78334
 11
6.94044
 21
4.70557
  0
LINE
  8
0
 10
6.94044
 20
4.70557
 11
6.83598
 21
4.63577
  0
LINE
  8
0
 10
6.83598
 20
4.63577
 11
6.72638
 21
4.57439
  0
LINE
  8
0
 10
6.72638
 20
4.57439
 11
6.61229
 21
4.52179
  0
LINE
  8
0
 10
6.61229
 20
4.52179
 11
6.49442
 21
4.4783
  0
LINE
  8
0
 10
6.49442
 20
4.4783
 11
6.3735
 21
4.4442
  0
LINE
  8
0
 10
6.3735
 20
4.4442
 11
6.25029
 21
4.41969
  0
LINE
  8
0
 10
6.25029
 20
4.41969
 11
6.12553
 21
4.40492
  0
LINE
  8
0
 10
6.12553
 20
4.40492
 11
6
 21
4.39999
  0
LINE
  8
0
 10
6
 20
4.39999
 11
5.87445
 21
4.40492
  0
ENDSEC
  0
SECTION
  2
OBJECTS
  0
DICTIONARY
  0
ENDSEC
  0
EOF
